<svg height="44" width="138" xmlns="http://www.w3.org/2000/svg"><linearGradient id="a" x1="113.843%" x2="26.123%" y1="7.08%" y2="65.535%"><stop offset="0" stop-color="#fff"/><stop offset="1" stop-color="#fff" stop-opacity="0"/></linearGradient><radialGradient id="b" cx="50%" cy="50%" r="50%"><stop offset="0" stop-color="#eee"/><stop offset="1" stop-color="#fff" stop-opacity="0"/></radialGradient><g fill="none" fill-rule="evenodd"><circle cx="22" cy="22" fill="#74c9e6" fill-rule="nonzero" r="22"/><path d="M38.005 6.897l-2.326 1.55-3.876-.775-2.325-.775-3.1.775-2.326-.775 1.55-3.1h3.101l3.039-1.52a22.196 22.196 0 0 1 6.263 4.62M1.289 14.563A22.069 22.069 0 0 1 13.534 1.688l1.992 1.333 4.65.775-.775 2.326-2.325.775-2.325 3.876-3.876 2.325-5.426.775V16.2L7 17.749v3.1L4.674 19.3l-2.325-1.55zM21.727 25.5l-.775 3.876-3.1 3.1v2.326l-3.101 2.325v3.875l-2.326-.775-1.55-3.875V28.6l-3.876-.775-1.55-3.101V22.4L7 20.85l2.326-2.326 1.55 3.1h5.426l2.325 3.876zm18.024 9.498l-1.746-1.746v-3.1l-1.55-3.102-1.55-3.1v-3.101l-2.326-1.55-3.101.775-5.426-2.325-.775-5.426 2.326-2.326h4.65l1.55 2.326 4.651.775 4.651-1.55.197-.112A21.901 21.901 0 0 1 44 22c0 4.862-1.577 9.356-4.249 12.998z" fill="#00b364"/><path d="M0 19.93c.038 10.937 8.915 19.792 19.86 19.792 1.833 0 3.607-.25 5.292-.714-.82.103-1.658.2-2.505.156-9.084-.462-18.146-8.26-18.425-19.225C3.943 9 8.857 3.338 17.285.183A20.18 20.18 0 0 1 20 0c11.046 0 20 8.954 20 20s-8.954 20-20 20S0 31.046 0 20v-.07z" fill="url(#a)" fill-rule="nonzero" opacity=".575" transform="translate(2 2)"/><path d="M19.355 2.157C9.57 3.389 2 11.74 2 21.86c0 10.969 8.892 19.86 19.86 19.86 1.833 0 3.607-.249 5.292-.713-.82.103-1.658.2-2.505.156-9.084-.462-18.146-8.26-18.425-19.225-.28-10.97 4.662-16.632 13.133-19.782z" fill="#101b30" opacity=".102"/><circle cx="30" cy="12" fill="url(#b)" fill-rule="nonzero" opacity=".75" r="9"/><path d="M17.008 17.504c0-2.37-2.248 2.158-5.022 2.158s-5.023-4.528-5.023-2.158c0 2.37 1.195 5.37 5.023 5.37 3.734 0 5.022-3 5.022-5.37M8.06 13.496s.717-.114 1.727-.343c1.364-.31 3.265-.83 4.66-1.558 2.425-1.268 1.799 2.132-2.929 3.099-4.727.966-4.685-.963-3.457-1.198m18.193 4.008c0-2.37 2.25 2.158 5.023 2.158s5.023-4.528 5.023-2.158c0 2.37-1.196 5.37-5.023 5.37-3.734 0-5.023-3-5.023-5.37m8.948-4.008s-.716-.114-1.726-.343c-1.364-.31-3.265-.83-4.66-1.558-2.425-1.268-1.799 2.132 2.928 3.099s4.686-.963 3.458-1.198m-10.545 16.87h-6.05a1.603 1.603 0 0 1-1.599-1.598c0-.879.72-1.598 1.598-1.598h6.05c.88 0 1.598.72 1.598 1.598 0 .879-.719 1.598-1.598 1.598" fill="#101b30"/><g fill-rule="nonzero"><path d="M67.357 15.041c-.05.747-.209 1.444-.475 2.09s-.646 1.206-1.14 1.681-1.108.85-1.843 1.121-1.59.409-2.565.409c-1.102 0-2.058-.171-2.869-.513s-1.482-.823-2.014-1.444-.931-1.365-1.197-2.233c-.266-.867-.399-1.82-.399-2.859 0-1.064.136-2.036.408-2.917s.684-1.637 1.235-2.27a5.666 5.666 0 0 1 2.052-1.482c.818-.355 1.777-.532 2.879-.532 1.672 0 2.98.415 3.923 1.244.944.83 1.543 2.011 1.796 3.544l-3.629.418c-.063-.291-.146-.564-.247-.817s-.237-.472-.408-.656a1.838 1.838 0 0 0-.637-.437 2.325 2.325 0 0 0-.912-.161c-1.735 0-2.603 1.324-2.603 3.971 0 .735.063 1.358.19 1.871.127.514.307.928.541 1.245.235.317.513.545.837.684.323.14.68.209 1.073.209 1.33 0 2.09-.722 2.28-2.166zm1.729-8.607h3.648v10.469h6.004L78.415 20h-9.33zm11.323 0h3.648V20H80.41zM97.414 20v-7.467L95.001 20h-2.66l-2.413-7.505V20h-3.363V6.434h4.237l2.907 9.082 2.926-9.082h4.218V20zm13.832-13.566L115.958 20h-3.781l-.78-2.603h-4.578l-.76 2.603h-3.667l4.712-13.566zm-3.534 8.056h2.793l-1.387-4.674zm10.981-4.959h-3.914V6.434h11.476v3.097h-3.914V20h-3.648zm9.253-3.097h9.71v3.002h-6.157v2.166h5.776v3.002H131.5v2.394h6.555L137.75 20h-9.804z" fill="#101b30"/><path d="M67.357 34.041c-.05.747-.209 1.444-.475 2.09s-.646 1.206-1.14 1.681-1.108.85-1.843 1.122-1.59.408-2.565.408c-1.102 0-2.058-.171-2.869-.513s-1.482-.823-2.014-1.444-.931-1.365-1.197-2.232-.399-1.821-.399-2.86c0-1.064.136-2.036.408-2.917s.684-1.637 1.235-2.27a5.666 5.666 0 0 1 2.052-1.482c.818-.355 1.777-.532 2.879-.532 1.672 0 2.98.415 3.923 1.245.944.83 1.543 2.01 1.796 3.543l-3.629.418c-.063-.291-.146-.564-.247-.817s-.237-.472-.408-.655c-.172-.184-.384-.33-.637-.437s-.557-.162-.912-.162c-1.735 0-2.603 1.324-2.603 3.971 0 .735.063 1.358.19 1.871s.307.928.541 1.245c.235.317.513.545.837.684.323.14.68.209 1.073.209 1.33 0 2.09-.722 2.28-2.166zm1.729-8.607h3.648v4.921h4.408v-4.921h3.648V39h-3.648v-5.358h-4.408V39h-3.648zm20.443-.342c1.064 0 2.008.165 2.831.494.824.33 1.517.798 2.08 1.406s.992 1.349 1.283 2.223.437 1.856.437 2.945c0 1.102-.148 2.096-.446 2.983-.298.887-.732 1.64-1.302 2.261a5.7 5.7 0 0 1-2.109 1.435c-.836.335-1.792.503-2.869.503-1.064 0-2.007-.165-2.83-.494-.824-.33-1.517-.798-2.081-1.406s-.991-1.349-1.283-2.223-.437-1.856-.437-2.945c0-1.102.15-2.096.447-2.983.298-.887.731-1.64 1.301-2.261a5.7 5.7 0 0 1 2.11-1.434c.835-.336 1.792-.504 2.868-.504zm-2.945 7.125c0 1.305.241 2.296.722 2.974.482.677 1.21 1.016 2.185 1.016s1.7-.339 2.176-1.016c.475-.678.712-1.67.712-2.974s-.237-2.296-.712-2.973c-.475-.678-1.2-1.017-2.176-1.017s-1.703.339-2.185 1.017c-.481.677-.722 1.668-.722 2.973zm11.59-6.783h3.648V39h-3.648zm18.164 8.607a6.63 6.63 0 0 1-.475 2.09 4.886 4.886 0 0 1-1.14 1.681c-.494.476-1.109.85-1.843 1.122-.735.272-1.59.408-2.565.408-1.102 0-2.059-.171-2.87-.513a5.336 5.336 0 0 1-2.013-1.444c-.532-.62-.931-1.365-1.197-2.232-.266-.868-.4-1.821-.4-2.86 0-1.064.137-2.036.41-2.917s.683-1.637 1.234-2.27c.551-.633 1.235-1.127 2.052-1.482s1.777-.532 2.879-.532c1.672 0 2.98.415 3.923 1.245s1.542 2.01 1.796 3.543l-3.63.418a5.133 5.133 0 0 0-.246-.817 2.089 2.089 0 0 0-.409-.655c-.17-.184-.383-.33-.636-.437s-.558-.162-.912-.162c-1.736 0-2.603 1.324-2.603 3.971 0 .735.063 1.358.19 1.871s.307.928.541 1.245c.235.317.513.545.836.684s.681.209 1.074.209c1.33 0 2.09-.722 2.28-2.166zm1.728-8.607h9.71v3.002h-6.157v2.166h5.776v3.002h-5.776v2.394h6.555L127.87 39h-9.804z" fill="#00b364"/></g></g></svg>