<svg height="380" width="373" xmlns="http://www.w3.org/2000/svg" xmlns:xlink="http://www.w3.org/1999/xlink"><defs><path id="b" d="M63 185h154v39H33V19h30z"/><filter id="a" height="124.4%" width="125.5%" x="-7.9%" y="-18.3%"><feOffset dx="9" dy="-14" in="SourceAlpha" result="shadowOffsetOuter1"/><feGaussianBlur in="shadowOffsetOuter1" result="shadowBlurOuter1" stdDeviation="5.5"/><feColorMatrix in="shadowBlurOuter1" values="0 0 0 0 0 0 0 0 0 0 0 0 0 0 0 0 0 0 0.13 0"/></filter></defs><g fill="none" fill-rule="evenodd"><path d="M185.926 367.149c94.481 0 171.074-76.594 171.074-171.076C357 101.59 280.407 25 185.926 25 91.444 25 14.85 101.59 14.85 196.073c0 94.482 76.593 171.076 171.075 171.076z" fill="#29426f" fill-rule="nonzero"/><path d="M77.412 297.698l2.48 11.85c2.92 1.804 5.803 3.606 8.763 5.39 1.781-1.17 4.48-2.593 6.065-3.708 2.358-1.658 2.666-3.786.785-5.671-1.752-2.307-3.647-4.365-5.516-6.603-1.87-2.24-3.808-4.577-5.676-6.847a1193.63 1193.63 0 0 0-6.9 5.59" fill="#3a332c"/><path d="M91.46 161.358c-4.403 22.072-3.867 40.7-4.566 63.633-.7 22.933.76 48.492 4.338 71.885-5.12 1.5-9.823 2.89-14.602 4.013-8.304-24.22-15.326-52.24-19.992-76.383-4.667-24.144-7.952-43.872-7.22-67.61 13.948 1.689 27.794 2.824 42.042 4.462" fill="#6e6255"/><path d="M30 195.529C30 110.185 99.185 41 184.53 41c85.343 0 154.528 69.185 154.528 154.529s-69.185 154.529-154.529 154.529S30 280.873 30 195.528" fill="#90d4eb"/><path d="M264.133 63.054c44.896 27.036 74.925 76.249 74.925 132.475 0 85.344-69.185 154.529-154.529 154.529-57.25 0-107.23-31.134-133.93-77.394 24.906 17.87 55.443 28.392 88.437 28.392 83.874 0 151.868-67.994 151.868-151.869 0-31.983-9.887-61.657-26.77-86.133z" fill="#69bedb"/><path d="M219.65 46.268c2.958.53 5.885 1.113 8.78 1.756z" fill="#9db74c"/><path d="M224.917 58.825c.453.399.903.81 1.352 1.226l.404-.843c-.632 0-1.206-.156-1.756-.383m-7.024 8.13c4.844 0 12.1 7.543 15.825 5.203 5.125-3.22 3.859-6.233 5.247-7.928a151.657 151.657 0 0 0-11.325-3.914l-9.747 6.64m7.024-8.396c-1.743-.618-3.5-1.204-5.268-1.756a17.879 17.879 0 0 0 5.268 1.756" fill="#a9c14b"/><path d="M70.167 283.33c-18.576-24.132-29.63-54.357-29.63-87.17 0-48.837 24.477-91.948 61.823-117.745l.002-.001c1.524 2.993 4.682 11.271 4.718 12.037.255 5.312-3.365 7.411-6.05 12.46-.196.37-.388.744-.576 1.123-30.19 26.219-49.279 64.89-49.279 108.025 0 25.952 6.911 50.288 18.992 71.27m211.03-184.96c-1.755-1.348-3.63-2.42-5.448-3.688l.614.219c.003 0 .017.002.043.002.087 0 .3-.005.609-.008.306-.005.704-.008 1.164-.008.49 0 2.168.004 2.76.018.043.12 1.656 1.816 1.708 1.955.476 1.29-.305 1.768.068 2.889zm-26.663-15.93a141.684 141.684 0 0 0-32.998-10.737c-.663-.606-1.327-.861-1.972-.861-.408 0-.81.102-1.198.282a143.918 143.918 0 0 0-23.35-2.046c.888-1.12.217-3.192.971-3.192 6.964 0 15.173-2.165 18.98-7.781-.512 0-3.337.018-5.838.018-2.146 0-4.052-.014-4.052-.065 0-1.327-.236-2.44-.249-3.286h.003a142.097 142.097 0 0 1 16.037 3.36 16.91 16.91 0 0 0 4.57 1.318c.637.195 1.27.395 1.903.598l-9.517 6.919c.128 0 .259.006.391.018 4.072.347 9.689 5.874 13.428 5.874.6 0 1.15-.14 1.64-.469 5.001-3.355 3.77-6.493 5.122-8.26a142.317 142.317 0 0 1 16.109 7.944l.002.001.001.002c1.194 4.036 2.157 9.442.535 10.11-.16.067-.333.15-.518.253m-75.496-22.583a602.82 602.82 0 0 1-2.455-.004h-.429c-1.458 0-1.797-2.925-.965-3.694.133-.122 1.293-.163 2.684-.163 2.646 0 6.133.147 5.018.162 5.005-.008 6.135-.282 6.353-2.865h.001c2.91.116 5.801.312 8.664.599h.002c.335 5.655-11.53 5.965-18.873 5.965m-16.596-2.617c-1.085-.246-3.132-.94-5.37-1.63.952-.178 1.909-.345 2.867-.503l2.503 2.133" fill="#ace2f4"/><path d="M232.042 72.608c-3.828 0-9.58-5.304-13.748-5.637 4.168.333 9.92 5.637 13.748 5.637.614 0 1.177-.136 1.678-.45 5.122-3.219 3.858-6.232 5.24-7.928l.005.002c-1.384 1.696-.123 4.707-5.245 7.926-.5.315-1.064.45-1.678.45m-14.149-5.654l9.745-6.638-9.745 6.638" fill="#afc558"/><path d="M182.102 55.925l-.414.002c.163 0 .3 0 .414-.002" fill="#c7d79b"/><g fill="#00b364"><path d="M225.308 51.83c1.923-1.344 3.753-3.224 4.449-4.11-2.695-.817-4.72-1.463-7.474-2.135-.201.063-1.7.81-1.894.877-3.735 1.305-4.282 1.44-3.67 3.791-1.45-.582-2.839-1.255-4.116-2.037h-17.89c10.655 11.745-8.13 11.719-17.083 11.694-.57-.002-1.1-.004-1.58-.002-1.466.004-1.808-2.926-.972-3.695.386-.355 9.44-.024 7.731 0 7.304-.011 6.388-.586 6.388-7.997-7.261 5.336-7.009 0-15.244 0-7.724 0-11.514.424-18.29 3.458 2.207 1.874 4.412 3.747 6.62 5.62-2.779-.627-11.84-4.17-14.316-3.119-1.153.49-1.45 3.551-2.875 3.551-5.755 0-21.416 3.137-21.416-3.44 0-.03-.544-.553-.724-.578-14.209 6.058-26.808 14.254-38.447 24.057 7.448-1.223 15.2-.37 16.742-.37.686 0 5.417 12.173 5.463 13.11.256 5.31-3.379 7.41-6.073 12.458-4.905 9.193-7.071 21.233-6.523 31.555.02.373 6.178 5.895 6.178 8.084 0 9.164.963 9.312 7.28 16.064v-11.24c3.765 9.84 8.318 13.628 11.72 23.256 3.86 10.925 19.114 2.534 24.297 9.73 2.282 3.17 6.54 1.717 8.574 4.81l5.52 8.396c3.326 5.06 7.382 3.306 13.326 3.306 5.71 0-5.196 19.659-5.196 21.315 0 6.816 9.336 22.334 9.278 25.064-.174 8.093 9.968 9.228 15.473 14.213 4.409 4.02 1.265 15.406 1.129 20.455-.117 4.258.803 8.079 2.11 11.752 1.201 3.381 2.725 6.636 4.094 9.98.238.585.473 1.173.7 1.765.098.259.19.522.285.782.182.496.358.993.527 1.495a40.127 40.127 0 0 1 .728 2.415c.07.253.142.504.205.76.196.782.374 1.574.515 2.383.723 4.143-.874 8.611.05 12.58.95 4.079 4.463 6.616 4.41 11.124-.08 6.963 19.564 8.27 23.369 8.27-.018-.01-14.34-7.412-14.34-6.524 0-6.608 3.412-6.148 3.413-10.178.002-4.787-4.358-8.73-1.635-15.504 2.945-7.323 2.612-7.101 10.576-7.101a47.283 47.283 0 0 0-1.543-9.943c7.116-11.054 23.673-21.69 28.056-24.673 5.952-4.055 2.62-14.997 5.194-20.827 2.263-5.124 9.124-9.858 9.455-16.163a6.999 6.999 0 0 0-.016-.945l-.028-.215a5.38 5.38 0 0 0-.112-.654l-.048-.176a4.977 4.977 0 0 0-.218-.624l-.041-.094a4.511 4.511 0 0 0-.357-.64c-1.376-2.032-4.228-2.601-6.718-2.517-3.518.118-3.868-5.745-6.529-5.745-7.394 0-15.069-1.255-21.474-5.984-1.06-.782-2.249-10.187-4.061-12.517-1.22-1.567-3.694-1.106-6.31-.647-2.959.52-6.1 1.04-7.811-1.37-1.219-1.715-4.101-8.445-6.07-8.445-2.68 0-17.445-2.862-20.548-.063.478-.43-5.038-2.099-5.823-2.099.337 0-18.975 9.97-18.975 4.793 0-6.711 3.285-15.384-4.702-15.384-12.838 0-1.916-3.326-1.916-9.187 0-7.518-12.432 2.063-18.982 2.07.174 0-7.375-12.336-3.756-12.336 2.597 0 3.003-5.274 4.93-7.519 5.07-5.908 13.73-6.527 19.826-5.416 2.467.451 11.414 10.794 11.439 12.926-.006-.508 3.646-2.835 4.14-3.589 1.764-2.695.767-3.858 1.208-6.558 1.478-9.06 1.854-10.852 9.107-16.358 5.33-4.046 12.776-8.692 16.959-13.928 3.19-3.995 6.176-6.071 10.812-8.342-.474.232 4.404 2.961 5.425 2.961 4.194 0 5.206-3.53 7.502-6.7h-7.28c8.219-6.263-6.658-9.51 9.816-9.51 8.092 0 8.84.11 13.79-5.62-7.87 0-5.958-.051-5.958-8.04 0-1.329-2.224-6.207-4.347-4.127-5.806 5.688-5.598-1.042-8.139-4.824-3.286-4.891-6.833.143-8.204 3.109-1.7 3.677-15.667 9.426-15.637 14.229.019 2.812-4.593 2.699-4.51-.438.129-4.708-16.196-9.206-16.465-11.043-.355-2.427 8.08-8.968 15.417-8.968 3.37 0 1.72-3.89 2.758-3.89 6.99 0 15.23-2.165 19.052-7.781-.954 0-9.928.064-9.928-.047 0-3.192-1.368-5.14 2.304-5.14 8.621 0 11.175 6.7 20.64 6.7-3.384 2.449-6.765 4.9-10.148 7.349 4.75 0 11.864 7.862 15.517 5.423 6.742-4.505 2.197-8.622 7.803-9.55.6.63 1.409 1.233 2.751 1.706 1.753.617 8.064 1.74 9.136 3.337 1.291 1.923 4.575 13.313 2.163 14.303-3.917 1.608-15.39 13.995-6.614 17.088 6.781 2.388 8.52-.625 14.556-4.386 5.609-3.499 7.135-2.213 13.45.011.011.005.253 0 .655-.006.765-.01 2.11-.02 3.542.033 1.784.066 3.703-1.335 4.798-.95 3.174 1.12 4.319 1.947 4.844 1.21.357-.5.428-2.568.654-2.487 2.223.782 6.507 2.911 9.295 1.696C283.774 75.498 264.4 60.411 240.3 51.394c-4.1-.538-10.252-.314-14.992.436z"/><path d="M173.648 157.325l-3.167 3.298c9.85 0 15.846 3.298 24.584 3.298-5.864-9.538-10.46-6.596-21.417-6.596m31.865 8.383c-7.357-.262-7.699 1.051-12.204 6.974 3.876 0 7.753.013 11.63.019 3.362.005 2.895-6.911.574-6.993m12.38 8.749c0-11.853-11.853 0 0 0"/></g><path d="M282.715 99.748c-1.622-1.272-1.606-3.55-1.606-4.568 1.784.042 2.993-.274 4.314.064 8.876 8.74 17.854 19.817 24.183 30.563-7.73-9.815-16.846-18.51-26.89-26.06z" fill="#ace2f4"/><path d="M228.877 342.091c-3.823 0-23.558-1.311-23.477-8.296.052-4.523-3.476-7.069-4.43-11.16-.93-3.982.675-8.465-.052-12.62a33.294 33.294 0 0 0-.517-2.392c-.064-.256-.136-.508-.206-.762a40.21 40.21 0 0 0-.461-1.585c-.088-.28-.177-.56-.27-.838a61.745 61.745 0 0 0-.53-1.5c-.096-.26-.187-.524-.286-.783a89.605 89.605 0 0 0-.703-1.771c-1.374-3.352-2.905-6.616-4.112-10.003 30.748-12.664 56.518-34.87 73.58-62.915.134.2.252.413.357.64l.041.094c.086.198.158.406.22.627l.047.176c.05.207.087.428.113.656l.028.215c.025.301.034.614.016.949-.332 6.325-7.225 11.073-9.499 16.214-2.587 5.849.762 16.826-5.218 20.894-4.404 2.992-21.037 13.662-28.187 24.752a47.372 47.372 0 0 1 1.55 9.975l-1.292-.001c-6.68 0-6.543.198-9.332 7.125-2.737 6.795 1.644 10.751 1.643 15.553-.002 4.043-3.43 3.582-3.43 10.21 0-.05.047-.073.133-.073 1.45 0 14.257 6.609 14.274 6.62m57.212-246.469a5.493 5.493 0 0 0-.434-.13c-1.308-.341-2.78-.27-4.546-.313-3.896-10.714-10.827-22.664-16.886-32.126 13.261 8.144 26.733 18.757 36.985 31.278-1.172.51-2.864.848-4.3.848-1.997 0-3.997-.383-5.296-.839a.126.126 0 0 0-.046-.009c-.192 0-.278.466-.61.933-.333.467-.913.933-2.096.933-.693 0-1.593-.16-2.77-.575z" fill="#01a95f"/><g fill-rule="nonzero"><g transform="matrix(-1 0 0 1 250 6)"><use fill="#000" filter="url(#a)" xlink:href="#b"/><use fill="#dc8c01" xlink:href="#b"/></g><path d="M186.5 6v185.268H.005c-.003.478-.005.957-.005 1.436 0 103.114 83.499 186.704 186.5 186.704S373 295.818 373 192.704 289.501 6 186.5 6z" fill="#dc8c01"/><path d="M174.539 254.852v2.99L167.909 273h-4.03l6.942-15.262h-8.814v-2.886zm14.923 0v2.73h-7.592l-.104 3.978c.754-.156 1.248-.182 2.002-.182 3.77 0 6.344 2.158 6.344 5.642 0 3.874-2.938 6.292-7.54 6.292-1.352 0-2.756-.156-4.186-.546l.052-3.068a9.554 9.554 0 0 0 3.848.806c2.496 0 4.186-1.118 4.186-3.25 0-2.21-1.586-3.276-4.342-3.276-1.17 0-2.366.208-3.562.598l.13-9.724zm8.528 7.202c.988 0 1.768-.832 1.768-2.782 0-1.872-.754-2.6-1.768-2.6s-1.768.728-1.768 2.6c0 1.95.78 2.782 1.768 2.782zm0 2.08c-2.756 0-4.576-1.924-4.576-4.862 0-3.12 1.846-4.732 4.576-4.732s4.576 1.612 4.576 4.732c0 2.938-1.82 4.862-4.576 4.862zm10.764-10.27h2.184l-11.57 19.682h-2.184zm1.248 17.368c.988 0 1.768-.832 1.768-2.782 0-1.872-.754-2.6-1.768-2.6s-1.768.728-1.768 2.6c0 1.95.78 2.782 1.768 2.782zm0 2.08c-2.756 0-4.576-1.924-4.576-4.862 0-3.12 1.846-4.732 4.576-4.732s4.576 1.612 4.576 4.732c0 2.938-1.82 4.862-4.576 4.862zM128.03 292.73v-6.992h1.805V299h-2.508l-4.655-8.588c-.551-1.026-1.178-2.261-1.54-3.116h-.037c.057.817.095 2.584.095 3.724V299h-1.843v-13.262h2.85l4.465 8.36c.494.95 1.045 2.052 1.444 2.964h.038c-.057-.931-.114-3.192-.114-4.332zm9.556-3.648c2.87 0 4.921 2.128 4.921 5.13 0 2.964-2.052 5.016-4.978 5.016-2.869 0-4.978-2.09-4.978-5.016 0-3.04 2.071-5.13 5.035-5.13zm-.076 1.501c-1.767 0-3.04 1.482-3.04 3.629 0 2.128 1.254 3.515 3.097 3.515 1.767 0 3.06-1.406 3.06-3.515 0-2.166-1.293-3.629-3.117-3.629zm9.253.285h.038c.722-1.102 1.824-1.786 3.23-1.786 2.736 0 3.61 1.805 3.61 4.37V299h-1.805v-4.788c0-1.9-.19-3.629-2.242-3.629-.95 0-1.824.551-2.318 1.387-.304.532-.456 1.254-.456 2.394V299h-1.805v-6.821c0-1.026-.02-2.052-.095-2.869h1.767c.038.418.076 1.045.076 1.558zm14.079 2.394v1.482h-4.997v-1.482zm4.065-2.318h.038c.551-1.102 1.482-1.862 2.717-1.862.38 0 .684.038.931.133v1.691c-.228-.095-.55-.152-.969-.152-1.672 0-2.679 1.387-2.679 3.857V299h-1.805v-6.821c0-1.026-.019-2.052-.095-2.869h1.786c.057.494.076 1.14.076 1.634zm13.414 3.648h-6.916c.076 1.957 1.406 3.116 3.363 3.116 1.121 0 1.957-.266 2.831-.722l.057 1.653c-.874.399-1.843.589-3.002.589-3.23 0-5.073-1.957-5.073-5.149 0-3.059 1.862-4.997 4.617-4.997 2.546 0 4.161 1.539 4.161 4.807 0 .19-.019.494-.038.703zm-6.878-1.387h5.149c0-1.862-1.026-2.755-2.451-2.755s-2.546 1.026-2.698 2.755zm11.172-2.337h.038c.722-1.102 1.824-1.786 3.23-1.786 2.736 0 3.61 1.805 3.61 4.37V299h-1.805v-4.788c0-1.9-.19-3.629-2.242-3.629-.95 0-1.824.551-2.318 1.387-.304.532-.456 1.254-.456 2.394V299h-1.805v-6.821c0-1.026-.02-2.052-.095-2.869h1.767c.038.418.076 1.045.076 1.558zm18.03 3.724h-6.916c.076 1.957 1.406 3.116 3.363 3.116 1.121 0 1.957-.266 2.831-.722l.057 1.653c-.874.399-1.843.589-3.002.589-3.23 0-5.073-1.957-5.073-5.149 0-3.059 1.862-4.997 4.617-4.997 2.546 0 4.161 1.539 4.161 4.807 0 .19-.019.494-.038.703zm-6.878-1.387h5.15c0-1.862-1.027-2.755-2.452-2.755s-2.546 1.026-2.698 2.755zM206.991 299h-2.166l-3.078-9.69h1.957l1.634 5.871c.171.608.418 1.729.57 2.375h.038a59.56 59.56 0 0 1 .646-2.356l1.843-5.89h2.223l1.824 5.89c.19.608.475 1.71.627 2.356h.038c.133-.646.418-1.786.589-2.337l1.71-5.909h1.786l-3.135 9.69h-2.09l-1.919-6.232c-.114-.399-.437-1.577-.551-2.147h-.038c-.114.57-.437 1.71-.57 2.147zm12.483-7.505l-.114-1.596c.912-.551 2.09-.817 3.23-.817 2.83 0 3.895 1.634 3.895 3.838 0 1.235-.038 2.755-.038 3.154 0 1.064.038 2.223.114 2.926h-1.615a8.283 8.283 0 0 1-.038-.798c0-.247.019-.589.038-.855h-.038c-.665 1.159-1.73 1.786-3.23 1.786-2.052 0-3.382-1.14-3.382-2.926 0-2.014 1.824-3.154 5.092-3.154.399 0 .93.019 1.368.057v-.076c0-1.634-.817-2.47-2.47-2.47-.988 0-2.033.38-2.812.931zm5.3 2.888a11.4 11.4 0 0 0-.987-.038c-2.394 0-3.572.57-3.572 1.862 0 .95.74 1.52 1.843 1.52 1.083 0 1.995-.551 2.413-1.425.209-.437.304-1.064.304-1.919zm6.555 2.945h-.038c0 .608-.038 1.292-.076 1.672H229.6c.076-.817.095-1.9.095-2.926v-11.438h1.767v3.724c0 .95-.019 1.9-.057 2.508h.038c.684-1.121 1.881-1.786 3.306-1.786 2.508 0 4.142 2.147 4.142 4.978 0 2.945-1.653 5.168-4.294 5.168-1.482 0-2.622-.779-3.268-1.9zm2.983-6.745c-1.596 0-2.83 1.596-2.83 3.61 0 1.957 1.215 3.534 2.811 3.534 1.653 0 2.717-1.558 2.717-3.553 0-2.09-.988-3.591-2.698-3.591zm8.95-5.947V299h-1.825v-14.364zm11.285 9.956h-6.916c.076 1.957 1.406 3.116 3.363 3.116 1.12 0 1.957-.266 2.83-.722l.058 1.653c-.874.399-1.843.589-3.002.589-3.23 0-5.073-1.957-5.073-5.149 0-3.059 1.862-4.997 4.617-4.997 2.546 0 4.16 1.539 4.16 4.807 0 .19-.018.494-.037.703zm-6.878-1.387h5.149c0-1.862-1.026-2.755-2.451-2.755s-2.546 1.026-2.698 2.755z" fill="#fff"/></g></g></svg>