<svg height="369" viewBox="0 0 366 369" width="366" xmlns="http://www.w3.org/2000/svg"><g fill="none" fill-rule="evenodd"><path d="m68.4375852 366.557743c-10.3809587-.442167-20.7587344-.979659-31.132266-1.611327-8.6129561-.524284-17.6386466-.988847-25.3571681-5.998545-5.48897787-3.562031-10.02693376-9.674277-10.95425979-16.895961-2.68153547-20.889823 24.30888649-25.495829 36.53919219-29.381159 18.8793253-5.996249 38.608169-9.559429 57.8846672-11.456729 12.4485213-1.225435 24.9430193-1.752016 37.4353953-1.752016 1.247045 0 2.49409.005168 3.741134.015505 1.599655.013207 3.201079.052256 4.802856.111403 1.451821 7.293464 3.096392 14.482416 4.825491 21.206231 1.916544-.617886 3.828491-1.280562 5.775098-2.163174-.516714-3.953091-.994524-8.149087-1.39877-12.44213 10.778839 28.106913 29.981773 46.814612 51.875439 46.814612 22.424526 0 42.024987-19.623617 52.643613-48.873275.422637.024693 23.768476 1.081875 30.825986 1.375887 21.1552.88089 41.627107 4.027743 62.242251 9.675426 10.557087 2.891315 21.846273 8.498227 15.094689 23.408454-.123785.274489-.251106.54668-.381965.816-5.584469 11.445818-16.640232 16.89309-27.238699 19.595479-19.081272 4.864989-39.082442 5.427748-58.532947 6.596907-20.578008 1.23692-41.516054 2.424455-61.899189 2.873514-3.278533.072354-6.557773.133798-9.836659.183183-11.360274.236014-22.727622.343972-34.105226.343972-34.289136 0-68.633444-.984827-102.8486628-2.442257z" fill="#16243e" opacity=".408947"/><path d="m202.692314 163.880136 3.267493-4.064329.165042-3.030765 2.713254-3.374504s2.152578 1.308553 1.9413 1.572379c-.462354.576421-.724549 1.580605-.493372 2.273956 1.246013-.324935 2.730811-1.651115 3.299682-2.79867.343546-.693351.553653-1.588831 1.278202-1.854419.796536-.293206 1.591901.404846 2.128582 1.065292.618617.761511 1.212654 1.599995 1.36365 2.570686.20484 1.315604-.441869 2.616518-1.230211 3.687687-1.847658 2.51134-4.26009 3.506122-6.95169 4.804098l-3.985018 3.505535z" fill="#e1c9a9"/><path d="m185.248497 174.603034c7.1823-2.14175 13.967724-10.140545 19.215686-14.217016 1.906154 1.081283 3.587987 2.559749 4.885023 4.303754 1.674355 2.253142 1.527108 2.452859-.06097 4.534413-2.653315 3.479009-6.041713 6.626657-9.238001 9.622407-8.057727 7.553229-13.803222 14.870174-26.354847 13.993671-3.411981-.237973-6.74056-1.109975-10.043831-1.977477-4.335724-1.138666-8.671447-2.277333-13.00602-3.415437-1.097447-.288604-2.208699-.582272-3.192836-1.137541-7.700539-4.343697 1.073865-16.068474 4.193078-20.571945 3.087003-4.456214 3.427511-6.834249 9.327729-3.837936 4.500226 2.285772 8.144005 5.885735 11.909147 9.138586 1.069839.924323 2.163261 1.834018 3.384948 2.556936 3.007627 1.778885 6.027909 1.888026 8.980894 1.007585" fill="#a1646a"/><path d="m116.330612 319.959839c.589659 2.466723 1.035365 4.949598 1.478302 7.447472 1.796663 1.154907 3.563981 2.301737 5.380576 3.45895 1.045885-.36747 2.650977-.621872 3.588896-1.007226 1.607861-.661677 2.395735-1.852349 1.538099-3.566825-.254135-.507075-.448474-.591875-1.079659-1.516608-.631739-.925886-2.12499-2.794389-3.144298-4.072746-1.018755-1.278358-2.543566-3.069559-3.650354-4.417142-1.381964 1.20971-2.729045 2.464416-4.111562 3.674125" fill="#3a332c"/><path d="m137.640642 319.855238c.528186 2.522747 1.056372 5.044919 1.583411 7.568242 1.86557 1.152779 3.707052 2.303829 5.597282 3.442781 1.137808-.747203 2.861151-1.655715 3.873938-2.367776 1.50599-1.05945 1.702697-2.418473.501232-3.622525-1.118883-1.473667-2.329525-2.787754-3.522961-4.217061-1.19401-1.430459-2.43218-2.923714-3.625043-4.373185-1.472154 1.185617-2.944307 2.372961-4.407859 3.569524" fill="#3a332c"/><path d="m148.856448 217.947829c-16.795496-3.600264-33.796565-5.856353-50.6820339-9.333847-.7289019 8.995805-1.3729551 4.324313-1.9145065 16.392761-.5409819 12.067878.7932503 34.111425 3.7743454 49.327891 2.980526 15.216467 8.38522 31.917006 14.43112 46.437402 3.085875-.614414 6.164346-1.273368 9.298625-2.151021-2.896247-13.685569-5.039104-30.309022-4.034017-43.688526 1.005088-13.378932 2.113246-22.701359 5.447973-34.99593 6.834594-2.609549 13.73069-5.271631 20.791928-7.438641.859876-4.870777 1.79549-9.76211 2.886566-14.550089" fill="#6e6255"/><path d="m146.613286 232.773689c-2.812149 14.097318-2.470006 25.995005-2.916581 40.642803-.447151 14.647797.485232 30.972212 2.770608 45.91356-3.269687.958476-6.273967 1.845424-9.326137 2.563565-5.304081-15.470084-9.788866-33.366398-12.769491-48.786699-2.980625-15.420872-5.078487-28.021823-4.611141-43.182906 8.908411 1.078071 17.752201 1.803079 26.852742 2.849677" fill="#6e6255"/><path d="m168.655925 127.960732c.800975-1.071885 1.759961-2.006111 2.90971-2.676543.933704-.544293 1.945552-1.043085 2.990726-.645089.773394.294322 1.02966 1.105291 1.075053 1.841959.045392.735517-.245349 1.382333-.388421 2.066012 2.551167.537958 5.208058-.839767 7.709811-.703262 1.716866.093884 3.072317.782746 4.55073 1.414588.969904.415276 1.979453.85647 2.712052 1.610418 2.809157 2.893108 4.881118 7.186404 4.600145 11.138724-.5223 7.324638-6.963997 13.986331-13.906734 15.924477-1.005527.280499-2.043232.419308-3.077489.556389-1.39912.186039-2.797665.372078-4.19621.558117-1.764557.234421-3.646905.451563-5.250578-.32312-4.218045-2.038365-5.503971-7.761224-11.117688-5.636463-.663073.251124-1.221572.635873-1.930038.656032-1.234213.034559-2.359255-.671007-3.225158-1.472185-1.054367-.975696-2.370747-1.935842-2.097243-3.517461.29936-1.728493 1.915674-2.370701 2.904538-3.60789 1.057241-1.322431 1.799607-2.951857 2.918903-4.301935 1.703651-2.055645 3.558419-3.984575 5.544192-5.767209 1.730082-1.552821 4.259415-2.629313 5.794137-4.155063.317172-.315057.352797-.696926.503339-1.070732.269481-.670431.544134-1.311488.976223-1.889764" fill="#e1c9a9"/><path d="m183.922067 120.241778c2.497769.811624 4.933887 1.818608 7.013345 3.386039 1.711275 1.290055 3.284264 2.380195 4.322553 4.497822 1.930802 3.935665 1.335601 12.413008 6.747723 13.60282 2.018959.443118 2.988681 2.073771 2.365823 4.010277-.185532.576396-.677596.853203-.867161 1.405107-.188989.552474-.371064 1.074761.146351 1.56914.516264.494379 1.322349.054108 1.991302.5445s.478811 1.740008-.210308 2.265143c-.396993.303007-.999108.340598-1.335025.590635-.335917.249467-.318055.516591-.578492.758085-.58771.5445-1.028493.958001-1.880097.874276-.338222-.033604-.641872-.224407-1.006598-.227255-.703524-.005695-1.185793.424323-1.825936.695434-1.410505.594621-2.778949.405527-4.222297.007974-1.161592.942053-2.201033 1.973528-3.6899 2.412659-2.477603.731316-5.096372.232381-7.636203.062082.507044-.670373 1.166778-1.069065 1.810379-1.612426 1.361529-1.148235 2.376194-2.502081 3.103342-4.128177.357236-.799663.58022-1.631791.969722-2.413798-.059347-.089421-.112356-.151503-.170551-.239216-.367607-.553613-.680477-.901045-.896547-1.591353-.21607-.690307-.103137-1.497945-.093918-2.287925.042638-3.686198-.297889-7.219183-2.124401-10.486184-1.994182-3.56659-4.892978-4.272275-8.846195-4.275693-.931118-.000569-2.691369.673221-3.548158.11676-1.303335-.846937.382012-1.943911.023623-2.87913-.948979-2.475311-3.384521-.119607-4.396881 1.03831-.92766.916423-1.171964 2.278243-1.994758 3.227701-1.086689 1.253603-2.951805 2.140409-4.317944 3.078476-1.385153.951166-2.950652 1.948467-4.620442 1.714378-.137132-.019365-.301921-.074613-.32324-.210168-.009219-.058665.013828-.11733.035723-.173147 2.900524-7.202096 6.839337-11.043783 13.713245-14.512409 2.691369-1.357832 5.717501-2.753826 8.621483-1.927393 1.231311.35028 2.483365.704546 3.720438 1.106656" fill="#514842"/><path d="m151.449749 216.90248c.626355-4.269797 1.221278-8.58196 2.286539-12.805384 1.065832-4.222852 2.512277-8.531007 3.911289-12.637639 2.110519-6.198591 4.259328-12.779621 6.420138-18.777261 1.947072-5.406234 2.653436-8.078722-.907529-12.812827-1.117838-1.48567-4.403344-2.706839-4.670802-4.797654-.126299-.987011.913244-1.479372.188021-2.541383-.275459-.402476-.675503-.701327-1.003539-1.06201-.934389-1.028232-1.221278-2.468673-1.732763-3.760834-.505771-1.277848-1.261283-2.456078-2.211102-3.448815-.29489-.308011-.635499-.612588-1.056688-.681289-.331465-.053816-.666359.046373-.988681.144273-2.565426.778044-5.169143 1.503417-7.823722 1.855513-2.447699.324042-4.967406.037213-7.392245.547321-2.690583.565643-4.721665 1.661431-6.932195 3.099582-3.639259 2.367912-6.870474 5.124559-9.726218 8.401047-2.855172 3.276489-5.218862 6.716143-7.375101 10.562854-7.467111 13.319501-12.55453 26.921822-15.3879861 41.937105-.4971978 2.635274-1.2584248 5.256236-.720651 7.777581.5377737 2.521917 2.9106074 2.707411 5.0039811 3.489463 4.887969 1.827459 9.957101 3.561027 15.084525 4.647083 10.255419 2.172112 20.448546 2.864852 30.900558 2.751494.587493-.006297 1.142412-.033778 1.635609-.388736.493198-.354957.650358-.95495.782372-1.545783.740082-3.298817 1.222421-6.585038 1.71619-9.953701" fill="#a1646a"/><path d="m107.357967 254.598784c0-54.509664 44.188981-98.699088 98.699374-98.699088 54.509822 0 98.698803 44.189424 98.698803 98.699088 0 54.510236-44.188981 98.699088-98.698803 98.699088-54.510393 0-98.699374-44.188852-98.699374-98.699088" fill="#90d4eb"/><path d="m228.488666 159.264438c1.88976.337998 3.759265.710962 5.607903 1.12158z" fill="#9db74c"/><path d="m231.853408 167.28486c.289176.254599.576791.517049.863625.782863.086245-.179452.1721-.358905.257956-.538358-.40352 0-.770355-.099821-1.121581-.244505" fill="#a9c14b"/><path d="m227.367086 172.477607c3.094075 0 7.728484 4.817661 10.10778 3.322902 3.273062-2.056592 2.464416-3.980924 3.351186-5.063599-2.363554-.923089-4.776082-1.75764-7.233502-2.499828-2.07496 1.413326-4.150504 2.827199-6.225464 4.240525" fill="#a9c14b"/><path d="m231.853408 167.115502c-1.113612-.394858-2.235192-.768975-3.364742-1.121581.995411.508552 2.094414.910324 3.364742 1.121581" fill="#a9c14b"/><path d="m133.012902 310.677812c-11.864855-15.41308-18.925451-34.71803-18.925451-55.675785 0-31.19307 15.634341-58.728432 39.487631-75.20521l.001139-.00057c.973267 1.912036 2.990417 7.19919 3.013767 7.688594.162875 3.39221-2.149843 4.73337-3.864023 7.957508-.125858.236441-.248299.47573-.368463.717868-19.281955 16.746263-31.474839 41.446047-31.474839 68.996223 0 16.575912 4.414154 32.120031 12.130239 45.521372m134.731084-117.983871c-1.121336-.861442-2.262034-1.697245-3.423803-2.50741.127567.045579.25855.092297.392382.139585.001708.00057.01082.00114.027335.00114.055811 0 .19192-.002849.388965-.005128.195337-.002849.449332-.005128.743191-.005128.313792 0 .672004.002849 1.050149.011965.283608.784527.557535 1.571903.821781 2.364976m-16.973793-10.327043c-6.630059-3.099366-13.694642-5.423321-21.076434-6.857348-.423135-.387421-.847408-.550365-1.259153-.550365-.260829 0-.517101.06552-.765401.180606-4.850957-.828966-9.833467-1.27507-14.913361-1.306975.566648-.715019.137818-2.038517.619611-2.038517 4.447754 0 9.691093-1.38332 12.122836-4.970381-.32689 0-2.131619.011965-3.729052.011965-1.370205 0-2.587785-.009116-2.587785-.041591 0-.847768-.150916-1.558229-.158889-2.098909h.00057.001139c3.48303.522448 6.901138 1.241456 10.242933 2.145627.864494.381154 1.811563.688242 2.919231.842071.406619.124772.81096.252393 1.215302.382293-2.026263 1.472769-4.052525 2.946107-6.078788 4.418876.082007 0 .165154.003988.250008.011395 2.600314.221627 6.188131 3.752284 8.576592 3.752284.382701 0 .734079-.090019 1.046732-.299682 3.194866-2.142778 2.408393-4.147111 3.271747-5.276329 3.548523 1.479606 6.983715 3.176281 10.289063 5.074643l.001139.000569c.00057.00057.001139.00057.001139.00114.762554 2.577487 1.377608 6.03066.341697 6.457393-.102509.04273-.212991.096285-.330876.161235m-48.220265-14.423448c-.290443 0-.568926-.000569-.83488-.001139-.257981-.00114-.502864-.001709-.73294-.001709-.093397 0-.183946 0-.271649.000569-.000569 0-.001708 0-.002278 0-.931693 0-1.148101-1.868735-.616762-2.359848.084854-.078054.825767-.104262 1.714748-.104262 1.689692 0 3.916986.094007 3.204548.103692 3.197144-.005127 3.918694-.180036 4.05765-1.829993h.001139c1.858831.074066 3.705134.199408 5.533781.382293h.001139c.21413 3.612129-7.364137 3.810397-12.054496 3.810397m-10.600007-1.671606c-.693076-.157248-2.000636-.601072-3.429498-1.041479.607651-.113377 1.218719-.219918 1.830926-.321331.532477.45408 1.065525.90873 1.598572 1.36281" fill="#ace2f4"/><path d="m236.404454 176.088146c-2.445495 0-6.118985-3.387623-8.78139-3.600272 2.662405.212649 6.335895 3.600272 8.78139 3.600272.391839 0 .751607-.086918 1.071726-.287541 3.271155-2.05597 2.46357-3.980197 3.346957-5.063668.001166.000547.002332.001093.002915.001093-.883969 1.083471-.078717 3.006605-3.349872 5.062575-.320119.201169-.679887.287541-1.071726.287541m-9.037368-3.611205c2.074647-1.413104 4.149294-2.826755 6.223941-4.239859-2.07523 1.413104-4.149294 2.826755-6.223941 4.239859" fill="#afc558"/><path d="m204.507031 165.43257-.264693.001121c.104307 0 .19179 0 .264693-.001121" fill="#c7d79b"/><g fill="#00b364"><path d="m240.486079 162.694645c-2.61823-.343534-5.355366-.356637-8.382909.122487 1.227939-.858549 2.014551-1.560998 2.458735-2.127287-1.721286-.521852-3.463723-.996418-5.222739-1.425407-.128625.039879-.254392.080898-.377871.124196-2.385562.832912-2.73485.919507-2.34383 2.421255-.926671-.372018-1.813325-.801578-2.629092-1.301211h-11.427029c6.805682 7.501335-5.191869 7.484814-10.910815 7.468862-.363579-.00114-.702005-.002279-1.008418-.00114-.93696.002849-1.155337-1.868639-.621401-2.359727.246388-.227313 6.02936-.015382 4.93805-.00057 4.664793-.006836 4.079979-.373728 4.079979-5.107425-4.637925 3.407989-4.476715 0-9.736613 0-4.933476 0-7.35391.270611-11.68142 2.208755 1.409156 1.196955 2.817741 2.39334 4.227469 3.589725-1.774451-.401074-7.561996-2.663951-9.143796-1.992266-.736305.312769-.926098 2.268004-1.83619 2.268004-3.675812 0-13.67825 2.003661-13.67825-2.196791 0-.01937-.066885-.036461-.181789-.052413-9.075196 3.869452-17.447243 9.056636-24.881186 15.317718 4.756832-.781068 9.752048-.50533 10.737029-.50533.438467 0 3.460293 7.774224 3.489448 8.372987.163497 3.392036-2.158039 4.733127-3.878753 7.9571-3.1333 5.871403-4.516732 13.561311-4.166301 20.154532.012577.238138 3.945638 3.765195 3.945638 5.163257 0 5.853172.615113 5.947743 4.649359 10.259857v-7.178881c2.40557 6.28558 5.313634 8.704557 7.486536 14.853976 2.465023 6.977774 12.207924 1.618538 15.518442 6.214936 1.457747 2.02417 4.177734 1.096117 5.476559 3.071861l3.524891 5.362654c2.124882 3.23138 4.715672 2.111335 8.512105 2.111335 3.646657 0-3.319092 12.556347-3.319092 13.614294 0 4.353702 5.963047 14.264898 5.925888 16.008772-.110903 5.168954 6.366643 5.893621 9.88296 9.077715 2.816026 2.5671.808335 9.839983.720871 13.065095-.074317 2.719213.513356 5.159838 1.347416 7.505893v.001139c.767747 2.158621 1.741294 4.237482 2.615371 6.373315.152064.373728.302412.749165.447043 1.12745.062883.165215.121193.333279.182362.499064.116048.316757.228666.634654.336711.954829.058881.177179.115476.354928.171499.533246.104615.333279.201799.669976.293265 1.009521.04459.161227.090323.321885.130912.484821.125194.500203.238956 1.006103.328707 1.522827.461906 2.645721-.557945 5.499954.032585 8.035151.606538 2.604701 2.849755 4.225518 2.816598 7.104818-.05145 4.447135 12.495473 5.282326 14.925624 5.282326-.011433-.007407-9.15923-4.734267-9.15923-4.167409 0-4.220391 2.17919-3.926991 2.180333-6.500929.001144-3.057048-2.784012-5.575724-1.044433-9.902081 1.880781-4.677865 1.668121-4.536008 6.754804-4.536008-.102328-2.150645-.431036-4.267107-.985552-6.350527 4.545315-7.060381 15.11999-13.85414 17.919438-15.758671 3.80215-2.589889 1.673266-9.579057 3.317949-13.302663 1.445171-3.272968 5.827562-6.296404 6.038506-10.323095.011434-.21307.005717-.412468-.009718-.603889l-.018293-.1373c-.016579-.145275-.039445-.285423-.071459-.417595l-.030298-.112232c-.039445-.140148-.085178-.27289-.139486-.398796l-.026297-.059819c-.066885-.145275-.142345-.281435-.228095-.40848-.87865-1.298363-2.699978-1.661836-4.290924-1.608283-2.246646.075201-2.470168-3.669484-4.16973-3.669484-4.722532 0-9.624567-.801578-13.71598-3.821596-.677424-.499634-1.436024-6.506626-2.593648-7.994702-.778609-1.000975-2.359265-.707006-4.030816-.413607-1.889355.332139-3.895331.664279-4.988356-.874501-.778609-1.096116-2.619373-5.394557-3.876466-5.394557-1.71214 0-11.142911-1.827621-13.124877-.03988.30527-.275168-3.217907-1.340521-3.719258-1.340521.215518 0-12.119317 6.367048-12.119317 3.061037 0-4.286477 2.098014-9.82574-3.00296-9.82574-8.199976 0-1.223937-2.124438-1.223937-5.867984 0-4.802062-7.940439 1.317732-12.12389 1.32229.110903 0-4.710526-7.879051-2.399281-7.879051 1.658974 0 1.917939-3.368678 3.149307-4.802631 3.238487-3.773741 8.769354-4.169118 12.662399-3.459263 1.576083.288272 7.290455 6.894027 7.306461 8.256197-.004001-.324733 2.328967-1.811099 2.643955-2.292502 1.126753-1.721655.489918-2.464553.771749-4.188487.944392-5.786516 1.184492-6.931628 5.8167-10.44843 3.40427-2.584192 8.16053-5.551797 10.831925-8.895978 2.037417-2.551719 3.944494-3.877427 6.905724-5.327902-.302412.148124 2.813167 1.891428 3.465438 1.891428 2.678255 0 3.324809-2.254901 4.791132-4.279641h-4.649359c5.249036-3.999914-4.252622-6.074218 6.26946-6.074218 5.168431 0 5.645772.070074 8.807084-3.589155-5.026658 0-3.805008-.033043-3.805008-5.135341 0-.848864-1.420589-3.964593-2.776581-2.636035-3.708396 3.633023-3.575198-.665418-5.198158-3.080977-2.099157-3.124274-4.364097.091153-5.239889 1.98543-1.085593 2.348333-10.007011 6.020665-9.987574 9.087969.012005 1.796287-2.93379 1.723934-2.880053-.279156.081748-3.007485-10.344866-5.879949-10.516937-7.053545-.226951-1.550174 5.160999-5.727837 9.846945-5.727837 2.152322 0 1.09817-2.484493 1.761302-2.484493 4.464711 0 9.728038-1.383249 12.169051-4.970126-.609395 0-6.340917.041019-6.340917-.029624 0-2.038982-.874077-3.283223 1.471468-3.283223 5.506285 0 7.137248 4.279071 13.183186 4.279071-2.161468 1.564416-4.321222 3.129402-6.482119 4.693818 3.033831 0 7.578003 5.021969 9.910971 3.463819 4.306359-2.877021 1.40344-5.506789 4.983783-6.099285.383588.401644.899802.787335 1.757301 1.08928 1.119322.394238 5.150138 1.112069 5.834993 2.131275.824914 1.228289 2.922356 8.50345 1.381717 9.135825-2.50161 1.027182-9.829223 8.938706-4.224611 10.913881 4.331512 1.525676 5.442259-.398795 9.297002-2.801251 3.58263-2.234391 4.55732-1.413443 8.590995.007407.00686.002848.16121-.00057.417888-.003988 1.09817-.014813 4.066259-.029625 5.327354.414746 2.027127.714413 2.758288.243265 3.093855-.227882.228095-.319606.273257-.639782.417317-.588508 1.420018.499633 4.15601.859688 5.93675.083747-10.635272-12.104569-24.202047-21.583927-39.595293-27.343667"/><path d="m199.107544 230.197571c-.674377.702427-1.348755 1.404254-2.023133 2.106682 6.291493 0 10.120871 2.106081 15.702128 2.106081-3.745515-6.091907-6.681314-4.212763-13.678995-4.212763"/><path d="m219.459944 235.551746c-4.698842-.167138-4.917342.671714-7.794986 4.454461 2.475624 0 4.951786.00823 7.427948.012028 2.147334.003166 1.849183-4.413942.367038-4.466489"/><path d="m227.367086 241.139818c0-7.570669-7.570669 0 0 0"/></g><path d="m278.945082 188.425532c-6.178534-6.87338-13.312051-12.867693-21.179909-17.763315-.038471-.061038-.076941-.121506-.115412-.181974 7.921603 4.913306 15.096985 10.936712 21.31003 17.851735-.005092.031375-.010183.062749-.014709.093554" fill="#c7dccc"/><path d="m304.756144 254.598784c-.015587-25.432289-9.776821-48.60899-25.796353-66.079673.004618-.030813.009814-.062196.015009-.093579 16.021841 17.480954 25.781344 40.669638 25.781344 66.115051z" fill="#e2cb6e"/><path d="m206.151919 352.176292c-34.901901 0-65.567489-18.057178-83.091824-45.300183 15.008132 9.19322 32.675238 14.500107 51.589025 14.500107 13.34513 0 26.06949-2.639226 37.67852-7.4235.766397 2.153009 1.738384 4.226971 2.611003 6.357232.151909.373052.302105.74781.446589 1.125411.06282.164916.121071.332675.182177.49816.11593.316184.228434.633506.336369.953102.058822.176858.11536.354285.171326.532281.104509.332675.201593.668763.292967 1.007694.044545.160935.090231.321302.130778.483943.125068.499298.238714 1.004283.328375 1.520072.461437 2.640933-.55738 5.490001.032552 8.02061.605922 2.599988 2.846862 4.217872 2.813739 7.091962-.051398 4.439087 12.482791 5.272766 14.910476 5.272766-.010851-.006824-8.144824-4.207067-9.065414-4.207067-.054825 0-.084521.015355-.084521.0472 0-4.212753 2.176979-3.919885 2.178121-6.489165.001142-3.051516-2.781187-5.565634-1.043374-9.884162 1.771508-4.402123 1.684132-4.528369 5.927299-4.528369.257559 0 .529967.000569.82065.000569-.102225-2.146753-.430599-4.259385-.984552-6.339035 4.540702-7.047605 15.104645-13.829069 17.901252-15.730154 3.798291-2.585202 1.671567-9.561723 3.314581-13.278591 1.443705-3.267045 5.821647-6.28501 6.032378-10.304414.011422-.212685.005711-.411721-.009708-.602797l-.018275-.137051c-.016562-.145012-.039405-.284906-.071386-.416839l-.030267-.112029c-.039405-.139895-.085092-.272396-.139345-.398074l-.02627-.059711c-.066817-.144444-.14163-.280357-.226721-.406603 9.008305-14.816292 14.194905-32.197313 14.194905-50.782223 0-10.85148-1.768652-21.293514-5.032978-31.053136 6.31735 4.834317 11.984804 10.470468 16.846457 16.756046-3.980468-6.881551-8.840407-13.194995-14.422769-18.792476.098798.025591.191314.053456.275834.083027.748122.263297 1.319779.36509 1.760086.36509.750978 0 1.119328-.29628 1.33063-.59256.211302-.296849.265555-.59313.387767-.59313.009137 0 .018846.001706.029125.005687.825219.290025 2.095314.533418 3.363695.533418.912024 0 1.822906-.125677 2.56703-.449823-6.489246-7.379711-14.071551-13.782438-22.493923-18.95796-.002855-.003981-.005139-.007962-.007424-.011374 7.942089 4.88038 15.142908 10.85603 21.379735 17.70801 15.847628 17.41173 25.504115 40.510223 25.519535 65.856693-.032552 54.201104-44.166625 98.131346-98.604225 98.131346" fill="#69bedb"/><path d="m284.567694 208.613982c-4.937245-6.26922-10.692822-11.890703-17.108399-16.712438-.269104-.789537-.548067-1.573402-.83689-2.354432 1.139052.026659 2.454993.107201 3.298263.323302 5.669162 5.582913 10.604667 11.879926 14.647026 18.743568" fill="#6b9ecd"/><path d="m234.047535 347.68997c-2.441454 0-15.046729-.837866-14.99504-5.299243.033311-2.888522-2.220339-4.51453-2.829697-7.127574-.593277-2.543316.431318-5.406691-.032737-8.060884-.090169-.51838-.204459-1.0259-.330236-1.527705-.040777-.163458-.086723-.32463-.131521-.486374-.091891-.340632-.189527-.678408-.294628-1.012754-.056284-.178889-.113142-.357207-.172297-.534954-.108548-.321201-.22169-.640115-.338278-.957887-.061452-.166316-.120033-.334918-.183209-.500662-.145304-.379497-.296352-.756136-.449122-1.131061-.877568-2.140959-1.855068-4.225335-2.625812-6.389155 19.639029-8.088318 36.098596-22.272023 46.99583-40.18383.085575.12688.160811.263476.228007.408645l.026419.060011c.054561.126309.100507.259476.140135.400072l.03044.112592c.032162.132596.055135.273192.07179.418933l.018379.137739c.015506.192035.02125.392071.009763.605824-.211926 4.039587-4.614698 7.072706-6.06659 10.356156-1.652332 3.735532.486453 10.747085-3.33338 13.345268-2.812467 1.910631-13.436323 8.726148-18.002778 15.809142.557095 2.090092.887332 4.213332.990136 6.370865-.292331 0-.566284-.000572-.825305-.000572-4.267231 0-4.179359.126881-5.960914 4.551108-1.74767 4.340213 1.050439 6.866955 1.049291 9.933795-.001149 2.582181-2.190474 2.287842-2.190474 6.521749 0-.032005.029865-.047437.085-.047437.925811 0 9.105916 4.221334 9.116828 4.228193m38.312043-157.054657c-.442804 0-1.017703-.102305-1.770068-.366924-.085-.029719-.178041-.057724-.277399-.083443-.835068-.217754-2.138211-.298912-3.266184-.325774-2.488548-6.843522-5.716252-13.335551-9.586051-19.378929 8.470138 5.201511 16.095446 11.636388 22.621496 19.053156-.748345.325773-1.664393.452082-2.581589.452082-1.275575 0-2.552873-.244616-3.382772-.536097-.010338-.004001-.020101-.005715-.029291-.005715-.122905 0-.177466.297768-.389966.596108-.2125.297768-.582939.595536-1.338176.595536" fill="#01a95f"/><path d="m148.006732 211.978723 3.71511 3.534348 3.022493.47319 3.084757 2.935571s-1.551273 1.912943-1.792622 1.684197c-.515905-.49057-1.567285-.821915-2.2516-.737256.257952 1.343881 1.040112 2.561056 1.905291 3.632461.753103.933485 2.197044 1.985267.385446 2.814471-.486255.222578-1.044263.263506-1.583888.236034-1.363887-.069521-2.699903-.562894-3.752468-1.385931-.830193-.648674-1.520438-1.513759-2.530901-1.866969-.166038-.058308-.343344-.104282-.476767-.21473-.321996-.267991-.601297-1.905094-.7703-2.359782-.187979-.503465-.311322-1.269876-.636876-1.710548l-3.075862-4.160034z" fill="#e1c9a9"/><path d="m139.917711 192.75616c2.295568 7.404521 9.943018 16.93871 12.303478 20.651579-1.316388 1.768988-3.015178 3.270765-4.943408 4.361976-2.490824 1.408883-2.679128 1.240299-4.63517-.565389-3.268953-3.016741-6.118423-6.725023-8.833474-10.226301-6.845566-8.825447-13.703879-15.334293-11.424534-27.674779.619375-3.355058 1.877823-6.55644 3.129898-9.733738 1.643168-4.169308 3.285756-8.338616 4.928344-12.507924 1.12287-2.851025 2.231834-3.251843 5.339716-3.368246 4.859395-.181773 10.425075.186933 13.454158 3.951983 1.840742 2.28793 2.305418 5.439998 1.824519 8.326001-.480899 2.88543-1.812931 5.560416-3.268953 8.105236-3.399897 5.943458-10.157974 11.314646-7.874574 18.679602" fill="#a1646a"/><path d="m276.71663 264.792701v69.438302h10.254338l6.409032-41.925089 5.768241-32.099227z" fill="#656464"/><path d="m277.073127 334.231003-5.9644 6.056653 2.651167 4.037572 11.92938-4.037572v-6.056653z" fill="#363535"/><path d="m318.21511 335.785399-2.206264 8.27024-7.281195 2.51275-3.971507-1.8847 6.164443-9.331105z" fill="#363535"/><path d="m300.269821 257.963526 3.895478 30.095935 5.195108 48.414703 10.389079-.65416v-37.292839l5.195107-37.947z" fill="#656464"/><path d="m295.436853 164.460387c-10.675419 2.427566-17.849507 11.008188-19.782778 22.644586-2.166043 13.032675-5.427149 25.995992-7.815645 39.050839-2.687774 14.689333-4.302273 29.464511-5.702347 44.298816 13.282927 1.196727 26.607706 1.884064 39.93822 2.058598 10.32798.136444 20.815346-.058557 30.721354-3.142191-2.007804-8.450431-1.252727-17.096432-1.37198-25.717418-.10664-7.734101-.457518-15.468769-1.182782-23.167053-1.006768-10.694366-1.928111-21.438194-4.180154-31.962573-1.085888-5.079697-2.321416-10.49368-4.635952-15.186217-1.781912-3.610649-7.098408-6.011494-10.677139-8.043373-2.82136-1.601511-6.254465-1.585024-9.504677-1.524193-2.033031.037522-3.970889.272888-5.80612.690179" fill="#bfae93"/><path d="m284.861881 137.898739c1.704517-15.10434 20.330617-13.902059 26.50327-2.232148 2.306449 4.359926 2.930122 10.04438 1.848134 14.840818-.529836 2.348629-1.543163 4.681112-3.34209 6.326247-.786744.719639-2.392847 1.096181-3.006221 1.816396-1.020193 1.196515-.596781 3.654127-.399952 5.142995-1.864727 1.3326-4.366861 1.154997-6.640122.902432-.30726-.034022-.63569-.077846-.866277-.286011-.184242-.167223-.274074-.412869-.35189-.650442-.583621-1.776608-.39423-2.258674-2.011204-2.954094-1.53687-.660822-3.104064-.75539-4.596876-1.699339-2.78765-1.762193-4.858361-4.602113-6.014732-7.680183-1.603814-4.272278-1.634139-8.987988-1.12204-13.526671" fill="#e1c9a9"/><path d="m292.957823 130.82573s12.069705-1.943668 14.006009 2.660637c2.909585 6.922621 5.317144 11.37164 6.593008 15.683846l5.779851-7.966325-.874699-14.853731s-5.361591-10.198627-11.589903-9.687166c-6.228882.511461-18.366968 3.572146-18.366968 3.572146l-7.474544 6.488513-6.557108 2.284835 10.329995 18.390086s-3.007027-15.021717 8.154359-16.572841" fill="#2f2925"/><path d="m301.003122 38.2349098 8.848233 2.6213466c3.144117.9323112 8.287434 2.4582204 11.434395 3.3905317l8.848233 2.6230458c3.146392.930612 6.30871-.9685615 7.031038-4.2231547l2.036168-9.1554551c.722328-3.2551597 1.905354-8.5788495 2.627682-11.835142l2.036168-9.1560215c.728016-3.25289396-1.330903-4.32567495-4.572848-2.3834542l-5.551118 3.3338906c-2.036169-3.53383346-4.067787-7.04840899-4.852679-8.33416023-1.788189-2.9209776-5.22465-5.15546598-11.973582-5.11581727-5.009657.02832051-18.319829.10591872-26.739215.15519641l11.164801 19.98068759c.249687.2548846.483448.577172.691046 1.0019797.532361 1.097703 2.556586 4.8745265 4.57171 8.60717l-5.431678 3.2608237c-3.237963 1.9422207-3.31304 4.2945224-.168354 5.2285329" fill="#00b364"/><path d="m269.8388 6.74767158c-2.892146 4.49825632-10.226332 16.47102442-10.226332 16.47102442-1.642821 2.6840266-.804775 6.195939 1.865382 7.7988914l17.985563 10.8084459c2.669584 1.6035265 6.171477.7004305 7.775293-2.0071351 0 0 10.143731-17.0727057 11.083305-18.6526931.964813-1.6419928 2.13039-1.8865693 3.069391-.9134303l-11.259978-20.2527748c-2.939181.01664958-5.291558.03215091-6.496141.03904039-4.682957.02813204-10.036466.861185-13.796483 6.70863119" fill="#009c57"/><path d="m238.024164 82.413283c2.011221 4.0093675 7.580669 14.3301151 11.662348 21.893708l12.656851-21.2544506c1.491186-2.61478 4.255974-7.4641019 6.563382-11.4803308l6.479082 3.6977438c3.28938 1.8788907 5.323384.742179 4.520263-2.5232942l-2.268106-9.189182c-.802552-3.2637577-2.118304-8.6065314-2.924273-11.8720046l-2.261841-9.189182c-.805399-3.2654731-4.019594-5.100908-7.145502-4.0802689l-8.793324 2.87723c-3.125339 1.0223544-8.236836 2.6948301-11.363314 3.7160409l-8.792755 2.8749429c-3.126477 1.0212108-2.992624 3.3958405.295617 5.2713004l4.777149 2.7279938c-2.440692 4.8476065-5.313133 10.5711901-6.03822 12.2127894-1.308917 2.9652851-.5001 8.0827749 2.632643 14.3169639" fill="#00b364"/><path d="m262.340849 82.9969605-12.542152 21.0323625c2.25376 4.166639 4.050899 7.491916 4.527276 8.414755 1.323019 2.580669 3.220061 7.633369 15.188755 7.56434 11.96192-.070726 17.400747-.102412 17.400747-.102412 3.042831-.018106 5.522363-2.587458 5.503172-5.709608l-.115708-21.0663111c-.01919-3.1238478-2.521864-5.6654752-5.570903-5.6468034 0 0-20.369638.120518-23.76693.138624-2.144826.0130136-2.418009-1.4450838-1.665062-2.8007692.10329-.1833231.486537-.851547 1.040805-1.8241778" fill="#009c57"/><path d="m336.485869 85.142264 10.536668 21.407888c3.688121-6.9109026 9.94588-18.9147396 12.504048-24.1034765 3.424274-6.9434071 4.393624-12.9607224 2.816279-16.124489-1.583082-3.1700394-9.383772-18.5566203-9.383772-18.5566203-1.416743-2.7993746-4.732037-3.738012-7.370505-2.0888387l-17.86645 11.1803908c-2.637321 1.6474625-3.560212 5.2486135-2.054564 7.9978058 0 0 5.428363 9.9281141 8.44941 15.4863753.940671 1.7238765 1.651911 3.0320381 1.892815 3.4865302.240903.4710294.401506.9135461.476071 1.3144344" fill="#00b364"/><path d="m344.769626 111.227977c.418199-.724185 1.36917-2.494924 2.606578-4.845356l-10.523701-21.6109638c.223421 1.2549453-.395283 2.1103805-1.907671 2.1184398-1.036903.006908-6.162409.0368424-10.884612.0656256l-.059006-6.6995658c-.036091-3.8926331-2.009643-5.1556377-4.392801-2.8069327l-6.699192 6.6017031c-2.382584 2.345251-6.281567 6.1843474-8.660714 8.5313254l-6.699765 6.601703c-2.383157 2.3469784-2.346493 6.1503834.068745 8.4518844l6.817204 6.479662c2.422113 2.301501 6.382966 6.066337 8.807943 8.369564l6.81434 6.479663c2.42154 2.3015 4.379051 1.002229 4.343533-2.889829l-.059579-6.368559c2.66673-.016694 5.611877-.033389 8.335321-.050658 7.573399-.043175 10.43777-5.556875 12.093377-8.427706" fill="#009c57"/><path d="m264.023879 130.103343 1.486522-4.645566 2.276338-1.683161c.393813-1.232049 2.084088-4.258665.217994-4.810205-1.450371-.428062-1.642622 1.060275-2.856925 1.301197-1.263598.250252-3.295652-.637702-4.490785-1.013628-.421199-.132809-.877453-.274398-1.293175-.127321-1.220875.429708-.194442 2.973931-.084349 3.793285.069013.517516.30782 1.238086.235521 1.759443l-.682464 4.920514z" fill="#e1c9a9"/><path d="m265.53846 150.808373c-3.312894-5.950566.501226-17.789114 1.019044-23.514379-1.960844-.975736-4.135682-1.544678-6.326541-1.647657-2.83055-.133132-2.919237.099565-3.820985 2.568205-1.50711 4.125969-2.331042 8.67523-3.131515 12.980984-2.01749 10.855986-5.097508 19.6689 2.504983 29.557683 2.066697 2.688252 4.626036 4.955486 7.16821 7.204515 2.85916 2.528379 5.701154 5.07724 8.570612 7.593102 1.233037 1.08099 3.437628 3.893271 5.096936 3.992836.866273.052343 1.637566-.5001 2.325892-1.026372 8.052221-6.159368 16.623405-13.087376 18.983055-22.913007.106425-.441499.185957-.949565-.089259-1.311412-.271783-.357296-.774725-.423293-1.22331-.465964-10.44563-.987683-20.61261-4.766597-29.148892-10.834365-.814777-.579183-1.447031-1.319377-1.92823-2.184169" fill="#bfae93"/><path d="m343.190544 118.723719c-.04691.56299-.26973 1.354026-.164184 1.913453l.985103 5.28367-5.52361.81776-1.829476-4.942788-2.521393-1.700847c-.351822-.947818-.703645-1.89623-1.055467-2.843454-.258003-.709676-.457369-.90209-.064501-1.418164.334232-.444809 1.700475-.953756 2.228208-.739369.47496.192414.703645.723335.938193 1.182991.275594.551706.668462 1.094504 1.237242 1.310079.674326.252989 1.42488-.007126 2.075751-.317721 1.295879-.618813 2.515529-1.467455 3.37163-2.630848.087956-.119962.20523-.258334.351823-.234579.099683.016628.175911.111648.228684.20251.867828 1.419945-.134865 2.661136-.258003 4.117307" fill="#e1c9a9"/><path d="m335.894895 147.038125c.778714-1.574594 1.343-3.19859 1.608214-4.807822.914143-5.65389-1.704142-12.283313-2.4885-17.944585 1.884715-1.066954 4.000786-1.73813 6.156357-1.945388 2.781928-.268584 2.877857-.040884 3.887928 2.376939 1.681571 4.040683 2.708571 8.536199 3.707357 12.789818 2.505428 10.725754 5.958856 19.364162-1.055214 29.58625-1.907286 2.778963-4.316786 5.161581-6.715 7.524892-5.958856 5.831621-10.885634 11.724-17.481005 16.825391-.954771.738748-2.01845 1.513837-3.222071 1.466139-2.022964-.080064-3.166771-2.309367-3.887364-4.213304-1.709221-4.521068-3.419006-9.042135-5.128228-13.562636-1.027-2.714798-2.053999-5.4313-2.916792-8.202881-.207093-.663795-.395-1.423552-.04345-2.022046.256186-.436661.739214-.675718 1.199107-.880137 5.496706-2.441672 11.652498-3.360422 16.789191-6.494847 3.676321-2.243499 7.450827-6.183676 9.58947-10.495783" fill="#bfae93"/><path d="m60.3402888 165.312197c-2.1465861-.878087-4.0009221-1.71041-6.2734094-1.538797-3.0506817.230533-5.5641472 1.219025-7.875943 3.379634-5.4553368 5.098053-9.0506407 10.863681-11.3578789 18.128636-2.8222367 8.889558-4.2043009 18.412942-5.2001164 27.72238-1.2299574 11.49293-.9963851 22.854861.565131 34.292874.1088105.797429.3110499 1.528501.8545327 2.182919.5429131.653846 1.4521359 1.003937 2.2895779 1.185847 3.3679982.732215 6.9171574 1.044551 10.3170581 1.26536 12.804318.83118 25.5676184 1.170401 38.3668091 1.531933.7423041.021166 1.4390331.083518 2.0218244-.419308.7861701-.679588.8801687-1.624604.8784596-2.633117-.0102544-8.624702-.7081228-17.198493-2.1511436-25.687621-1.1815339-6.950331-2.8455939-13.864623-4.153029-20.732007-1.011197-5.313142-1.4800506-10.45753-1.7563495-15.802706-.175464-3.39508.4916412-6.925733-.8066789-10.140619-2.9509862-7.302137-8.8649222-9.932394-15.7188441-12.735408" fill="#cde1e9"/><path d="m85.0513144 130.98518c-2.3276124-1.85815-4.8242789-3.384303-7.52971-4.516999-2.2930074-.960379-4.5202086-1.96154-7.0242499-1.972454-4.0453825-.01838-7.6193427.844353-10.7672641 3.566959-3.68515 3.188437-5.5975024 7.436622-7.5705553 11.880674-1.4658909 3.302165-2.5482903 6.91048-3.4298671 10.447571-.4232023 1.696747-.8696637 3.552599-.8100977 5.280363.0533258 1.531897.7153594 2.239545 1.9514957 3.098257 5.9015726 4.101142 12.3114418 6.811686 19.2120214 8.726126 2.2686137.629531 4.4271722.967272 6.7065646.570943 2.7031619-.469276 5.2599616-.877667 7.9704984-1.221726.5752374-.073522 1.1340232-.153937 1.6530984-.53648s.9173164-.937978 1.1918873-1.586464c2.1250881-5.014421 4.3273283-9.618153 4.9065368-15.195475.5786411-5.576748-.5809104-10.683071-3.5450281-15.475203-.75507-1.220578-1.8465461-2.213123-2.9153304-3.066092" fill="#202020"/><path d="m83.8876696 152.56979c.5388496-.939644.8753439-1.764767.9922857-2.923146.1542027-1.516256.0263692-3.571333-2.0046348-3.373212-.1060502.010307-.1931833.132272-.2780235.190105.0017198-.203275.0143311-.401396.0275158-.606961.1415913-2.201664.7102495-4.312283.4448374-6.540287-.1777057-1.49278-.8495478-2.871038-1.5764214-4.197763-.4763659-.869213-.8673184-1.844358-1.6859111-2.48682-3.1419512-2.465062-6.1010376-3.845611-10.2404336-3.627449-2.6896616.142006-4.3870376 1.036987-6.8760637 2.909403-.5675117.42659-4.5498389 3.577059-3.6309285 5.170045-2.0527873-.363032-3.1585753.100205-4.2230897 1.840923-.5468749.89498-.8415224 1.894747-.9097385 2.919137-.0676428 1.024389.3496789 1.710369 1.0272535 2.396922-.6632435 1.778509-1.4703712 3.161921-1.4308174 5.171762.0636301 3.20773 1.0140689 5.840565 3.2181927 8.314788 1.110374 1.24656 2.2769258 2.542364 2.6592797 4.248725.2075144.926473.0361144 1.834624-.006879 2.75938-.0315284.687698-.2052214 1.383985.0951586 2.030455.5233719 1.124022 1.5804341 1.663988 2.6747572 2.075118 1.3327927.501602 2.7366676.825696 3.9456396.070431 1.2095451-.755838 1.1321572-2.111193 1.9897304-3.111533 1.6578221-1.933684 4.1594596-2.474223 6.3744751-3.439061 2.575586-1.122878 4.5521318-2.669482 6.2340302-4.793271.9636234-1.216212 1.1676983-2.416391 1.6687137-3.793504.593881-.326385 1.1464884-.568597 1.5110716-1.204187" fill="#e1c99d"/><path d="m63.6392495 135.446605-.0229235.107895c1.1685274-.488665 1.9255772-1.39007 3.2631657-1.543063 1.3375884-.152993 2.4373452.043957 3.8574584.444137 4.5915847 1.293022 8.6221158 2.86634 11.5557557 6.863575.9427305-1.497393 1.7782935-3.084413 2.3806094-4.72852.1724996-.471538.3289528-.968767.2131889-1.386644-.1157638-.417877-.3524494-.663351-.6321165-.876857-3.7663374-2.871478-7.4914124-4.957438-12.1265518-6.112309-2.1725784-.541185-4.502183-.63652-6.2627107.980185-1.7593816 1.616705-1.6470562 4.091999-2.2258756 6.251601" fill="#202020"/><path d="m82.4531791 151.119848c-.0790201.420341-.1662348.802624-.3219337 1.219556-1.5007961 4.031863-3.6396063 6.889044-7.2991139 9.316796.9330222-.214715 2.1072021.751501 2.7785801 1.016202 1.6038149.632215 2.8488202.788991 4.4327337 1.049147.268083.044307.4823152.049987.7351795-.067595.2528642-.11815.4284644-.345929.5589938-.598701 1.6962977-3.283202 3.6612637-6.332377 4.4350751-9.993317.8534169-4.039815.4793885-8.07679.1065308-12.182496-.1398948-1.544468-.3898324-3.075872-1.4779681-4.305653-1.0875504-1.229212-2.6702934-1.631944-4.2313789-1.984121.9681423.477711 1.2818813 2.420367 1.3351466 3.154827.1123842 1.555829-.024584 2.720854-.0813614 4.054016-.1357974 3.21447-.3781257 6.194913-.9704836 9.321339" fill="#202020"/><path d="m58.7222809 140.364142c-.2128849.368451-.4003592.716783-.5641169 1.146163-1.5811084 4.148951-1.9001534 7.823687-.7781312 12.14623-.5477411-.760469-2.0486647-.797256-2.7116009-1.032352-1.5833671-.561011-2.6065701-1.219164-3.9426067-2.030215-.2264373-.137379-.3851128-.272459-.4952257-.529972-.1095482-.257513-.0807495-.577105-.014117-.860485.8667862-3.678759 1.4992295-7.50237 3.3208923-10.820151 2.0097017-3.660941 4.8274627-6.400467 7.7107268-9.302664 1.0847533-1.092131 2.1768474-2.006073 3.7178634-2.282555 1.5415807-.277056 2.9143216.466168 4.2582637 1.128345-.9910161-.196584-2.2863956 1.115124-2.7742805 1.638197-1.0333673 1.108227-1.6522583 2.046885-2.4524121 3.096481-1.9295169 2.532021-3.690194 4.958853-5.2752552 7.702978" fill="#202020"/><path d="m78.807582 270.300912c-.2008845 9.594813.8469877 18.337785.397819 28.125079s-2.5347561 20.260872-3.2790444 30.197109c-2.6989621-.356891-5.3499603-.57916-8.0207083-1.203003-.8328807-8.80656-1.397163-20.617764-2.3417715-28.695074-.9446086-8.077883-2.1950581-12.144035-3.0691314-19.48293 5.4616883-2.834506 10.840427-5.980647 16.3128366-8.941181" fill="#e1c99d"/><path d="m76.1704549 328.249567c-.1493648 1.251897-.373412 2.551966.3574871 3.65028.7314483 1.098314 2.0394887 1.483688 2.6188265 2.707815.2427178.512887.1806655 1.215626.0999426 1.727946s-.1565036.918096-.4750021 1.271733c-.5266208.585427-1.217433.758279-1.9483322.850088-1.1350627.142248-2.2404721.386507-3.37224.180786-1.9494305-.355337-3.5034835-1.315371-5.0707157-2.529297-1.3278093-1.02974-2.2915418-1.95747-2.5106468-3.736989-.0658962-.532155.2015327-1.101148.3261864-1.644071.3272847-1.424748.5491353-2.874432.5859274-4.347919 3.2195805.170018 6.4380627.346836 9.6548975.522521-.0719368.461315-.2097697.870491-.2663307 1.347107" fill="#363535"/><path d="m51.27894 271.422492c-1.8961058 9.897659-2.0179901 18.862443-5.0604983 28.824399-3.0425081 9.962529-8.9487224 19.950318-13.5832005 29.49779-2.4480347-1.214173-4.8500754-2.323289-7.1526538-3.856074 2.6676564-8.669709 6.0384473-20.404413 7.1940484-28.638972 1.1556012-8.235132.5013355-12.302466.8577896-19.779817 5.93956-1.767583 11.8124286-3.947927 17.7445146-6.047326" fill="#e1c99d"/><path d="m33.6557865 328.12447c-.6245491 1.187038-1.3427522 2.402034-1.0364016 3.780699.3063506 1.3775 1.457281 2.257586 1.634434 3.672945.074472.592937-.2036695 1.279648-.4423183 1.761336-.239213.481106-.4259571.855623-.8496575 1.095011-.7001494.39432-1.4127107.312777-2.1534811.137459-1.1498021-.272005-2.2933982-.43218-3.330364-1.048997-1.7867631-1.061228-2.9850848-2.556384-4.0976509-4.331699-.9433116-1.505057-1.5458575-2.747428-1.1272348-4.575164.1252483-.54634.5692592-1.017544.8942278-1.506804.8524784-1.283143 1.6231505-2.648994 2.2189262-4.094058 3.0082163 1.333816 6.0378714 2.603562 9.0889655 3.82147-.2499325.438004-.5619249.836402-.7994453 1.287802" fill="#363535"/><path d="m88.2880823 246.554124c.0131119-2.602434-.0165324-5.204867-.0889328-7.806156-.0153922-.551043-.0364852-1.119825-.2656581-1.621085-.320386-.698674-.9908023-1.157019-1.6304341-1.580458-3.7425874-2.475401-5.906048-4.553686-7.7491226-8.715405-1.5648747-3.687353-2.1150037-5.716999-3.41251-10.733035-.822058-3.176937-2.2284499-12.478863-3.7938947-16.161638-.7388261-1.736672-.4207204.087549-.9697092-.874917-.3300774-8.986635.432122-17.902888 2.5739195-26.58396.354591-1.438549.7040511-1.215385.2491258-2.651644-.1362495-.430306-3.0482276-1.855693-3.06476-1.814494-3.6935603 9.404925-5.2846588 19.137728-6.3125163 29.158928-4.2396988-.98936-8.552368-1.939236-12.7823753-2.937752.4224306-10.577392 2.6759642-20.756523 4.506497-31.165113.0079812-.045777-3.224953-.662052-3.5772636-.350767-1.177219 1.03857-.8135068 1.007098-1.2684321 2.52404-2.6845154 8.950013-4.6929138 18.391559-6.2349852 27.717518-.1750151.016022-.3072741-.068094-.4839995-.062372-.5581101.017167-.9765502-.195697-1.4599796.266653-.4834294.461777-.6390618 1.130124-.7895634 1.837382-1.0620625 4.972547-1.8271123 10.026922-2.7050384 15.063557-.4298417 2.466819-.7667601 4.994864-1.4371763 7.429067-1.7210771 6.248014-3.8771267 11.81681-7.919007 16.940422-.5096532.646603-1.107669 1.211379-1.4502882 1.985586-.3431893.774207-.4566356 1.650268-.5147839 2.492568-.2417147 3.515689-.2445652 7.209336-.2115004 10.692408.1807159 19.276204 1.3824485 38.245701-1.5266792 57.383429-.2998631 1.972997-.6504634 3.75659-.9839613 5.91613-.2206217 1.431681-1.1059588 4.049565-.2753495 5.556779.4520749.819411 1.8921016.96361 2.612115 1.286339 1.0147457.454338 1.929157.76219 2.9091277 1.117535 1.9576611.710119 3.8845377 1.339556 5.7931718 2.151529 8.9166502-11.871743 16.4451511-24.450744 23.0427084-37.754168 1.2353674 12.109784 3.1371604 24.084525 4.6359056 36.197743.0376254.302129 10.1149623.895516 10.9963088.514993 2.6172458-1.128407 2.3589987-3.978038 3.1502723-6.682325 2.4462212-8.362349 4.6227938-16.765897 6.2458168-25.332527 2.709599-14.300223 4.1188414-28.848787 4.192952-43.40479" fill="#465c82"/><path d="m73.0617345 120.631327c.1458073-.011175.3196096-.042348.4455871-.061758.5144081-.079992 1.2393619-.622876 1.1116347-1.129883-.4164256-1.65218-3.176266-1.526899-1.7881806-3.474932.3785158-.531121 4.2179133-1.395737 4.240076-2.008614.1137297-3.12791-1.9695648-5.328857-4.805225-5.152993-1.9199904.118811-2.9692197 1.706881-4.1770873 2.910873-1.8744985 1.869806-3.2649168 4.073694-5.1989047 5.87233-.1778849.165277-.3569363.329378-.3884306.604643-.0309112.274677.0524906.467598.1784681.753451.9156698 2.070373 1.7228589 3.895477 4.0977681 4.416599.3324406.072345.5791465-.178217.8456823-.334671.7634469-.448189 1.4802356-.970487 2.237267-1.436909.580313-.35761 1.1547938-.70875 1.8278402-.861087.4473368-.101166.9250015-.062347 1.3735047-.097049" fill="#e1c99d"/><path d="m43.4517285 131.067606c1.0284214-.943406 2.2412692-1.527882 3.8620383-2.699124 1.9528515-1.410528 13.9405677-11.702116 14.2284108-11.715283 5.7183675-.261039 4.5865295 5.349588 8.8036317 6.370847-4.1550522 4.107934-7.9584877 6.903803-12.2451088 11.051236-7.4833455 7.240978-10.3922268 12.240796-8.04869 22.953139.658994 3.013401 2.5635844 5.136062.9117903 8.192397-.6262454 1.159793-1.8505839 1.761443-2.6940043 2.829643-5.437419 6.87976-7.7229275 15.095628-11.2902282 22.998936-.2654361.588483-.8037774.960579-1.4047432.59707-.233262-.140824-.3062282-.457391-.3757472-.724155-.6871464-2.639588-1.0692135-5.458927-1.6764992-8.090501-.6072857-2.632146-1.9988145-4.713591-2.0740789-7.471677-.1522523-5.57628-.7089788-11.055815-.0247051-16.70537 1.2863885-10.629336 3.8206716-20.055373 12.0279338-27.587158" fill="#cde1e9"/><path d="m87.9474437 126.325341c-.1141593-.110689-.2462493-.256572-.3335125-.358179-.3544316-.416077-.6718063-1.295914-.2247323-1.648984 1.4565766-1.150031 3.6088673 1.145491 3.4110311-1.612087-.0537923-.752118-3.3644111-4.096633-3.0410595-4.738629 1.6508267-3.274695 4.7498624-2.921058 7.1507931-.923545 1.6257237 1.35211 1.9006622 3.621521 2.3082885 5.475989.633554 2.878485.6150256 5.709288 1.1188804 8.571878.04662.262816.0986192.513711-.0502062.761201-.1488254.246922-.3388917.332635-.6311633.466029-2.1259922.966118-3.9286328 1.742644-6.1365089.525064-.3084094-.170291-.3741555-.545499-.4990733-.851455-.3574201-.876998-.6449102-1.79146-.9903765-2.681514-.2647777-.681732-.5355324-1.36176-.9999395-1.948696-.3084093-.389967-.732771-.695355-1.0824211-1.037072" fill="#e1c99d"/><path d="m102.785894 155.688219c-.086811-1.253865-.662144-2.607197-.867539-4.641458-.246814-2.45089-2.6536808-19.071699-2.8664519-19.279729-4.224215-4.132182-7.000452.994679-10.888205-1.067433.7932106 5.811769 1.7861422 11.067655 2.1333846 16.922054.605972 10.220189-.7756215 15.294759-9.0952541 21.565786-1.6760686 1.263527-3.5734192 1.514186-5.0940231 2.430996-1.7430207 1.050382-2.0000481 1.04413-2.2179257 3.124431-.3449728 3.298356.0017022 6.854762-.1378757 10.333866-.1548973 3.86504.0828389 7.734627 1.4264173 11.434266.1304996.359221.4385921.724695.7239891.834394.2853969.110267.4227051.030124.6002981-.079006 3.4956868-2.145666 6.1255373-4.407851 9.1973842-7.244108 3.2216377-2.975513 6.5261143-4.43286 9.2115689-8.57641 5.0446603-7.785214 8.5613403-15.884746 7.8742323-25.757649" fill="#cde1e9"/><path d="m102.329474 75.1458967c-14.4944558 11.3649347-24.9552069 37.5136263-30.8620842 54.1338183 3.5461508 1.395554 7.0923016 2.792247 10.6384524 4.18837 5.3220379-18.98295 12.6882017-39.2930998 25.2521248-54.6009013-1.676352-1.2406189-3.352704-2.4806682-5.028493-3.721287" fill="#624d3b"/><path d="m180.260703 34.2797966c-17.673075-3.8123362-42.905869-5.0256646-58.419268 3.962356-15.513398 8.9880207-18.426318 24.4194506-18.96979 40.4475243 13.962571 7.7048357 28.616419 13.0540163 44.20429 4.1948296 15.58787-8.8586142 27.425442-31.3472751 33.184768-48.6047099" fill="#00b364"/><path d="m102.927121 78.5315347c1.196223.8129113 2.459863 1.521618 3.724079 2.2222647 15.189613-10.0946087 30.382682-20.1851875 45.569989-30.2826748-16.435389 7.9091899-32.870203 15.8189554-49.306745 23.7258424-.042064 1.4438964-.075484 2.891247.012677 4.3345677" fill="#624d3b"/><path d="m51.4300032 23.5531915c-3.2493622 16.0111776-4.1979162 38.5723042 3.7157347 52.5705398 7.9142155 13.9988093 21.5005583 16.5194326 35.5956197 16.9674541 6.7183599-12.5991005 11.4159604-25.8034029 3.5040038-39.7987703-7.9113924-13.9959411-27.5667873-24.5344866-42.8153582-29.7392236" fill="#00b364"/><path d="m90.824762 93.0352078c.7136358-1.066385 1.3371402-2.1901025 1.9526582-3.3155399-8.9726444-13.4565169-17.9447183-26.913607-26.9179331-40.3701238 7.0439451 14.5710611 14.0873198 29.1421222 21.1335467 43.7120366 1.2766723.0321062 2.5561968.0556126 3.8317282-.0263729" fill="#624d3b"/><path d="m102.871645 78.6887148c22.965547 4.3647443 49.132308-1.2359982 65.051672-19.2449458-13.274637 27.8785627-38.777808 36.2802506-65.051672 19.2449458" fill="#009c57"/></g></svg>