<svg height="310" viewBox="0 0 346 310" width="346" xmlns="http://www.w3.org/2000/svg"><g fill="none"><path d="m0 149.814126h161.33829v126.765799h-161.33829z" fill="#74c9e6"/><path d="m184.386617 0h161.33829v276.579926h-161.33829z" fill="#dc8c01"/><g fill="#fff"><path d="m27.5676719 303.903717v1.486618h-6.8453531v-12.0658h6.7070632v1.469331h-4.9611524v3.630112h4.6154275v1.452044h-4.6154275v4.027695zm4.2694145-5.911895h.0345725c.6568773-1.002603 1.6594796-1.624908 2.9386617-1.624908 2.4892194 0 3.2843866 1.642194 3.2843866 3.975837v5.047584h-1.6421933v-4.356134c0-1.728625-.1728624-3.301673-2.0397769-3.301673-.8643123 0-1.6594796.501301-2.1089219 1.261896-.27658.484015-.4148699 1.140892-.4148699 2.178067v4.217844h-1.6421933v-6.205763c0-.933457-.0172863-1.866914-.0864313-2.610223h1.6076209c.0345724.380298.0691449.950744.0691449 1.417473zm16.4043588 3.388104h-6.2921933c.0691449 1.780483 1.2791821 2.834944 3.0596654 2.834944 1.0198885 0 1.7804833-.242008 2.5756505-.656877l.0518588 1.503903c-.7951673.363011-1.6767658.535874-2.7312268.535874-2.9386617 0-4.6154275-1.780484-4.6154275-4.684573 0-2.783085 1.694052-4.546283 4.2005576-4.546283 2.3163569 0 3.7856878 1.400186 3.7856878 4.373421 0 .172862-.0172863.449442-.0345725.639591zm-6.2576209-1.261896h4.6845725c0-1.694052-.9334572-2.506506-2.2299256-2.506506s-2.3163569.933457-2.4546469 2.506506zm10.1813105-2.057063h.0345724c.5013012-1.002603 1.3483272-1.694053 2.4719331-1.694053.3457249 0 .6223049.034573.8470261.121004v1.538476c-.207435-.086431-.5013012-.13829-.8815986-.13829-1.5211895 0-2.4373606 1.261896-2.4373606 3.509108v3.993123h-1.6421933v-6.205763c0-.933457-.0172862-1.866914-.0864312-2.610223h1.6249071c.0518587.449443.069145 1.037175.069145 1.486618zm8.6601208-.328439c-1.4001859 0-2.4373606 1.3829-2.4373606 3.232528 0 1.832342.9507435 3.094238 2.4373606 3.094238 1.4693308 0 2.5583643-1.348327 2.5583643-3.146097 0-1.797769-1.0890335-3.180669-2.5583643-3.180669zm2.6447955-1.158179h1.5211896v8.452974c0 2.143495-1.054461 4.200558-4.3042751 4.200558-1.2100372 0-2.2126394-.155576-3.3708178-.587732l.1728624-1.624907c1.1063197.587732 2.0570632.829739 3.1460967.829739 1.9360595 0 2.7657992-1.123606 2.7657992-2.99052 0-.293866 0-.760595.0345725-1.071747h-.0345725c-.5358736.898885-1.4693308 1.607621-2.8695167 1.607621-2.3163569 0-3.9066914-1.745911-3.9066914-4.373421 0-2.765799 1.624907-4.65 4.0276951-4.65 1.2964684 0 2.2817844.587733 2.817658 1.538476h.0345725c-.0345725-.55316-.0345725-.881598-.0345725-1.331041zm4.9262918 0 1.7804833 5.34145c.1901487.55316.4840149 1.538476.6395911 2.143495h.0345725c.1728624-.605019.4840148-1.624907.6568773-2.143495l1.7977695-5.34145h1.6594796l-3.1460967 8.729554c-1.0890334 2.990521-1.8669145 3.923978-3.664684 3.923978-.2765799 0-.6568773-.034572-1.0026022-.13829l.1037174-1.296468c.2420075.069145.5013012.121003.7778811.121003.9507435 0 1.3483271-.501301 1.9187732-2.143494l-3.3362453-9.196283zm20.3799071 3.111525v-6.361339h1.6421933v12.0658h-2.2817844l-4.2351301-7.813383c-.5013011-.933458-1.0717472-2.057064-1.4001859-2.834945h-.0345725c.0518588.743309.0864313 2.35093.0864313 3.388105v7.260223h-1.6767658v-12.0658h2.5929368l4.0622676 7.605948c.4494424.864313.9507435 1.866915 1.3137547 2.696655h.0345725c-.0518588-.847026-.1037175-2.90409-.1037175-3.941264zm12.065511 1.694052h-6.2921932c.069145 1.780483 1.2791822 2.834944 3.0596655 2.834944 1.0198884 0 1.7804832-.242008 2.5756507-.656877l.051859 1.503903c-.7951677.363011-1.6767662.535874-2.7312272.535874-2.9386617 0-4.6154275-1.780484-4.6154275-4.684573 0-2.783085 1.694052-4.546283 4.2005576-4.546283 2.3163569 0 3.7856881 1.400186 3.7856881 4.373421 0 .172862-.017287.449442-.034573.639591zm-6.2576207-1.261896h4.6845725c0-1.694052-.9334572-2.506506-2.2299256-2.506506s-2.3163569.933457-2.4546469 2.506506zm15.8684847 1.261896h-6.292193c.069145 1.780483 1.279182 2.834944 3.059666 2.834944 1.019888 0 1.780483-.242008 2.57565-.656877l.051859 1.503903c-.795167.363011-1.676766.535874-2.731227.535874-2.938662 0-4.615427-1.780484-4.615427-4.684573 0-2.783085 1.694052-4.546283 4.200557-4.546283 2.316357 0 3.785688 1.400186 3.785688 4.373421 0 .172862-.017286.449442-.034573.639591zm-6.25762-1.261896h4.684572c0-1.694052-.933457-2.506506-2.229926-2.506506-1.296468 0-2.316356.933457-2.454646 2.506506zm16.283355-7.796097v10.40632c0 .933457.017286 1.918773.086431 2.662082h-1.503903c-.034573-.466729-.051859-.950744-.051859-1.52119h-.034573c-.674163 1.10632-1.624907 1.728625-2.99052 1.728625-2.368216 0-3.872119-1.815056-3.872119-4.563569s1.573048-4.667287 3.889405-4.667287c1.296469 0 2.333643.587733 2.869517 1.538476h.034572c-.034572-.55316-.051858-1.331041-.051858-2.195353v-3.388104zm-4.148699 5.410595c-1.434759 0-2.471933 1.417472-2.471933 3.284386 0 1.832343 1.002602 3.215242 2.471933 3.215242s2.57565-1.434758 2.57565-3.215242c0-1.866914-1.089033-3.284386-2.57565-3.284386zm14.41644 3.647398h-6.292193c.069145 1.780483 1.279182 2.834944 3.059665 2.834944 1.019889 0 1.780484-.242008 2.575651-.656877l.051859 1.503903c-.795168.363011-1.676766.535874-2.731227.535874-2.938662 0-4.615428-1.780484-4.615428-4.684573 0-2.783085 1.694052-4.546283 4.200558-4.546283 2.316357 0 3.785688 1.400186 3.785688 4.373421 0 .172862-.017286.449442-.034573.639591zm-6.257621-1.261896h4.684573c0-1.694052-.933457-2.506506-2.229926-2.506506-1.296468 0-2.316357.933457-2.454647 2.506506zm16.283356-7.796097v10.40632c0 .933457.017286 1.918773.086431 2.662082h-1.503904c-.034572-.466729-.051858-.950744-.051858-1.52119h-.034573c-.674163 1.10632-1.624907 1.728625-2.99052 1.728625-2.368216 0-3.872119-1.815056-3.872119-4.563569s1.573048-4.667287 3.889405-4.667287c1.296468 0 2.333643.587733 2.869517 1.538476h.034572c-.034572-.55316-.051859-1.331041-.051859-2.195353v-3.388104zm-4.148699 5.410595c-1.434759 0-2.471933 1.417472-2.471933 3.284386 0 1.832343 1.002602 3.215242 2.471933 3.215242 1.46933 0 2.57565-1.434758 2.57565-3.215242 0-1.866914-1.089033-3.284386-2.57565-3.284386z"/><path d="m205.2648 303.903717v1.486618h-6.845353v-12.0658h6.707063v1.469331h-4.961152v3.630112h4.615427v1.452044h-4.615427v4.027695zm4.269415-5.911895h.034572c.656877-1.002603 1.65948-1.624908 2.938662-1.624908 2.489219 0 3.284387 1.642194 3.284387 3.975837v5.047584h-1.642194v-4.356134c0-1.728625-.172862-3.301673-2.039777-3.301673-.864312 0-1.659479.501301-2.108922 1.261896-.27658.484015-.41487 1.140892-.41487 2.178067v4.217844h-1.642193v-6.205763c0-.933457-.017286-1.866914-.086431-2.610223h1.607621c.034572.380298.069145.950744.069145 1.417473zm16.404358 3.388104h-6.292193c.069145 1.780483 1.279182 2.834944 3.059666 2.834944 1.019888 0 1.780483-.242008 2.57565-.656877l.051859 1.503903c-.795167.363011-1.676766.535874-2.731227.535874-2.938662 0-4.615427-1.780484-4.615427-4.684573 0-2.783085 1.694052-4.546283 4.200557-4.546283 2.316357 0 3.785688 1.400186 3.785688 4.373421 0 .172862-.017286.449442-.034573.639591zm-6.25762-1.261896h4.684572c0-1.694052-.933457-2.506506-2.229926-2.506506-1.296468 0-2.316356.933457-2.454646 2.506506zm10.18131-2.057063h.034573c.501301-1.002603 1.348327-1.694053 2.471933-1.694053.345724 0 .622304.034573.847026.121004v1.538476c-.207435-.086431-.501302-.13829-.881599-.13829-1.521189 0-2.43736 1.261896-2.43736 3.509108v3.993123h-1.642194v-6.205763c0-.933457-.017286-1.866914-.086431-2.610223h1.624907c.051859.449443.069145 1.037175.069145 1.486618zm8.660121-.328439c-1.400186 0-2.437361 1.3829-2.437361 3.232528 0 1.832342.950744 3.094238 2.437361 3.094238 1.469331 0 2.558364-1.348327 2.558364-3.146097 0-1.797769-1.089033-3.180669-2.558364-3.180669zm2.644795-1.158179h1.52119v8.452974c0 2.143495-1.054461 4.200558-4.304275 4.200558-1.210037 0-2.21264-.155576-3.370818-.587732l.172862-1.624907c1.10632.587732 2.057064.829739 3.146097.829739 1.93606 0 2.765799-1.123606 2.765799-2.99052 0-.293866 0-.760595.034573-1.071747h-.034573c-.535873.898885-1.46933 1.607621-2.869516 1.607621-2.316357 0-3.906692-1.745911-3.906692-4.373421 0-2.765799 1.624907-4.65 4.027695-4.65 1.296469 0 2.281785.587733 2.817658 1.538476h.034573c-.034573-.55316-.034573-.881598-.034573-1.331041zm4.926292 0 1.780483 5.34145c.190149.55316.484015 1.538476.639592 2.143495h.034572c.172862-.605019.484015-1.624907.656877-2.143495l1.79777-5.34145h1.659479l-3.146096 8.729554c-1.089034 2.990521-1.866915 3.923978-3.664684 3.923978-.27658 0-.656878-.034572-1.002602-.13829l.103717-1.296468c.242007.069145.501301.121003.777881.121003.950744 0 1.348327-.501301 1.918773-2.143494l-3.336245-9.196283zm12.480093-3.249814h2.783086c2.765799 0 4.874721.674164 4.874721 3.612826 0 2.938661-2.385502 3.630111-4.874721 3.630111h-1.019889v4.822863h-1.763197zm1.763197 1.469331v4.304275h.864312c2.108922 0 3.284387-.41487 3.284387-2.143494 0-1.676766-1.175465-2.160781-3.301673-2.160781zm9.524433 3.267101h.034573c.501301-1.002603 1.348327-1.694053 2.471933-1.694053.345725 0 .622305.034573.847026.121004v1.538476c-.207435-.086431-.501301-.13829-.881599-.13829-1.521189 0-2.43736 1.261896-2.43736 3.509108v3.993123h-1.642194v-6.205763c0-.933457-.017286-1.866914-.086431-2.610223h1.624907c.051859.449443.069145 1.037175.069145 1.486618zm8.729266-1.694053c2.610223 0 4.477138 1.93606 4.477138 4.667287 0 2.696654-1.866915 4.563569-4.528997 4.563569-2.610223 0-4.528996-1.901487-4.528996-4.563569 0-2.7658 1.884201-4.667287 4.580855-4.667287zm-.069145 1.365614c-1.607621 0-2.765799 1.348327-2.765799 3.301673 0 1.936059 1.140892 3.197955 2.817658 3.197955 1.607621 0 2.783085-1.279182 2.783085-3.197955 0-1.970632-1.175464-3.301673-2.834944-3.301673zm14.537444-5.410595v10.40632c0 .933457.017287 1.918773.086432 2.662082h-1.503904c-.034572-.466729-.051859-.950744-.051859-1.52119h-.034572c-.674164 1.10632-1.624907 1.728625-2.99052 1.728625-2.368216 0-3.872119-1.815056-3.872119-4.563569s1.573048-4.667287 3.889405-4.667287c1.296468 0 2.333643.587733 2.869516 1.538476h.034573c-.034573-.55316-.051859-1.331041-.051859-2.195353v-3.388104zm-4.148699 5.410595c-1.434758 0-2.471933 1.417472-2.471933 3.284386 0 1.832343 1.002603 3.215242 2.471933 3.215242 1.469331 0 2.575651-1.434758 2.575651-3.215242 0-1.866914-1.089033-3.284386-2.575651-3.284386zm13.258262 6.257621h-.034572c-.466729.743308-1.348327 1.607621-3.042379 1.607621-1.970632 0-3.180669-1.3829-3.180669-3.526395v-5.497026h1.642193v4.356134c0 1.832342.190149 3.301673 2.005204 3.301673 1.555763 0 2.523792-1.434758 2.523792-3.111524v-4.546283h1.642194v6.17119c0 .933457 0 1.901487.086431 2.644796h-1.573049c-.034572-.363012-.069145-.812454-.069145-1.400186zm10.302315-7.208365-.103718 1.452045c-.518587-.259294-1.037175-.363011-1.642193-.363011-1.763197 0-2.973234 1.227323-2.973234 3.059665 0 1.866915 1.192751 3.163383 2.938661 3.163383.639591 0 1.158179-.103717 1.832342-.432156l.13829 1.469331c-.622305.259294-1.382899.380297-2.16078.380297-2.696655 0-4.494424-1.815055-4.494424-4.528996 0-2.644796 1.815056-4.528996 4.598141-4.528996.656877 0 1.279182.086431 1.866915.328438zm9.35157 4.598142h-6.292193c.069145 1.780483 1.279182 2.834944 3.059665 2.834944 1.019889 0 1.780484-.242008 2.575651-.656877l.051859 1.503903c-.795168.363011-1.676766.535874-2.731227.535874-2.938662 0-4.615428-1.780484-4.615428-4.684573 0-2.783085 1.694052-4.546283 4.200558-4.546283 2.316357 0 3.785688 1.400186 3.785688 4.373421 0 .172862-.017287.449442-.034573.639591zm-6.257621-1.261896h4.684573c0-1.694052-.933457-2.506506-2.229926-2.506506-1.296468 0-2.316357.933457-2.454647 2.506506zm16.283355-7.796097v10.40632c0 .933457.017287 1.918773.086432 2.662082h-1.503904c-.034572-.466729-.051858-.950744-.051858-1.52119h-.034573c-.674163 1.10632-1.624907 1.728625-2.99052 1.728625-2.368216 0-3.872119-1.815056-3.872119-4.563569s1.573048-4.667287 3.889405-4.667287c1.296468 0 2.333643.587733 2.869517 1.538476h.034572c-.034572-.55316-.051859-1.331041-.051859-2.195353v-3.388104zm-4.148698 5.410595c-1.434759 0-2.471934 1.417472-2.471934 3.284386 0 1.832343 1.002603 3.215242 2.471934 3.215242 1.46933 0 2.57565-1.434758 2.57565-3.215242 0-1.866914-1.089033-3.284386-2.57565-3.284386z"/></g></g></svg>