<svg height="310" width="346" xmlns="http://www.w3.org/2000/svg"><g fill="none"><path d="M0 149.814h161.338V276.58H0z" fill="#74c9e6"/><path d="M184.387 0h161.338v276.58H184.387z" fill="#dc8c01"/><path d="M27.568 303.904v1.486h-6.846v-12.065h6.707v1.469h-4.96v3.63h4.615v1.452h-4.616v4.028zm4.27-5.912h.034c.657-1.003 1.66-1.625 2.938-1.625 2.49 0 3.285 1.642 3.285 3.976v5.047h-1.642v-4.356c0-1.728-.173-3.301-2.04-3.301-.865 0-1.66.5-2.11 1.261-.276.484-.414 1.141-.414 2.178v4.218h-1.642v-6.205c0-.934-.018-1.867-.087-2.61h1.608c.035.38.07.95.07 1.417zm16.403 3.388H41.95c.07 1.78 1.28 2.835 3.06 2.835 1.02 0 1.78-.242 2.576-.657l.051 1.504c-.795.363-1.676.536-2.73.536-2.94 0-4.616-1.78-4.616-4.685 0-2.783 1.694-4.546 4.2-4.546 2.317 0 3.786 1.4 3.786 4.373 0 .173-.017.45-.035.64zm-6.257-1.262h4.684c0-1.694-.933-2.506-2.23-2.506s-2.316.933-2.454 2.506zm10.181-2.057h.035c.501-1.003 1.348-1.694 2.472-1.694.345 0 .622.034.847.12v1.54c-.208-.087-.502-.139-.882-.139-1.521 0-2.437 1.262-2.437 3.51v3.992h-1.642v-6.205c0-.934-.018-1.867-.087-2.61h1.625c.052.449.07 1.037.07 1.486zm8.66-.328c-1.4 0-2.437 1.382-2.437 3.232 0 1.832.95 3.094 2.437 3.094 1.47 0 2.559-1.348 2.559-3.146 0-1.798-1.09-3.18-2.559-3.18zm2.645-1.159h1.521v8.453c0 2.144-1.054 4.2-4.304 4.2-1.21 0-2.213-.155-3.37-.587l.172-1.625c1.106.588 2.057.83 3.146.83 1.936 0 2.766-1.124 2.766-2.99 0-.294 0-.761.034-1.072h-.034c-.536.899-1.47 1.607-2.87 1.607-2.316 0-3.906-1.746-3.906-4.373 0-2.766 1.625-4.65 4.027-4.65 1.297 0 2.282.588 2.818 1.538h.035c-.035-.553-.035-.881-.035-1.33zm4.926 0l1.78 5.342c.191.553.485 1.538.64 2.143h.035a66.11 66.11 0 0 1 .657-2.143l1.798-5.342h1.66l-3.147 8.73c-1.089 2.99-1.867 3.924-3.665 3.924-.276 0-.657-.035-1.002-.138l.103-1.297c.242.07.502.121.778.121.951 0 1.349-.501 1.92-2.143l-3.337-9.197zm20.38 3.112v-6.361h1.642v12.065h-2.281l-4.235-7.813c-.502-.934-1.072-2.057-1.4-2.835h-.035c.052.743.086 2.35.086 3.388v7.26h-1.677v-12.065h2.593l4.063 7.605c.45.865.95 1.867 1.313 2.697h.035a91.047 91.047 0 0 1-.104-3.941zm12.066 1.694H94.55c.069 1.78 1.279 2.835 3.06 2.835 1.02 0 1.78-.242 2.575-.657l.052 1.504c-.795.363-1.677.536-2.731.536-2.94 0-4.616-1.78-4.616-4.685 0-2.783 1.694-4.546 4.2-4.546 2.317 0 3.786 1.4 3.786 4.373 0 .173-.017.45-.034.64zm-6.258-1.262h4.685c0-1.694-.934-2.506-2.23-2.506s-2.317.933-2.455 2.506zm15.869 1.262h-6.293c.07 1.78 1.28 2.835 3.06 2.835 1.02 0 1.78-.242 2.576-.657l.052 1.504c-.796.363-1.677.536-2.732.536-2.938 0-4.615-1.78-4.615-4.685 0-2.783 1.694-4.546 4.2-4.546 2.317 0 3.786 1.4 3.786 4.373 0 .173-.017.45-.034.64zm-6.258-1.262h4.685c0-1.694-.934-2.506-2.23-2.506-1.297 0-2.317.933-2.455 2.506zm16.283-7.796v10.406c0 .934.018 1.919.087 2.662h-1.504c-.035-.466-.052-.95-.052-1.52h-.035c-.674 1.105-1.624 1.728-2.99 1.728-2.368 0-3.872-1.815-3.872-4.564s1.573-4.667 3.89-4.667c1.296 0 2.333.588 2.869 1.538h.034a37.931 37.931 0 0 1-.052-2.195v-3.388zm-4.148 5.41c-1.435 0-2.472 1.418-2.472 3.285 0 1.832 1.002 3.215 2.472 3.215s2.575-1.435 2.575-3.215c0-1.867-1.089-3.284-2.575-3.284zm14.416 3.648h-6.292c.07 1.78 1.28 2.835 3.06 2.835 1.02 0 1.78-.242 2.575-.657l.052 1.504c-.795.363-1.677.536-2.731.536-2.939 0-4.616-1.78-4.616-4.685 0-2.783 1.694-4.546 4.201-4.546 2.316 0 3.786 1.4 3.786 4.373 0 .173-.018.45-.035.64zm-6.258-1.262h4.685c0-1.694-.933-2.506-2.23-2.506-1.296 0-2.316.933-2.455 2.506zm16.284-7.796v10.406c0 .934.017 1.919.086 2.662h-1.504c-.034-.466-.051-.95-.051-1.52h-.035c-.674 1.105-1.625 1.728-2.99 1.728-2.369 0-3.873-1.815-3.873-4.564s1.573-4.667 3.89-4.667c1.296 0 2.333.588 2.87 1.538h.034a37.931 37.931 0 0 1-.052-2.195v-3.388zm-4.149 5.41c-1.435 0-2.472 1.418-2.472 3.285 0 1.832 1.003 3.215 2.472 3.215 1.47 0 2.576-1.435 2.576-3.215 0-1.867-1.09-3.284-2.576-3.284zm68.642 6.172v1.486h-6.846v-12.065h6.708v1.469h-4.962v3.63h4.616v1.452h-4.616v4.028zm4.27-5.912h.034c.657-1.003 1.66-1.625 2.938-1.625 2.49 0 3.285 1.642 3.285 3.976v5.047h-1.642v-4.356c0-1.728-.173-3.301-2.04-3.301-.864 0-1.66.5-2.11 1.261-.276.484-.414 1.141-.414 2.178v4.218h-1.642v-6.205c0-.934-.017-1.867-.087-2.61h1.608c.035.38.07.95.07 1.417zm16.404 3.388h-6.293c.07 1.78 1.28 2.835 3.06 2.835 1.02 0 1.78-.242 2.576-.657l.052 1.504c-.796.363-1.677.536-2.732.536-2.938 0-4.615-1.78-4.615-4.685 0-2.783 1.694-4.546 4.2-4.546 2.317 0 3.786 1.4 3.786 4.373 0 .173-.017.45-.034.64zm-6.258-1.262h4.685c0-1.694-.934-2.506-2.23-2.506-1.297 0-2.317.933-2.455 2.506zm10.181-2.057h.035c.501-1.003 1.348-1.694 2.472-1.694.345 0 .622.034.847.12v1.54c-.208-.087-.502-.139-.882-.139-1.521 0-2.437 1.262-2.437 3.51v3.992h-1.642v-6.205c0-.934-.018-1.867-.087-2.61h1.625c.052.449.07 1.037.07 1.486zm8.66-.328c-1.4 0-2.437 1.382-2.437 3.232 0 1.832.95 3.094 2.437 3.094 1.47 0 2.559-1.348 2.559-3.146 0-1.798-1.09-3.18-2.559-3.18zm2.645-1.159h1.521v8.453c0 2.144-1.054 4.2-4.304 4.2-1.21 0-2.213-.155-3.37-.587l.172-1.625c1.106.588 2.057.83 3.146.83 1.936 0 2.766-1.124 2.766-2.99 0-.294 0-.761.035-1.072h-.035c-.536.899-1.47 1.607-2.87 1.607-2.316 0-3.906-1.746-3.906-4.373 0-2.766 1.625-4.65 4.028-4.65 1.296 0 2.281.588 2.817 1.538h.035c-.035-.553-.035-.881-.035-1.33zm4.926 0l1.781 5.342c.19.553.484 1.538.64 2.143h.034a66.11 66.11 0 0 1 .657-2.143l1.798-5.342h1.66l-3.147 8.73c-1.089 2.99-1.867 3.924-3.665 3.924a3.69 3.69 0 0 1-1.002-.138l.104-1.297c.242.07.5.121.777.121.951 0 1.349-.501 1.92-2.143l-3.337-9.197zm12.48-3.25h2.784c2.765 0 4.874.675 4.874 3.613 0 2.939-2.385 3.63-4.874 3.63h-1.02v4.823h-1.763zm1.764 1.47v4.304h.864c2.109 0 3.284-.415 3.284-2.143 0-1.677-1.175-2.161-3.301-2.161zm9.524 3.267h.035c.501-1.003 1.348-1.694 2.472-1.694.345 0 .622.034.847.12v1.54c-.208-.087-.502-.139-.882-.139-1.521 0-2.437 1.262-2.437 3.51v3.992h-1.642v-6.205c0-.934-.018-1.867-.087-2.61h1.625c.052.449.07 1.037.07 1.486zm8.73-1.694c2.61 0 4.477 1.936 4.477 4.667 0 2.697-1.867 4.564-4.53 4.564-2.61 0-4.528-1.902-4.528-4.564 0-2.766 1.884-4.667 4.58-4.667zm-.07 1.366c-1.607 0-2.765 1.348-2.765 3.301 0 1.936 1.14 3.198 2.817 3.198 1.608 0 2.783-1.279 2.783-3.198 0-1.97-1.175-3.301-2.835-3.301zm14.538-5.411v10.406c0 .934.017 1.919.086 2.662h-1.504c-.034-.466-.052-.95-.052-1.52h-.034c-.674 1.105-1.625 1.728-2.99 1.728-2.369 0-3.873-1.815-3.873-4.564s1.573-4.667 3.89-4.667c1.296 0 2.333.588 2.87 1.538h.034a37.93 37.93 0 0 1-.052-2.195v-3.388zm-4.149 5.41c-1.435 0-2.472 1.418-2.472 3.285 0 1.832 1.003 3.215 2.472 3.215 1.47 0 2.576-1.435 2.576-3.215 0-1.867-1.09-3.284-2.576-3.284zm13.258 6.258h-.034c-.467.743-1.349 1.608-3.043 1.608-1.97 0-3.18-1.383-3.18-3.527v-5.497h1.642v4.356c0 1.833.19 3.302 2.005 3.302 1.556 0 2.524-1.435 2.524-3.111v-4.547h1.642v6.172c0 .933 0 1.901.087 2.644h-1.574a14.344 14.344 0 0 1-.069-1.4zm10.303-7.208l-.104 1.452c-.519-.26-1.037-.363-1.642-.363-1.763 0-2.974 1.227-2.974 3.06 0 1.866 1.193 3.163 2.94 3.163.639 0 1.157-.104 1.831-.432l.139 1.469c-.623.26-1.383.38-2.161.38-2.697 0-4.494-1.815-4.494-4.529 0-2.644 1.815-4.529 4.598-4.529.657 0 1.279.087 1.867.329zm9.351 4.598h-6.292c.07 1.78 1.28 2.835 3.06 2.835 1.02 0 1.78-.242 2.575-.657l.052 1.504c-.795.363-1.677.536-2.731.536-2.939 0-4.615-1.78-4.615-4.685 0-2.783 1.694-4.546 4.2-4.546 2.316 0 3.786 1.4 3.786 4.373 0 .173-.018.45-.035.64zm-6.257-1.262h4.684c0-1.694-.933-2.506-2.23-2.506-1.296 0-2.316.933-2.454 2.506zm16.283-7.796v10.406c0 .934.017 1.919.086 2.662h-1.504c-.034-.466-.051-.95-.051-1.52h-.035c-.674 1.105-1.625 1.728-2.99 1.728-2.369 0-3.873-1.815-3.873-4.564s1.573-4.667 3.89-4.667c1.296 0 2.333.588 2.87 1.538h.034a37.931 37.931 0 0 1-.052-2.195v-3.388zm-4.149 5.41c-1.435 0-2.472 1.418-2.472 3.285 0 1.832 1.003 3.215 2.472 3.215 1.47 0 2.576-1.435 2.576-3.215 0-1.867-1.09-3.284-2.576-3.284z" fill="#fff"/></g></svg>