<svg height="369" width="366" xmlns="http://www.w3.org/2000/svg"><g fill="none" fill-rule="evenodd"><path d="M68.438 366.558c-10.381-.442-20.76-.98-31.133-1.612-8.613-.524-17.638-.988-25.357-5.998-5.489-3.562-10.027-9.674-10.954-16.896-2.682-20.89 24.309-25.496 36.54-29.381 18.878-5.996 38.607-9.56 57.884-11.457 12.448-1.225 24.943-1.752 37.435-1.752 1.247 0 2.494.005 3.741.016 1.6.013 3.201.052 4.803.11a397.336 397.336 0 0 0 4.826 21.207c1.916-.618 3.828-1.28 5.775-2.163-.517-3.953-.995-8.15-1.399-12.442 10.779 28.107 29.982 46.814 51.875 46.814 22.425 0 42.025-19.623 52.644-48.873.423.025 23.768 1.082 30.826 1.376 21.155.881 41.627 4.028 62.242 9.675 10.557 2.892 21.847 8.499 15.095 23.409-.124.274-.251.547-.382.816-5.585 11.446-16.64 16.893-27.239 19.595-19.081 4.865-39.082 5.428-58.533 6.597-20.578 1.237-41.516 2.425-61.899 2.874-3.278.072-6.558.134-9.837.183a1641.9 1641.9 0 0 1-34.105.344c-34.289 0-68.633-.985-102.848-2.442z" fill="#16243e" opacity=".409"/><path d="M202.692 163.88l3.268-4.064.165-3.031 2.713-3.374s2.153 1.308 1.941 1.572c-.462.576-.724 1.58-.493 2.274 1.246-.325 2.73-1.651 3.3-2.799.343-.693.553-1.589 1.278-1.854.796-.293 1.592.405 2.128 1.065.62.762 1.213 1.6 1.364 2.57.205 1.316-.442 2.617-1.23 3.688-1.848 2.512-4.26 3.507-6.952 4.805l-3.985 3.505z" fill="#e1c9a9"/><path d="M185.248 174.603c7.183-2.142 13.968-10.14 19.216-14.217a15.868 15.868 0 0 1 4.885 4.304c1.675 2.253 1.527 2.453-.06 4.534-2.654 3.48-6.042 6.627-9.239 9.623-8.057 7.553-13.803 14.87-26.355 13.993-3.412-.238-6.74-1.11-10.043-1.977l-13.006-3.416c-1.098-.288-2.21-.582-3.193-1.137-7.7-4.344 1.074-16.069 4.193-20.572 3.087-4.456 3.427-6.834 9.328-3.838 4.5 2.286 8.144 5.886 11.909 9.139 1.07.924 2.163 1.834 3.385 2.556 3.007 1.78 6.028 1.888 8.98 1.008" fill="#a1646a"/><path d="M116.33 319.96c.59 2.467 1.036 4.95 1.479 7.447 1.797 1.155 3.564 2.302 5.38 3.46 1.046-.368 2.651-.623 3.59-1.008 1.607-.662 2.395-1.852 1.537-3.567-.254-.507-.448-.592-1.08-1.516-.63-.926-2.124-2.795-3.143-4.073-1.02-1.279-2.544-3.07-3.65-4.417-1.383 1.21-2.73 2.464-4.112 3.674m21.309-.105c.529 2.523 1.057 5.045 1.584 7.568 1.866 1.153 3.707 2.304 5.597 3.443 1.138-.747 2.861-1.655 3.874-2.368 1.506-1.059 1.703-2.418.502-3.622-1.12-1.474-2.33-2.788-3.523-4.217a826.3 826.3 0 0 1-3.625-4.373 770.372 770.372 0 0 0-4.408 3.57" fill="#3a332c"/><path d="M148.856 217.948c-16.795-3.6-33.796-5.857-50.682-9.334-.728 8.996-1.373 4.324-1.914 16.393-.541 12.068.793 34.111 3.774 49.328 2.98 15.216 8.385 31.917 14.431 46.437 3.086-.614 6.165-1.273 9.299-2.151-2.896-13.686-5.04-30.309-4.034-43.689 1.005-13.378 2.113-22.7 5.448-34.995 6.835-2.61 13.73-5.272 20.792-7.44.86-4.87 1.795-9.761 2.886-14.55" fill="#6e6255"/><path d="M146.613 232.774c-2.812 14.097-2.47 25.995-2.916 40.642-.447 14.648.485 30.973 2.77 45.914-3.27.959-6.274 1.845-9.326 2.564-5.304-15.47-9.789-33.367-12.77-48.787-2.98-15.421-5.078-28.022-4.61-43.183 8.908 1.078 17.752 1.803 26.852 2.85" fill="#6e6255"/><path d="M168.656 127.96c.8-1.071 1.76-2.005 2.91-2.676.933-.544 1.945-1.043 2.99-.645.774.294 1.03 1.105 1.075 1.842.046.736-.245 1.382-.388 2.066 2.551.538 5.208-.84 7.71-.703 1.717.094 3.072.783 4.55 1.414.97.416 1.98.857 2.713 1.61 2.809 2.894 4.88 7.187 4.6 11.14-.523 7.324-6.964 13.986-13.907 15.924-1.006.28-2.043.42-3.077.556l-4.197.559c-1.764.234-3.647.451-5.25-.324-4.218-2.038-5.504-7.76-11.118-5.636-.663.251-1.222.636-1.93.656-1.234.035-2.36-.671-3.225-1.472-1.055-.976-2.37-1.936-2.097-3.518.299-1.728 1.915-2.37 2.904-3.608 1.057-1.322 1.8-2.951 2.919-4.301a54.413 54.413 0 0 1 5.544-5.768c1.73-1.553 4.26-2.629 5.794-4.155.318-.315.353-.697.504-1.07.27-.67.544-1.312.976-1.89" fill="#e1c9a9"/><path d="M183.922 120.242c2.498.811 4.934 1.818 7.013 3.386 1.712 1.29 3.285 2.38 4.323 4.498 1.93 3.935 1.336 12.413 6.748 13.602 2.019.444 2.988 2.074 2.366 4.01-.186.577-.678.854-.868 1.406-.189.552-.37 1.075.147 1.569.516.494 1.322.054 1.991.544s.479 1.74-.21 2.266c-.397.303-1 .34-1.335.59-.336.25-.318.517-.579.758-.588.545-1.028.958-1.88.875-.338-.034-.642-.225-1.007-.228-.703-.005-1.185.425-1.825.696-1.411.594-2.78.405-4.223.008-1.161.942-2.2 1.973-3.69 2.412-2.477.732-5.096.233-7.636.063.507-.67 1.167-1.07 1.81-1.613a11.343 11.343 0 0 0 3.104-4.128c.357-.8.58-1.632.97-2.414-.06-.09-.113-.151-.171-.24-.368-.553-.68-.9-.897-1.59-.216-.69-.103-1.498-.093-2.288.042-3.687-.298-7.22-2.125-10.487-1.994-3.566-4.893-4.272-8.846-4.275-.931 0-2.691.673-3.548.117-1.304-.847.382-1.944.023-2.88-.949-2.475-3.384-.12-4.396 1.039-.928.916-1.172 2.278-1.995 3.227-1.087 1.254-2.952 2.14-4.318 3.079-1.385.951-2.95 1.948-4.62 1.714-.138-.02-.303-.074-.324-.21-.009-.059.014-.117.036-.173 2.9-7.202 6.84-11.044 13.713-14.512 2.692-1.358 5.718-2.754 8.622-1.928 1.23.35 2.483.705 3.72 1.107" fill="#514842"/><path d="M151.45 216.902c.626-4.27 1.221-8.581 2.286-12.805 1.066-4.223 2.513-8.53 3.912-12.638 2.11-6.198 4.259-12.78 6.42-18.777 1.947-5.406 2.653-8.079-.908-12.813-1.118-1.485-4.403-2.706-4.67-4.797-.127-.987.913-1.48.187-2.542-.275-.402-.675-.701-1.003-1.062-.935-1.028-1.221-2.468-1.733-3.76a10.7 10.7 0 0 0-2.211-3.45c-.295-.307-.635-.612-1.057-.68-.331-.054-.666.046-.988.144-2.566.778-5.17 1.503-7.824 1.855-2.448.324-4.967.037-7.392.547-2.69.566-4.722 1.662-6.933 3.1-3.639 2.368-6.87 5.125-9.726 8.401-2.855 3.277-5.219 6.716-7.375 10.563-7.467 13.32-12.554 26.922-15.388 41.937-.497 2.635-1.258 5.256-.72 7.778.537 2.522 2.91 2.707 5.003 3.49 4.888 1.827 9.958 3.56 15.085 4.646 10.255 2.172 20.449 2.865 30.9 2.752.588-.007 1.143-.034 1.636-.389.493-.355.65-.955.783-1.546.74-3.299 1.222-6.585 1.716-9.954" fill="#a1646a"/><path d="M107.358 254.599c0-54.51 44.189-98.7 98.7-98.7 54.51 0 98.698 44.19 98.698 98.7 0 54.51-44.189 98.699-98.699 98.699s-98.699-44.189-98.699-98.7" fill="#90d4eb"/><path d="M228.489 159.264c1.89.338 3.759.711 5.608 1.122z" fill="#9db74c"/><path d="M231.853 167.285c.29.254.577.517.864.783l.258-.539c-.404 0-.77-.1-1.122-.244m-4.486 5.193c3.094 0 7.729 4.817 10.108 3.323 3.273-2.057 2.464-3.981 3.351-5.064a96.865 96.865 0 0 0-7.233-2.5l-6.226 4.24m4.486-5.361a92.934 92.934 0 0 0-3.364-1.122c.995.508 2.094.91 3.364 1.122" fill="#a9c14b"/><path d="M133.013 310.678c-11.865-15.413-18.926-34.718-18.926-55.676 0-31.193 15.635-58.728 39.488-75.205h.001c.973 1.911 2.99 7.198 3.014 7.688.163 3.392-2.15 4.733-3.864 7.957-.126.237-.248.476-.368.718-19.282 16.746-31.475 41.446-31.475 68.996 0 16.576 4.414 32.12 12.13 45.522m134.731-117.984a92.002 92.002 0 0 0-3.424-2.507l.393.14h.027l.389-.005a51.663 51.663 0 0 1 1.793.007c.284.784.558 1.572.822 2.365m-16.974-10.327a90.495 90.495 0 0 0-21.076-6.857c-.423-.388-.848-.55-1.26-.55-.26 0-.516.065-.765.18a91.922 91.922 0 0 0-14.913-1.307c.566-.715.138-2.039.62-2.039 4.447 0 9.69-1.383 12.122-4.97-.327 0-2.131.012-3.729.012-1.37 0-2.588-.01-2.588-.042 0-.847-.15-1.558-.158-2.099h.001a90.759 90.759 0 0 1 10.243 2.146 10.8 10.8 0 0 0 2.92.842c.406.125.81.252 1.215.382l-6.079 4.42c.082 0 .165.003.25.01 2.6.222 6.188 3.753 8.577 3.753.382 0 .734-.09 1.046-.3 3.195-2.143 2.409-4.147 3.272-5.276a90.9 90.9 0 0 1 10.29 5.075l.001.001c.763 2.578 1.378 6.03.342 6.458a3.406 3.406 0 0 0-.33.16m-48.221-14.423a384.863 384.863 0 0 1-1.568-.002h-.274c-.932 0-1.148-1.869-.617-2.36.085-.078.826-.104 1.715-.104 1.69 0 3.917.094 3.205.104 3.197-.005 3.918-.18 4.057-1.83h.002c1.858.074 3.705.2 5.533.382h.001c.215 3.612-7.364 3.81-12.054 3.81m-10.6-1.671c-.693-.157-2-.601-3.43-1.042.608-.113 1.22-.22 1.831-.321l1.599 1.363" fill="#ace2f4"/><path d="M236.404 176.088c-2.445 0-6.119-3.387-8.78-3.6 2.661.213 6.335 3.6 8.78 3.6.392 0 .752-.087 1.072-.287 3.271-2.056 2.464-3.98 3.347-5.064a.01.01 0 0 0 .003.001c-.884 1.084-.079 3.007-3.35 5.063-.32.2-.68.287-1.072.287m-9.037-3.611l6.224-4.24-6.224 4.24" fill="#afc558"/><path d="M204.507 165.433h-.265.265" fill="#c7d79b"/><g fill="#00b364"><path d="M240.486 162.695a28.805 28.805 0 0 0-8.383.122c1.228-.858 2.015-1.56 2.459-2.127a98.185 98.185 0 0 0-5.223-1.426c-.128.04-.254.081-.378.125-2.385.833-2.735.92-2.344 2.42a17.565 17.565 0 0 1-2.629-1.3h-11.427c6.806 7.501-5.192 7.484-10.91 7.469-.364-.002-.702-.003-1.009-.002-.937.003-1.155-1.868-.621-2.36.246-.227 6.03-.015 4.938 0 4.665-.007 4.08-.374 4.08-5.107-4.638 3.408-4.477 0-9.737 0-4.933 0-7.354.27-11.681 2.208 1.409 1.197 2.817 2.394 4.227 3.59-1.774-.4-7.562-2.664-9.144-1.992-.736.313-.926 2.268-1.836 2.268-3.676 0-13.678 2.004-13.678-2.197 0-.02-.067-.036-.182-.052a98.769 98.769 0 0 0-24.881 15.317c4.757-.78 9.752-.505 10.737-.505.438 0 3.46 7.774 3.49 8.373.163 3.392-2.159 4.733-3.88 7.957-3.133 5.872-4.516 13.561-4.166 20.155.013.238 3.946 3.765 3.946 5.163 0 5.853.615 5.948 4.65 10.26v-7.18c2.405 6.287 5.313 8.705 7.486 14.855 2.465 6.978 12.208 1.618 15.518 6.215 1.458 2.024 4.178 1.096 5.477 3.072l3.525 5.362c2.125 3.232 4.715 2.112 8.512 2.112 3.647 0-3.32 12.556-3.32 13.614 0 4.354 5.964 14.265 5.927 16.009-.111 5.169 6.366 5.893 9.883 9.077 2.816 2.568.808 9.84.72 13.066-.074 2.719.514 5.16 1.348 7.505v.002c.768 2.158 1.741 4.237 2.615 6.373.152.374.303.75.447 1.127.063.166.122.334.183.5.116.316.228.634.336.954a25.629 25.629 0 0 1 .465 1.543c.045.161.09.322.131.485.125.5.24 1.006.329 1.523.462 2.645-.558 5.5.032 8.035.607 2.605 2.85 4.225 2.817 7.105-.051 4.447 12.495 5.282 14.926 5.282-.012-.007-9.16-4.734-9.16-4.167 0-4.22 2.18-3.927 2.18-6.501.002-3.057-2.783-5.576-1.044-9.902 1.881-4.678 1.668-4.536 6.755-4.536a30.2 30.2 0 0 0-.985-6.351c4.545-7.06 15.12-13.854 17.919-15.759 3.802-2.59 1.673-9.579 3.318-13.302 1.445-3.273 5.828-6.297 6.038-10.323a4.47 4.47 0 0 0-.01-.604l-.018-.138a3.436 3.436 0 0 0-.071-.417l-.03-.112a3.18 3.18 0 0 0-.14-.4l-.026-.059a2.882 2.882 0 0 0-.228-.409c-.879-1.298-2.7-1.661-4.291-1.608-2.247.075-2.47-3.67-4.17-3.67-4.722 0-9.624-.8-13.716-3.82-.677-.5-1.436-6.508-2.593-7.996-.78-1-2.36-.707-4.031-.413-1.89.332-3.896.664-4.989-.875-.778-1.096-2.619-5.394-3.876-5.394-1.712 0-11.143-1.828-13.125-.04.305-.275-3.218-1.34-3.72-1.34.216 0-12.119 6.366-12.119 3.06 0-4.286 2.098-9.825-3.003-9.825-8.2 0-1.223-2.125-1.223-5.868 0-4.802-7.94 1.317-12.124 1.322.11 0-4.71-7.88-2.4-7.88 1.66 0 1.918-3.368 3.15-4.802 3.238-3.773 8.769-4.169 12.662-3.459 1.576.288 7.29 6.894 7.307 8.256-.004-.325 2.328-1.81 2.643-2.292 1.127-1.722.49-2.465.772-4.189.945-5.786 1.185-6.931 5.817-10.448 3.404-2.584 8.16-5.552 10.832-8.896 2.037-2.552 3.944-3.878 6.906-5.328-.303.148 2.813 1.891 3.465 1.891 2.678 0 3.325-2.255 4.791-4.28h-4.65c5.25-4-4.252-6.074 6.27-6.074 5.169 0 5.646.07 8.807-3.589-5.026 0-3.805-.033-3.805-5.135 0-.849-1.42-3.965-2.776-2.636-3.709 3.633-3.575-.665-5.198-3.081-2.1-3.124-4.365.091-5.24 1.985-1.086 2.349-10.007 6.021-9.988 9.088.012 1.797-2.934 1.724-2.88-.279.082-3.007-10.345-5.88-10.517-7.053-.227-1.55 5.161-5.728 9.847-5.728 2.152 0 1.098-2.485 1.761-2.485 4.465 0 9.728-1.383 12.17-4.97-.61 0-6.341.041-6.341-.03 0-2.038-.875-3.283 1.471-3.283 5.506 0 7.137 4.28 13.183 4.28l-6.482 4.693c3.034 0 7.578 5.022 9.911 3.464 4.306-2.877 1.403-5.507 4.984-6.1.383.402.9.788 1.757 1.09 1.12.394 5.15 1.112 5.835 2.131.825 1.229 2.922 8.504 1.382 9.136-2.502 1.027-9.83 8.939-4.225 10.914 4.332 1.526 5.442-.399 9.297-2.801 3.583-2.235 4.558-1.414 8.591.007.007.003.161 0 .418-.004 1.098-.015 4.066-.03 5.327.415 2.028.714 2.759.243 3.094-.228.228-.32.274-.64.418-.588 1.42.5 4.156.86 5.936.083a98.88 98.88 0 0 0-39.595-27.343"/><path d="M199.108 230.198l-2.024 2.106c6.292 0 10.121 2.106 15.703 2.106-3.746-6.092-6.682-4.212-13.68-4.212m20.353 5.354c-4.699-.167-4.917.671-7.795 4.454 2.476 0 4.952.008 7.428.012 2.147.003 1.85-4.414.367-4.466m7.907 5.588c0-7.57-7.57 0 0 0"/></g><path d="M278.945 188.426a98.418 98.418 0 0 0-21.18-17.764 50.7 50.7 0 0 0-.115-.182 98.38 98.38 0 0 1 21.31 17.852l-.015.094" fill="#c7dccc"/><path d="M304.756 254.599c-.015-25.433-9.777-48.61-25.796-66.08l.015-.093c16.022 17.48 25.781 40.67 25.781 66.115z" fill="#e2cb6e"/><path d="M206.152 352.176c-34.902 0-65.568-18.057-83.092-45.3 15.008 9.193 32.675 14.5 51.59 14.5 13.344 0 26.069-2.639 37.678-7.423.766 2.153 1.738 4.227 2.61 6.357.153.373.303.748.447 1.125.063.165.121.333.182.499.116.316.229.633.337.953a25.567 25.567 0 0 1 .464 1.54c.045.16.09.32.13.484.126.499.24 1.004.33 1.52.46 2.64-.558 5.49.032 8.02.606 2.6 2.847 4.218 2.814 7.092-.052 4.44 12.482 5.273 14.91 5.273-.01-.007-8.145-4.207-9.065-4.207-.055 0-.085.015-.085.047 0-4.213 2.177-3.92 2.178-6.49.001-3.05-2.781-5.565-1.043-9.883 1.771-4.402 1.684-4.529 5.927-4.529l.82.001a30.124 30.124 0 0 0-.984-6.34c4.54-7.047 15.105-13.828 17.901-15.73 3.799-2.584 1.672-9.561 3.315-13.278 1.444-3.267 5.822-6.285 6.032-10.304a4.459 4.459 0 0 0-.01-.603l-.018-.137a3.427 3.427 0 0 0-.071-.417l-.03-.112a3.172 3.172 0 0 0-.14-.398l-.026-.06a2.915 2.915 0 0 0-.227-.406c9.009-14.817 14.195-32.198 14.195-50.783a97.73 97.73 0 0 0-5.033-31.053 91.939 91.939 0 0 1 16.847 16.756 91.518 91.518 0 0 0-14.423-18.792c.099.025.191.053.276.083.748.263 1.32.365 1.76.365.751 0 1.12-.296 1.33-.593.212-.296.266-.593.388-.593a.08.08 0 0 1 .03.006c.825.29 2.095.533 3.363.533.912 0 1.823-.125 2.567-.45a98.959 98.959 0 0 0-22.494-18.957l-.007-.012a99.059 99.059 0 0 1 21.38 17.708c15.847 17.412 25.504 40.51 25.52 65.857-.033 54.201-44.167 98.131-98.605 98.131" fill="#69bedb"/><path d="M284.568 208.614a92.566 92.566 0 0 0-17.109-16.712 95.26 95.26 0 0 0-.837-2.355c1.14.027 2.455.107 3.299.323a91.49 91.49 0 0 1 14.647 18.744" fill="#6b9ecd"/><path d="M234.048 347.69c-2.442 0-15.047-.838-14.996-5.3.034-2.888-2.22-4.514-2.83-7.127-.592-2.543.432-5.407-.032-8.06a21.265 21.265 0 0 0-.33-1.528c-.041-.164-.087-.325-.132-.487a25.683 25.683 0 0 0-.467-1.548c-.108-.32-.221-.64-.338-.957-.061-.167-.12-.335-.183-.501a57.23 57.23 0 0 0-.45-1.131c-.877-2.141-1.854-4.225-2.625-6.39a99.4 99.4 0 0 0 46.996-40.183c.085.127.16.263.228.409l.026.06c.055.126.1.259.14.4l.03.112c.033.133.056.273.073.42l.018.137c.015.192.021.392.01.606-.212 4.04-4.615 7.072-6.067 10.356-1.652 3.735.487 10.747-3.333 13.345-2.813 1.91-13.437 8.726-18.003 15.81.557 2.09.887 4.213.99 6.37h-.825c-4.267 0-4.18.126-5.961 4.55-1.748 4.34 1.05 6.868 1.05 9.934-.002 2.583-2.191 2.288-2.191 6.522 0-.032.03-.047.085-.047.926 0 9.106 4.221 9.117 4.228m38.312-157.055c-.443 0-1.018-.102-1.77-.367a3.509 3.509 0 0 0-.278-.083c-.835-.218-2.138-.299-3.266-.326a98.118 98.118 0 0 0-9.586-19.379 99.504 99.504 0 0 1 22.621 19.053c-.748.326-1.664.452-2.581.452-1.276 0-2.553-.244-3.383-.536a.08.08 0 0 0-.03-.005c-.122 0-.177.297-.39.596-.212.298-.582.595-1.337.595" fill="#01a95f"/><path d="M148.007 211.979l3.715 3.534 3.022.473 3.085 2.936s-1.551 1.913-1.793 1.684c-.515-.49-1.567-.822-2.251-.737.258 1.344 1.04 2.56 1.905 3.632.753.934 2.197 1.986.386 2.815-.487.222-1.045.263-1.584.236a6.7 6.7 0 0 1-3.753-1.386c-.83-.649-1.52-1.514-2.53-1.867-.167-.058-.344-.104-.477-.215-.322-.268-.602-1.905-.77-2.36-.189-.503-.312-1.27-.638-1.71l-3.075-4.16z" fill="#e1c9a9"/><path d="M139.918 192.756c2.295 7.405 9.943 16.939 12.303 20.652a16.04 16.04 0 0 1-4.943 4.362c-2.491 1.409-2.68 1.24-4.635-.566-3.27-3.016-6.119-6.725-8.834-10.226-6.845-8.825-13.704-15.334-11.424-27.675.619-3.355 1.877-6.556 3.13-9.733l4.928-12.508c1.123-2.851 2.232-3.252 5.34-3.369 4.859-.181 10.425.187 13.454 3.952 1.84 2.288 2.305 5.44 1.824 8.326-.48 2.886-1.813 5.56-3.269 8.106-3.4 5.943-10.158 11.314-7.874 18.68" fill="#a1646a"/><path d="M276.717 264.793v69.438h10.254l6.409-41.925 5.768-32.1z" fill="#656464"/><path d="M277.073 334.231l-5.964 6.057 2.65 4.037 11.93-4.037v-6.057zm41.142 1.554l-2.206 8.27-7.281 2.513-3.972-1.884 6.165-9.331z" fill="#363535"/><path d="M300.27 257.964l3.895 30.095 5.195 48.415 10.39-.654v-37.293l5.195-37.947z" fill="#656464"/><path d="M295.437 164.46c-10.676 2.428-17.85 11.009-19.783 22.645-2.166 13.033-5.427 25.996-7.816 39.05-2.687 14.69-4.302 29.465-5.702 44.3a521.16 521.16 0 0 0 39.938 2.058c10.328.137 20.816-.058 30.722-3.142-2.008-8.45-1.253-17.096-1.372-25.717-.107-7.734-.458-15.47-1.183-23.167-1.007-10.695-1.928-21.439-4.18-31.963-1.086-5.08-2.322-10.494-4.636-15.186-1.782-3.61-7.099-6.012-10.677-8.044-2.822-1.601-6.255-1.585-9.505-1.524a28.58 28.58 0 0 0-5.806.69" fill="#bfae93"/><path d="M284.862 137.899c1.704-15.105 20.33-13.902 26.503-2.232 2.307 4.36 2.93 10.044 1.848 14.84-.53 2.349-1.543 4.682-3.342 6.327-.787.72-2.393 1.096-3.006 1.816-1.02 1.197-.597 3.654-.4 5.143-1.865 1.333-4.367 1.155-6.64.902-.307-.034-.636-.077-.866-.286-.185-.167-.274-.412-.352-.65-.584-1.777-.394-2.259-2.011-2.954-1.537-.66-3.105-.755-4.597-1.7-2.788-1.762-4.859-4.602-6.015-7.68-1.604-4.272-1.634-8.988-1.122-13.526" fill="#e1c9a9"/><path d="M292.958 130.826s12.07-1.944 14.006 2.66c2.91 6.923 5.317 11.372 6.593 15.684l5.78-7.966-.875-14.854s-5.362-10.198-11.59-9.687c-6.229.511-18.367 3.572-18.367 3.572l-7.474 6.489-6.558 2.284 10.33 18.39s-3.007-15.021 8.155-16.572" fill="#2f2925"/><path d="M301.003 38.235l8.848 2.621 11.435 3.39 8.848 2.624c3.146.93 6.309-.969 7.031-4.223l2.036-9.156 2.628-11.835 2.036-9.156c.728-3.253-1.33-4.326-4.573-2.383l-5.55 3.333c-2.037-3.533-4.069-7.048-4.854-8.334-1.788-2.92-5.224-5.155-11.973-5.115-5.01.028-18.32.105-26.74.155l11.165 19.98c.25.255.484.578.691 1.002.533 1.098 2.557 4.875 4.572 8.608l-5.432 3.26c-3.237 1.943-3.313 4.295-.168 5.229" fill="#00b364"/><path d="M269.839 6.748c-2.892 4.498-10.227 16.47-10.227 16.47-1.642 2.685-.804 6.197 1.866 7.8l17.985 10.808c2.67 1.604 6.172.7 7.776-2.007 0 0 10.143-17.073 11.083-18.653.965-1.642 2.13-1.886 3.07-.913L290.131 0l-6.497.039C278.952.067 273.6.9 269.84 6.748" fill="#009c57"/><path d="M238.024 82.413c2.011 4.01 7.58 14.33 11.663 21.894l12.656-21.254c1.492-2.615 4.256-7.465 6.564-11.48l6.479 3.697c3.29 1.879 5.323.742 4.52-2.523l-2.268-9.19c-.803-3.263-2.118-8.606-2.924-11.872l-2.262-9.189c-.806-3.265-4.02-5.1-7.146-4.08l-8.793 2.877c-3.125 1.023-8.237 2.695-11.363 3.716l-8.793 2.875c-3.127 1.021-2.993 3.396.296 5.272l4.777 2.728c-2.441 4.847-5.313 10.57-6.038 12.212-1.31 2.966-.5 8.083 2.632 14.317" fill="#00b364"/><path d="M262.34 82.997l-12.54 21.032c2.253 4.167 4.05 7.492 4.527 8.415 1.323 2.58 3.22 7.633 15.189 7.564l17.4-.102c3.043-.018 5.523-2.587 5.504-5.71l-.116-21.066c-.02-3.124-2.522-5.665-5.571-5.647l-23.767.139c-2.145.013-2.418-1.445-1.665-2.8.103-.184.487-.852 1.04-1.825" fill="#009c57"/><path d="M336.486 85.142l10.537 21.408c3.688-6.91 9.945-18.915 12.504-24.103 3.424-6.944 4.393-12.961 2.816-16.125-1.583-3.17-9.384-18.556-9.384-18.556-1.417-2.8-4.732-3.738-7.37-2.09l-17.867 11.181c-2.637 1.648-3.56 5.249-2.054 7.998 0 0 5.428 9.928 8.449 15.486a547.2 547.2 0 0 1 1.893 3.487c.24.47.401.913.476 1.314" fill="#00b364"/><path d="M344.77 111.228c.418-.724 1.369-2.495 2.606-4.845l-10.523-21.611c.223 1.255-.396 2.11-1.908 2.118l-10.885.066-.059-6.7c-.036-3.892-2.01-5.155-4.393-2.807l-6.699 6.602a13953.56 13953.56 0 0 0-8.66 8.531l-6.7 6.602a5.862 5.862 0 0 0 .068 8.452l6.818 6.48 8.808 8.37 6.814 6.479c2.422 2.301 4.379 1.002 4.344-2.89l-.06-6.369 8.335-.05c7.574-.043 10.438-5.557 12.094-8.428" fill="#009c57"/><path d="M264.024 130.103l1.486-4.645 2.277-1.683c.394-1.232 2.084-4.259.218-4.81-1.45-.429-1.643 1.06-2.857 1.3-1.264.25-3.296-.637-4.491-1.013-.421-.133-.877-.274-1.293-.127-1.221.43-.195 2.974-.085 3.793.07.517.308 1.238.236 1.76l-.682 4.92z" fill="#e1c9a9"/><path d="M265.538 150.808c-3.312-5.95.502-17.789 1.02-23.514a15.954 15.954 0 0 0-6.327-1.648c-2.83-.133-2.92.1-3.821 2.569-1.507 4.126-2.331 8.675-3.132 12.98-2.017 10.857-5.097 19.67 2.505 29.558 2.067 2.688 4.626 4.956 7.169 7.205 2.859 2.528 5.7 5.077 8.57 7.593 1.233 1.08 3.438 3.893 5.097 3.993.866.052 1.638-.5 2.326-1.027 8.052-6.16 16.624-13.087 18.983-22.913.107-.441.186-.95-.09-1.311-.27-.357-.774-.423-1.222-.466-10.446-.988-20.613-4.767-29.15-10.834a6.526 6.526 0 0 1-1.928-2.185" fill="#bfae93"/><path d="M343.19 118.724c-.046.563-.27 1.354-.164 1.913l.985 5.284-5.523.818-1.83-4.943-2.521-1.701-1.055-2.843c-.258-.71-.458-.903-.065-1.419.334-.444 1.7-.953 2.228-.739.475.192.704.723.938 1.183.276.552.669 1.094 1.238 1.31.674.253 1.425-.007 2.075-.318 1.296-.618 2.516-1.467 3.372-2.63.088-.12.205-.259.352-.235.1.017.176.112.229.202.867 1.42-.135 2.662-.258 4.118" fill="#e1c9a9"/><path d="M335.895 147.038c.779-1.574 1.343-3.198 1.608-4.808.914-5.654-1.704-12.283-2.488-17.944a15.59 15.59 0 0 1 6.156-1.946c2.782-.268 2.878-.04 3.888 2.377 1.681 4.041 2.708 8.536 3.707 12.79 2.506 10.726 5.96 19.364-1.055 29.586-1.907 2.78-4.317 5.162-6.715 7.525-5.959 5.832-10.886 11.724-17.481 16.826-.955.738-2.018 1.513-3.222 1.466-2.023-.08-3.167-2.31-3.887-4.214l-5.129-13.562c-1.027-2.715-2.054-5.431-2.916-8.203-.208-.664-.395-1.424-.044-2.022.256-.437.74-.676 1.2-.88 5.496-2.442 11.652-3.36 16.788-6.495 3.677-2.244 7.451-6.184 9.59-10.496" fill="#bfae93"/><path d="M60.34 165.312c-2.146-.878-4-1.71-6.273-1.539-3.05.23-5.564 1.22-7.876 3.38-5.455 5.098-9.05 10.864-11.358 18.129-2.822 8.89-4.204 18.413-5.2 27.722-1.23 11.493-.996 22.855.565 34.293.109.797.311 1.528.855 2.183.543.654 1.452 1.004 2.29 1.186 3.367.732 6.916 1.044 10.316 1.265 12.805.831 25.568 1.17 38.367 1.532.742.021 1.44.084 2.022-.42.786-.679.88-1.624.878-2.632-.01-8.625-.708-17.199-2.15-25.688-1.182-6.95-2.846-13.865-4.154-20.732-1.011-5.313-1.48-10.458-1.756-15.803-.176-3.395.491-6.926-.807-10.14-2.95-7.303-8.865-9.933-15.719-12.736" fill="#cde1e9"/><path d="M85.051 130.985c-2.327-1.858-4.824-3.384-7.53-4.517-2.292-.96-4.52-1.961-7.024-1.972-4.045-.019-7.619.844-10.767 3.567-3.685 3.188-5.597 7.436-7.57 11.88-1.466 3.303-2.549 6.91-3.43 10.448-.424 1.697-.87 3.553-.81 5.28.053 1.532.715 2.24 1.951 3.099 5.902 4.1 12.312 6.811 19.212 8.726 2.269.63 4.427.967 6.707.57 2.703-.469 5.26-.877 7.97-1.221.575-.074 1.134-.154 1.653-.537s.918-.938 1.192-1.586c2.125-5.014 4.327-9.618 4.907-15.196.578-5.576-.581-10.683-3.545-15.475-.755-1.22-1.847-2.213-2.916-3.066" fill="#202020"/><path d="M83.888 152.57c.539-.94.875-1.765.992-2.923.154-1.517.026-3.572-2.005-3.374-.106.01-.193.133-.278.19.002-.203.015-.4.028-.606.141-2.202.71-4.313.445-6.54-.178-1.493-.85-2.872-1.577-4.198-.476-.87-.867-1.845-1.686-2.487-3.142-2.465-6.1-3.846-10.24-3.628-2.69.142-4.387 1.037-6.876 2.91-.568.426-4.55 3.577-3.631 5.17-2.053-.363-3.159.1-4.223 1.84a6.382 6.382 0 0 0-.91 2.92c-.068 1.024.35 1.71 1.027 2.397-.663 1.778-1.47 3.162-1.43 5.171.063 3.208 1.014 5.841 3.218 8.315 1.11 1.247 2.277 2.543 2.659 4.249.207.926.036 1.835-.007 2.76-.031.687-.205 1.383.095 2.03.524 1.124 1.58 1.664 2.675 2.075 1.333.502 2.737.826 3.946.07 1.21-.755 1.132-2.11 1.99-3.111 1.657-1.934 4.159-2.474 6.374-3.44 2.575-1.122 4.552-2.669 6.234-4.793.964-1.216 1.168-2.416 1.669-3.793.593-.326 1.146-.569 1.51-1.204" fill="#e1c99d"/><path d="M63.64 135.447l-.024.108c1.169-.49 1.926-1.39 3.263-1.544 1.338-.153 2.438.044 3.858.445 4.592 1.293 8.622 2.866 11.556 6.863.942-1.497 1.778-3.084 2.38-4.728.173-.472.33-.97.214-1.387-.116-.418-.353-.663-.633-.877-3.766-2.871-7.491-4.957-12.126-6.112-2.173-.541-4.502-.637-6.263.98-1.76 1.617-1.647 4.092-2.226 6.252" fill="#202020"/><path d="M82.453 151.12c-.079.42-.166.802-.322 1.22-1.5 4.031-3.64 6.888-7.299 9.316.933-.215 2.107.752 2.779 1.016 1.604.633 2.849.79 4.432 1.05.269.044.483.05.736-.068.252-.118.428-.346.559-.599 1.696-3.283 3.66-6.332 4.435-9.993.853-4.04.48-8.077.106-12.183-.14-1.544-.39-3.075-1.478-4.305-1.087-1.23-2.67-1.632-4.231-1.984.968.477 1.282 2.42 1.335 3.154.112 1.556-.025 2.721-.081 4.055-.136 3.214-.378 6.194-.97 9.32m-23.732-10.755c-.213.369-.4.717-.564 1.146-1.58 4.15-1.9 7.824-.778 12.147-.548-.76-2.049-.798-2.712-1.033-1.583-.56-2.606-1.219-3.942-2.03-.227-.137-.385-.272-.495-.53-.11-.258-.081-.577-.015-.86.867-3.68 1.5-7.503 3.321-10.82 2.01-3.662 4.828-6.401 7.711-9.303 1.085-1.092 2.177-2.006 3.718-2.283 1.542-.277 2.914.466 4.258 1.128-.99-.196-2.286 1.116-2.774 1.639-1.033 1.108-1.652 2.047-2.452 3.096-1.93 2.532-3.69 4.959-5.276 7.703" fill="#202020"/><path d="M78.808 270.3c-.201 9.596.847 18.339.397 28.126s-2.534 20.26-3.279 30.197c-2.699-.357-5.35-.58-8.02-1.203-.833-8.806-1.398-20.618-2.342-28.695-.945-8.078-2.195-12.144-3.07-19.483 5.462-2.834 10.841-5.98 16.314-8.941" fill="#e1c99d"/><path d="M76.17 328.25c-.149 1.251-.373 2.552.358 3.65.731 1.098 2.04 1.484 2.619 2.708.242.513.18 1.215.1 1.728s-.157.918-.475 1.271c-.527.586-1.218.759-1.949.85-1.135.143-2.24.387-3.372.181-1.95-.355-3.503-1.315-5.07-2.53-1.328-1.029-2.292-1.957-2.511-3.736-.066-.532.201-1.101.326-1.644.327-1.425.55-2.875.586-4.348 3.22.17 6.438.347 9.655.522-.072.462-.21.871-.267 1.348" fill="#363535"/><path d="M51.279 271.422c-1.896 9.898-2.018 18.863-5.06 28.825-3.043 9.962-8.95 19.95-13.584 29.498-2.448-1.214-4.85-2.324-7.152-3.856 2.667-8.67 6.038-20.405 7.194-28.64 1.155-8.234.501-12.302.857-19.78 5.94-1.767 11.813-3.947 17.745-6.047" fill="#e1c99d"/><path d="M33.656 328.124c-.625 1.188-1.343 2.403-1.037 3.781.307 1.378 1.458 2.258 1.635 3.673.074.593-.204 1.28-.442 1.761-.24.482-.426.856-.85 1.095-.7.395-1.413.313-2.154.138-1.15-.272-2.293-.432-3.33-1.05-1.787-1.06-2.985-2.555-4.098-4.33-.943-1.506-1.546-2.748-1.127-4.576.125-.546.57-1.017.894-1.507.853-1.283 1.623-2.649 2.22-4.094a262.477 262.477 0 0 0 9.088 3.822c-.25.438-.562.836-.8 1.287" fill="#363535"/><path d="M88.288 246.554a237.56 237.56 0 0 0-.089-7.806c-.015-.551-.036-1.12-.266-1.621-.32-.699-.99-1.157-1.63-1.58-3.743-2.476-5.906-4.554-7.75-8.716-1.564-3.687-2.114-5.717-3.412-10.733-.822-3.177-2.228-12.479-3.793-16.162-.74-1.736-.421.088-.97-.875-.33-8.986.432-17.902 2.574-26.584.354-1.438.704-1.215.249-2.651-.136-.43-3.048-1.856-3.065-1.815-3.693 9.405-5.285 19.138-6.312 29.16-4.24-.99-8.553-1.94-12.783-2.938.423-10.578 2.676-20.757 4.507-31.166.008-.045-3.225-.662-3.578-.35-1.177 1.038-.813 1.007-1.268 2.524-2.684 8.95-4.693 18.391-6.235 27.717-.175.016-.307-.068-.484-.062-.558.017-.977-.196-1.46.266s-.639 1.13-.79 1.838c-1.062 4.972-1.827 10.027-2.705 15.063-.43 2.467-.766 4.995-1.437 7.43-1.72 6.247-3.877 11.816-7.919 16.94-.51.646-1.107 1.211-1.45 1.985-.343.775-.457 1.65-.515 2.493-.242 3.516-.244 7.21-.211 10.692.18 19.277 1.382 38.246-1.527 57.384-.3 1.973-.65 3.756-.984 5.916-.22 1.432-1.106 4.05-.275 5.557.452.82 1.892.963 2.612 1.286 1.015.454 1.929.762 2.909 1.118 1.958.71 3.884 1.34 5.793 2.151 8.917-11.872 16.445-24.45 23.043-37.754 1.235 12.11 3.137 24.085 4.636 36.198.037.302 10.115.895 10.996.515 2.617-1.129 2.359-3.978 3.15-6.683 2.447-8.362 4.623-16.765 6.246-25.332a239.878 239.878 0 0 0 4.193-43.405" fill="#465c82"/><path d="M73.062 120.631c.146-.01.32-.042.445-.061.515-.08 1.24-.623 1.112-1.13-.416-1.652-3.176-1.527-1.788-3.475.378-.531 4.218-1.396 4.24-2.009.114-3.128-1.97-5.329-4.805-5.153-1.92.119-2.97 1.707-4.177 2.911-1.875 1.87-3.265 4.074-5.2 5.872-.177.166-.356.33-.388.605-.03.275.053.468.179.753.915 2.07 1.723 3.896 4.097 4.417.333.072.58-.178.846-.335.764-.448 1.48-.97 2.237-1.437.58-.357 1.155-.708 1.828-.86.448-.102.925-.063 1.374-.098" fill="#e1c99d"/><path d="M43.452 131.068c1.028-.944 2.241-1.528 3.862-2.7 1.953-1.41 13.94-11.702 14.228-11.715 5.719-.26 4.587 5.35 8.804 6.371-4.155 4.108-7.959 6.904-12.245 11.051-7.484 7.241-10.393 12.241-8.049 22.953.659 3.014 2.564 5.136.912 8.193-.626 1.16-1.85 1.761-2.694 2.83-5.438 6.88-7.723 15.095-11.29 22.998-.266.589-.804.961-1.405.597-.233-.14-.306-.457-.376-.724-.687-2.64-1.07-5.459-1.676-8.09-.608-2.632-2-4.714-2.075-7.472-.152-5.576-.708-11.056-.024-16.705 1.286-10.63 3.82-20.056 12.028-27.587" fill="#cde1e9"/><path d="M87.947 126.325a5.91 5.91 0 0 1-.333-.358c-.355-.416-.672-1.296-.225-1.649 1.457-1.15 3.61 1.146 3.411-1.612-.054-.752-3.364-4.097-3.04-4.739 1.65-3.274 4.749-2.92 7.15-.923 1.626 1.352 1.9 3.621 2.308 5.476.634 2.878.615 5.71 1.12 8.572.046.263.098.513-.051.761-.149.247-.339.333-.631.466-2.126.966-3.929 1.743-6.137.525-.308-.17-.374-.545-.499-.851-.357-.877-.645-1.792-.99-2.682-.265-.682-.536-1.362-1-1.949-.309-.39-.733-.695-1.083-1.037" fill="#e1c99d"/><path d="M102.786 155.688c-.087-1.254-.662-2.607-.868-4.641-.246-2.451-2.653-19.072-2.866-19.28-4.224-4.132-7 .995-10.888-1.067.793 5.811 1.786 11.067 2.133 16.922.606 10.22-.776 15.294-9.095 21.565-1.676 1.264-3.574 1.515-5.094 2.431-1.743 1.05-2 1.045-2.218 3.125-.345 3.298.002 6.855-.138 10.334-.155 3.865.083 7.734 1.426 11.434.13.36.439.725.724.834.286.11.423.03.6-.079 3.496-2.145 6.126-4.407 9.198-7.244 3.222-2.975 6.526-4.433 9.212-8.576 5.044-7.785 8.561-15.885 7.874-25.758" fill="#cde1e9"/><path d="M102.33 75.146C87.834 86.51 77.373 112.66 71.466 129.28c3.547 1.395 7.093 2.792 10.639 4.188 5.322-18.983 12.688-39.293 25.252-54.6l-5.029-3.722" fill="#624d3b"/><path d="M180.26 34.28c-17.672-3.813-42.905-5.026-58.419 3.962-15.513 8.988-18.426 24.42-18.97 40.448 13.963 7.705 28.617 13.054 44.205 4.195 15.588-8.86 27.425-31.348 33.185-48.605" fill="#00b364"/><path d="M102.927 78.532c1.196.812 2.46 1.521 3.724 2.222 15.19-10.095 30.383-20.185 45.57-30.283-16.435 7.91-32.87 15.82-49.307 23.726-.042 1.444-.075 2.891.013 4.335" fill="#624d3b"/><path d="M51.43 23.553c-3.25 16.011-4.198 38.572 3.716 52.57 7.914 14 21.5 16.52 35.595 16.968 6.719-12.599 11.416-25.803 3.504-39.799C86.334 39.296 66.68 28.758 51.43 23.553" fill="#00b364"/><path d="M90.825 93.035c.713-1.066 1.337-2.19 1.952-3.315-8.972-13.457-17.944-26.914-26.918-40.37 7.044 14.57 14.088 29.142 21.134 43.712 1.277.032 2.556.055 3.832-.027" fill="#624d3b"/><path d="M102.872 78.689c22.965 4.364 49.132-1.236 65.051-19.245-13.274 27.878-38.777 36.28-65.051 19.245" fill="#009c57"/></g></svg>