<?xml version="1.0"?>
<svg xmlns="http://www.w3.org/2000/svg" id="Filled_expand" enable-background="new 0 0 512 512" height="512px" viewBox="0 0 512 512" width="512px"><g transform="matrix(0.682487 0 0 0.682487 81.2834 81.2834)"><link xmlns="" type="text/css" id="dark-mode" rel="stylesheet" href=""/><style xmlns="" type="text/css" id="dark-mode-custom-style"/><path d="m472 232v-80h-8l-88 55.997v-55.997h-8l-88 55.997v-55.997h-8l-88 64v16h-160v240h464v-240z" fill="#bde660" data-original="#BDE660"/><circle cx="376" cy="352" fill="#fdfefc" r="80" data-original="#FDFEFC"/><path d="m8 472h496v32h-496z" fill="#ffd642" data-original="#FFD642"/><path d="m40 232v-40l16-72v-16h64v16l16 72v40z" fill="#ffd642" data-original="#FFD642"/><path d="m184 352v120h-112v-176h112v39.999z" fill="#fffefa" data-original="#FFFEFA"/><ellipse cx="376" cy="355.945" fill="#bde660" rx="32" ry="50.539" transform="matrix(.866 -.5 .5 .866 -127.598 235.688)" data-original="#BDE660"/><path d="m24 424h48v48h-48z" fill="#d1e6a1" data-original="#D1E6A1"/><path d="m240 424h-56v48h304v-48h-77.093c-10.549 5.124-22.392 8-34.907 8s-24.358-2.876-34.907-8h-85.093" fill="#d1e6a1" data-original="#D1E6A1"/><path d="m504 464h-8v-232c0-4.418-3.582-8-8-8h-8v-72c0-4.418-3.582-8-8-8h-8c-1.521 0-3.011.434-4.295 1.25l-75.705 48.174v-41.424c0-4.418-3.582-8-8-8h-8c-1.521 0-3.011.434-4.295 1.25l-75.705 48.174v-41.424c0-4.418-3.582-8-8-8h-8c-1.691 0-3.338.536-4.706 1.53l-88 64c-2.07 1.505-3.294 3.91-3.294 6.47v8h-32v-32c0-.583-.064-1.166-.19-1.735l-15.81-71.143v-15.122c0-4.418-3.582-8-8-8h-64c-4.418 0-8 3.582-8 8v15.122l-15.81 71.143c-.126.569-.19 1.152-.19 1.735v32h-8c-4.418 0-8 3.582-8 8v232h-8c-4.418 0-8 3.582-8 8v32c0 4.418 3.582 8 8 8h496c4.418 0 8-3.582 8-8v-32c0-4.418-3.582-8-8-8zm-456-271.122 15.81-71.143c.126-.57.19-1.152.19-1.735v-8h48v8c0 .583.064 1.166.19 1.735l15.81 71.143v31.122h-80zm136 47.122c4.418 0 8-3.582 8-8v-11.926l80-58.182v46.105c0 2.92 1.591 5.608 4.15 7.013s5.681 1.304 8.145-.263l83.705-53.265v46.515c0 2.92 1.591 5.608 4.15 7.013s5.681 1.304 8.145-.263l83.705-53.265v70.518c0 4.418 3.582 8 8 8h8v176h-43.661c17.021-16.057 27.661-38.809 27.661-64 0-48.523-39.477-88-88-88s-88 39.477-88 88c0 25.191 10.64 47.943 27.661 64h-59.661v16h83.298c11.199 5.152 23.147 7.838 35.562 7.993.025 0 .05 0 .075.001.165.002.329.004.494.005.19.001.38.002.571.002s.381-.001.571-.002c.165-.001.33-.003.494-.005.025 0 .05 0 .075-.001 12.415-.155 24.363-2.84 35.562-7.993h67.298v32h-288v-32h48v-16h-48v-64h-16v112h-96v-160h96v31.999h16v-39.999c0-4.418-3.582-8-8-8h-112c-4.418 0-8 3.582-8 8v120h-32v-176zm193.355 183.987c-.135.003-.271.005-.407.006-.057.001-.115.001-.172.002-.097.001-.194.002-.291.003-.161.001-.323.002-.485.002s-.324-.001-.486-.002c-.097 0-.194-.002-.291-.003-.057-.001-.115-.001-.172-.002-.136-.002-.271-.004-.407-.006-.016 0-.032 0-.047-.001-39.056-.75-70.597-32.754-70.597-71.986 0-39.701 32.299-72 72-72s72 32.299 72 72c0 24.286-12.087 45.802-30.561 58.849l-6.708-11.179c11.165-19.599 11.266-44.054-.091-63.725-12.26-21.236-36.023-33.697-60.545-31.742-2.401.191-4.587 1.454-5.954 3.437-13.951 20.258-15.043 47.069-2.783 68.305 11.418 19.778 32.816 31.942 55.508 31.942.045 0 .09 0 .135-.001l6.414 10.69c-8.046 3.326-16.822 5.234-26.013 5.41-.015.001-.031.001-.047.001zm-2.495-84.103-13.72 8.232 25.617 42.694c-13.081-2.819-24.703-11.021-31.541-22.866-8.542-14.796-8.431-33.212.033-47.943 16.989.036 32.994 9.147 41.536 23.943 6.891 11.936 8.151 26.228 3.937 39.041zm-342.86 92.116h32v32h-32zm464 64h-480v-16h480z" data-original="#000000" class="active-path" style="fill:#000000"/><path d="m80 56c0-22.056 17.944-40 40-40h120v-16h-120c-30.878 0-56 25.122-56 56v24h16z" data-original="#000000" class="active-path" style="fill:#000000"/><path d="m256 0h16v16h-16z" data-original="#000000" class="active-path" style="fill:#000000"/><path d="m288 0h16v16h-16z" data-original="#000000" class="active-path" style="fill:#000000"/><path d="m96 56v24h16v-24c0-4.411 3.589-8 8-8h152v-16h-152c-13.233 0-24 10.767-24 24z" data-original="#000000" class="active-path" style="fill:#000000"/><path d="m288 32h16v16h-16z" data-original="#000000" class="active-path" style="fill:#000000"/><path d="m320 32h16v16h-16z" data-original="#000000" class="active-path" style="fill:#000000"/><path d="m112 256h32v16h-32z" data-original="#000000" class="active-path" style="fill:#000000"/><path d="m208 224h48v16h-48z" data-original="#000000" class="active-path" style="fill:#000000"/><path d="m304 224h48v16h-48z" data-original="#000000" class="active-path" style="fill:#000000"/><path d="m400 224h48v16h-48z" data-original="#000000" class="active-path" style="fill:#000000"/><path d="m64 192h48v16h-48z" data-original="#000000" class="active-path" style="fill:#000000"/></g> </svg>
