<svg height="363" viewBox="0 0 361 363" width="361" xmlns="http://www.w3.org/2000/svg" xmlns:xlink="http://www.w3.org/1999/xlink"><defs><path id="a" d="m.23813698.04755563c103.28298302 0 187.05268702 83.68591047 187.41463102 187.05646237l-.002947 1.931329c-.015712 2.396822-.076266 4.782981-.180864 7.157677l-187.23082002-9.860499z"/><filter id="b" height="125.5%" width="125.1%" x="-17.3%" y="-6.4%"><feOffset dx="-9" dy="14" in="SourceAlpha" result="shadowOffsetOuter1"/><feGaussianBlur in="shadowOffsetOuter1" result="shadowBlurOuter1" stdDeviation="5.5"/><feColorMatrix in="shadowBlurOuter1" type="matrix" values="0 0 0 0 0   0 0 0 0 0   0 0 0 0 0  0 0 0 0.13 0"/></filter></defs><g fill="none" fill-rule="evenodd"><path d="m171.074413 362.148825c-94.4816128 0-171.074413-76.593595-171.074413-171.076188 0-94.4825922 76.5928002-171.072637 171.074413-171.072637 94.481612 0 171.074412 76.5900448 171.074412 171.072637 0 94.482593-76.5928 171.076188-171.074412 171.076188z" fill="#29426f" fill-rule="nonzero"/><g transform="translate(16 36)"><path d="m47.4122686 256.69807c.826958 3.949757 1.653916 7.898611 2.4790782 11.849269 2.9208408 1.804855 5.8039702 3.607005 8.7634203 5.390213 1.7814166-1.169864 4.4795803-2.592281 6.0652565-3.707125 2.3578629-1.658735 2.6658397-3.786498.7847572-5.671629-1.7517862-2.307257-3.647235-4.364666-5.5157471-6.60247-1.8694099-2.239608-3.8079575-4.577532-5.6755716-6.846906-2.3048873 1.856269-4.6097746 3.715243-6.9011935 5.588648" fill="#3a332c"/><path d="m61.4603482 120.358272c-4.402861 22.071558-3.8671826 40.69925-4.5663649 63.632671-.7000856 22.93342.7597058 48.491847 4.3378208 71.884867-5.1192066 1.500644-9.8228786 2.889299-14.6015274 4.013662-8.3043703-24.220838-15.3260031-52.240321-19.9926382-76.383215-4.6666352-24.14379-7.9511658-43.872552-7.2194634-67.6096 13.9475119 1.687888 27.7938502 2.823002 42.0421731 4.461615" fill="#6e6255"/><path d="m0 154.528875c0-85.3434133 69.184767-154.528875 154.529323-154.528875 85.343661 0 154.528428 69.1854617 154.528428 154.528875 0 85.344309-69.184767 154.528876-154.528428 154.528876-85.344556 0-154.529323-69.184567-154.529323-154.528876" fill="#90d4eb"/><path d="m234.133291 22.0544362c44.895282 27.0358686 74.92446 76.2485292 74.92446 132.4744388 0 85.344309-69.184767 154.528876-154.528428 154.528876-57.2512702 0-107.2305332-31.133492-133.930846-77.393578 24.9069338 17.870554 55.4434441 28.391858 88.437468 28.391858 83.874485 0 151.868248-67.993566 151.868248-151.868686 0-31.9832192-9.886811-61.6573948-26.770902-86.1329088z" fill="#69bedb"/><path d="m189.649074 5.26802984c2.958715.52918925 5.885718 1.11312222 8.78005 1.75600995z" fill="#9db74c"/><path d="m194.917104 17.825257c.45275.3986142.903056.8095206 1.35214 1.2256949.135031-.2809616.26945-.5619232.40387-.8428848-.631772 0-1.206111-.1562848-1.75601-.3828101" fill="#a9c14b"/><path d="m187.893064 25.9553155c4.84426 0 12.100153 7.542802 15.825313 5.2025225 5.124491-3.2199165 3.858429-6.2327589 5.246807-7.9278572-3.700515-1.4452402-7.477704-2.7518606-11.32518-3.9138714-3.248676 2.2127835-6.498264 4.4264226-9.74694 6.6392061" fill="#a9c14b"/><path d="m194.917104 17.5600995c-1.743534-.6182117-3.499544-1.2039493-5.26803-1.75601 1.558472.7962182 3.279133 1.4252547 5.26803 1.75601" fill="#a9c14b"/><path d="m40.1668174 242.329373c-18.5762881-24.13159-29.6307577-54.356511-29.6307577-87.169158 0-48.837635 24.4780089-91.9485553 61.8240694-117.7455307l.0017833-.000892c1.5238013 2.9935909 4.6819665 11.2714585 4.7185234 12.0376965.2550071 5.3110371-3.3659157 7.4108324-6.0497319 12.458726-.197051.3701848-.3887521.7448297-.5768867 1.1239346-30.1889202 26.2188969-49.278789 64.8902756-49.278789 108.0243886 0 25.952185 6.9110496 50.288938 18.9917892 71.270835m211.0309546-184.9599303c-1.755626-1.3487216-3.629917-2.4195944-5.448849-3.6880349.199726.0713609.404802.1445059.614335.2185429.002675.000892.016941.001784.042799.001784.08738 0 .30048-.0044601.608985-.0080281.305831-.0044601.703499-.0080281 1.163582-.0080281.49129 0 2.16813.00446 2.760174.0187322.043207.1195209 1.656566 1.8155391 1.707861 1.9546438.475858 1.2904557-.304758 1.7676986.068703 2.8885558zm-26.66348-15.9308941c-10.380395-4.8525431-21.441106-8.4910584-32.998457-10.7362516-.662483-.6065679-1.32675-.8616832-1.971401-.8616832-.408368 0-.809603.1025813-1.198355.2827677-7.594932-1.2978769-15.395832-1.996322-23.349201-2.0462746.887175-1.1194746.215775-3.1916175.970097-3.1916175 6.963656 0 15.172924-2.1658042 18.980198-7.7819092-.511798 0-3.337383.0187322-5.838415.0187322-2.14527 0-4.051582-.0142721-4.051582-.0651168 0-1.3273133-.236282-2.4396517-.248765-3.2861707h.000891.001784c5.453229.8179746 10.804812 1.9436932 16.036916 3.3593156 1.353499.5967558 2.836286 1.0775501 4.570512 1.3183932.636627.1953505 1.269686.3951611 1.902746.5985398-3.172431 2.30585-6.344863 4.6125919-9.517294 6.9184419.128395 0 .258574.0062441.391427.0178403 4.071198.3469925 9.688487 5.8747883 13.427998 5.8747883.599177 0 1.149315-.1409378 1.638822-.4691981 5.002062-3.3548556 3.770717-6.4929524 5.122433-8.2609194 5.555767 2.3165542 10.934099 4.9729647 16.109139 7.9451473l.001783.0008921c.000891.000892.001783.000892.001783.001784 1.193897 4.0354604 2.156861 9.4419427.53498 10.1100594-.160494.0669009-.333471.15075-.518039.2524393m-75.496374-22.5821656c-.454733 0-.890742-.000892-1.307135-.001784-.40391-.0017841-.787312-.0026761-1.147532-.0026761-.146228 0-.287997 0-.425309.000892-.000891 0-.002675 0-.003566 0-1.458712 0-1.797533-2.925798-.965639-3.694712.132853-.1222056 1.292868-.1632381 2.684708-.1632381 2.645476 0 6.132653.1471819 5.01722.1623461 5.005629-.0080281 6.135329-.2818757 6.352887-2.8651413h.001784c2.910291.1159615 5.800966.3122041 8.664.5985398h.001784c.335254 5.6553536-11.52971 5.9657736-18.873202 5.9657736m-16.595971-2.617162c-1.085118-.2461952-3.132308-.9410723-5.369416-1.6305972.951373-.1775104 1.908096-.3443165 2.866601-.5030946.833678.7109333 1.668246 1.4227585 2.502815 2.1336918" fill="#ace2f4"/><path d="m202.042479 31.6081791c-3.828805 0-9.580228-5.3038543-13.748641-5.6367895 4.168413.3329352 9.919836 5.6367895 13.748641 5.6367895.613485 0 1.176759-.1360841 1.677954-.45019 5.121506-3.218944 3.857106-6.2316223 5.240186-7.9279656.001826.0008559.003652.0017118.004565.0017118-1.383994 1.6963432-.123245 4.7073098-5.244751 7.9262538-.501195.3149618-1.064469.45019-1.677954.45019m-14.149415-5.653907c3.248185-2.2124356 6.49637-4.4257271 9.744555-6.6381627-3.249098 2.2124356-6.49637 4.4257271-9.744555 6.6381627" fill="#afc558"/><path d="m152.10207 14.9252065-.414419.0017561c.163309 0 .300278 0 .414419-.0017561" fill="#c7d79b"/><g fill="#00b364"><path d="m195.308146 10.8303288c1.92253-1.34419254 3.753041-3.22398827 4.448481-4.1106023-2.694943-.81704071-4.719523-1.46297109-7.473538-2.13462137-.201382.06243761-1.700714.80958386-1.894041.87737326-3.73497 1.30405405-4.281835 1.43963286-3.669633 3.79085479-1.450848-.58245369-2.839043-1.25499593-4.116254-2.03724996h-17.890803c10.655361 11.74451408-8.128685 11.71864708-17.082589 11.69367208-.569241-.001784-1.0991-.0035679-1.578837-.001784-1.466958.0044599-1.808861-2.9256479-.9729-3.6945224.385759-.3558944 9.439907-.0240831 7.73129-.000892 7.303464-.0107036 6.387846-.5851296 6.387846-7.99647368-7.261398 5.33573958-7.008999 0-15.244192 0-7.72413 0-11.513697.42368377-18.289093 3.45815148 2.206255 1.8740203 4.411615 3.7471485 6.618765 5.6202768-2.778181-.627944-11.839489-4.1708323-14.316043-3.1192046-1.152802.4896893-1.449953 3.550916-2.874845 3.550916-5.755058 0-21.4154403 3.1370438-21.4154403-3.4394202 0-.0303269-.5446318-.5541146-.7245333-.5790896-14.2086396 6.0582319-26.8074995 14.2547097-38.4465011 24.0574142 7.4475647-1.2228852 15.1993811-.3692739 16.741522-.3692739.6864898 0 5.4176312 12.1717658 5.4632779 13.1092219.2559792 5.3107645-3.3787474 7.4104521-6.072795 12.4580867-4.9056727 9.1925999-7.0716511 21.2323547-6.5229963 31.5550753.0196907.3728417 6.1775138 5.8950022 6.1775138 8.0838867 0 9.164057.9630549 9.312123 7.2792987 16.063412v-11.239661c3.7662964 9.841059 8.3193263 13.628346 11.7213445 23.256225 3.8593798 10.924797 19.1134171 2.534075 24.2965501 9.730455 2.282333 3.169155 6.540897 1.716142 8.574411 4.80948l5.518769 8.396074c3.326836 5.059231 7.383123 3.305626 13.327033 3.305626 5.709412 0-5.196558 19.658927-5.196558 21.315307 0 6.816403 9.336083 22.333933 9.277906 25.06424-.173636 8.092806 9.967976 9.227387 15.473321 14.212584 4.408929 4.019198 1.265575 15.406034 1.128635 20.455452-.116354 4.257353.80374 8.078535 2.109592 11.75165 1.202028 3.381442 2.726269 6.636226 4.094773 9.980206.238079.585129.473472 1.172935.699915 1.7652.098454.25867.189747.5218.285516.781362.181691.495933.358013.99365.527174 1.494935.092188.277401.180796.555694.26851.83488.163791.5218.315946 1.048952.459151 1.580563.069813.252427.141415.503961.204963.759063.196012.783146.374123 1.575212.514643 2.384225.723187 4.142289-.873551 8.611038.051017 12.580286.94963 4.078068 4.461737 6.615711 4.409825 11.123706-.080553 6.962685 19.563619 8.270307 23.368401 8.270307-.0179-.011596-14.340209-7.412236-14.340209-6.52473 0-6.607683 3.411864-6.148321 3.413654-10.178222.00179-4.786289-4.358808-8.72967-1.635225-15.503258 2.944657-7.323932 2.611705-7.101832 10.575703-7.101832-.16021-3.367171-.674854-6.680824-1.543035-9.942743 7.116402-11.054133 23.672712-21.690825 28.055686-24.672667 5.95286-4.054877 2.61976-14.997514 5.194768-20.827402 2.262642-5.124344 9.12396-9.858007 9.454227-16.162421.017901-.333595.008951-.645784-.015215-.945484l-.028641-.214964c-.025956-.227451-.061757-.446875-.111879-.653811l-.047437-.175717c-.061757-.219424-.13336-.427252-.218388-.624376l-.041171-.093657c-.104719-.227451-.222863-.440631-.357118-.639539-1.375665-2.03279-4.227238-2.601864-6.718114-2.51802-3.517477.11774-3.867435-5.745151-6.528366-5.745151-7.393863 0-15.068766-1.254996-21.474513-5.983307-1.060613-.782254-2.248321-10.187142-4.060762-12.516957-1.219034-1.567184-3.693799-1.106929-6.310874-.647567-2.958082.520016-6.098751 1.040032-7.810053-1.369168-1.219034-1.716142-4.101038-8.446024-6.069214-8.446024-2.680622 0-17.445972-2.861426-20.54905-.062438.477948-.430819-5.038137-2.098795-5.823081-2.098795.337428 0-18.974687 9.96861-18.974687 4.792532 0-6.711151 3.284769-15.383735-4.701605-15.383735-12.838345 0-1.916265-3.32614-1.916265-9.187248 0-7.51838-12.432 2.063117-18.981847 2.070253.173636 0-7.3750673-12.335887-3.756451-12.335887 2.597384 0 3.002833-5.274194 4.930733-7.519272 5.070359-5.908382 13.729798-6.527406 19.824968-5.416017 2.467605.451335 11.414349 10.793679 11.43941 12.926369-.006265-.508421 3.646362-2.835559 4.139525-3.589271 1.764109-2.69552.767043-3.858644 1.208293-6.557732 1.478594-9.0596973 1.854508-10.8525486 9.106955-16.3586537 5.329918-4.045957 12.776588-8.692207 16.959075-13.9280464 3.189895-3.995115 6.175723-6.0707195 10.811991-8.3416645-.473472.2319111 4.404455 2.9613266 5.425687 2.9613266 4.193227 0 5.205508-3.5304008 7.501267-6.7004474h-7.279299c8.218188-6.2624921-6.658146-9.5101397 9.81582-9.5101397 8.091989 0 8.839341.1097118 13.78887-5.6193847-7.87002 0-5.957336-.051734-5.957336-8.04018 0-1.3290291-2.224155-6.2071902-4.347172-4.1271259-5.806076 5.6880661-5.597533-1.0418161-8.13853-4.8237512-3.286559-4.8915406-6.832678.1427145-8.203867 3.1085009-1.699667 3.6766832-15.667543 9.4262949-15.637112 14.228639.018796 2.8123682-4.593306 2.6990886-4.509173-.4370633.12799-4.7086876-16.196507-9.2059794-16.465912-11.043429-.355327-2.427039 8.080353-8.9678244 15.416934-8.9678244 3.369797 0 1.719357-3.889863 2.757595-3.889863 6.990203 0 15.230767-2.1656931 19.052555-7.78151-.954105 0-9.9277.0642216-9.9277-.0463822 0-3.1923457-1.368504-5.1403991 2.303814-5.1403991 8.620952 0 11.17448 6.6995554 20.640342 6.6995554-3.384117 2.4493382-6.76555 4.8995683-10.148772 7.3489065 4.749937 0 11.86455 7.8626788 15.517177 5.4231522 6.742279-4.5044274 2.197304-8.6217417 7.802893-9.5493862.600566.628836 1.408781 1.2326968 2.751329 1.7054387 1.752474.6172404 8.063347 1.7411173 9.135596 3.3368442 1.291532 1.9230783 4.575406 13.313482 2.163293 14.3035641-3.916661 1.6082144-15.389187 13.9949439-6.614289 17.0873894 6.78166 2.3886845 8.520708-.6243761 14.555912-4.385796 5.609168-3.49829 7.135199-2.2129672 13.450547.0115956.010741.0044598.252399-.000892.654269-.0062438.765364-.0103234 2.110856-.0206468 3.542493.0324444 1.784473.0661758 3.702786-1.3347806 4.798314-.9487498 3.173785 1.1185251 4.318532 1.9465259 4.843916 1.2088702.357118-.5003928.427825-2.5673342.653373-2.4870573 2.223261.7822541 6.506886 2.911633 9.294912 1.6967756-16.651183-18.951598-36.025031-34.0379438-60.125569-43.0557184-4.099248-.53785536-10.251725-.3134443-14.991817.436699z"/><path d="m143.648328 116.324955c-1.055844 1.09976-2.111688 2.198581-3.167532 3.298341 9.850317 0 15.845808 3.2974 24.584139 3.2974-5.86419-9.537834-10.460642-6.595741-21.416607-6.595741"/><path d="m175.513196 124.707754c-7.356772-.261679-7.698869 1.051675-12.204271 6.974156 3.875977 0 7.752796.012886 11.629615.018833 3.361989.004956 2.895186-6.910718.574656-6.992989"/><path d="m187.893064 133.456756c0-11.853067-11.853067 0 0 0"/></g><path d="m252.715362 58.7476103c-1.622764-1.2718101-1.60594-3.5498034-1.60594-4.5672166 1.783365.0417376 2.992982-.2748717 4.313253.0634694 8.87596 8.740924 17.854792 19.8172214 24.183737 30.5633273-7.73003-9.8154457-16.84646-18.5103985-26.89105-26.0595801z" fill="#ace2f4"/><path d="m198.876914 301.091462c-3.822478 0-23.558011-1.31181-23.477083-8.296795.052153-4.522433-3.476288-7.068203-4.430334-11.159332-.928868-3.98196.675296-8.465021-.051254-12.620577-.141174-.811604-.320113-1.606206-.517037-2.391861-.063843-.255919-.135779-.508259-.205916-.761494-.143871-.533314-.296734-1.062154-.461287-1.585625-.088121-.28008-.177141-.559264-.269758-.837554-.169948-.50289-.34709-1.002201-.529626-1.499723-.096214-.260393-.187932-.524366-.286843-.783864-.227497-.594162-.463985-1.18385-.703171-1.770854-1.37397-3.352005-2.9044-6.615423-4.11112-10.003221 30.747974-12.663529 56.518004-34.87034 73.579331-62.914078.13398.198651.251774.412513.35698.639798l.041363.093956c.085424.197756.157359.40625.219404.626376l.047657.17628c.050355.207599.086323.427725.112399.655905l.028775.215652c.024278.300661.03327.613849.015286.948512-.331803 6.324606-7.225032 11.073429-9.498197 16.214185-2.586984 5.84856.761618 16.826243-5.218928 20.894106-4.403358 2.991392-21.036668 13.662151-28.186167 24.751686.872219 3.272366 1.389256 6.596632 1.550212 9.974587-.45769 0-.886606-.000895-1.292143-.000895-6.681019 0-6.543442.198651-9.332745 7.125472-2.736251 6.795283 1.644627 10.751293 1.642829 15.552911-.001798 4.042808-3.42953 3.581974-3.42953 10.21082 0-.05011.046758-.07427.133081-.07427 1.449502 0 14.256737 6.609159 14.273822 6.619897m57.212182-246.4681312c-.133081-.0465307-.27875-.090377-.434311-.130644-1.30743-.3409274-2.779343-.2702365-4.545363-.3122931-3.896212-10.7146051-10.827596-22.664104-16.886372-32.1259575 13.261328 8.1437799 26.73249 18.7567358 36.984623 31.2776657-1.171651.5100489-2.863448.8482918-4.299462.8482918-1.997112 0-3.996922-.3829841-5.296259-.8393436-.016186-.0062637-.031472-.0089482-.045859-.0089482-.192428 0-.277851.4662026-.610553.9332999-.332703.4662026-.912683.9324051-2.095125.9324051-.693279 0-1.593373-.1601732-2.771319-.5744761z" fill="#01a95f"/></g><g fill-rule="nonzero" transform="translate(171.548303 .56362)"><use fill="#000" filter="url(#b)" xlink:href="#a"/><use fill="#dc8c01" xlink:href="#a"/><g fill="#fff"><path d="m59.6688778 130.46646-.364-3.016c1.456-.676 3.406-1.066 5.408-1.066 3.354 0 6.214 1.69 6.214 5.252 0 2.288-1.066 4.342-4.42 7.488-1.534 1.43-2.652 2.262-3.614 2.912v.052c1.638-.052 3.77-.078 5.382-.078h3.042v2.834h-12.376v-3.016c5.824-4.732 8.164-7.202 8.164-9.802 0-1.976-1.43-2.782-3.25-2.782-1.326 0-2.73.39-4.186 1.222zm26.6755666-3.51-.364 2.86c-1.092-.468-2.21-.702-3.354-.702-3.042 0-4.862 2.184-4.94 5.98h.052c.91-1.222 2.548-1.976 4.212-1.976 3.458 0 5.616 2.314 5.616 5.772 0 3.614-2.522 6.266-6.656 6.266-4.446 0-6.734-3.094-6.734-8.762 0-6.422 3.12-10.01 8.268-10.01 1.378 0 2.808.182 3.9.572zm-5.148 8.762c-1.638 0-3.224 1.482-3.224 3.302 0 2.028 1.3 3.588 3.068 3.588 1.976 0 2.99-1.586 2.99-3.458 0-1.95-.78-3.432-2.834-3.432zm13.5715667-1.82c.988 0 1.768-.832 1.768-2.782 0-1.872-.754-2.6-1.768-2.6s-1.768.728-1.768 2.6c0 1.95.78 2.782 1.768 2.782zm0 2.08c-2.756 0-4.576-1.924-4.576-4.862 0-3.12 1.846-4.732 4.576-4.732s4.576 1.612 4.576 4.732c0 2.938-1.82 4.862-4.576 4.862zm10.7639999-10.27h2.184l-11.5699999 19.682h-2.184zm1.248 17.368c.988 0 1.768-.832 1.768-2.782 0-1.872-.754-2.6-1.768-2.6s-1.768.728-1.768 2.6c0 1.95.78 2.782 1.768 2.782zm0 2.08c-2.756 0-4.576-1.924-4.576-4.862 0-3.12 1.846-4.732 4.576-4.732s4.576 1.612 4.576 4.732c0 2.938-1.82 4.862-4.576 4.862z"/><path d="m54.1221176 9.0999355-5.7996652-6.12790115 2.5242553-1.63053882.147334-1.27078193-1.1708643-.0707136-3.0365295 2.21206367-3.7891553.00332365-2.3195492-1.43444323-.8308191.17179853.0122212.93257147 1.4951802 1.67718459-.1971243.88099753-17.5961198 1.91660229-18.22653282-.5155102-1.96411433.83389333-1.44674781 1.86193391-.74436504 4.35513286-.13149167 3.1306529-.45116805 2.9233256.12402312 2.9116355.50740846.1050963.73757546-.8224325.59963368-2.731929-.48602126-3.7898825.16906072-.0257869 1.14246115 5.7696341-.77819982 5.0072567.71053027 9.9934254.06766955 1.1066622.6924247.5982577 3.0615379.0048136.98652697-.3022233-2.73903251-4.5175335 1.35882266-5.736856.71166186.0012607 2.48306509 7.6275567 1.27995032 1.9582053.6314316.3936811 3.3795168.0025214.4336283-.549549-2.9255198-1.8201017-1.9835778-6.1870393.497224-1.0044312 1.1652063.109566.731578 1.8142567 1.0597414-1.7684132 1.0268118 1.7759774.8697461-1.928407 2.5600137-1.9930464 9.0843542-.8811121 1.5247149 1.8879501 1.2850424 9.2294434.6760166 1.3261379 3.0953726-.0012607.3337082-.4969435-1.8813945-2.6521613-.2260932-5.050235 1.0159485.5710954 1.070152 3.354713 1.3609727 4.3560498.6102707.4791792 2.7694725.0017191.2299407-.6334426-.8096582-.7589392-2.6115015-5.1689697.6020101-5.4170976 2.9263119-2.192351 4.262729-8.0190602 4.9062686-2.294009 4.5117937-.5202091.3867801-.4247401.6314316-1.80233735z" transform="translate(57.536878 74.39612)"/></g></g></g></svg>