<svg height="381" width="575" xmlns="http://www.w3.org/2000/svg"><g fill="none" fill-rule="evenodd"><path d="M287.5 573C129.823 573 2 445.176 2 287.497S129.823 2 287.5 2 573 129.818 573 287.497 445.177 573 287.5 573z" fill="#1b2d4d" fill-rule="nonzero" stroke="#f79b00" stroke-width="3"/><path d="M288 530C154.347 530 46 421.652 46 287.997S154.347 46 288 46s242 108.343 242 241.997S421.653 530 288 530z" fill="#fff" fill-rule="nonzero"/><path d="M289.552 74c119.047 0 215.553 96.506 215.553 215.552 0 119.047-96.506 215.553-215.553 215.553C170.506 505.105 74 408.599 74 289.552 74 170.506 170.506 74 289.552 74" fill="#4ea5c3"/><path d="M289.552 74c117.009 0 211.863 94.853 211.863 211.863 0 117.008-94.854 211.862-211.863 211.862-117.01 0-211.863-94.854-211.863-211.862C77.69 168.853 172.543 74 289.552 74" fill="#5fb5d2"/><path d="M203.81 459.005c-49.488-23.766-87.598-69.657-102.891-122.383-15.294-52.725-7.828-111.442 19.247-159.2 18.597-32.805 46.258-60.587 79.535-78.326 48.77-25.999 109.129-29.154 160.343-8.38 51.216 20.774 92.322 65.084 109.201 117.71 27.705 86.38-13.215 178.976-86.675 228.318-52.003 34.93-120.473 50.253-178.76 22.26" fill="#1e758e"/><path d="M203.81 459.005c-49.488-23.766-87.598-69.657-102.891-122.383-15.294-52.725-7.828-111.442 19.247-159.2 18.597-32.805 46.258-60.587 79.535-78.326 48.77-25.999 109.129-29.154 160.343-8.38 51.216 20.774 92.322 65.084 109.201 117.71 27.705 86.38-13.215 178.976-86.675 228.318-52.003 34.93-120.473 50.253-178.76 22.26" fill="#69bedb"/><path d="M212.762 364.565c-35.147-12.475-68.31-29.667-82.767-66.097-9.38-23.637-13.949-54.295-10.28-79.564 14.276-98.31 120.29-151.706 210.41-118.599 29.474 10.828 55.43 30.625 72.154 57.368 28.335 45.31 22.838 107.815-3.338 153.293-20.625 35.833-60.194 58.656-101.205 63.891-28.608 3.651-57.7-.611-84.974-10.292" fill="#74c9e6"/><path d="M471.54 219.61c-.734.648-4.039 1.298-5.14 0-1.1-1.303-3.66.213-3.845 2.597-.181 2.388.732.65 1.832 1.518 1.102.87 1.462 2.167 2.2 3.468.738 1.3 2.014.864 2.934 1.948.921 1.083-2.57 2.381-1.1 3.685 1.464 1.3 2.198 6.496 2.385 7.798.188 1.3-4.033 1.949-5.317 1.733-1.285-.213-5.135-1.733-6.42-2.167-1.285-.433-2.021-5.846-.37-5.634 1.655.219 2.02-.43 3.856-2.379 1.832-1.953-2.751-2.82-4.036-3.25-1.286-.435-3.85-5.202-4.768-6.72-.917-1.515-.206-3.88 2.02-5.635 1.1-.868 4.033 1.084 5.498 0 1.47-1.08 2.935-2.378 3.484-2.817.548-.428 4.218.651 4.768 1.95.548 1.303 2.755 3.253 2.019 3.904zm-28.606 10.614c-1.472.433-5.87.869-7.517.65-1.649-.217-3.67-2.167-6.054-2.602-2.385-.43-5.318-.215-6.231 1.302-.922 1.519-4.229.867-5.692.867-1.464 0-3.297 2.167-3.663 1.303 0 0 1.1-3.903 0-4.337-1.1-.434.366-3.034 1.464-3.9 1.1-.863 2.384-3.034 3.483-5.2 1.1-2.166 2.572-2.384 3.486-2.166.922.216 2.934 4.117 3.483 5.418.552 1.298 2.387-.432 3.122-.867.725-.434 1.835-1.734 2.009-2.817.189-1.082 1.833-1.734 3.671-1.734 1.836 0 .186 1.734-1.1 2.166-1.285.433-.549 1.302 1.652 2.166 2.198.87 4.217 3.252 6.602 4.77 2.384 1.51 2.748 4.547 1.285 4.981zm-22.924-50.918c.914-3.03 6.053.65 5.134 2.17-.914 1.517-5.758-.127-5.134-2.17zm3.484 162.503c-1.649-.44-1.097-5.415-.55-6.502.55-1.088 3.722-1.367 4.22-.432.916 1.733-2.02 7.365-3.67 6.934z" fill="#6c9f42"/><path d="M504.958 281.986c-1.554-44.968-16.872-86.435-41.885-120.318a6.11 6.11 0 0 1-1.07.308c-3.304.649-5.318-.65-6.233.649-.918 1.304-2.2 3.683-2.75 2.164-.547-1.514 1.832-4.111.917-4.981-.917-.868-4.77-.436-5.317.214-.551.656-.19 3.037.175 3.907.371.86.922 4.328-.175 3.678-1.102-.65-.924-2.818-2.024-2.598-1.098.22-2.377.869-2.927 1.3-.55.43-2.755.43-3.305 1.298-.549.867.186 3.252-.734 3.467-.915.215-1.65 1.084-3.663-.435-2.023-1.514-2.023-.65-2.572-.215-.549.435-3.118 2.167-3.307.215-.174-1.948.376-2.601-1.273-3.9-1.65-1.3-.373-1.3 1.835-.43 2.196.867 4.945 1.298 8.98-.22 4.04-1.511 5.689-2.16 4.04-3.03-1.654-.868-2.978-3.623-5.548-4.06-2.563-.433-6.374 1.458-10.41-.274-4.033-1.738-4.953-2.387-6.603-2.818-1.65-.43-11.72-5.658-16.305-4.8-4.583.87-17.256 8.052-17.985 8.701-.736.649-1.833 3.251-4.218 5.421-2.386 2.159-6.53 4.304-10.018 5.168-3.485.87-7.765 7.18-7.765 8.042 0 .867 1.462 4.12 1.1 4.77-.373.649.725 3.9 2.746 4.767 2.015.861 5.503.652 5.686-.649.184-1.302 2.933-4.119 3.117-2.166.177 1.948 2.014 4.977 1.651 6.28-.374 1.299 0 2.602 1.275 2.383 1.285-.215 8.077-1.95 8.077-1.95s2.198-1.088 1.837-2.816c-.374-1.73 2.38-4.118 2.931-4.767.55-.65 2.563-3.251.183-4.115-2.388-.87-4.223-1.09-1.656-3.686 2.573-2.6 4.222 0 7.519-3.899 3.306-3.9-.734-4.984 2.757-5.203 3.482-.212 7.148-.431 6.41.869-.727 1.298-4.946 4.12-7.33 5.418-2.388 1.303-2.021 3.683-1.102 4.982.916 1.299 1.287 4.336 2.938 3.901 1.647-.434 3.667-1.953 5.494-1.734 1.833.216 5.514-.219 6.053-.219.557 0 3.121 3.036 1.658 3.472-1.472.428-3.304.214-6.426.428-3.112.22-6.598.22-6.598.87s4.217 2.163 2.749 3.253c-1.464 1.078-2.93-.22-4.767-.44-1.836-.212-2.936 2.818-3.486 4.552-.549 1.734.916 4.769-1.833 3.686-2.75-1.086-4.768-1.086-5.494-.651-.738.435-2.08-.38-3.913.268-1.835.653-1.96.6-4.344.6h-2.383l-1.473.218s-1.462-1.086-1.648-2.818c-.178-1.739.737-3.687-.178-4.118-.921-.437-4.218.213-4.77 1.516-.55 1.299-1.104 3.685-.37 4.77.735 1.08 2.939 3.247.922 2.597-2.022-.65-4.586-.866-6.057.435-1.462 1.302-4.032 4.113-4.032 4.113s-4.584.439-4.584 1.737c0 1.299 0 3.032-1.648 3.252-1.651.214-3.854.864-6.055 1.297-2.199.436-2.014 1.516-4.585 1.735-2.57.218-2.931 1.518-.549 1.95 2.384.428 6.048 2.166 6.233 4.115.185 1.952-.185 4.117-1.1 6.065-.629 1.338-4.398.437-6.602.437-2.2 0-6.598-.87-8.432 0-1.835.861-1.47 5.197-.922 7.149.55 1.95-.184 3.033-.913 3.682-.736.65-.92 2.6 0 3.466.913.866 1.647 2.813 2.385 3.034.734.213 3.113-.65 4.034.434.91 1.083 1.832 3.685 2.385 3.033.55-.65 1.278-3.467 2.197-2.818.924.649 3.119-.215 4.769-.436 1.648-.213 2.564-2.381 4.22-3.464 1.648-1.08.735-1.08.18-2.38-.553-1.3 1.653-2.818 2.939-4.336 1.28-1.518 3.662-.215 4.212-1.952.55-1.734.736-4.761 2.198-4.55 1.472.218 3.495 1.298 4.771 1.298 1.284 0 4.034-2.38 4.77-2.81.735-.437 3.483-.22 3.855 1.73.363 1.949 3.477 4.332 4.211 4.766.736.434 5.508 2.17 6.237 2.818.732.65 1.83 2.598 2.203 4.335.363 1.728 2.558 3.8 2.747 2.28.174-1.51-1.833-6.397-.549-6.18 1.284.215 2.753-.435 2.753-.435s-3.488-2.818-4.772-3.467c-1.28-.649-3.663-1.948-4.765-4.117-1.097-2.167-3.854-2.599-3.67-4.766.179-2.166 2.751-.864 4.22.869 1.465 1.73 5.135 4.116 6.418 5.627 1.287 1.518 3.3 2.173 3.848 4.12.55 1.952 2.201 4.122 2.749 4.982.55.868.887 7.765 1.438 8.848.547 1.083 3.89-2.347 4.802-3.216.915-.864 2.565-1.298 2.75-3.036.185-1.728-2.2-3.027-2.934-3.677-.729-.649 1.832-1.3 2.749-2.167.92-.864 2.568-2.384 3.297-1.086.733 1.304.373 6.502.733 7.37.373.865 4.044 2.162 4.777 3.252.732 1.08 3.842 1.513 4.398.864.551-.65 3.485.435 4.22.649.73.219 2.933-.432 4.401-.865 1.46-.435 2.933-1.738 2.744 1.084-.174 2.817-.736 7.145-2.561 9.313-1.835 2.167-1.099 3.256-2.935 3.256-.852 0-1.623.003-2.244.351-.597-1.112-1.424-1.98-2.526-1.653-2.199.647-4.952.647-6.781 3.249-1.835 2.6-2.57 2.81-2.94 1.948-.364-.866 5.325-4.55 4.589-5.633-.736-1.082-5.142-.65-7.522-.65s-4.399-1.731-6.233-2.167c-1.836-.435-2.712 4.016-4.54 6.184-1.835 2.165-4.628-1.198-6.279-1.198-1.654 0-4.769-2.819-4.769-2.819s-3.118-1.517-4.405-1.517c-1.285 0-3.847-2.816-4.581-2.816-.73 0-2.747-1.95-1.278-2.82 1.464-.86 4.585 1.03 3.12-3.736-1.46-4.766-6.427-3.846-7.711-3.197-1.284.653-10.452.434-11.187.434-.728 0-6.046 2.168-7.698 3.038-1.655.862-4.583 1.951-5.319 2.382-.733.43-4.586-.87-6.238.218-2.177 1.43-4.213 3.681-4.763 3.681-.55 0-2.206 1.518-3.304 4.768-1.099 3.251.185 6.06-1.834 7.15-2.016 1.08-6.367 2.81-7.839 4.541-1.465 1.736-2.612 8.456-4.449 11.272-1.832 2.82 0 5.418.372 7.15.364 1.734 1.65 4.987-.372 8.017-2.015 3.035-1.832 4.549-2.75 4.765-.913.218.918 1.086 1.286 3.254.367 2.165-1.649 4.33 1.836 6.28 3.484 1.952 6.67 2.04 7.584 4.636.92 2.606 3.967 8.58 3.967 8.58s3.297 3.472 4.953 4.987c1.65 1.519 2.202.65 2.564-.864.365-1.522 2.57-1.737 5.134-1.737 2.568 0 4.404.653 6.966.215 2.573-.433 4.436-4.168 5.348-4.605.923-.43 4.74-1.022 7.125.706 2.386 1.734 2.021 4.117 3.308 5.632 1.276 1.52 3.475.653 5.13-.862 1.65-1.518.915-.87 2.934.43 2.015 1.304 2.933 2.604 1.102 4.551-1.837 1.952-.734 4.982-1.837 8.018-1.097 3.031 1.044 3.02 3.062 4.32 2.021 1.298 3.721 9.763 4.819 11.281 1.11 1.51-.362 5.848.922 8.452 1.286 2.597 1.87 4.176.396 5.474-1.47 1.303-3.328 3.84-3.517 8.172-.185 4.334.738 7.361 1.464 8.879.735 1.518 2.572 5.634 3.49 7.154.914 1.518 4.076 4.317 4.263 6.702.184 2.383-2.427 6.08-1.512 7.377.914 1.303 1.464 3.251 3.111 4.99 1.66 1.734 2.207 5.411 2.207 5.411s.551 1.517.735 3.9c.18 2.389.364 3.9 2.202 4.99 1.834 1.079 3.11 1.299 4.028.212.918-1.08 4.824-3.208 7.203-2.99 2.386.217 5.822.611 8.208-1.343 2.378-1.953 5.86-7.149 7.148-8.665 1.283-1.515 4.217-4.338 3.852-6.069-.362-1.732-2.483-4.533-1.015-5.401 1.471-.864 6.337-1.532 6.51-2.835.19-1.3-1.283-6.71-1.646-7.8-.362-1.077.911-3.03 2.383-5.197 1.47-2.164 4.959-4.561 5.685-5.43.735-.864 3.853-3.673 4.217-6.485.372-2.817-.733-6.289 0-7.798.736-1.518.187-2.817-1.463-4.55-1.655-1.736-1.766-5.732-2.314-6.594-.551-.87.295-6.625 1.395-7.061 1.1-.433 3.485-4.763 4.953-6.711 1.465-1.95 5.684-8.022 7.705-8.451 2.013-.432 5.133-3.899 5.31-5.853.185-1.95 5.507-9.315 5.692-10.83.184-1.519 2.382-7.158 1.464-8.457-.917-1.3-8.068 1.956-8.983 2.387-.92.43-3.483 2.167-6.426 1.95-2.927-.215-1.647-3.038-1.826-4.337-.184-1.3-3.3-6.28-4.035-6.494-.736-.219-2.935-2.817-3.854-5.417-.916-2.6-4.755-4.312-6.22-6.265-1.47-1.947.17-8.03-1.3-11.07-1.472-3.034-2.745-6.932-4.031-9.749a36.778 36.778 0 0 0-.987-1.985c1.704-.502 4.177-1.414 4.47-.183.362 1.518 2.383 4.766 2.756 7.154.365 2.376 2.378 1.514 2.563 3.68s2.013 7.369 2.749 8.019c.735.648 4.04 4.115 4.59 5.416.55 1.296 1.277 3.036 1.828 6.283.55 3.249 1.098 7.583 2.57 8.233 1.462.647 6.416-1.08 7.333-1.732.919-.65 6.973-4.121 9.17-4.338 2.202-.215 2.565-1.952 5.314-2.602 2.754-.65 4.77-3.028 6.603-4.76 1.833-1.735 4.035-6.07 4.769-7.59.739-1.51 2.574-2.596 1.648-4.325-.91-1.74-4.768-4.337-6.23-4.555-1.469-.215-1.286-3.029-2.2-3.029-.92 0-.734 1.51-2.57 2.598-1.836 1.078-3.668 3.247-4.953 2.814-1.28-.431.373-1.517-1.651-3.465-2.014-1.947-2.746-2.387-2.746-3.895 0-1.52-4.036-4.34-4.407-6.503-.364-2.168 2.754-5.197 3.672-3.25.92 1.948 1.653 4.983 4.03 6.281 2.387 1.3 4.592 3.472 5.69 3.903 1.099.43 3.85-2.384 4.765-1.95.92.43 2.755 4.329 4.403 4.977 1.65.651 7.147.868 8.067.868s4.77.22 5.504-1.078c.73-1.3 1.278-1.3 2.2-1.3.913 0 2.563 3.895 3.848 4.326 1.286.435 3.667.22 3.483 3.036-.117 1.871.407 3.55 1.148 4.53z" fill="#009c57"/><path d="M338.589 191.225c-.737-1.087-1.299-3.315.184-3.898 1.098-.437 2.198 1.08 3.113-.218.921-1.3 2.205-2.604 3.67-1.52 1.468 1.09 5.357.169 6.64 1.686 1.286 1.51-3.887 4.38-2.787 5.25 1.099.865 2.934 4.766 4.586 5.633 1.649.87 3.482 3.25 3.665 4.767s-2.198 3.901-3.665 3.901c-1.474 0-4.405-1.084-5.872-1.084-1.462 0-2.02 1.948-2.934 1.514-.92-.43.186-1.948.186-1.948s-5.164.583-4.792-.718c.363-1.298 4.606-5.563 6.078-6.432 1.462-.867-2.391-1.732-4.223-2.601-1.831-.865-3.115-3.253-3.85-4.332z" fill="#6c9f42"/><path d="M331.804 198.158c-.37-1.515.915-1.948 2.013-1.948 1.101 0 1.272-2.059 2.936-2.386 1.1-.215 2.385 0 3.118.868.736.865 1.1 2.599 1.1 4.55 0 1.954-1.833 3.252-3.119 3.9-1.279.653-2.934 1.951-4.4 1.731-1.467-.216-2.748-2.818-1.648-3.465 1.1-.65.364-1.73 0-3.25zm50.796 41.813c-.922-.43-2.689-1.91-2.018-2.379.919-.649 3.302 0 3.853 0s2.2 0 2.933 2.165c.73 2.167-1.65 2.387-2.382 2.167-.735-.215-1.465-1.519-2.385-1.953zm-23.837-6.064c1.278-2.385 2.198-.65 1.827.22-.365.87-2.271.602-1.827-.22zm12.465.868c-1.1-1.08-.26-4.334 1.47-4.334.915 0 2.57 2.167 1.652 3.685-.916 1.518-2.022 1.73-3.122.649z" fill="#6c9f42"/><path d="M462.74 372.79c.184 2.379-.92 6.502-1.47 7.8-.55 1.297-1.466 6.283-2.571 8.67-1.102 2.38-1.28 5.193-2.379 8.016-1.099 2.817-2.02 3.895-4.582 3.895-2.572 0-3.491-1.516-3.118-3.895.36-2.389-2.024-6.717-.738-8.235 1.284-1.519 1.462-4.771.187-8.021-1.284-3.248 2.745-4.983 3.48-4.762.737.21 2.752-1.739 4.587-4.118 1.833-2.38 2.099-5.978 4.398-5.204 1.286.434 2.02 3.471 2.206 5.854z" fill="#009c57"/><path d="M205.456 289.159c-.185 2.813-1.103.216-1.837.216-.727 0-2.748 1.517-3.847.867-1.1-.65-1.835-1.52-3.121-1.52-1.282 0-3.296-.43-3.296-.43s3.114-3.252 4.217-3.471c1.1-.217 2.748-.651 4.215-.217 1.469.436 3.854 1.735 3.669 4.555zm5.317 1.742c-2.012.711-2.41-3.16-.734-3.518 1.651-.354 2.756 2.818.734 3.518zm-24.206 2.385c-2.017.707-2.414-3.16-.73-3.516 1.647-.355 2.746 2.815.73 3.516zm-1.653-21.462c1.653-.22 2.759 1.731.736 2.164-2.015.431-2.41-1.948-.736-2.164zm2.203 11.916c-.916-.867-4.216-2.598-4.95-3.686-.734-1.078-4.586-.648-6.784-.648-2.202 0-4.037.648-3.856-1.514 0 0 4.405-1.517 5.506-1.517 1.097 0 3.847 0 5.318 1.517 1.464 1.514 4.216 3.25 5.497 3.031 1.287-.219 3.49 2.169 3.306 3.03-.187.868-3.122.651-4.037-.213zm109.089-129.781c.442.575.782 2.743-1.454 3.327-2.233.57-3.016-1.305-2.908-2.752.109-1.446-3.972-3.153-4.418-3.153-.442 0-.165 4.456 1.513 4.456 1.675 0 2.797 2.02 3.58 2.888.778.863-1.68.863-2.684.72-1.002-.14-4.138 2.026-7.045 2.6-2.902.58-6.135-.126-7.366.024-1.232.14-3.138 4.457-3.587 5.177-.45.724-4.47 0-5.923 0-1.457 0-2.685 1.88-5.034 2.309-2.343.434-1.114 2.17-1.002 3.615.107 1.441-.674 2.162-2.129 1.73-1.451-.428-1.338.58-1.451 1.882-.108 1.299.224 3.032-1.116 4.331-1.342 1.3-1.902 1.73-3.462 1.591-1.569-.146-1.456-3.319-2.013-3.178-.563.144-3.245 2.164-3.692 1.01-.45-1.158-3.915-3.754-5.143-4.337-1.23-.578-2.118-3.03-2.683-4.041-.555-1.013 1.68-1.155 1.007-1.299-.669-.144-3.017-.87-3.463-1.59-.448-.724-1.898-4.186-2.012-5.2-.11-1.01 1.79-2.742 1.79-3.326 0-.572-1.79-.572-2.571-.572-.786 0-1.678-2.167-.56-4.334 1.118-2.167 2.795-1.59 2.795-1.59h1.675c.89 0 .675 2.455.227 3.61-.449 1.157.671 1.01 1.338 1.589.673.576 1.002-1.012 1.12-2.02.106-1.011-1.677-3.467-2.458-4.48-.782-1.007-3.132-1.444-3.579-.717-.45.716-2.35 3.752-2.908 3.028-.557-.723-.67-7.221-1.673-9.1-1.012-1.873-4.583-2.453-6.036-3.323-1.453-.864-6.708-1.732-7.6-1.874-.898-.143-4.252.868-5.59.285-1.345-.575-1.345-3.463-1.345-3.463s-.782 3.035-1.338 3.896c-.56.872-1.788 1.304-2.684.872-.895-.435-2.235-3.616-3.91-4.047-1.677-.43-2.458.289-3.805-.869-2.01-1.73 3.466-1.588 3.806-1.588.33 0 4.582-1.01 4.692-2.456.113-1.442 1.452-2.89 3.355-2.455 1.898.434 2.682-1.591 2.458-3.322-.224-1.734 3.354-3.608 4.137-2.74.781.86 3.799-.149 2.792-1.882-1.006-1.732 3.912-3.462 8.386-3.756 4.47-.284 5.588.294 6.705 1.013 1.117.72 4.918 1.01 6.256-1.013 1.345-2.023-.108-4.911 1.46-6.065 1.56-1.153 1.785 1.734 3.015 2.89 1.23 1.152 2.459-3.183 3.796-4.913.244-.314 3.256-.496 5.6-2.2 2.663-1.937 6.72-1.7 10.121-1.804 2.66-.079 4.377-1.034 7.04-.876 3.387.204 7.677 1.576 10.51 1.945.774.103 2.543 1.132.345 1.562-2.197.432-6.669 1.504-9.326 1.973-3.46.61-7.927-.11-7.297 0 .809.138 5.21 2.075 10.686.656.634-.163 2.883-1.71 5.389-1.038 1.275.34 2.723-1.243 4.958-1.81 1.698-.43 4.45.148 4.45.148l2.352-.433c2.344-.435.994 5.207 3.208 8.067 1.522 1.971 1.932 5.799 4.616 6.52 2.68.72 4.02-1.44 6.37-3.756 2.342-2.31 5.923-1.01 7.705-.288 1.796.721 0 4.044-2.564 4.911-2.575.867-7.268 6.504-8.163 7.365-.89.869-2.345 2.458-1.565 4.625.785 2.169 1.787 1.16 2.574 1.589.782.43-.669 1.3-1.344 2.599-.67 1.297-.78 3.753-.67 6.068.115 2.308-4.302-1.01-6.65-.72-2.349.29-1.284 3.462-.836 4.477.446 1.004.78 2.453 1.23 3.032zm22.296 17.625s-3.304.14-3.794 1.007c-.49.869-2.197 1.3-4.28 2.02-2.075.728-3.053-.285-3.416-1.441-.372-1.159-3.306-1.012-4.162-.867-.853.14-1.588-1.014-2.569-3.033-.973-2.024 0-2.069.491-3.037.364-.718 4.405-.144 5.38 1.013.981 1.155 2.567 0 5.012 0 2.442 0 3.544-1.157 4.643-1.013 1.108.145 3.425.87 4.403 1.883.982 1.01-1.708 3.468-1.708 3.468z" fill="#6c9f42"/><path d="M143.23 134.747c0 .436 2.606 1.001 4.156 1.443 3.058.87 2.812.87 4.28 1.155 1.467.294 3.911 2.602 5.01 3.325 1.102.724 2.203 2.02 3.667 1.88 1.47-.15 3.79-.15 5.625 0 1.83.14 8.067.14 9.172 0 1.097-.15 5.623 1.008 5.377 1.587-.245.58-.61 1.447-2.936 1.59-2.325.145-6.475-.29-9.29-.58-2.808-.292-5.5.437-5.5.437l-3.912-.436s-3.302-1.16-4.28-2.598c-.981-1.448-4.034-1.59-5.621-2.31-1.592-.728-3.792-2.027-5.137-2.746-1.348-.722-.611-3.178-.611-2.747z" fill="#009c57"/><path d="M146.405 143.558c.614-1.73 3.67-1.159 4.283.579.611 1.735-4.815.938-4.283-.579zm.37 6.068c-.37-1.014 3.423-2.886 4.524-3.32 1.102-.434 2.075.864 3.3 1.008 1.222.142.978 2.312-.124 2.458-1.101.14-3.425.43-5.007.72-1.594.285-2.553-.47-2.693-.866z" fill="#6c9f42"/><path d="M142.74 147.889c.976.723 1.71 3.902 1.1 4.05-.61.141-.488 1.3-2.69 2.598-2.202 1.3-3.058-2.598-3.302-3.465-.242-.87-2.564.287-3.906.14-1.351-.14-1.831-2.246-.98-2.886 1.342-1.012 3.909.146 4.766-.287.855-.435 4.033-.869 5.012-.15zm-11.355-4.762a222.05 222.05 0 0 1 2.827-3c1.84.03 3.643.086 4.614-.035 2.324-.29 3.302 1.153 3.18 1.878-.123.728-1.468 2.885-3.18 2.747-1.71-.15-1.71.571-2.323-1.013-.605-1.578-4.35-.589-5.118-.577z" fill="#009c57"/><path d="M128.633 146.157a200.4 200.4 0 0 1 2.03-2.252c-.425.833-.854 2.066-1.492 2.252a.88.88 0 0 1-.538 0zm9.705-8.229c-.583 0-1.075-.102-1.739-.246.66-.664 1.329-1.32 1.996-1.976.45 1.106.496 2.222-.257 2.222zm42.67 40.874c-1.226.576-3.048-1.077-1.102-1.732 1.71-.58 2.321 1.155 1.102 1.732zm-5.506-2.312c-.49.868-3.188-.072-2.69-.72 1.223-1.592 3.18-.142 2.69.72zm-14.974 33.803c2.383-1.084 4.955-4.117 6.052-2.817 1.101 1.3 3.113 2.817 4.399 3.031 1.282.22-.363 2.82-.914 3.039-.55.209-2.569-.438-4.22-.438-1.648 0-1.281-1.301-2.017-1.08-.733.217-2.386.649-3.485 1.299-1.1.648-2.932.515-2.932-.65 0-1.732.73-1.3 3.117-2.384zm14.306 5.848c.549-.218 3.112-.218 4.398 0 1.285.216 3.12 4.117 2.201 4.332-.916.22-2.385-.864-2.385-2.381 0-1.52-1.284 2.816-.55 4.115.734 1.3-1.465 2.817-2.2 2.817-.736 0-1.286-1.95-1.102-3.897.187-1.952-1.097-3.685-3.114-3.47-2.017.218-2.939 2.166-3.665 2.816-.736.654-.736 4.332-.555 5.2.183.87.183 3.922-1.647 3.683-1.651-.215-1.282-3.902-1.105-5.202.186-1.297-.546-4.545.186-6.279.736-1.734 2.934-2.382 4.397-2.601 1.47-.218 4.59 1.083 5.141.867zm9.902 4.986c.548.432 4.399-.654 5.133.432s-.734 1.298-2.572 2.166c-1.83.87-2.383.648-3.11 1.729-.735 1.089-3.12 1.519-4.22 2.818-1.102 1.302-3.066 2.073-3.484 1.084-.551-1.3.184-.65.367-1.3s3.482-2.164 3.482-2.164 3.856-5.2 4.404-4.765z" fill="#6c9f42"/><path d="M275.32 347.874c-1.279-.651-4.034-.863-5.134-2.603-1.1-1.732-4.218-3.462-5.318-3.031-1.098.43-2.935.867-4.4-.22-1.47-1.079-3.845-2.38-4.767-3.246-.92-.864-3.298-1.516-4.4-1.516-1.106 0-.92-.864-2.567 1.735-1.651 2.596 0 3.466-2.935 3.026-2.936-.43.366-.65 2.019-3.245 1.651-2.6-.186-4.118-2.02-3.467-1.835.651-.55 1.95-3.484 2.603-2.934.65-2.934-1.516-1.102-1.952 1.837-.432 5.137-2.386 5.137-3.251 0-.868-.365-3.247-1.835-3.247-1.465 0-1.1-2.17-3.302-4.989-2.196-2.813-5.34-6.01-7.544-5.572-2.196.431-3.454 2.54-4.555.162-1.098-2.389-2.385-2.82-3.12-4.118-.735-1.3-2.57 0-3.118-.651l-.552-.65s-2.378.65-1.099-1.302c1.287-1.95 1.834-5.639 1.287-5.419-.55.22-1.47 3.252-2.384 3.035-.915-.216-.182-.654-2.015-1.953-1.84-1.302-4.769-.214-4.769.87 0 1.083-.921 1.95-.921 1.95s-.549-.65-1.099-1.95c-.55-1.303-3.115-1.515-4.4-.215-1.282 1.298-2.019-3.256-2.932-3.256-.923 0-2.753 1.087-3.671 3.038-.912 1.95-.548 4.763-1.283 4.55-.734-.218-.915-3.903-.734-5.201.185-1.3 2.204-3.466.734-3.895-1.465-.438-3.668 2.166-4.585 2.376-.913.22-2.75 1.733-3.85 3.47-1.102 1.732-1.653 2.82-2.754 3.463-1.1.656-2.747 0-2.381-.644.37-.653-3.116-3.035-3.67-2.168-.548.868-2.2 1.515-3.851 2.381-1.647.87-3.112-1.08-3.483-1.95-.364-.866-1.1-1.082-1.282-3.9-.184-2.82.368-5.848.918-7.578.549-1.739-2.753-5.2-4.034-4.992-1.284.22-2.569 1.74-3.85 1.518-1.282-.213-.732-.65-2.754-.65-2.019 0-.366-.43 0-2.378.367-1.95-.733-4.55 1.287-6.29 2.014-1.731 1.284-5.848 0-6.06-1.287-.217-3.672.65-5.32.431-1.65-.219-2.934 1.519-2.385 3.467.55 1.95-.916 3.251-1.466 3.035-.555-.218-1.284-1.301-3.302.432-2.012 1.735-2.75 1.086-4.766-.868-2.016-1.95-4.22-3.897-4.588-6.935-.364-3.032-.548-6.066.187-7.8.733-1.73.733-4.764-.368-5.198-1.1-.43 1.281-2.596 2.568-3.033 1.285-.435 3.298-2.381 3.67-3.252.362-.868 2.196-.648 4.215-.648 2.013 0 2.384 0 4.4 1.3 2.019 1.298 2.383-.652 2.383-1.3 0-.65 1.133-1.117 3.335-.898 2.198.211 4.92-1.7 5.47-1.051.548.651 1.646 3.249 2.746 2.378 1.104-.86 1.47-2.378 1.837.219.367 2.604 1.284 6.504 2.935 7.156 1.647.649.734 3.248 2.382 3.466 1.651.21 2.386-4.118 1.836-5.636-.55-1.518-1.652-6.064-2.571-7.153-.913-1.08.627-3.775 2.46-4.64 1.831-.87 4.695-5.32 5.98-6.621 1.287-1.3 5.475-1.673 4.378-3.407-1.106-1.734-2.18-3.53-2.18-4.829 0-1.303 1.1-.866 1.65 0 .548.864 2.751-1.303 2.204-2.383-.551-1.08-.37-2.598.917-2.38 1.284.212 1.647-1.086 1.097-1.952-.55-.87 1.287-1.951 2.568-1.518 1.283.434 5.522.78 6.071-.09.551-.864-2.034-2.727-2.034-4.461 0-1.728 2.199-3.248 3.483-3.466 1.283-.213 2.934 0 3.114-.65.185-.648 2.02-2.384 2.203-.865.182 1.515 0 4.112 1.466 4.112 1.472 0 3.3-1.947 3.85-2.16.552-.22 4.04-1.087 4.772-1.3.73-.216 5.133-.652 4.581-2.17-.55-1.517-1.102-3.03-1.65-3.683-.553-.648-1.103.216-1.835 1.301-.728 1.083-2.015 1.083-2.379.214-.37-.863.178-3.462-1.106-2.6-1.284.867-1.463 1.737-2.2 1.3-.733-.433-1.465-1.95-1.465-1.95s1.834-1.08.552-3.029c-1.284-1.95-3.12-1.52-4.956-.432-1.833 1.083-1.648.862-3.846 1.512-2.199.65-3.302 1.298-3.302 1.298s.62-3.366 1.904-4.67c1.284-1.299 5.244-.74 6.348-2.045 1.1-1.298 4.032.65 4.032.65s1.47-1.733 1.47-.65c0 1.085-.368 3.905.735 3.905 1.099 0 4.213-1.736 2.932-2.17-1.284-.43.793-1.236 2.074-2.32 1.285-1.085 3.793.152 4.527-.279.732-.434 1.28-2.381 2.566-2.381 1.287 0 1.835 1.947 0 3.245-1.834 1.305-2.015 4.555-2.934 5.417-.915.87-.366 1.949 1.1 1.737 1.47-.219 2.753.212 4.035-.219 1.284-.43 2.019.431 2.383 1.08.368.65 1.469-.649 1.469-.649s2.388-.651 3.114.437c.736 1.08 1.286-.649.736-1.735-.55-1.08-1.287-2.163-1.836-3.466-.549-1.297-1.28-1.734-2.746-1.297-1.472.43-1.836-.437-2.753-1.09-.917-.648-1.649.87-.917-.648.735-1.514 1.1-1.95 1.65-3.251.548-1.301 2.937-3.678.548-4.329-2.381-.648-3.114-1.085-3.482-2.384-.367-1.303-3.12-3.687-3.852-3.687s-4.244.77-4.43-.31c-.185-1.09-1.067-4.238-1.986-5.319-.914-1.086-4.403-5.852-4.955-6.287-.548-.435-1.276-.216-2.93 2.384-1.654 2.601-3.118 3.037-4.401 2.386-1.284-.649-2.694.019-3.976-1.714-1.287-1.731 2.507-2.406 1.959-3.49-.554-1.08-3.485-1.52-5.315-1.73-1.836-.219-3.12-2.6-5.87-2.818-2.756-.22-6.054.432-6.971.432s-.917 1.517-1.283 3.9c-.37 2.381 1.283 3.034-.37 3.468-1.65.433-2.38.647-.726 1.517 1.648.866 3.844 4.331 3.844 4.331s0 1.95-1.284 3.034c-1.281 1.084-2.56 2.167-3.296.869-.735-1.305-2.754-1.085-2.203.215.549 1.302 1.652 1.95 1.652 3.251 0 1.304 1.649 4.552.551 5.63-1.1 1.09-2.385.22-3.305.438-.915.213-1.83-1.735-1.099-2.166.734-.432-.183-3.686-.183-3.686s-2.198 3.686-2.015 1.736c.183-1.952-.918-2.166-.918-3.687 0-1.516-1.598-3.623-3.253-3.189-1.65.436-3.165.805-6.283.153-3.116-.648-4.403-1.08-6.968-2.598-2.566-1.517-3.485-.43-4.77-.218-1.284.218-.734-3.027-2.383-3.463-1.65-.435-.593-.92-.967-3.736-.361-2.818-1.42-2.113 2.616-5.152 4.036-3.026 3.487-4.33 6.604-4.76 3.117-.433 4.262 1.953 4.262.869 0-1.083 1.055-6.938 1.055-4.772 0 2.165 3.67 2.385 2.017 3.903-1.647 1.514-.732 1.734.555 1.734 1.276 0 3.665-1.52 3.665-1.52s2.93-1.517 3.664-.214c.737 1.298.737 2.601 2.018 2.601 1.284 0 4.034-1.736 1.652-3.253-2.383-1.52-3.854-1.301-5.317-3.034-1.468-1.734-1.102-1.084-2.753-.653-1.653.436-1.653-.65-2.203-.65-.55 0-1.462.437-1.832-.431-.365-.868.185-1.08 2.018-1.08 1.835 0 4.035.65 4.035.65l2.752-1.087c.55-.211 3.48-.651 2.932-2.598-.55-1.95-2.381-1.95-2.932-2.598-.554-.656 1.098-1.52 2.014-1.952.918-.436 3.486 0 3.486 0s1.649.215 1.649-.651c0-.864-.364-1.953.736-1.303s0 2.602 1.649 2.17c1.647-.433 2.023 0 2.933.651.917.649-.185 3.25-1.1 3.683-.916.433-2.382 1.298-.366 1.518 2.018.218 3.486.218 3.486.218s1.284-1.519 1.835-2.82c.547-1.301 1.463-.431 2.2 0 .731.433 3.484 1.084.916 1.952-2.569.868-3.116 1.949-3.667 3.03-.55 1.085-.733 1.734-3.117 1.085s-3.669-.437-4.22.65c-.549 1.08-.187 4.55.734 4.116.917-.433 1.833-.433 2.935-.866 1.1-.436 5.498.433 6.6.219 1.101-.22 2.933 2.167 3.484 1.731.553-.433 1.656.865 2.754 1.734 1.1.868.73-1.95 2.748-.22 2.018 1.739.918 1.739 2.018 1.739s3.486.21 3.486.21.178-2.16 2.014-1.729c1.836.43 3.484 2.816 3.3 1.08-.18-1.73.184-3.03-1.28-4.331-1.47-1.299-3.856-2.169-4.217-2.818-.365-.649-.737-1.515-.188-1.952.549-.431 3.12.219 4.585 1.303 1.47 1.083 2.75 2.168 3.854 1.298 1.099-.864 2.383-1.298 2.936-1.951.548-.65 1.833-2.598 1.833-2.598s-5.504-.862-6.237-1.949c-.735-1.081-3.302-2.599-4.036-2.599-.732 0-2.747 1.518-3.484-.648-.735-2.169-.735-4.767-1.467-4.987-.734-.217-8.434-1.516-9.536-2.169-1.098-.648-5.5-2.16-7.152-3.246-1.65-1.083-4.033-2.602-5.498-2.602-1.471 0-7.522.868-8.62.649-1.104-.214-4.402.437-5.689.65-1.284.22 1.655 3.037-1.098 3.69-2.749.65-2.383 1.08-1.833-2.172.549-3.25-1.835-4.116-4.216-2.817-2.385 1.3-6.237 2.169-5.32 3.687.919 1.513-.182 2.6 1.652 4.113 1.83 1.517 2.568 1.947 4.952 1.737 2.382-.22 4.765.43 4.765.43s0 2.601-.912 3.037c-.92.434-2.385.434-2.756 1.732-.365 1.299-2.2 1.953-2.2 1.299 0-.65.92-2.818-.366-3.903-1.281-1.08-1.653-1.297-3.119-.213-1.466 1.085-1.648 1.519-2.383-.219-.73-1.732-2.934-3.252-2.934-3.252s-1.466-2.16-2.568-3.248c-1.098-1.08-3.113-.864-3.3.219-.185 1.082.371 2.168 1.098 4.118.736 1.948 1.059 4.42-.224 4.635-1.285.215-1.059 1.647-2.343 2.08-1.28.437-1.829-.65-1.829-2.383 0-1.737-.552-3.253-.185-3.901.364-.651-1.467.433-3.301 0-1.833-.431-3.3.867-1.47 1.517 1.836.647 2.203 3.251.55 3.9-1.648.65-7.88 0-9.904 0-2.012 0-4.947.65-5.496-.649-.551-1.298 1.649-2.168 2.933-2.168 1.286 0 5.136.214 6.599-2.167 1.47-2.384-1.832-2.814-3.299-2.814-1.464 0-2.567-.648-4.215-2.598-1.653-1.953 1.098-3.257.73-4.121-.156-.37-.576-.463-1.134-.451-16.265 18.583-29.39 39.98-38.546 63.371.414 1.058.292 2.763-.479 2.947-.203.048-.39-.042-.557-.221a214.914 214.914 0 0 0-2.647 7.446c-.162 2.453-.51 6.355-.645 8.156-.185 2.388 1.466 6.5 3.3 8.668 1.833 2.166 1.492 7.016 2.592 7.884 1.1.87 3.829 2.517 5.478 2.295 1.649-.21 2.745 1.3 4.218 4.337 1.462 3.035 2.934 8.012 4.034 8.452 1.1.431 2.931 1.948 2.012 3.031-.912 1.085-2.38 3.467-.728 3.467 1.647 0 2.198-1.083 3.48.867 1.285 1.948 2.938 3.036 2.753 4.334-.184 1.297 1.466 1.728 2.198 1.948.737.215 2.387 4.12 4.034 2.383 1.653-1.734-2.2-4.33-3.297-5.419-1.1-1.08 0-3.458-2.57-5.846-2.565-2.382-2.2-4.115-4.035-5.854-1.835-1.729-3.3-3.248-1.462-4.76 1.829-1.518 2.014 1.512 2.746 3.46.736 1.949 4.584 5.857 6.233 7.589 1.652 1.735 4.588 7.796 5.507 7.796.912 0 3.482 3.467 3.482 3.467s1.466 2.82.916 3.687c-.553.86.734 4.113 2.018 4.982 1.284.865 6.876.884 7.155 4.118.072.842.993 4.985 3.008 4.985 2.02 0 4.692-1.083 5.24-.436.55.648 2.202 3.249 3.304 1.73 1.097-1.519 1.28-2.169 2.935-2.169 1.647 0 2.382 1.518 3.297 2.602.918 1.086 3.484 3.905 4.768 3.687 1.285-.215 2.933 1.733 3.852 1.084.919-.65 2.385.43 3.115.868.738.43 2.277 2.038 2.095 4.634-.184 2.6 2.487 3.164 3.588 3.816 1.103.648 2.568 2.16 3.488 3.249.918 1.082 2.935 1.298 3.486 1.95.547.648.914 1.949 2.565.87 1.648-1.09 1.285-3.04 1.285-3.04s1.834-.43 2.748.436c.923.866 1.471 3.683 2.019 4.114.552.439 1.65 3.683.917 6.067-.734 2.384-.551 4.771-1.287 4.771-.726 0-2.75 2.27-3.849 2.92-1.102.65-2.935 4.228-2.748 5.312.18 1.082.814 4.514.446 6.034-.365 1.515-1.73 3.062-1.182 5.447s4.401 3.036 4.586 5.201c.184 2.166 2.934 6.935 3.3 9.097.37 2.166 2.338 4.672 2.338 7.704 0 3.036 5.55 4.862 6.463 5.083.92.21 2.57 2.164 3.854 2.811 1.286.652 2.385 1.95 3.3 3.687.917 1.735.735 4.333.735 4.986 0 .65-.55 7.364-1.1 11.266-.55 3.9 1.326 7.58.229 8.666-1.105 1.084-3.164 1.513-2.064 2.817 1.098 1.3-1.285 2.17-1.285 2.816 0 .652 1.47 4.114.735 5.631-.735 1.52-1.286 3.682-1.835 4.984-.549 1.299-1.835 2.604-1.468 4.553.37 1.947-1.468 1.3-1.468 3.247 0 1.952 1.653 1.085 1.286 3.467-.368 2.388-1.286 3.039-1.286 4.768 0 1.732.918 4.117.918 4.766s-.918 2.815-2.2 4.553c-1.281 1.73-2.2 2.808-2.016 3.896.179 1.082 1.465 2.383 1.284 3.035-.186.648-1.835 2.817-1.653 4.33.185 1.518 1.834.87 2.204 1.948.364 1.088-2.204 1.955-1.1 3.035 1.1 1.085 2.563.868 2.2 3.468-.372 2.601 2.016 3.245 2.565 3.897.548.651 1.649 2.167 2.57 2.167.914 0 1.647-.646 2.016-3.027.368-2.385 2.93-.436 1.098 1.297-1.828 1.73-2.75 2.6-2.2 2.6.549 0 3.305 1.734 4.766 1.734 1.47 0 4.408-.868 4.956-1.085.548-.217 4.582-.869 4.949-1.519.365-.646-3.117-.428-4.771-1.08-1.648-.65-4.583-3.898-4.947-5.199-.37-1.297-.37-3.9.916-4.768 1.284-.87 4.401-3.897 5.135-4.547.732-.65 1.83-3.688 1.282-4.121-.55-.43-3.3 0-3.665-.65-.369-.649-.369-1.515 1.466-3.031 1.834-1.519 2.748-3.679 3.485-4.332.732-.649 2.196-1.952 2.75-3.468.551-1.516-.554-.648-1.651-.648-1.099 0-1.651-2.385-1.651-3.471 0-1.078 2.748.438 4.77.869 2.013.43 1.099-1.082.915-2.378-.18-1.303.37-3.468 1.468-2.82 1.1.649 6.784-.219 7.518-.434.737-.214 2.749-4.122 3.484-5.199.733-1.089.916-2.17 0-2.819s-3.47-3.183-3.833-3.829c-.362-.656.9-4.408 1.263-5.49.37-1.08 0 6.285 2.57 7.152 2.563.869 4.033 1.297 6.418-1.299 2.386-2.602 4.222-4.335 4.399-6.07.184-1.734.735-3.461 1.65-4.113.918-.647 1.672-.185 2.768-3.003 1.104-2.813 2-.68 3.099-3.064 1.099-2.385-1.825-5.42.373-7.147 2.197-1.734 6.044-3.904 6.044-3.904s1.11-.652 3.307-1.302c2.2-.65 4.581-.217 5.317-1.519.731-1.298 1.464-4.108 2.566-5.626 1.099-1.52 2.383-3.903 1.835-4.986-.552-1.088 1.464-5.85 1.283-7.149-.184-1.3-1.835-4.333.915-6.934 2.758-2.601 5.691-6.503 5.867-7.58.186-1.086 2.386-5.64 2.201-7.804-.182-2.168-2.2-4.766-3.484-5.415z" fill="#009c57"/><path d="M179.906 177.07c-1.946.655-.124 2.308 1.102 1.732 1.22-.577.608-2.312-1.102-1.732zm-7.094-1.3c-.498.648 2.2 1.588 2.69.72.49-.862-1.467-2.312-2.69-.72z" fill="#89bc50"/><path d="M135.219 157.64c.74-1.198.272-1.902-.563-2.306a208.066 208.066 0 0 0-3.192 4.337c1.426-.206 2.95-.72 3.755-2.03zm15.469-13.503c-.613-1.738-3.67-2.31-4.283-.579-.532 1.517 4.894 2.314 4.283.579zm-9.538 10.4c2.202-1.298 2.08-2.457 2.69-2.598.61-.148-.124-3.327-1.1-4.05-.389-.285-1.127-.384-1.926-.38a218.742 218.742 0 0 0-2.94 3.659c.274 1.013 1.141 4.63 3.276 3.37z" fill="#01a95f"/><path d="M210.04 287.383c-1.677.357-1.279 4.23.733 3.518 2.022-.7.917-3.872-.734-3.518zm-8.253-2.779c-1.467-.434-3.115 0-4.215.217-1.103.219-4.217 3.471-4.217 3.471s2.014.43 3.296.43c1.286 0 2.021.87 3.121 1.52 1.099.65 3.12-.867 3.847-.867.734 0 1.652 2.597 1.837-.216.185-2.82-2.2-4.12-3.67-4.555zm158.803-50.478c.371-.868-.55-2.604-1.827-.219-.444.822 1.462 1.09 1.827.22zm13.76 0c.918-1.518-.737-3.685-1.651-3.685-1.73 0-2.57 3.255-1.471 4.334 1.1 1.08 2.206.869 3.122-.649zm-183.196 49.827c.184-.861-2.02-3.249-3.306-3.03-1.281.22-4.033-1.517-5.497-3.031-1.471-1.517-4.22-1.517-5.318-1.517-1.101 0-5.506 1.517-5.506 1.517-.181 2.162 1.654 1.514 3.856 1.514 2.198 0 6.05-.43 6.784.648.734 1.088 4.034 2.819 4.95 3.686.915.864 3.85 1.08 4.037.213z" fill="#89bc50"/><path d="M154.599 147.314c-1.225-.144-2.198-1.442-3.3-1.009-1.1.435-4.894 2.307-4.526 3.321.142.396 1.101 1.15 2.695.866 1.582-.29 3.906-.58 5.007-.72 1.102-.146 1.346-2.316.124-2.458z" fill="#01a95f"/><path d="M185.65 273.988c2.023-.433.917-2.385-.736-2.164-1.673.216-1.279 2.595.736 2.164zm.186 15.782c-1.683.356-1.286 4.223.73 3.516 2.017-.701.918-3.87-.73-3.516zm199.15-47.846c.733.22 3.112 0 2.382-2.167-.734-2.165-2.382-2.165-2.933-2.165s-2.934-.649-3.853 0c-.67.47 1.096 1.95 2.019 2.379.92.434 1.65 1.738 2.385 1.953zM157.41 212.677c0 1.165 1.832 1.298 2.932.65 1.1-.65 2.753-1.082 3.486-1.299.736-.221.369 1.08 2.017 1.08 1.651 0 3.67.647 4.22.438.551-.22 2.196-2.819.914-3.039-1.286-.214-3.298-1.731-4.399-3.031-1.097-1.3-3.669 1.733-6.052 2.817-2.387 1.084-3.117.652-3.117 2.384zm12.283 2.597c-1.463.219-3.661.867-4.397 2.601-.732 1.734 0 4.982-.186 6.28-.177 1.299-.546 4.986 1.105 5.201 1.83.239 1.83-2.813 1.647-3.683-.18-.868-.18-4.546.555-5.2.726-.65 1.648-2.598 3.665-2.817 2.017-.214 3.3 1.519 3.114 3.47-.184 1.949.366 3.898 1.103 3.898.734 0 2.933-1.517 2.198-2.817-.733-1.3.551-5.635.551-4.115 0 1.517 1.47 2.6 2.385 2.381.918-.215-.916-4.116-2.2-4.332-1.287-.218-3.85-.218-4.399 0-.551.216-3.67-1.085-5.14-.867zm10.639 10.618s-3.3 1.515-3.482 2.165-.918 0-.367 1.3c.418.988 2.382.217 3.485-1.085 1.1-1.3 3.484-1.73 4.22-2.818.726-1.08 1.279-.86 3.11-1.73 1.837-.867 3.303-1.08 2.57-2.165-.733-1.086-4.584 0-5.132-.432-.548-.435-4.404 4.765-4.404 4.765z" fill="#89bc50"/><path d="M278.804 353.289c.185 2.164-2.015 6.718-2.2 7.803-.177 1.078-3.11 4.98-5.868 7.581-2.75 2.6-1.099 5.634-.915 6.934.18 1.3-1.835 6.061-1.283 7.15.548 1.082-.736 3.465-1.835 4.985-1.102 1.518-1.835 4.328-2.566 5.626-.736 1.302-3.117.87-5.317 1.519-2.197.65-3.307 1.302-3.307 1.302s-3.847 2.17-6.044 3.904c-2.198 1.726.726 4.762-.373 7.147-1.099 2.384-1.995.25-3.099 3.064-1.096 2.818-1.85 2.356-2.769 3.003-.914.652-1.465 2.379-1.65 4.114-.176 1.734-2.012 3.467-4.398 6.07-2.385 2.595-3.855 2.167-6.418 1.298-2.57-.867-2.2-8.232-2.57-7.153-.363 1.083-1.625 4.835-1.263 5.491.364.646 2.917 3.18 3.833 3.829.916.649.733 1.73 0 2.82-.735 1.076-2.747 4.984-3.484 5.198-.734.215-6.417 1.083-7.518.434-1.098-.648-1.648 1.517-1.468 2.82.184 1.296 1.098 2.807-.915 2.378-2.022-.431-4.77-1.947-4.77-.87 0 1.087.552 3.472 1.651 3.472 1.097 0 2.202-.868 1.651.648-.554 1.516-2.018 2.82-2.75 3.468-.737.653-1.65 2.813-3.485 4.332-1.835 1.516-1.835 2.382-1.466 3.031.365.65 3.115.22 3.665.65.549.433-.55 3.472-1.282 4.121-.31.276-1.055.982-1.9 1.766a141.24 141.24 0 0 1-4.88-2.22 183.642 183.642 0 0 1-13.047-6.933c.31-.773.998-1.637 1.855-2.795 1.282-1.738 2.2-3.904 2.2-4.553 0-.65-.918-3.034-.918-4.766 0-1.73.918-2.38 1.286-4.768.367-2.382-1.286-1.515-1.286-3.467 0-1.947 1.838-1.3 1.468-3.247-.367-1.949.92-3.254 1.468-4.553.549-1.302 1.1-3.464 1.835-4.984.736-1.517-.735-4.98-.735-5.631 0-.647 2.383-1.517 1.285-2.816-1.1-1.304.96-1.733 2.064-2.817 1.097-1.087-.779-4.767-.229-8.666.55-3.902 1.1-10.617 1.1-11.266 0-.653.182-3.25-.735-4.986-.915-1.736-2.014-3.035-3.3-3.687-1.285-.647-2.935-2.602-3.854-2.811-.913-.221-6.463-2.047-6.463-5.083 0-3.032-1.969-5.538-2.338-7.704-.366-2.162-3.116-6.931-3.3-9.097-.185-2.165-4.037-2.816-4.586-5.2s.817-3.933 1.182-5.448c.368-1.52-.266-4.952-.446-6.034-.187-1.084 1.646-4.662 2.748-5.311 1.1-.651 3.123-2.921 3.85-2.921.735 0 .552-2.387 1.286-4.771.733-2.384-.365-5.628-.917-6.067-.548-.431-1.096-3.248-2.02-4.114-.913-.866-2.747-.435-2.747-.435s.363 1.948-1.285 3.038c-1.65 1.08-2.018-.221-2.565-.87-.551-.65-2.568-.867-3.486-1.95-.92-1.088-2.385-2.6-3.488-3.248-1.1-.652-3.772-1.216-3.588-3.816.182-2.596-1.357-4.203-2.095-4.634-.73-.438-2.196-1.519-3.115-.868-.919.649-2.567-1.3-3.852-1.084-1.284.218-3.85-2.601-4.768-3.687-.915-1.084-1.65-2.602-3.297-2.602-1.656 0-1.838.65-2.935 2.169-1.102 1.519-2.755-1.082-3.303-1.73-.549-.647-3.222.436-5.24.436-2.016 0-2.937-4.143-3.01-4.985-.278-3.234-5.87-3.253-7.154-4.118-1.284-.869-2.57-4.121-2.018-4.982.55-.867-.916-3.687-.916-3.687s-2.57-3.467-3.482-3.467c-.919 0-3.855-6.06-5.507-7.796-1.65-1.732-5.497-5.64-6.233-7.588-.732-1.949-.917-4.979-2.746-3.461-1.838 1.512-.373 3.031 1.462 4.76 1.835 1.739 1.47 3.472 4.036 5.854 2.569 2.388 1.468 4.767 2.569 5.846 1.097 1.088 4.95 3.685 3.297 5.419-1.647 1.738-3.297-2.168-4.035-2.383-.731-.22-2.381-.65-2.197-1.948.185-1.298-1.468-2.386-2.753-4.334-1.282-1.95-1.833-.867-3.48-.867-1.651 0-.184-2.382.728-3.467.919-1.083-.912-2.6-2.012-3.03-1.1-.441-2.572-5.418-4.034-8.453-1.473-3.036-2.57-4.546-4.218-4.337-.049.007-.108-.002-.158 0 3.878-24.804 12.144-48.94 24.526-70.782 2.853-5.03 5.943-9.927 9.21-14.703.626-.045 1.252-.093 1.808-.093 2.024 0 8.256.65 9.905 0 1.652-.649 1.285-3.253-.55-3.9-1.832-.65-.364-1.948 1.469-1.517 1.834.433 3.665-.651 3.3 0-.366.648.186 2.164.186 3.9 0 1.734.55 2.821 1.83 2.383 1.283-.432 1.057-1.864 2.342-2.079 1.283-.215.96-2.687.224-4.635-.727-1.95-1.283-3.036-1.098-4.118.187-1.083 2.202-1.3 3.3-.22 1.102 1.089 2.568 3.249 2.568 3.249s2.203 1.52 2.934 3.252c.735 1.738.917 1.304 2.383.22 1.466-1.085 1.838-.868 3.12.212 1.285 1.085.365 3.253.365 3.903 0 .654 1.835 0 2.2-1.299.37-1.298 1.835-1.298 2.756-1.732.912-.436.912-3.036.912-3.036s-2.383-.651-4.765-.431c-2.384.21-3.122-.22-4.952-1.737-1.834-1.512-.733-2.6-1.652-4.113-.917-1.518 2.935-2.387 5.32-3.687 2.381-1.3 4.765-.433 4.216 2.817-.55 3.252-.916 2.822 1.833 2.172 2.753-.653-.186-3.47 1.098-3.69 1.287-.213 4.585-.864 5.689-.65 1.098.219 7.149-.649 8.62-.649 1.465 0 3.847 1.519 5.498 2.602 1.653 1.085 6.054 2.598 7.152 3.246 1.102.653 8.802 1.952 9.536 2.169.732.22.732 2.818 1.467 4.987.737 2.166 2.752.648 3.484.648.734 0 3.3 1.518 4.036 2.6.733 1.086 6.237 1.948 6.237 1.948s-1.285 1.948-1.833 2.598c-.553.653-1.837 1.087-2.936 1.951-1.105.87-2.384-.215-3.854-1.298-1.466-1.084-4.036-1.734-4.585-1.303-.549.437-.177 1.303.188 1.952.36.65 2.747 1.52 4.217 2.818 1.464 1.302 1.1 2.601 1.28 4.332.184 1.735-1.464-.651-3.3-1.08-1.836-.432-2.014 1.727-2.014 1.727s-2.387-.21-3.486-.21 0 0-2.018-1.738c-2.018-1.73-1.648 1.088-2.748.22-1.098-.869-2.2-2.167-2.754-1.734-.551.436-2.383-1.95-3.484-1.731-1.102.214-5.5-.655-6.6-.22-1.102.434-2.018.434-2.935.867-.92.434-1.283-3.036-.734-4.117.551-1.086 1.836-1.298 4.22-.65 2.384.65 2.568 0 3.117-1.085.55-1.08 1.098-2.161 3.667-3.029 2.568-.868-.185-1.52-.915-1.951-.738-.432-1.654-1.302-2.201 0-.551 1.3-1.837 2.819-1.837 2.819s-1.466 0-3.484-.218c-2.016-.22-.55-1.085.367-1.518.914-.432 2.016-3.034 1.1-3.683-.911-.652-1.287-1.084-2.934-.652-1.649.433-.549-1.52-1.649-2.17s-.736.44-.736 1.304c0 .866-1.649.65-1.649.65s-2.568-.435-3.486 0c-.916.434-2.568 1.297-2.014 1.953.55.648 2.381.648 2.932 2.598.548 1.947-2.381 2.387-2.932 2.598l-2.752 1.086s-2.2-.648-4.035-.648c-1.833 0-2.383.211-2.018 1.079.37.868 1.281.43 1.832.43.55 0 .55 1.087 2.203.65 1.65-.43 1.285-1.08 2.753.654 1.463 1.733 2.934 1.514 5.317 3.034 2.382 1.517-.368 3.253-1.652 3.253-1.281 0-1.281-1.303-2.018-2.601-.734-1.303-3.664.214-3.664.214s-2.389 1.52-3.665 1.52c-1.287 0-2.202-.22-.555-1.734 1.652-1.518-2.017-1.738-2.017-3.903 0-2.166-1.055 3.689-1.055 4.772 0 1.084-1.145-1.302-4.262-.87-3.117.43-2.568 1.735-6.604 4.761-4.035 3.039-2.977 2.334-2.616 5.152.374 2.816-.683 3.3.967 3.736 1.649.436 1.099 3.681 2.384 3.463 1.284-.211 2.203-1.3 4.769.218 2.565 1.519 3.852 1.95 6.968 2.598 3.118.652 4.633.283 6.283-.153 1.655-.434 3.253 1.673 3.253 3.19 0 1.52 1.1 1.734.918 3.686-.183 1.95 2.015-1.736 2.015-1.736s.917 3.254.183 3.686c-.731.43.184 2.379 1.099 2.166.92-.218 2.204.652 3.305-.437 1.098-1.08-.55-4.327-.55-5.63 0-1.301-1.104-1.95-1.653-3.252-.551-1.3 1.468-1.52 2.203-.215.736 1.298 2.015.215 3.296-.87 1.284-1.083 1.284-3.033 1.284-3.033s-2.196-3.465-3.844-4.33c-1.655-.87-.923-1.085.726-1.518 1.653-.434 0-1.087.37-3.468.366-2.383.366-3.9 1.283-3.9s4.215-.651 6.972-.432c2.75.219 4.033 2.6 5.869 2.818 1.83.21 4.761.65 5.315 1.73.548 1.084-3.246 1.759-1.96 3.49 1.283 1.733 2.693 1.065 3.977 1.714 1.283.65 2.747.215 4.401-2.386 1.654-2.6 2.382-2.819 2.93-2.384.552.435 4.041 5.2 4.955 6.287.919 1.08 1.801 4.23 1.986 5.319.186 1.08 3.697.31 4.43.31s3.485 2.384 3.852 3.687c.368 1.299 1.1 1.736 3.482 2.384 2.389.651 0 3.028-.548 4.329-.55 1.3-.915 1.737-1.65 3.251-.732 1.518 0 0 .917.649.917.652 1.281 1.52 2.753 1.089 1.467-.437 2.197 0 2.746 1.297.549 1.303 1.286 2.386 1.836 3.466.55 1.086 0 2.815-.736 1.735-.726-1.088-3.114-.437-3.114-.437s-1.101 1.298-1.469.65c-.364-.65-1.1-1.51-2.383-1.08-1.282.43-2.566 0-4.035.218-1.466.212-2.015-.867-1.1-1.737.92-.862 1.1-4.112 2.934-5.417 1.835-1.298 1.287-3.245 0-3.245-1.285 0-1.834 1.947-2.566 2.381-.734.431-3.242-.806-4.527.278-1.281 1.085-3.358 1.89-2.074 2.322 1.281.433-1.833 2.17-2.932 2.17-1.103 0-.735-2.821-.735-3.906 0-1.083-1.47.65-1.47.65s-2.933-1.948-4.032-.65c-1.104 1.305-5.064.746-6.348 2.045-1.283 1.304-1.904 4.67-1.904 4.67s1.103-.647 3.302-1.298c2.198-.65 2.013-.429 3.846-1.512 1.836-1.089 3.672-1.517 4.956.432 1.282 1.95-.552 3.029-.552 3.029s.732 1.517 1.464 1.95c.738.437.917-.433 2.201-1.3 1.284-.862.736 1.737 1.106 2.6.364.87 1.651.87 2.38-.214.73-1.085 1.28-1.95 1.833-1.3.549.651 1.101 2.165 1.651 3.681.552 1.52-3.85 1.955-4.581 2.17-.733.214-4.22 1.082-4.771 1.3-.551.214-2.38 2.16-3.85 2.16-1.467 0-1.285-2.596-1.467-4.11-.183-1.52-2.018.216-2.203.864-.18.65-1.831.437-3.114.65-1.284.218-3.483 1.738-3.483 3.466 0 1.734 2.585 3.597 2.034 4.462-.549.869-4.788.523-6.07.089-1.282-.433-3.12.648-2.569 1.518.55.866.187 2.164-1.097 1.952-1.287-.218-1.468 1.3-.917 2.38.547 1.08-1.656 3.247-2.204 2.383-.55-.866-1.65-1.303-1.65 0 0 1.298 1.074 3.095 2.18 4.829 1.097 1.734-3.091 2.107-4.378 3.407-1.285 1.3-4.149 5.752-5.98 6.622-1.833.864-3.373 3.56-2.46 4.639.92 1.089 2.022 5.635 2.571 7.153.55 1.518-.185 5.846-1.836 5.636-1.648-.218-.735-2.817-2.382-3.466-1.651-.652-2.568-4.552-2.935-7.156-.367-2.597-.733-1.078-1.837-.22-1.1.872-2.198-1.726-2.746-2.377-.55-.65-3.272 1.262-5.47 1.05-2.202-.218-3.335.25-3.335.9 0 .647-.364 2.597-2.383 1.299-2.016-1.3-2.387-1.3-4.4-1.3-2.019 0-3.853-.22-4.215.648-.372.871-2.385 2.817-3.67 3.252-1.287.437-3.668 2.602-2.568 3.033 1.1.434 1.1 3.468.368 5.198-.735 1.734-.551 4.768-.187 7.8.367 3.038 2.572 4.986 4.588 6.935 2.016 1.954 2.754 2.603 4.766.868 2.018-1.733 2.747-.65 3.302-.432.55.216 2.016-1.086 1.466-3.035-.55-1.948.735-3.686 2.385-3.467 1.648.22 4.033-.648 5.32-.432 1.284.213 2.014 4.33 0 6.061-2.02 1.74-.92 4.34-1.287 6.29-.366 1.949-2.019 2.378 0 2.378 2.022 0 1.472.437 2.754.65 1.281.221 2.566-1.297 3.85-1.518 1.28-.208 4.583 3.253 4.034 4.992-.55 1.73-1.102 4.758-.918 7.577.183 2.819.918 3.035 1.282 3.902.371.868 1.836 2.82 3.483 1.95 1.65-.867 3.303-1.514 3.852-2.382.553-.867 4.038 1.515 3.669 2.168-.366.644 1.281 1.3 2.381.644 1.101-.644 1.652-1.73 2.753-3.463 1.1-1.737 2.938-3.25 3.851-3.47.917-.21 3.12-2.814 4.585-2.376 1.47.43-.549 2.595-.734 3.895-.18 1.298 0 4.983.734 5.2.735.214.37-2.598 1.283-4.549.918-1.95 2.748-3.038 3.671-3.038.913 0 1.65 4.554 2.931 3.256 1.286-1.3 3.851-1.088 4.401.215.55 1.3 1.099 1.95 1.099 1.95s.921-.867.921-1.95c0-1.084 2.93-2.172 4.77-.87 1.832 1.299 1.1 1.737 2.014 1.953.914.217 1.835-2.816 2.384-3.035.547-.22 0 3.47-1.287 5.42-1.279 1.95 1.099 1.301 1.099 1.301l.552.65c.549.65 2.383-.65 3.118.65.735 1.3 2.022 1.73 3.12 4.119 1.101 2.378 2.359.27 4.555-.162 2.203-.438 5.348 2.759 7.544 5.572 2.202 2.82 1.837 4.989 3.302 4.989 1.47 0 1.835 2.379 1.835 3.247 0 .865-3.3 2.82-5.137 3.251-1.832.436-1.832 2.603 1.102 1.952 2.935-.652 1.649-1.952 3.485-2.603 1.833-.651 3.67.866 2.019 3.467-1.653 2.595-4.955 2.815-2.02 3.245 2.936.44 1.285-.43 2.936-3.026 1.647-2.6 1.46-1.735 2.568-1.735 1.1 0 3.479.652 4.4 1.516.92.865 3.296 2.167 4.767 3.245 1.464 1.088 3.3.651 4.4.22 1.099-.43 4.217 1.3 5.317 3.032 1.1 1.74 3.855 1.952 5.134 2.603 1.283.65 3.302 3.247 3.484 5.415z" fill="#00b364"/><path d="M154.599 142.55c.978 1.439 4.28 2.598 4.28 2.598l3.912.436s2.692-.729 5.5-.436c2.815.288 6.965.724 9.29.578 2.325-.142 2.691-1.01 2.936-1.59.245-.578-4.28-1.737-5.377-1.586-1.105.14-7.342.14-9.172 0-1.835-.15-4.154-.15-5.626 0-1.463.14-2.564-1.156-3.666-1.88-1.099-.723-3.543-3.031-5.01-3.325a15.47 15.47 0 0 1-1.516-.351c-.822.865-1.626 1.746-2.432 2.624.442.23.869.443 1.26.622 1.587.72 4.64.862 5.62 2.31z" fill="#01a95f"/><path d="M459.068 240.19c1.286.434 5.136 1.954 6.421 2.167 1.284.216 5.505-.433 5.317-1.733-.187-1.302-.92-6.498-2.385-7.798-1.47-1.304 2.021-2.602 1.1-3.685-.92-1.084-2.196-.649-2.934-1.948-.738-1.301-1.098-2.598-2.2-3.468-1.1-.868-2.013.87-1.832-1.518.185-2.384 2.746-3.9 3.845-2.598 1.101 1.299 4.406.649 5.14 0 .736-.65-1.47-2.601-2.02-3.905-.55-1.298-4.22-2.377-4.767-1.949-.549.44-2.013 1.738-3.484 2.817-1.465 1.084-4.398-.868-5.499 0-2.225 1.755-2.936 4.12-2.02 5.635.919 1.518 3.483 6.285 4.769 6.72 1.285.43 5.868 1.297 4.036 3.25-1.836 1.95-2.201 2.598-3.856 2.379-1.651-.212-.915 5.2.37 5.634zm-17.419-14.947c-2.385-1.518-4.404-3.9-6.602-4.77-2.2-.864-2.937-1.733-1.652-2.166 1.286-.432 2.936-2.166 1.1-2.166-1.838 0-3.482.652-3.671 1.734-.174 1.083-1.284 2.383-2.009 2.817-.735.435-2.57 2.165-3.122.867-.55-1.301-2.561-5.202-3.483-5.418-.914-.218-2.386 0-3.486 2.166-1.099 2.166-2.384 4.337-3.483 5.2-1.098.866-2.564 3.466-1.464 3.9 1.1.434 0 4.337 0 4.337.366.864 2.199-1.303 3.663-1.303 1.463 0 4.77.652 5.692-.867.913-1.517 3.846-1.733 6.23-1.302 2.386.435 4.406 2.385 6.055 2.602 1.647.219 6.045-.217 7.517-.65 1.463-.434 1.099-3.47-1.285-4.98zm-16.505-43.768c.92-1.52-4.22-5.198-5.134-2.17-.624 2.044 4.22 3.688 5.134 2.17zm-2.2 153.832c-.547 1.087-1.099 6.062.55 6.502 1.65.43 4.586-5.201 3.67-6.934-.498-.935-3.67-.656-4.22.432z" fill="#89bc50"/><path d="M458.148 261.642c.37 2.162 4.407 4.983 4.407 6.503 0 1.508.732 1.948 2.746 3.895 2.024 1.948.37 3.034 1.65 3.465 1.286.433 3.118-1.736 4.953-2.814 1.837-1.088 1.651-2.598 2.57-2.598.915 0 .732 2.814 2.2 3.029.277.04.64.167 1.051.357a189.82 189.82 0 0 1-1.534 16.4c-1.757 1.7-3.7 3.859-6.306 4.473-2.75.65-3.112 2.387-5.314 2.602-2.197.217-8.251 3.687-9.17 4.338-.917.652-5.871 2.38-7.332 1.732-1.473-.65-2.022-4.984-2.57-8.233-.552-3.247-1.28-4.987-1.83-6.283-.55-1.301-3.854-4.768-4.59-5.416-.735-.65-2.562-5.851-2.748-8.018s-2.198-1.305-2.563-3.681c-.373-2.388-2.394-5.636-2.755-7.154-.294-1.231-2.767-.319-4.47.183.334.63.67 1.295.986 1.985 1.286 2.817 2.56 6.715 4.031 9.75 1.47 3.038-.17 9.122 1.3 11.07 1.465 1.952 5.304 3.665 6.22 6.264.92 2.6 3.118 5.198 3.854 5.417.735.215 3.85 5.194 4.035 6.494.18 1.3-1.101 4.122 1.826 4.338 2.943.216 5.506-1.52 6.426-1.951.915-.43 8.066-3.687 8.983-2.387.918 1.3-1.28 6.938-1.464 8.457-.185 1.515-5.507 8.88-5.692 10.83-.177 1.954-3.297 5.42-5.31 5.853-2.02.43-6.24 6.5-7.705 8.45-1.468 1.95-3.853 6.279-4.953 6.712-1.1.436-1.946 6.191-1.395 7.061.548.862.66 4.858 2.314 6.593 1.65 1.734 2.199 3.033 1.463 4.551-.733 1.51.372 4.98 0 7.798-.364 2.812-3.482 5.62-4.217 6.485-.726.869-4.214 3.266-5.685 5.43-1.472 2.166-2.745 4.12-2.383 5.198.201.607.748 2.554 1.16 4.385a222.21 222.21 0 0 1-4.882 5.776c-.465.154-.864.31-1.142.473-.474.28-.571.764-.476 1.346a221.332 221.332 0 0 1-21.52 20.989c-1.53.66-2.903 1.549-3.4 2.133-.918 1.087-2.194.867-4.028-.213-1.838-1.089-2.022-2.6-2.202-4.99-.184-2.382-.735-3.899-.735-3.899s-.548-3.677-2.207-5.411c-1.647-1.739-2.197-3.687-3.11-4.99-.916-1.296 1.695-4.994 1.51-7.377-.186-2.385-3.348-5.184-4.261-6.702-.919-1.52-2.756-5.636-3.491-7.154-.726-1.518-1.649-4.545-1.464-8.879.19-4.333 2.046-6.87 3.517-8.172 1.475-1.298.89-2.877-.396-5.474-1.284-2.604.189-6.943-.922-8.452-1.098-1.518-2.798-9.983-4.82-11.281-2.017-1.3-4.158-1.289-3.06-4.32 1.102-3.036 0-6.066 1.836-8.018 1.831-1.947.913-3.247-1.102-4.551-2.019-1.3-1.283-1.948-2.934-.43-1.655 1.515-3.854 2.382-5.13.862-1.287-1.515-.922-3.898-3.308-5.632-2.385-1.728-6.202-1.136-7.125-.706-.912.437-2.775 4.172-5.348 4.605-2.562.438-4.398-.215-6.966-.215-2.564 0-4.769.215-5.134 1.737-.362 1.514-.914 2.383-2.564.864-1.656-1.515-4.953-4.986-4.953-4.986s-3.048-5.975-3.967-8.581c-.915-2.596-4.1-2.684-7.584-4.636-3.485-1.95-1.469-4.115-1.836-6.28-.368-2.168-2.199-3.036-1.286-3.254.918-.216.735-1.73 2.75-4.765 2.022-3.03.736-6.283.372-8.018-.372-1.731-2.204-4.33-.372-7.149 1.837-2.816 2.984-9.536 4.45-11.272 1.47-1.731 5.822-3.462 7.838-4.541 2.019-1.09.735-3.899 1.834-7.15 1.098-3.25 2.754-4.768 3.304-4.768.55 0 2.586-2.251 4.763-3.68 1.652-1.09 5.505.21 6.238-.219.736-.43 3.664-1.52 5.319-2.382 1.652-.87 6.97-3.038 7.698-3.038.735 0 9.903.22 11.187-.434 1.284-.649 6.25-1.57 7.711 3.197 1.465 4.767-1.656 2.875-3.12 3.737-1.47.869.549 2.82 1.278 2.82.734 0 3.296 2.815 4.58 2.815 1.288 0 4.406 1.517 4.406 1.517s3.115 2.819 4.77 2.819c1.65 0 4.443 3.363 6.278 1.198 1.828-2.168 2.704-6.62 4.54-6.184 1.834.436 3.852 2.167 6.233 2.167 2.38 0 6.786-.432 7.522.65.736 1.083-4.953 4.767-4.589 5.633.37.862 1.105.652 2.94-1.948 1.83-2.602 4.582-2.602 6.78-3.25 1.103-.325 1.93.542 2.527 1.654.62-.348 1.392-.351 2.244-.351 1.836 0 1.1-1.09 2.935-3.256 1.825-2.168 2.387-6.496 2.56-9.313.19-2.822-1.283-1.519-2.743-1.084-1.468.433-3.67 1.084-4.4.865-.736-.214-3.67-1.3-4.22-.649-.557.649-3.667.217-4.399-.864-.733-1.09-4.404-2.387-4.777-3.252-.36-.868 0-6.066-.733-7.37-.73-1.298-2.377.222-3.297 1.086-.917.867-3.478 1.518-2.749 2.167.734.65 3.12 1.95 2.934 3.677-.185 1.738-1.835 2.172-2.75 3.036-.913.87-4.255 4.299-4.802 3.216-.551-1.083-.888-7.98-1.438-8.848-.548-.86-2.199-3.03-2.749-4.982-.547-1.947-2.561-2.602-3.848-4.12-1.283-1.51-4.953-3.897-6.417-5.627-1.47-1.733-4.042-3.035-4.22-.87-.185 2.168 2.572 2.6 3.669 4.767 1.102 2.169 3.484 3.468 4.765 4.117 1.284.649 4.772 3.467 4.772 3.467s-1.469.65-2.753.434c-1.284-.216.723 4.672.549 6.182-.19 1.518-2.384-.553-2.747-2.28-.372-1.738-1.471-3.686-2.203-4.336-.729-.649-5.501-2.384-6.237-2.818-.734-.434-3.848-2.817-4.211-4.766-.372-1.95-3.12-2.167-3.856-1.73-.735.43-3.485 2.81-4.769 2.81-1.276 0-3.3-1.08-4.77-1.299-1.463-.21-1.648 2.817-2.2 4.551-.55 1.737-2.932.434-4.211 1.952-1.286 1.518-3.492 3.036-2.939 4.336.555 1.3 1.468 1.3-.18 2.38-1.656 1.083-2.572 3.251-4.22 3.464-1.65.22-3.845 1.085-4.77.436-.918-.649-1.646 2.167-2.196 2.818-.553.652-1.474-1.95-2.385-3.033-.921-1.085-3.3-.22-4.034-.434-.738-.221-1.472-2.168-2.385-3.034-.92-.867-.736-2.816 0-3.466.73-.649 1.463-1.733.913-3.682-.547-1.952-.913-6.288.922-7.15 1.834-.868 6.232 0 8.432 0 2.204 0 5.973.902 6.603-.436.914-1.948 1.284-4.113 1.1-6.065-.186-1.95-3.85-3.687-6.234-4.115-2.382-.432-2.021-1.732.549-1.95 2.571-.219 2.386-1.3 4.585-1.735 2.2-.433 4.404-1.083 6.055-1.297 1.648-.22 1.648-1.953 1.648-3.252 0-1.298 4.584-1.737 4.584-1.737s2.57-2.811 4.032-4.113c1.47-1.301 4.035-1.085 6.057-.435 2.017.65-.187-1.517-.922-2.598-.734-1.084-.18-3.47.37-4.769.552-1.303 3.849-1.953 4.77-1.516.915.431 0 2.38.178 4.118.186 1.732 1.648 2.818 1.648 2.818l1.473-.218h2.383c2.385 0 2.509.053 4.344-.6 1.832-.649 3.175.167 3.913-.268.726-.435 2.744-.435 5.494.65 2.749 1.084 1.284-1.951 1.833-3.685.55-1.734 1.65-4.764 3.486-4.551 1.837.219 3.303 1.517 4.767.439 1.468-1.09-2.749-2.603-2.749-3.253s3.486-.65 6.598-.87c3.122-.214 4.954 0 6.426-.428 1.463-.436-1.101-3.472-1.658-3.472-.54 0-4.22.435-6.053.22-1.827-.22-3.847 1.299-5.494 1.733-1.651.435-2.022-2.602-2.938-3.9-.92-1.3-1.286-3.68 1.101-4.983 2.385-1.298 6.604-4.12 7.331-5.418.738-1.3-2.928-1.081-6.41-.87-3.491.22.549 1.304-2.757 5.204-3.297 3.899-4.946 1.3-7.519 3.899-2.567 2.597-.732 2.816 1.656 3.686 2.38.864.367 3.465-.183 4.115-.55.649-3.305 3.036-2.931 4.767.361 1.728-1.837 2.817-1.837 2.817s-6.792 1.734-8.077 1.949c-1.275.22-1.649-1.084-1.275-2.383.363-1.303-1.474-4.332-1.65-6.28-.185-1.953-2.934.864-3.118 2.166-.183 1.301-3.67 1.51-5.686.649-2.02-.867-3.12-4.118-2.746-4.768.362-.65-1.1-3.902-1.1-4.769 0-.862 4.28-7.173 7.765-8.042 3.488-.864 7.632-3.01 10.018-5.168 2.385-2.17 3.482-4.772 4.218-5.421.729-.649 13.402-7.831 17.985-8.7 4.584-.86 14.655 4.37 16.305 4.799 1.65.43 2.57 1.08 6.604 2.818 4.035 1.732 7.846-.159 10.409.274 2.57.437 3.894 3.192 5.547 4.06 1.65.87 0 1.519-4.04 3.03-4.034 1.518-6.783 1.087-8.979.22-2.208-.87-3.486-.87-1.835.43 1.649 1.299 1.099 1.952 1.273 3.9.19 1.952 2.758.22 3.307-.215.549-.435.549-1.299 2.572.215 2.013 1.519 2.748.65 3.663.435.92-.215.185-2.6.734-3.467.55-.868 2.755-.868 3.305-1.299.55-.43 1.83-1.079 2.927-1.3 1.1-.22.922 1.949 2.024 2.599.66.39.722-.705.587-1.83 8.43 13.306 15.222 27.637 20.038 42.648 6.386 19.915 9.118 40.158 8.653 60.127-.641-.926-1.2-1.743-1.593-1.927-.916-.433-3.666 2.38-4.765 1.95-1.098-.43-3.303-2.602-5.69-3.902-2.377-1.298-3.11-4.333-4.03-6.281-.918-1.947-4.036 1.082-3.672 3.25z" fill="#01a95f"/><path d="M342.438 195.557c1.832.869 5.685 1.734 4.223 2.601-1.472.87-5.715 5.134-6.078 6.432-.372 1.301 4.792.718 4.792.718s-1.105 1.518-.186 1.948c.914.434 1.472-1.514 2.934-1.514 1.467 0 4.398 1.084 5.872 1.084 1.467 0 3.848-2.384 3.665-3.901s-2.016-3.898-3.665-4.767c-1.652-.867-3.487-4.768-4.586-5.634-1.1-.868 4.073-3.738 2.787-5.249-1.283-1.517-5.172-.596-6.64-1.685-1.465-1.085-2.749.22-3.67 1.52-.915 1.298-2.015-.22-3.113.217-1.483.583-.92 2.811-.184 3.898.734 1.08 2.018 3.467 3.85 4.332zm-47.462-44.63c-.448-1.015-1.513-4.187.836-4.477 2.348-.29 6.765 3.028 6.65.72-.11-2.315 0-4.77.67-6.068.675-1.3 2.126-2.168 1.344-2.6-.787-.429-1.79.58-2.574-1.588-.78-2.167.675-3.756 1.565-4.625.895-.86 5.588-6.498 8.163-7.365 2.564-.867 4.36-4.19 2.564-4.91-1.782-.724-5.363-2.023-7.706.287-2.35 2.315-3.69 4.476-6.37 3.756-2.683-.721-3.093-4.549-4.615-6.52-2.214-2.86-.864-8.502-3.208-8.067l-2.352.433s-2.752-.578-4.45-.148c-2.235.567-3.683 2.15-4.958 1.81-2.506-.673-4.755.875-5.39 1.038-5.474 1.419-9.876-.518-10.685-.656-.63-.11 3.837.61 7.297 0 2.657-.469 7.129-1.541 9.326-1.973 2.198-.43.429-1.459-.345-1.562-2.833-.37-7.123-1.741-10.51-1.945-2.663-.158-4.38.797-7.04.876-3.4.104-7.458-.133-10.121 1.804-2.344 1.704-5.356 1.886-5.6 2.2-1.337 1.73-2.566 6.065-3.796 4.913-1.23-1.156-1.456-4.043-3.015-2.89-1.568 1.154-.115 4.042-1.46 6.065-1.338 2.024-5.14 1.734-6.256 1.013-1.117-.719-2.235-1.297-6.705-1.013-4.474.294-9.392 2.024-8.386 3.756 1.007 1.733-2.011 2.743-2.792 1.882-.783-.868-4.36 1.006-4.137 2.74.224 1.73-.56 3.756-2.46 3.322-1.901-.435-3.24 1.013-3.353 2.455-.11 1.446-4.361 2.456-4.692 2.456-.34 0-5.816-.141-3.806 1.588 1.347 1.158 2.128.44 3.806.869 1.674.43 3.014 3.612 3.91 4.047.895.432 2.123 0 2.682-.872.557-.861 1.339-3.896 1.339-3.896s0 2.888 1.344 3.463c1.34.583 4.693-.428 5.59-.285.893.142 6.148 1.01 7.601 1.874 1.453.87 5.024 1.45 6.036 3.323 1.003 1.879 1.116 8.377 1.673 9.1.558.724 2.458-2.312 2.908-3.028.447-.727 2.797-.29 3.579.716.781 1.014 2.564 3.47 2.457 4.48-.117 1.009-.446 2.597-1.119 2.02-.667-.578-1.787-.431-1.338-1.589.448-1.154.663-3.609-.227-3.609h-1.675s-1.677-.577-2.795 1.59c-1.118 2.167-.226 4.334.56 4.334.78 0 2.571 0 2.571.572 0 .584-1.9 2.316-1.79 3.326.114 1.014 1.564 4.476 2.012 5.2.446.72 2.794 1.446 3.463 1.59.673.144-1.562.286-1.007 1.299.565 1.012 1.452 3.463 2.683 4.04 1.228.584 4.693 3.18 5.143 4.338.447 1.154 3.13-.866 3.692-1.01.557-.14.444 3.032 2.013 3.178 1.56.14 2.12-.291 3.462-1.59 1.34-1.3 1.008-3.033 1.116-4.332.113-1.302 0-2.31 1.451-1.882 1.455.432 2.236-.289 2.129-1.73-.112-1.445-1.34-3.18 1.002-3.615 2.35-.43 3.577-2.31 5.034-2.31 1.454 0 5.474.725 5.923 0 .449-.719 2.355-5.036 3.587-5.176 1.23-.15 4.464.556 7.366-.024 2.907-.574 6.043-2.74 7.045-2.6 1.004.143 3.462.143 2.684-.72-.783-.869-1.905-2.888-3.58-2.888-1.678 0-1.955-4.456-1.513-4.456.446 0 4.527 1.707 4.418 3.153-.108 1.447.675 3.322 2.908 2.752 2.236-.584 1.896-2.752 1.454-3.327-.45-.58-.784-2.028-1.23-3.032zm25.234 17.189c-.978-1.013-3.295-1.738-4.403-1.883-1.099-.144-2.201 1.013-4.643 1.013-2.445 0-4.03 1.155-5.013 0-.974-1.157-5.015-1.73-5.379-1.013-.49.968-1.464 1.013-.49 3.037.98 2.019 1.715 3.173 2.568 3.033.856-.145 3.79-.292 4.162.867.363 1.156 1.341 2.17 3.416 1.441 2.083-.72 3.79-1.151 4.28-2.02.49-.866 3.794-1.007 3.794-1.007s2.69-2.459 1.708-3.468z" fill="#89bc50"/><path d="M331.804 198.158c-.37-1.515.915-1.948 2.013-1.948 1.101 0 1.272-2.059 2.936-2.386 1.1-.215 2.385 0 3.118.868.736.865 1.1 2.599 1.1 4.55 0 1.954-1.833 3.252-3.119 3.9-1.279.653-2.934 1.951-4.4 1.731-1.467-.216-2.748-2.818-1.648-3.465 1.1-.65.364-1.73 0-3.25z" fill="#89bc50"/><path d="M179.906 177.07c-1.946.655-.124 2.308 1.102 1.732 1.22-.577.608-2.312-1.102-1.732m21.881 107.534c-1.467-.434-3.115 0-4.215.217-1.103.219-4.217 3.471-4.217 3.471s2.014.43 3.296.43c1.286 0 2.021.87 3.121 1.52 1.099.65 3.12-.867 3.847-.867.734 0 1.652 2.597 1.837-.216.185-2.82-2.2-4.12-3.67-4.555m8.254 2.779c-1.677.357-1.279 4.23.733 3.518 2.022-.7.917-3.872-.734-3.518M172.812 175.77c-.498.648 2.2 1.588 2.69.72.49-.862-1.467-2.312-2.69-.72m-18.337-25.998c1.102-.146 1.346-2.316.124-2.458-.886-.104-1.64-.804-2.406-1.024a144.151 144.151 0 0 0-3.458 4.257c.228.004.468-.007.733-.055 1.582-.29 3.906-.58 5.007-.72m8.316-4.188s2.692-.729 5.5-.436c2.815.288 6.965.724 9.29.578 2.325-.142 2.691-1.01 2.936-1.59.245-.578-4.28-1.737-5.377-1.586-1.105.14-7.342.14-9.172 0-1.835-.15-4.154-.15-5.626 0-1.334.128-2.368-.935-3.376-1.673-.659.709-1.302 1.43-1.947 2.153 1.272 1.208 3.86 2.118 3.86 2.118zm250.986 112.808c-1.835 2.6-2.57 2.81-2.94 1.948-.364-.866 5.325-4.55 4.589-5.633-.736-1.082-5.142-.65-7.522-.65s-4.399-1.731-6.233-2.167c-1.836-.435-2.712 4.016-4.54 6.184-1.835 2.165-4.628-1.198-6.279-1.198-1.654 0-4.769-2.819-4.769-2.819s-3.118-1.517-4.405-1.517c-1.285 0-3.847-2.816-4.581-2.816-.73 0-2.747-1.95-1.278-2.82 1.464-.86 4.585 1.03 3.12-3.736-1.46-4.766-6.427-3.846-7.711-3.197-1.284.653-10.452.434-11.187.434-.728 0-6.046 2.168-7.698 3.038-1.655.862-4.583 1.951-5.319 2.382-.733.43-4.586-.87-6.238.218-2.177 1.43-4.213 3.681-4.763 3.681-.55 0-2.206 1.518-3.304 4.768-1.099 3.251.185 6.06-1.834 7.15-2.016 1.08-6.367 2.81-7.839 4.541-1.465 1.736-2.612 8.456-4.449 11.272-1.832 2.82 0 5.418.372 7.15.364 1.734 1.65 4.987-.372 8.017-2.015 3.035-1.832 4.549-2.75 4.765-.913.218.918 1.086 1.286 3.254.367 2.165-1.649 4.33 1.836 6.28 3.484 1.952 6.67 2.04 7.584 4.636.92 2.606 3.967 8.58 3.967 8.58s3.297 3.472 4.953 4.987c1.65 1.519 2.202.65 2.564-.864.365-1.522 2.57-1.737 5.134-1.737 2.568 0 4.404.653 6.966.215 2.573-.433 4.436-4.168 5.348-4.605.923-.43 4.74-1.022 7.125.706 2.386 1.734 2.021 4.117 3.308 5.632 1.276 1.52 3.475.653 5.13-.862 1.65-1.518.915-.87 2.934.43 2.015 1.304 2.933 2.604 1.102 4.551-1.837 1.952-.734 4.982-1.837 8.018-.859 2.373.267 2.883 1.764 3.615 9.43-8.432 17.58-18.225 23.93-29.257 9.628-16.728 16.445-35.761 19.824-55.394-1.769.393-3.633.89-4.988 2.82M294.976 150.927c-.448-1.015-1.513-4.187.836-4.477 2.348-.29 6.765 3.028 6.65.72-.11-2.315 0-4.77.67-6.068.675-1.3 2.126-2.168 1.344-2.6-.787-.429-1.79.58-2.574-1.588-.78-2.167.675-3.756 1.565-4.625.895-.86 5.588-6.498 8.163-7.365 2.564-.867 4.36-4.19 2.564-4.91-1.782-.724-5.363-2.023-7.706.287-2.35 2.315-3.69 4.476-6.37 3.756-2.683-.721-3.093-4.549-4.615-6.52-2.214-2.86-.864-8.502-3.208-8.067l-2.352.433s-2.752-.578-4.45-.148c-2.235.567-3.683 2.15-4.958 1.81-2.506-.673-4.755.875-5.39 1.038-5.474 1.419-9.876-.518-10.685-.656-.63-.11 3.837.61 7.297 0 2.657-.469 7.129-1.541 9.326-1.973 2.198-.43.429-1.459-.345-1.562-2.833-.37-7.123-1.741-10.51-1.945-2.663-.158-4.38.797-7.04.876-3.4.104-7.458-.133-10.121 1.804-2.344 1.704-5.356 1.886-5.6 2.2-1.337 1.73-2.566 6.065-3.796 4.913-1.23-1.156-1.456-4.043-3.015-2.89-1.568 1.154-.115 4.042-1.46 6.065-1.338 2.024-5.14 1.734-6.256 1.013-1.117-.719-2.235-1.297-6.705-1.013-4.474.294-9.392 2.024-8.386 3.756 1.007 1.733-2.011 2.743-2.792 1.882-.783-.868-4.36 1.006-4.137 2.74.224 1.73-.56 3.756-2.46 3.322-1.901-.435-3.24 1.013-3.353 2.455-.11 1.446-4.361 2.456-4.692 2.456-.34 0-5.816-.141-3.806 1.588 1.347 1.158 2.128.44 3.806.869 1.674.43 3.014 3.612 3.91 4.047.895.432 2.123 0 2.682-.872.557-.861 1.339-3.896 1.339-3.896s0 2.888 1.344 3.463c1.34.583 4.693-.428 5.59-.285.893.142 6.148 1.01 7.601 1.874 1.453.87 5.024 1.45 6.036 3.323 1.003 1.879 1.116 8.377 1.673 9.1.558.724 2.458-2.312 2.908-3.028.447-.727 2.797-.29 3.579.716.781 1.014 2.564 3.47 2.457 4.48-.117 1.009-.446 2.597-1.119 2.02-.667-.578-1.787-.431-1.338-1.589.448-1.154.663-3.609-.227-3.609h-1.675s-1.677-.577-2.795 1.59c-1.118 2.167-.226 4.334.56 4.334.78 0 2.571 0 2.571.572 0 .584-1.9 2.316-1.79 3.326.114 1.014 1.564 4.476 2.012 5.2.446.72 2.794 1.446 3.463 1.59.673.144-1.562.286-1.007 1.299.565 1.012 1.452 3.463 2.683 4.04 1.228.584 4.693 3.18 5.143 4.338.447 1.154 3.13-.866 3.692-1.01.557-.14.444 3.032 2.013 3.178 1.56.14 2.12-.291 3.462-1.59 1.34-1.3 1.008-3.033 1.116-4.332.113-1.302 0-2.31 1.451-1.882 1.455.432 2.236-.289 2.129-1.73-.112-1.445-1.34-3.18 1.002-3.615 2.35-.43 3.577-2.31 5.034-2.31 1.454 0 5.474.725 5.923 0 .449-.719 2.355-5.036 3.587-5.176 1.23-.15 4.464.556 7.366-.024 2.907-.574 6.043-2.74 7.045-2.6 1.004.143 3.462.143 2.684-.72-.783-.869-1.905-2.888-3.58-2.888-1.678 0-1.955-4.456-1.513-4.456.446 0 4.527 1.707 4.418 3.153-.108 1.447.675 3.322 2.908 2.752 2.236-.584 1.896-2.752 1.454-3.327-.45-.58-.784-2.028-1.23-3.032" fill="#00b364"/><path d="M160.528 210.293c2.383-1.084 4.955-4.117 6.052-2.817 1.101 1.3 3.113 2.817 4.399 3.031 1.282.22-.363 2.82-.914 3.039-.55.209-2.569-.438-4.22-.438-1.648 0-1.281-1.301-2.017-1.08-.733.217-2.386.649-3.486 1.299-1.1.648-2.931.515-2.931-.65 0-1.732.73-1.3 3.117-2.384zm14.306 5.848c.549-.218 3.112-.218 4.398 0 1.285.216 3.12 4.117 2.201 4.332-.916.22-2.385-.864-2.385-2.381 0-1.52-1.284 2.816-.55 4.115.734 1.3-1.465 2.817-2.2 2.817-.736 0-1.286-1.95-1.102-3.897.187-1.952-1.097-3.685-3.114-3.47-2.017.218-2.939 2.166-3.665 2.816-.736.654-.736 4.332-.555 5.2.183.87.183 3.922-1.647 3.683-1.651-.215-1.282-3.902-1.105-5.202.186-1.297-.546-4.545.186-6.279.736-1.734 2.934-2.382 4.397-2.601 1.47-.218 4.59 1.083 5.141.867zm9.902 4.986c.548.432 4.399-.654 5.133.432.732 1.085-.734 1.298-2.572 2.166-1.83.87-2.383.648-3.11 1.729-.735 1.089-3.12 1.519-4.22 2.818-1.102 1.302-3.066 2.073-3.484 1.084-.551-1.3.184-.65.367-1.3s3.482-2.164 3.482-2.164 3.856-5.2 4.404-4.765z" fill="#a1c85c"/><g fill="#00b364"><path d="M275.32 347.874c-1.279-.651-4.034-.863-5.134-2.603-1.1-1.732-4.218-3.462-5.318-3.031-1.098.43-2.935.867-4.4-.22-1.47-1.079-3.845-2.38-4.767-3.246-.92-.864-3.298-1.516-4.4-1.516-1.106 0-.92-.864-2.567 1.735-1.651 2.596 0 3.466-2.935 3.026-2.936-.43.366-.65 2.019-3.245 1.651-2.6-.186-4.118-2.02-3.467-1.835.651-.55 1.95-3.484 2.603-2.934.65-2.934-1.516-1.102-1.952 1.837-.432 5.137-2.386 5.137-3.251 0-.868-.365-3.247-1.835-3.247-1.465 0-1.1-2.17-3.302-4.989-2.196-2.813-5.34-6.01-7.544-5.572-2.196.431-3.454 2.54-4.555.162-1.098-2.389-2.385-2.82-3.12-4.118-.735-1.3-2.57 0-3.118-.651l-.552-.65s-2.378.65-1.099-1.302c1.287-1.95 1.834-5.639 1.287-5.419-.55.22-1.47 3.252-2.384 3.035-.915-.216-.182-.654-2.015-1.953-1.84-1.302-4.769-.214-4.769.87 0 1.083-.921 1.95-.921 1.95s-.549-.65-1.099-1.95c-.55-1.303-3.115-1.515-4.4-.215-1.282 1.298-2.019-3.256-2.932-3.256-.923 0-2.753 1.087-3.671 3.038-.912 1.95-.548 4.763-1.283 4.55-.734-.218-.915-3.903-.734-5.201.185-1.3 2.204-3.466.734-3.895-1.465-.438-3.668 2.166-4.585 2.376-.913.22-2.75 1.733-3.85 3.47-1.102 1.732-1.653 2.82-2.754 3.463-1.1.656-2.747 0-2.381-.644.37-.653-3.116-3.035-3.67-2.168-.548.868-2.201 1.515-3.851 2.381-1.647.87-3.112-1.08-3.483-1.95-.364-.866-1.1-1.082-1.282-3.9-.184-2.82.368-5.848.918-7.578.549-1.739-2.753-5.2-4.034-4.992-1.284.22-2.569 1.74-3.85 1.518-1.282-.213-.732-.65-2.754-.65-2.019 0-.366-.43 0-2.378.367-1.95-.733-4.55 1.287-6.29 2.014-1.731 1.284-5.848 0-6.06-1.287-.217-3.672.65-5.32.431-1.65-.219-2.934 1.519-2.385 3.467.55 1.95-.916 3.251-1.466 3.035-.555-.218-1.284-1.301-3.302.432-2.012 1.735-2.75 1.086-4.766-.868-2.016-1.95-4.22-3.897-4.588-6.935-.364-3.032-.548-6.066.187-7.8.733-1.73.733-4.764-.368-5.198-1.1-.43 1.281-2.596 2.568-3.033 1.285-.435 3.298-2.381 3.67-3.252.362-.868 2.196-.648 4.215-.648 2.013 0 2.384 0 4.4 1.3 2.019 1.298 2.383-.652 2.383-1.3 0-.65 1.133-1.117 3.335-.898 2.198.211 4.92-1.7 5.47-1.051.548.651 1.646 3.249 2.746 2.378 1.104-.86 1.47-2.378 1.837.219.367 2.604 1.284 6.504 2.935 7.156 1.647.649.734 3.248 2.382 3.466 1.651.21 2.386-4.118 1.836-5.636-.55-1.518-1.652-6.064-2.571-7.153-.913-1.08.627-3.775 2.46-4.64 1.831-.87 4.695-5.32 5.98-6.621 1.287-1.3 5.475-1.673 4.378-3.407-1.106-1.734-2.18-3.53-2.18-4.829 0-1.303 1.1-.866 1.65 0 .548.864 2.751-1.303 2.204-2.383-.551-1.08-.37-2.598.917-2.38 1.284.212 1.647-1.086 1.097-1.952-.55-.87 1.287-1.951 2.568-1.518 1.283.434 5.522.78 6.071-.09.551-.864-2.034-2.727-2.034-4.461 0-1.728 2.199-3.248 3.483-3.466 1.283-.213 2.934 0 3.114-.65.185-.648 2.02-2.384 2.203-.865.182 1.515 0 4.112 1.466 4.112 1.472 0 3.3-1.947 3.85-2.16.552-.22 4.04-1.087 4.772-1.3.73-.216 5.133-.652 4.581-2.17-.55-1.517-1.102-3.03-1.65-3.683-.553-.648-1.103.216-1.835 1.301-.728 1.083-2.015 1.083-2.379.214-.37-.863.178-3.462-1.106-2.6-1.284.867-1.463 1.737-2.2 1.3-.733-.433-1.465-1.95-1.465-1.95s1.834-1.08.552-3.029c-1.284-1.95-3.12-1.52-4.956-.432-1.833 1.083-1.648.862-3.846 1.512-2.199.65-3.302 1.298-3.302 1.298s.62-3.366 1.904-4.67c1.284-1.299 5.244-.74 6.348-2.045 1.1-1.298 4.032.65 4.032.65s1.47-1.733 1.47-.65c0 1.085-.368 3.905.735 3.905 1.099 0 4.213-1.736 2.932-2.17-1.284-.43.793-1.236 2.074-2.32 1.285-1.085 3.793.152 4.527-.279.732-.434 1.28-2.381 2.566-2.381 1.287 0 1.835 1.947 0 3.245-1.834 1.305-2.015 4.555-2.934 5.417-.915.87-.366 1.949 1.1 1.737 1.47-.219 2.753.212 4.035-.219 1.284-.43 2.019.431 2.383 1.08.368.65 1.469-.649 1.469-.649s2.388-.651 3.114.437c.736 1.08 1.286-.649.736-1.735-.55-1.08-1.287-2.163-1.836-3.466-.549-1.297-1.28-1.734-2.746-1.297-1.472.43-1.836-.437-2.753-1.09-.917-.648-1.649.87-.917-.648.735-1.514 1.1-1.95 1.65-3.251.548-1.301 2.937-3.678.548-4.329-2.381-.648-3.114-1.085-3.482-2.384-.367-1.303-3.12-3.687-3.852-3.687s-4.244.77-4.43-.31c-.185-1.09-1.067-4.238-1.986-5.319-.914-1.086-4.403-5.852-4.955-6.287-.548-.435-1.276-.216-2.93 2.384-1.654 2.601-3.118 3.037-4.401 2.386-1.284-.649-2.694.019-3.976-1.714-1.287-1.731 2.507-2.406 1.959-3.49-.554-1.08-3.485-1.52-5.315-1.73-1.836-.219-3.12-2.6-5.87-2.818-2.756-.22-6.054.432-6.971.432s-.917 1.517-1.283 3.9c-.37 2.381 1.283 3.034-.37 3.468-1.65.433-2.38.647-.726 1.517 1.648.866 3.844 4.331 3.844 4.331s0 1.95-1.284 3.034c-1.281 1.084-2.56 2.167-3.296.869-.735-1.305-2.754-1.085-2.203.215.549 1.302 1.652 1.95 1.652 3.251 0 1.304 1.649 4.552.551 5.63-1.1 1.09-2.385.22-3.305.438-.915.213-1.83-1.735-1.099-2.166.734-.432-.183-3.686-.183-3.686s-2.198 3.686-2.015 1.736c.183-1.952-.918-2.166-.918-3.687 0-1.516-1.598-3.623-3.253-3.189-1.65.436-3.165.805-6.283.153-3.116-.648-4.403-1.08-6.968-2.598-2.566-1.517-3.485-.43-4.77-.218-1.284.218-.734-3.027-2.383-3.463-1.65-.435-.593-.92-.967-3.736-.361-2.818-1.42-2.113 2.616-5.152 4.036-3.026 3.487-4.33 6.604-4.76 3.117-.433 4.262 1.953 4.262.869 0-1.083 1.055-6.938 1.055-4.772 0 2.165 3.67 2.385 2.017 3.903-1.647 1.514-.732 1.734.555 1.734 1.276 0 3.665-1.52 3.665-1.52s2.93-1.517 3.664-.214c.737 1.298.737 2.601 2.018 2.601 1.284 0 4.034-1.736 1.652-3.253-2.383-1.52-3.854-1.301-5.317-3.034-1.468-1.734-1.102-1.084-2.753-.653-1.653.436-1.653-.65-2.203-.65-.55 0-1.462.437-1.832-.431-.365-.868.185-1.08 2.018-1.08 1.835 0 4.035.65 4.035.65l2.752-1.087c.55-.211 3.48-.651 2.932-2.598-.55-1.95-2.381-1.95-2.932-2.598-.554-.656 1.098-1.52 2.014-1.952.918-.436 3.486 0 3.486 0s1.649.215 1.649-.651c0-.864-.364-1.953.736-1.303s0 2.602 1.649 2.17c1.647-.433 2.023 0 2.933.651.917.649-.185 3.25-1.1 3.683-.916.433-2.382 1.298-.366 1.518 2.018.218 3.484.218 3.484.218s1.286-1.519 1.837-2.82c.547-1.301 1.463-.431 2.2 0 .731.433 3.484 1.084.916 1.952-2.569.868-3.116 1.949-3.667 3.03-.55 1.085-.733 1.734-3.117 1.085s-3.669-.437-4.22.65c-.549 1.08-.187 4.55.734 4.116.917-.433 1.833-.433 2.935-.866 1.1-.436 5.498.433 6.6.219 1.101-.22 2.933 2.167 3.484 1.731.553-.433 1.656.865 2.754 1.734 1.1.868.73-1.95 2.748-.22 2.018 1.739.918 1.739 2.018 1.739s3.486.21 3.486.21.178-2.16 2.014-1.729c1.836.43 3.484 2.816 3.3 1.08-.18-1.73.184-3.03-1.28-4.331-1.47-1.299-3.856-2.169-4.217-2.818-.365-.649-.737-1.515-.188-1.952.549-.431 3.12.219 4.585 1.303 1.47 1.083 2.75 2.168 3.854 1.298 1.099-.864 2.383-1.298 2.936-1.951.548-.65 1.833-2.598 1.833-2.598s-5.504-.862-6.237-1.949c-.735-1.081-3.302-2.599-4.036-2.599-.732 0-2.747 1.518-3.484-.648-.735-2.169-.735-4.767-1.467-4.987-.734-.217-8.434-1.516-9.536-2.169-1.098-.648-5.5-2.16-7.152-3.246-1.65-1.083-4.033-2.602-5.498-2.602-1.471 0-7.522.868-8.62.649-1.104-.214-4.402.437-5.689.65-1.284.22 1.655 3.037-1.098 3.69-2.749.65-2.383 1.08-1.833-2.172.549-3.25-1.835-4.116-4.216-2.817-2.385 1.3-6.237 2.169-5.32 3.687.919 1.513-.182 2.6 1.652 4.113 1.83 1.517 2.568 1.947 4.952 1.737 2.382-.22 4.765.43 4.765.43s0 2.601-.912 3.037c-.92.434-2.385.434-2.756 1.732-.365 1.299-2.2 1.953-2.2 1.299 0-.65.92-2.818-.366-3.903-1.281-1.08-1.653-1.297-3.119-.213-1.466 1.085-1.648 1.519-2.383-.219-.73-1.732-2.934-3.252-2.934-3.252s-1.466-2.16-2.568-3.248c-1.098-1.08-3.113-.864-3.3.219-.185 1.082.371 2.168 1.098 4.118.736 1.948 1.059 4.42-.224 4.635-1.285.215-1.059 1.647-2.343 2.08-1.28.437-1.829-.65-1.829-2.383 0-1.737-.552-3.253-.185-3.901.238-.425-.465-.115-1.488.034-.639.926-1.262 1.863-1.882 2.805.428.984.192 2.169-.85 2.578-.228.089-.548.152-.926.197-10.253 16.413-17.42 35.233-20.447 56.082-2.572 17.706-1.085 38.052 3.254 56.781.771.878 1.433 1.77 1.433 1.77s1.466 2.82.916 3.687c-.553.86.734 4.113 2.018 4.982 1.284.865 6.876.884 7.155 4.118.072.842.993 4.985 3.008 4.985 2.02 0 4.692-1.083 5.24-.436.55.648 2.202 3.249 3.304 1.73 1.097-1.519 1.28-2.169 2.935-2.169 1.647 0 2.382 1.518 3.297 2.602.918 1.086 3.484 3.905 4.768 3.687 1.285-.215 2.933 1.733 3.852 1.084.919-.65 2.385.43 3.115.868.738.43 2.277 2.038 2.095 4.634-.184 2.6 2.487 3.164 3.588 3.816 1.103.648 2.568 2.16 3.488 3.249.918 1.082 2.935 1.298 3.486 1.95.547.648.914 1.949 2.565.87 1.648-1.09 1.285-3.04 1.285-3.04s1.834-.43 2.748.436c.923.866 1.471 3.683 2.019 4.114.552.439 1.65 3.683.917 6.067-.734 2.384-.551 4.771-1.287 4.771-.726 0-2.75 2.27-3.849 2.92-1.102.65-2.935 4.228-2.748 5.312.18 1.082.814 4.514.446 6.034-.365 1.515-1.73 3.062-1.182 5.447.009.037.026.07.035.106 11.013 6.065 22.96 10.96 35.146 15.286 18.427 6.54 37.683 10.594 57.06 11.42.01-.143.014-.275 0-.378-.185-1.3-1.836-4.333.914-6.934 2.758-2.601 5.691-6.503 5.867-7.58.186-1.086 2.386-5.64 2.201-7.804-.182-2.168-2.2-4.766-3.484-5.415zm109.666-105.95c.733.22 3.112 0 2.382-2.167-.734-2.165-2.382-2.165-2.933-2.165s-2.934-.649-3.853 0c-.67.47 1.096 1.95 2.019 2.379.92.434 1.65 1.738 2.385 1.953m-24.396-7.798c.371-.868-.55-2.604-1.827-.219-.444.822 1.462 1.09 1.827.22m13.76-.001c.918-1.518-.737-3.685-1.651-3.685-1.73 0-2.57 3.255-1.471 4.334 1.1 1.08 2.206.869 3.122-.649m-42.546-32.718c-1.1.647.18 3.249 1.647 3.465 1.467.22 3.122-1.078 4.401-1.73 1.286-.649 3.12-1.947 3.12-3.9 0-1.952-.365-3.686-1.1-4.551-.734-.868-2.02-1.083-3.119-.868-1.664.327-1.835 2.386-2.936 2.386-1.098 0-2.384.433-2.013 1.948.364 1.52 1.1 2.6 0 3.25"/><path d="M342.438 195.557c1.832.869 5.685 1.734 4.223 2.601-1.472.87-5.715 5.134-6.078 6.432-.372 1.301 4.792.718 4.792.718s-1.105 1.518-.186 1.948c.914.434 1.472-1.514 2.934-1.514 1.467 0 4.398 1.084 5.872 1.084 1.467 0 3.848-2.384 3.665-3.901s-2.016-3.898-3.665-4.767c-1.652-.867-3.487-4.768-4.586-5.634-1.1-.868 4.073-3.738 2.787-5.249-1.283-1.517-5.172-.596-6.64-1.685-1.465-1.085-2.749.22-3.67 1.52-.915 1.298-2.015-.22-3.113.217-1.483.583-.92 2.811-.184 3.898.734 1.08 2.018 3.467 3.85 4.332m57.581-16.9c.915 1.299 1.286 4.336 2.937 3.901 1.647-.434 3.667-1.953 5.494-1.734 1.3.153 3.525-.02 4.904-.134a121.496 121.496 0 0 0-5.101-12.148c-1.097 1.39-4.911 3.923-7.134 5.133-2.387 1.303-2.02 3.683-1.1 4.982m-79.81-10.541c-.978-1.013-3.295-1.738-4.403-1.883-1.099-.144-2.201 1.013-4.643 1.013-2.445 0-4.03 1.155-5.013 0-.974-1.157-5.015-1.73-5.379-1.013-.49.968-1.464 1.013-.49 3.037.98 2.019 1.715 3.173 2.568 3.033.856-.145 3.79-.292 4.162.867.363 1.156 1.341 2.17 3.416 1.441 2.083-.72 3.79-1.151 4.28-2.02.49-.866 3.794-1.007 3.794-1.007s2.69-2.459 1.708-3.468M185.836 289.77c-1.683.356-1.286 4.223.73 3.516 2.017-.701.918-3.87-.73-3.516"/><path d="M417.44 230.44c-1.464 0-3.297 2.168-3.663 1.304 0 0 1.1-3.903 0-4.337-1.1-.434.366-3.034 1.464-3.9 1.1-.863 2.384-3.034 3.483-5.2.609-1.2 1.33-1.79 2.01-2.05-.821-10.904-2.823-21.645-6.144-31.935-1.22.086-2.736.038-4.854.183-3.112.22-6.598.22-6.598.87s4.217 2.163 2.749 3.253c-1.464 1.078-2.93-.22-4.767-.44-1.836-.212-2.936 2.818-3.486 4.552-.549 1.734.916 4.769-1.833 3.686-2.75-1.086-4.768-1.086-5.494-.651-.738.435-2.08-.38-3.913.268-1.835.653-1.96.6-4.344.6h-2.383l-1.473.218s-1.462-1.086-1.648-2.818c-.178-1.739.737-3.687-.178-4.118-.921-.437-4.218.213-4.77 1.516-.55 1.299-1.104 3.685-.37 4.77.735 1.08 2.939 3.247.922 2.597-2.022-.65-4.586-.866-6.057.435-1.462 1.302-4.032 4.113-4.032 4.113s-4.584.439-4.584 1.737c0 1.299 0 3.032-1.648 3.252-1.651.214-3.854.864-6.055 1.297-2.199.436-2.014 1.516-4.585 1.735-2.57.218-2.931 1.518-.549 1.95 2.384.428 6.048 2.166 6.233 4.115.185 1.952-.185 4.117-1.1 6.065-.629 1.338-4.398.437-6.602.437-2.2 0-6.598-.87-8.432 0-1.835.861-1.47 5.197-.922 7.149.55 1.95-.184 3.033-.913 3.682-.736.65-.92 2.6 0 3.466.913.866 1.647 2.813 2.385 3.034.734.213 3.113-.65 4.034.434.91 1.083 1.832 3.685 2.385 3.033.55-.65 1.278-3.467 2.197-2.818.924.649 3.119-.215 4.769-.436 1.648-.213 2.564-2.381 4.22-3.464 1.648-1.08.735-1.08.18-2.38-.553-1.3 1.653-2.818 2.939-4.336 1.28-1.518 3.662-.215 4.212-1.952.55-1.734.736-4.761 2.198-4.55 1.472.218 3.495 1.298 4.771 1.298 1.284 0 4.034-2.38 4.77-2.81.735-.437 3.483-.22 3.855 1.73.363 1.949 3.477 4.332 4.211 4.766.736.434 5.508 2.17 6.237 2.818.732.65 1.83 2.598 2.203 4.335.363 1.728 2.558 3.8 2.747 2.28.174-1.51-1.833-6.397-.549-6.18 1.284.215 2.753-.435 2.753-.435s-3.488-2.818-4.772-3.467c-1.28-.649-3.663-1.948-4.765-4.117-1.097-2.167-3.854-2.599-3.67-4.766.179-2.166 2.751-.864 4.22.869 1.465 1.73 5.135 4.116 6.418 5.627 1.287 1.518 3.3 2.173 3.848 4.12.55 1.952 2.201 4.122 2.749 4.982.55.868.887 7.765 1.438 8.848.547 1.083 3.89-2.347 4.802-3.216.915-.864 2.565-1.298 2.75-3.036.185-1.728-2.2-3.027-2.934-3.677-.729-.649 1.832-1.3 2.749-2.167.92-.864 2.568-2.384 3.297-1.086.733 1.304.373 6.502.733 7.37.373.865 4.044 2.162 4.777 3.252.732 1.08 3.842 1.513 4.398.864.161-.191.54-.222.998-.18.385-4.095.616-8.2.688-12.3-1.291.14-2.827-.087-3.705-.087m-231.79 43.547c2.023-.433.917-2.385-.736-2.164-1.673.216-1.279 2.595.736 2.164"/><path d="M365.918 183.208c-.373.65.725 3.901 2.746 4.768 2.015.861 5.503.652 5.686-.649.184-1.302 2.933-4.119 3.117-2.166.177 1.948 2.014 4.977 1.651 6.28-.374 1.299 0 2.602 1.275 2.383 1.285-.215 8.077-1.95 8.077-1.95s2.198-1.088 1.837-2.816c-.374-1.73 2.38-4.118 2.931-4.767.55-.65 2.563-3.251.183-4.115-2.388-.87-4.223-1.09-1.656-3.686 2.573-2.6 4.222 0 7.519-3.899 3.306-3.9-.734-4.984 2.757-5.203 2.186-.133 4.445-.269 5.64-.03a115.348 115.348 0 0 0-5.402-9.685 132.42 132.42 0 0 0-2.985-4.542c-5.396 2.45-11.956 6.215-12.475 6.677-.736.649-1.833 3.251-4.218 5.421-2.386 2.159-6.53 4.304-10.018 5.168-3.485.87-7.765 7.18-7.765 8.042 0 .867 1.462 4.12 1.1 4.77M191.154 283.953c.184-.861-2.02-3.249-3.306-3.03-1.281.22-4.033-1.517-5.497-3.031-1.471-1.517-4.22-1.517-5.318-1.517-1.101 0-5.506 1.517-5.506 1.517-.181 2.162 1.654 1.514 3.856 1.514 2.198 0 6.05-.43 6.784.648.734 1.088 4.034 2.819 4.95 3.686.915.864 3.85 1.08 4.037.213"/></g><path d="M135.76 140.154c-.501-.009-1.022-.02-1.548-.028a222.05 222.05 0 0 0-2.827 3.001c.292-.003 1.016-.15 1.831-.242.84-.918 1.688-1.829 2.543-2.731" fill="#52793a"/><path d="M138.91 136.905a4.403 4.403 0 0 0-.315-1.199c-.667.656-1.336 1.312-1.996 1.976.508.11.92.18 1.344.213.323-.33.643-.662.968-.99" fill="#008e4f"/><path d="M129.17 146.157c.639-.186 1.068-1.419 1.493-2.252a200.4 200.4 0 0 0-2.03 2.252.88.88 0 0 0 .538 0" fill="#52793a"/><path d="M128.467 148.262a.45.45 0 0 0-.031-.154c-.157-.37-.577-.463-1.135-.451-16.265 18.583-29.39 39.98-38.546 63.371.414 1.058.292 2.763-.479 2.947-.203.048-.39-.042-.557-.221a214.914 214.914 0 0 0-2.647 7.446c-.162 2.453-.51 6.355-.645 8.156-.052.675.054 1.492.257 2.359 8.231-31.224 23.41-59.625 43.783-83.453m376.491 133.724c-1.554-44.968-16.872-86.435-41.885-120.318a6.11 6.11 0 0 1-1.07.308c-.186.036-.352.047-.528.073 23.074 31.983 37.45 70.659 39.642 112.565 1.279.262 2.843.538 2.693 2.841-.117 1.871.407 3.55 1.148 4.53" fill="#008e4f"/><path d="M355.777 84.381c-.023.075-.037.152-.061.226-.692 2.115-45.435 5.86-48.455 2.633-1.217 2.231-3.237 3.508-5.8 3.626-2.51.116-4.998-.626-7.51-.551-3.355.1-6.553 1.648-9.91 1.67-3.506.023-6.163-2.216-6.704-5.59-10.88 4.731-21.583-.789-32.506 4.138-2.81-3.56-5.784-2.246-9.362-.417-8.824 4.513-19.73 4.538-28.685.359C232.271 79.867 260.224 74 289.552 74c23.107 0 45.358 3.65 66.225 10.381z" fill="#dfdbc8"/><path d="M284.041 91.985c3.357-.022 6.555-1.57 9.91-1.67 2.512-.075 5 .667 7.51.551 2.563-.118 4.583-1.395 5.8-3.626 2.257 2.412 27.805.93 40.868-.856-43.756-14.268-92.753-11.978-135.002 6.26 7.45 1.751 15.517.963 22.342-2.528 3.578-1.829 6.553-3.143 9.362.417 10.923-4.927 21.627.593 32.506-4.137.54 3.373 3.198 5.612 6.704 5.59" fill="#f0ede1"/><g font-family="FrutigerNeueLTW1G-Bold, Frutiger Neue LT W1G" font-size="14" font-weight="bold" letter-spacing="0"><text fill="#f79b00" transform="rotate(-42 99.58 92.395)"><tspan x="77.767" y="102">Projected</tspan></text><text fill="#15243d" transform="rotate(-42 122.58 120.395)"><tspan x="110.833" y="130">Target</tspan></text></g></g></svg>