<?xml version="1.0" encoding="UTF-8"?>
<svg width="575px" height="575px" viewBox="0 0 575 575" version="1.1" xmlns="http://www.w3.org/2000/svg" xmlns:xlink="http://www.w3.org/1999/xlink">
    <!-- Generator: Sketch 54.1 (76490) - https://sketchapp.com -->
    <title>Group 14</title>
    <desc>Created with Sketch.</desc>
    <g id="Page-1" stroke="none" stroke-width="1" fill="none" fill-rule="evenodd">
        <g id="Group-14" transform="translate(2.000000, 1.954313)">
            <path d="M285.5,571 C127.822999,571 0,443.175675 0,285.497038 C0,127.818401 127.822999,0 285.5,0 C443.177001,0 571,127.818401 571,285.497038 C571,443.175675 443.177001,571 285.5,571 Z" id="Fill-1" stroke="#F79B00" stroke-width="3" fill="#1B2D4D" fill-rule="nonzero"></path>
            <path d="M286,528.045687 C152.347341,528.045687 44,419.697222 44,286.043176 C44,152.38913 152.347341,44.0456871 286,44.0456871 C419.652659,44.0456871 528,152.38913 528,286.043176 C528,419.697222 419.652659,528.045687 286,528.045687 Z" id="Fill-1" fill="#FFFFFF" fill-rule="nonzero"></path>
            <path d="M78.94305,94 L78.94305,84.228 L81.40705,84.228 C83.57705,84.228 85.52305,84.802 85.52305,87.224 C85.52305,89.562 83.64705,90.276 81.40705,90.276 L80.91705,90.276 L80.91705,94 L78.94305,94 Z M80.91705,85.712 L80.91705,88.778 L81.26705,88.778 C82.59705,88.778 83.50705,88.484 83.50705,87.238 C83.50705,86.076 82.73705,85.712 81.26705,85.712 L80.91705,85.712 Z M88.5468167,88.162 L88.5748167,88.162 C88.9528167,87.21 89.6248167,86.622 90.6468167,86.622 C90.8708167,86.622 91.0668167,86.636 91.2628167,86.706 L91.2208167,88.316 C91.0108167,88.246 90.8148167,88.218 90.5768167,88.218 C89.3168167,88.218 88.7008167,89.184 88.7008167,91.06 L88.7008167,94 L86.7968167,94 L86.7968167,88.932 C86.7968167,88.176 86.7828167,87.392 86.7268167,86.79 L88.4908167,86.79 C88.5188167,87.112 88.5468167,87.77 88.5468167,88.162 Z M95.4625833,86.622 C97.6605833,86.622 99.2005833,88.12 99.2005833,90.416 C99.2005833,92.67 97.6605833,94.168 95.4065833,94.168 C93.1665833,94.168 91.6125833,92.642 91.6125833,90.402 C91.6125833,88.078 93.1525833,86.622 95.4625833,86.622 Z M95.4065833,88.008 C94.2865833,88.008 93.6145833,88.876 93.6145833,90.416 C93.6145833,91.83 94.3145833,92.74 95.3925833,92.74 C96.5125833,92.74 97.2265833,91.83 97.2265833,90.346 C97.2265833,88.862 96.5405833,88.008 95.4065833,88.008 Z M100.82435,85.418 L100.82435,83.626 L102.70035,83.626 L102.70035,85.418 L100.82435,85.418 Z M99.57835,97.038 L99.64835,95.638 C99.73235,95.652 99.85835,95.666 99.92835,95.666 C100.64235,95.666 100.82435,95.274 100.82435,94.252 L100.82435,86.79 L102.70035,86.79 L102.70035,94.504 C102.70035,96.226 101.90235,97.108 100.34835,97.108 C100.08235,97.108 99.81635,97.094 99.57835,97.038 Z M111.072117,90.92 L106.242117,90.92 C106.270117,92.026 107.166117,92.74 108.468117,92.74 C109.266117,92.74 109.966117,92.53 110.568117,92.152 L110.596117,93.692 C109.980117,93.986 109.154117,94.168 108.244117,94.168 C105.878117,94.168 104.324117,92.782 104.324117,90.36 C104.324117,88.19 105.766117,86.622 107.936117,86.622 C110.022117,86.622 111.100117,87.868 111.100117,90.472 C111.100117,90.584 111.086117,90.822 111.072117,90.92 Z M106.214117,89.632 L109.378117,89.632 C109.378117,88.456 108.790117,87.952 107.866117,87.952 C107.040117,87.952 106.312117,88.512 106.214117,89.632 Z M117.511883,86.902 L117.371883,88.33 C117.035883,88.19 116.699883,88.106 116.237883,88.106 C114.823883,88.106 114.081883,89.128 114.081883,90.388 C114.081883,91.69 114.753883,92.656 116.279883,92.656 C116.713883,92.656 117.091883,92.586 117.497883,92.404 L117.595883,93.874 C117.119883,94.028 116.685883,94.098 116.069883,94.098 C113.675883,94.098 112.121883,92.67 112.121883,90.43 C112.121883,88.106 113.899883,86.706 116.013883,86.706 C116.601883,86.706 117.063883,86.762 117.511883,86.902 Z M119.61165,88.176 L118.22565,88.176 L118.22565,86.79 L119.63965,86.79 L119.63965,85.278 L121.40365,84.676 L121.40365,86.79 L123.12565,86.79 L123.12565,88.176 L121.40365,88.176 L121.40365,90.99 C121.40365,92.082 121.61365,92.572 122.52365,92.572 C122.74765,92.572 122.99965,92.53 123.20965,92.46 L123.25165,93.902 C122.90165,94.028 122.43965,94.084 121.96365,94.084 C120.31165,94.084 119.61165,93.272 119.61165,91.368 L119.61165,88.176 Z M130.811417,90.92 L125.981417,90.92 C126.009417,92.026 126.905417,92.74 128.207417,92.74 C129.005417,92.74 129.705417,92.53 130.307417,92.152 L130.335417,93.692 C129.719417,93.986 128.893417,94.168 127.983417,94.168 C125.617417,94.168 124.063417,92.782 124.063417,90.36 C124.063417,88.19 125.505417,86.622 127.675417,86.622 C129.761417,86.622 130.839417,87.868 130.839417,90.472 C130.839417,90.584 130.825417,90.822 130.811417,90.92 Z M125.953417,89.632 L129.117417,89.632 C129.117417,88.456 128.529417,87.952 127.605417,87.952 C126.779417,87.952 126.051417,88.512 125.953417,89.632 Z M139.183183,83.416 L139.183183,91.844 C139.183183,92.6 139.197183,93.398 139.253183,94 L137.545183,94 C137.517183,93.664 137.503183,93.216 137.503183,92.74 L137.475183,92.74 C136.957183,93.664 136.187183,94.168 135.067183,94.168 C133.135183,94.168 131.945183,92.684 131.945183,90.402 C131.945183,88.176 133.191183,86.622 135.081183,86.622 C136.159183,86.622 136.901183,87.126 137.349183,87.91 L137.377183,87.91 C137.349183,87.364 137.335183,86.608 137.335183,85.908 L137.335183,83.416 L139.183183,83.416 Z M135.571183,88.064 C134.535183,88.064 133.877183,89.058 133.877183,90.402 C133.877183,91.746 134.535183,92.726 135.585183,92.726 C136.663183,92.726 137.363183,91.732 137.363183,90.416 C137.363183,89.058 136.663183,88.064 135.571183,88.064 Z" id="Projected" fill="#F79B00" fill-rule="nonzero" transform="translate(109.098117, 90.262000) rotate(-42.000000) translate(-109.098117, -90.262000) "></path>
            <path d="M118.4907,112.228 L118.4907,113.88 L115.7607,113.838 L115.7607,122 L113.7587,122 L113.7587,113.838 L111.0847,113.88 L111.0847,112.228 L118.4907,112.228 Z M119.050467,116.638 L118.980467,115.182 C119.708467,114.804 120.716467,114.622 121.570467,114.622 C123.810467,114.622 124.692467,115.77 124.692467,117.562 C124.692467,118.108 124.664467,119.158 124.664467,119.704 C124.664467,120.558 124.720467,121.524 124.762467,122 L123.124467,122 C123.110467,121.888 123.096467,121.636 123.096467,121.426 C123.096467,121.258 123.110467,121.02 123.124467,120.796 L123.096467,120.796 C122.606467,121.608 121.822467,122.14 120.618467,122.14 C119.218467,122.14 118.210467,121.3 118.210467,119.9 C118.210467,118.388 119.540467,117.548 121.920467,117.548 C122.214467,117.548 122.606467,117.562 122.942467,117.59 C122.942467,116.484 122.424467,115.994 121.248467,115.994 C120.492467,115.994 119.680467,116.26 119.050467,116.638 Z M122.970467,118.682 C122.704467,118.654 122.564467,118.654 122.354467,118.654 C120.870467,118.654 120.058467,118.962 120.058467,119.802 C120.058467,120.432 120.464467,120.782 121.178467,120.782 C122.158467,120.782 122.970467,120.166 122.970467,118.682 Z M128.276233,116.162 L128.304233,116.162 C128.682233,115.21 129.354233,114.622 130.376233,114.622 C130.600233,114.622 130.796233,114.636 130.992233,114.706 L130.950233,116.316 C130.740233,116.246 130.544233,116.218 130.306233,116.218 C129.046233,116.218 128.430233,117.184 128.430233,119.06 L128.430233,122 L126.526233,122 L126.526233,116.932 C126.526233,116.176 126.512233,115.392 126.456233,114.79 L128.220233,114.79 C128.248233,115.112 128.276233,115.77 128.276233,116.162 Z M135.206,116.064 C134.212,116.064 133.54,117.044 133.54,118.332 C133.54,119.62 134.184,120.53 135.22,120.53 C136.284,120.53 136.998,119.578 136.998,118.318 C136.998,117.044 136.284,116.064 135.206,116.064 Z M137.11,114.79 L138.846,114.79 L138.846,121.44 C138.846,123.596 137.684,125.108 135.052,125.108 C134.072,125.108 133.12,124.982 132.182,124.632 L132.322,123.036 C133.218,123.512 134.086,123.708 134.898,123.708 C136.158,123.708 137.026,122.994 137.026,121.44 C137.026,121.202 137.026,120.95 137.054,120.698 L137.026,120.698 C136.592,121.426 135.85,122 134.716,122 C132.84,122 131.608,120.558 131.608,118.43 C131.608,116.19 132.854,114.622 134.828,114.622 C135.948,114.622 136.676,115.168 137.11,115.938 L137.138,115.938 C137.11,115.49 137.11,115.154 137.11,114.79 Z M147.161767,118.92 L142.331767,118.92 C142.359767,120.026 143.255767,120.74 144.557767,120.74 C145.355767,120.74 146.055767,120.53 146.657767,120.152 L146.685767,121.692 C146.069767,121.986 145.243767,122.168 144.333767,122.168 C141.967767,122.168 140.413767,120.782 140.413767,118.36 C140.413767,116.19 141.855767,114.622 144.025767,114.622 C146.111767,114.622 147.189767,115.868 147.189767,118.472 C147.189767,118.584 147.175767,118.822 147.161767,118.92 Z M142.303767,117.632 L145.467767,117.632 C145.467767,116.456 144.879767,115.952 143.955767,115.952 C143.129767,115.952 142.401767,116.512 142.303767,117.632 Z M149.261533,116.176 L147.875533,116.176 L147.875533,114.79 L149.289533,114.79 L149.289533,113.278 L151.053533,112.676 L151.053533,114.79 L152.775533,114.79 L152.775533,116.176 L151.053533,116.176 L151.053533,118.99 C151.053533,120.082 151.263533,120.572 152.173533,120.572 C152.397533,120.572 152.649533,120.53 152.859533,120.46 L152.901533,121.902 C152.551533,122.028 152.089533,122.084 151.613533,122.084 C149.961533,122.084 149.261533,121.272 149.261533,119.368 L149.261533,116.176 Z" id="Target" fill="#15243D" fill-rule="nonzero" transform="translate(131.993117, 118.668000) rotate(-42.000000) translate(-131.993117, -118.668000) "></path>
            <g id="Group-13" transform="translate(70.000000, 70.045687)">
                <path d="M66.0712904,357.721182 C67.2236964,363.225358 68.3761024,368.728278 69.5260059,374.233711 C73.5963388,376.748864 77.6141191,379.260247 81.7382561,381.745233 C84.2207463,380.114972 87.980768,378.132764 90.1904846,376.579176 C93.4762806,374.267648 93.9054611,371.302508 91.2840816,368.675486 C88.8428828,365.460212 86.2014832,362.593113 83.5976212,359.474625 C80.992508,356.353622 78.2910481,353.095612 75.6884374,349.933131 C72.4764655,352.51993 69.2644935,355.1105 66.0712904,357.721182" id="Fill-44" fill="#3A332C"></path>
                <path d="M85.6479691,167.725076 C79.5123693,198.48286 80.258863,224.441451 79.2845187,256.400281 C78.3089156,288.359112 80.3432055,323.976017 85.3294818,356.575322 C78.1956197,358.666542 71.6408253,360.601701 64.9815469,362.168555 C53.4090051,328.415645 43.62402,289.36914 37.1208381,255.724849 C30.6176563,222.079309 26.0405039,194.586324 27.0601665,161.507599 C46.4966993,163.859753 65.7922416,165.441589 85.6479691,167.725076" id="Fill-46" fill="#6E6255"></path>
                <path d="M2.4158453e-13,215.343465 C2.4158453e-13,96.4132885 96.4123205,1.42108547e-14 215.344089,1.42108547e-14 C334.27461,1.42108547e-14 430.68693,96.4132885 430.68693,215.343465 C430.68693,334.274889 334.27461,430.68693 215.344089,430.68693 C96.4123205,430.68693 2.4158453e-13,334.274889 2.4158453e-13,215.343465" id="Fill-50" fill="#90D4EB"></path>
                <path d="M326.27607,30.733924 C388.839817,68.4097151 430.68693,136.989939 430.68693,215.343465 C430.68693,334.274889 334.27461,430.68693 215.344089,430.68693 C135.561674,430.68693 65.9131522,387.300903 28.7049744,322.835234 C63.4139918,347.738717 105.968096,362.400663 151.946866,362.400663 C268.830018,362.400663 363.582617,267.648339 363.582617,150.7643 C363.582617,106.194137 349.804868,64.8417371 326.27607,30.733924 Z" id="Combined-Shape" fill="#69BEDB"></path>
                <path d="M264.285162,7.34125449 C268.408273,8.07870531 272.487194,8.89244415 276.520586,9.78833932 L264.285162,7.34125449" id="Fill-51" fill="#9DB74C"></path>
                <path d="M271.626416,24.8403581 C272.257345,25.3958464 272.884868,25.9684642 273.510688,26.5484233 C273.69886,26.1568897 273.886181,25.7653562 274.073501,25.3738226 C273.193095,25.3738226 272.392727,25.1560321 271.626416,24.8403581" id="Fill-52" fill="#A9C14B"></path>
                <path d="M261.838077,36.169988 C268.588787,36.169988 278.700224,46.6812476 283.891415,43.4199549 C291.032642,38.9328455 289.268324,34.7343037 291.203095,32.3721023 C286.046249,30.3580901 280.782552,28.5372514 275.420908,26.9179331 C270.893722,30.0015539 266.365263,33.0863672 261.838077,36.169988" id="Fill-53" fill="#A9C14B"></path>
                <path d="M271.626416,24.4708483 C269.196717,23.6093404 266.749633,22.7930867 264.285162,22.0237635 C266.456968,23.1333321 268.854792,24.0099248 271.626416,24.4708483" id="Fill-54" fill="#A9C14B"></path>
                <path d="M55.9744036,337.697707 C30.0874473,304.069169 14.682509,261.949279 14.682509,216.223268 C14.682509,148.16566 48.7937988,88.0885065 100.837341,52.139173 L100.839826,52.1379299 C102.963317,56.3096437 107.364373,67.8452528 107.415317,68.9130425 C107.770682,76.3142296 102.724751,79.240396 98.9847229,86.27488 C98.7101228,86.7907504 98.442978,87.3128362 98.1808033,87.8411373 C56.1110823,124.378439 29.5084264,178.268876 29.5084264,238.37835 C29.5084264,274.543976 39.1393085,308.458418 55.9744036,337.697707 M350.05625,79.9470943 C347.6097,78.0675856 344.997785,76.5752725 342.463015,74.8076393 C342.741343,74.9070842 343.027126,75.0090152 343.319121,75.1121893 C343.322849,75.1134324 343.34273,75.1146754 343.378763,75.1146754 C343.500531,75.1146754 343.797497,75.1084601 344.227414,75.1034879 C344.653603,75.0972726 345.207773,75.0923003 345.848921,75.0923003 C346.533557,75.0923003 348.870315,75.0985156 349.695357,75.1184046 C349.755568,75.2849628 352.003862,77.6484461 352.075345,77.8422954 C352.738476,79.6406078 351.650649,80.3056688 352.171084,81.8676376 L350.05625,79.9470943 Z M312.899401,57.7466226 C298.433818,50.984369 283.020182,45.9139218 266.914455,42.7851365 C265.991252,41.9398548 265.065564,41.5843392 264.167212,41.5843392 C263.598131,41.5843392 263.038991,41.7272913 262.497246,41.9783897 C251.91334,40.1697355 241.042409,39.1964184 229.959004,39.126807 C231.195326,37.566765 230.259697,34.6791336 231.310881,34.6791336 C241.015073,34.6791336 252.455085,31.6609807 257.760706,23.8346666 C257.047491,23.8346666 253.1099,23.8607709 249.624592,23.8607709 C246.635055,23.8607709 243.978517,23.8408819 243.978517,23.7700274 C243.978517,21.9203522 243.649245,20.3702547 243.63185,19.1905895 C243.633092,19.1905895 243.633092,19.1905895 243.633092,19.1905895 L243.635577,19.1905895 C251.234916,20.3304767 258.692606,21.8992201 265.983797,23.8719584 C267.869963,24.7035665 269.936298,25.3735765 272.353027,25.7092031 C273.240196,25.9814335 274.122395,26.2598792 275.004594,26.5432972 C270.583658,29.7566107 266.162721,32.9711673 261.741785,36.1844809 C261.92071,36.1844809 262.10212,36.1931823 262.287257,36.2093421 C267.960668,36.6928929 275.788633,44.396144 280.999822,44.396144 C281.834805,44.396144 282.601448,44.1997403 283.283599,43.7422937 C290.254216,39.0671401 288.538276,34.6940503 290.421958,32.2303028 C298.164188,35.458533 305.659154,39.1603697 312.870822,43.30225 L312.873307,43.3034931 C312.87455,43.3047361 312.875792,43.3047361 312.875792,43.3059792 C314.539546,48.9295886 315.881483,56.4637833 313.621313,57.3948362 C313.397657,57.4880658 313.156605,57.6049136 312.899401,57.7466226 M207.69155,26.2772821 C207.057857,26.2772821 206.450258,26.276039 205.869995,26.274796 C205.307127,26.2723099 204.772837,26.2710668 204.270853,26.2710668 C204.067078,26.2710668 203.869515,26.2710668 203.678165,26.2723099 C203.676922,26.2723099 203.674437,26.2723099 203.673194,26.2723099 C201.640409,26.2723099 201.168246,22.1950687 202.32753,21.1235498 C202.512668,20.9532504 204.129204,20.8960696 206.0688,20.8960696 C209.755399,20.8960696 214.61495,21.1011747 213.06054,21.1223068 C220.036127,21.1111192 221.610417,20.7294994 221.913596,17.1295938 L221.916081,17.1295938 C225.971712,17.2911918 230.000008,17.5646653 233.989785,17.963688 L233.99227,17.963688 C234.459463,25.8446968 217.925061,26.2772821 207.69155,26.2772821 M184.564262,22.6301402 C183.052098,22.2870552 180.199239,21.3187105 177.081721,20.3578241 C178.407505,20.1104549 179.740744,19.8780024 181.076469,19.6567375 C182.238238,20.6474574 183.40125,21.6394203 184.564262,22.6301402" id="Fill-55" fill="#ACE2F4"></path>
                <path d="M281.55597,44.0475269 C276.220346,44.0475269 268.205459,36.6563493 262.396574,36.192388 C268.205459,36.6563493 276.220346,44.0475269 281.55597,44.0475269 C282.410891,44.0475269 283.195841,43.8578872 283.894281,43.4201654 C291.031347,38.9344112 289.269344,34.7360982 291.196734,32.3721618 C291.199278,32.3733545 291.201823,32.3745472 291.203095,32.3745472 C289.274433,34.7384837 291.031347,38.9344112 283.894281,43.4201654 C283.195841,43.8590799 282.410891,44.0475269 281.55597,44.0475269 M261.838077,36.168534 L261.838077,36.168534 C266.364579,33.0853979 270.891082,30.0010692 275.417585,26.9179331 C270.88981,30.0010692 266.364579,33.0853979 261.838077,36.168534" id="Fill-56" fill="#AFC558"></path>
                <path d="M211.961594,20.7989975 L211.384082,20.8014446 C211.611661,20.8014446 211.802533,20.8014446 211.961594,20.7989975" id="Fill-57" fill="#C7D79B"></path>
                <path d="M272.171352,15.0925872 C274.85049,13.2193899 277.401396,10.5998036 278.370525,9.36426402 C274.614992,8.22567827 271.793642,7.32554302 267.955789,6.38956587 C267.675153,6.47657569 265.585761,7.51776014 265.316351,7.61222796 C260.111489,9.42949037 259.349406,9.61842599 260.20254,12.8949675 C258.180713,12.0832901 256.246196,11.14607 254.46634,10.0559611 L229.534641,10.0559611 C244.383402,26.4225098 218.206925,26.3864629 205.729227,26.351659 C204.935962,26.349173 204.197578,26.346687 203.52904,26.349173 C201.484763,26.355388 201.008306,22.272141 202.173257,21.2006771 C202.710831,20.7047211 215.328224,21.1671162 212.947184,21.1994341 C223.124915,21.1845182 221.848957,20.3840277 221.848957,10.0559611 C211.729847,17.4915725 212.081578,10.0559611 200.605437,10.0559611 C189.841489,10.0559611 184.560543,10.646385 175.118702,14.8750626 C178.193225,17.4866005 181.266501,20.0968953 184.342271,22.7071902 C180.470742,21.8321199 167.84337,16.8949336 164.392172,18.3604277 C162.785686,19.0428334 162.371593,23.308801 160.385937,23.308801 C152.365985,23.308801 130.542484,27.6804233 130.542484,18.5158024 C130.542484,18.4735405 129.783514,17.743617 129.532812,17.708813 C109.732385,26.1512524 92.1752643,37.5734408 75.9557524,51.2339838 C86.3342943,49.5298342 97.1368255,50.7193829 99.2858734,50.7193829 C100.24253,50.7193829 106.835605,67.6813274 106.899215,68.9877178 C107.255935,76.3885252 102.190767,79.3145414 98.4364818,86.3486645 C91.6001896,99.1589972 88.5817938,115.936978 89.3463709,130.322189 C89.3738109,130.841762 97.9550352,138.53716 97.9550352,141.587475 C97.9550352,154.358032 99.2970988,154.56437 108.09909,163.972618 L108.09909,148.309606 C113.347606,162.023598 119.692474,167.301366 124.433351,180.718281 C129.811583,195.942515 151.068823,184.249637 158.291769,194.278141 C161.47231,198.694512 167.406825,196.669669 170.240625,200.980384 L177.931298,212.68072 C182.567404,219.731002 188.220036,217.287269 196.503163,217.287269 C204.459505,217.287269 189.261508,244.682935 189.261508,246.991181 C189.261508,256.490169 202.271791,278.114597 202.190719,281.919412 C201.948748,293.197129 216.081576,294.778222 223.75354,301.725335 C229.897596,307.326282 225.517181,323.194389 225.326348,330.230998 C225.164203,336.163825 226.446398,341.488827 228.266166,346.607491 C229.941251,351.319694 232.065353,355.855393 233.972431,360.51539 C234.304205,361.330797 234.632237,362.149932 234.947797,362.975282 C235.084996,363.335752 235.212218,363.702436 235.345676,364.064148 C235.598872,364.755255 235.844584,365.448848 236.080319,366.147412 C236.208788,366.533984 236.332267,366.9218 236.4545,367.310858 C236.682751,368.038011 236.894787,368.772623 237.09435,369.51345 C237.191637,369.865218 237.291419,370.215743 237.379975,370.57124 C237.653127,371.662592 237.901334,372.766374 238.097156,373.893773 C239.104951,379.666254 236.879819,385.893671 238.16825,391.42501 C239.491605,397.107995 244.385896,400.644323 244.313554,406.926433 C244.2013,416.629272 271.576404,418.451506 276.878553,418.451506 C276.853607,418.435347 256.894777,408.122196 256.894777,409.358979 C256.894777,400.150853 261.649374,400.790997 261.651868,395.175134 C261.654363,388.505209 255.577659,383.009917 259.373104,373.570594 C263.476626,363.364341 263.012641,363.673847 274.110858,363.673847 C273.887597,358.981531 273.170416,354.363795 271.960563,349.818153 C281.877615,334.413685 304.949633,319.590939 311.057519,315.435598 C319.353119,309.784931 314.708282,294.535838 318.29668,286.411606 C321.449781,279.270585 331.011361,272.673997 331.471604,263.88849 C331.496549,263.423609 331.484076,262.98856 331.4504,262.570913 L331.410487,262.27135 C331.374316,261.954386 331.324426,261.648608 331.254578,261.360233 L331.188473,261.115363 C331.102411,260.809585 331.00263,260.519967 330.884139,260.245264 L330.826764,260.11475 C330.680834,259.797785 330.516194,259.500709 330.329103,259.22352 C328.412048,256.390729 324.438242,255.597696 320.967087,255.714538 C316.065312,255.878614 315.577629,247.708391 311.869493,247.708391 C301.565787,247.708391 290.870438,245.959493 281.94372,239.370363 C280.465704,238.280255 278.810575,225.174088 276.284852,221.927379 C274.586068,219.743432 271.137364,220.384819 267.490344,221.024963 C263.368113,221.74963 258.991439,222.474298 256.606657,219.116961 C254.907874,216.725434 250.891662,207.347018 248.148913,207.347018 C244.413336,207.347018 223.837107,203.359482 219.512818,207.260008 C220.178861,206.65964 212.49193,204.335235 211.398073,204.335235 C211.868294,204.335235 184.955928,218.226975 184.955928,211.01386 C184.955928,201.661547 189.533413,189.575882 178.404014,189.575882 C160.513159,189.575882 175.733607,184.940744 175.733607,176.773007 C175.733607,166.295781 158.409013,179.64806 149.281484,179.658004 C149.523454,179.658004 139.003971,162.467348 144.046687,162.467348 C147.666268,162.467348 148.231281,155.117504 150.917903,151.988879 C157.983693,143.755263 170.05104,142.892623 178.544955,144.441398 C181.983681,145.070355 194.451402,159.482911 194.486326,162.454918 C194.477595,161.74641 199.567708,158.503429 200.254954,157.453096 C202.713325,153.696758 201.323865,152.075889 201.93877,148.314578 C203.999262,135.689452 204.523115,133.191027 214.629752,125.518003 C222.057251,119.879766 232.434546,113.404992 238.263043,106.108597 C242.708317,100.541211 246.869213,97.6487552 253.330076,94.4840835 C252.67027,94.8072628 259.467897,98.6108353 260.891033,98.6108353 C266.734498,98.6108353 268.145161,93.691051 271.344411,89.2734378 L261.200356,89.2734378 C272.652798,80.546352 251.921907,76.0205979 274.879177,76.0205979 C286.155754,76.0205979 287.197225,76.1734866 294.094634,68.1897134 C283.12738,68.1897134 285.792798,68.1176195 285.792798,56.9853335 C285.792798,55.1332671 282.69333,48.3353136 279.734803,51.2339838 C271.643756,59.1605792 271.93437,49.7821627 268.393368,44.5118531 C263.813389,37.6952546 258.871701,44.7107327 256.960882,48.8436996 C254.592315,53.9673354 235.127404,61.9796976 235.169811,68.6719964 C235.196004,72.5911677 228.768816,72.433307 228.88606,68.0629276 C229.064419,61.5011436 206.315444,55.2339499 205.940015,52.673375 C205.444849,49.2911787 217.200378,40.1762777 227.424258,40.1762777 C232.120233,40.1762777 229.820266,34.7555654 231.2671,34.7555654 C241.008286,34.7555654 252.49191,31.7375673 257.817757,23.9116548 C256.488167,23.9116548 243.983028,24.0011506 243.983028,23.8470189 C243.983028,19.3983307 242.07595,16.683624 247.193503,16.683624 C259.207217,16.683624 262.765681,26.0197786 275.956819,26.0197786 C271.240888,29.4330499 266.528698,32.8475641 261.814014,36.2608354 C268.433281,36.2608354 278.347838,47.2178588 283.437951,43.8182605 C292.833643,37.5411229 286.500001,31.8034462 294.311659,30.5107288 C295.148578,31.387042 296.274864,32.2285514 298.14577,32.8873401 C300.587927,33.7474944 309.382434,35.3136713 310.876665,37.5373939 C312.676477,40.2172966 317.252714,56.0903753 313.891319,57.4701025 C308.433261,59.7112271 292.445742,76.972734 304.673986,81.2822065 C314.124559,84.610954 316.548006,80.4121082 324.958354,75.1703876 C332.775002,70.2953512 334.901599,72.0865107 343.702343,75.1865466 C343.71731,75.1927615 344.054073,75.1853036 344.614098,75.1778456 C345.68067,75.1634594 347.555678,75.1490732 349.550733,75.2230584 C352.037483,75.3152776 354.710745,73.3629771 356.237416,73.9009296 C360.660239,75.4596485 362.255499,76.6135077 362.987647,75.5855488 C363.485308,74.8882271 363.583842,72.0078443 363.898155,72.1197141 C366.996376,73.209823 372.965815,76.1772156 376.851064,74.4842529 C353.646834,48.0742841 326.64844,27.0507313 293.063174,14.4840261 C287.350673,13.7344986 278.776899,14.0472263 272.171352,15.0925872 Z" id="Fill-58" fill="#00B364"></path>
                <path d="M200.180895,162.104454 C198.709526,163.637023 197.238156,165.168282 195.766786,166.700851 C209.49368,166.700851 217.848687,171.295938 230.025974,171.295938 C221.853942,158.004504 215.448563,162.104454 200.180895,162.104454" id="Fill-59" fill="#00B364"></path>
                <path d="M244.586131,173.78629 C234.334113,173.421627 233.857384,175.251849 227.578889,183.505114 C232.98025,183.505114 238.382785,183.523071 243.785321,183.531359 C248.470414,183.538265 247.819902,173.900938 244.586131,173.78629" id="Fill-60" fill="#00B364"></path>
                <path d="M261.838077,185.978447 C261.838077,169.460624 245.320254,185.978447 261.838077,185.978447" id="Fill-61" fill="#00B364"></path>
                <path d="M352.171084,81.8676376 C349.909684,80.0953087 349.933131,76.9208148 349.933131,75.5030002 C352.418335,75.5611636 354.103995,75.1199532 355.943856,75.591448 C368.312936,87.7723485 380.825373,103.207705 389.645065,118.182923 C378.872893,104.504625 366.168707,92.3877875 352.171084,81.8676376 Z" id="Fill-65" fill="#ACE2F4"></path>
                <path d="M277.144602,419.585521 C271.817794,419.585521 244.315375,417.75745 244.428152,408.023536 C244.50083,401.721307 239.583776,398.173653 238.254267,392.472467 C236.959844,386.923413 239.195324,380.67605 238.182842,374.885082 C237.98611,373.754073 237.736748,372.646756 237.462326,371.551909 C237.373358,371.195273 237.273112,370.843625 237.175372,370.49073 C236.974881,369.747531 236.761859,369.010567 236.532546,368.281084 C236.409745,367.89078 236.285691,367.501723 236.156625,367.113912 C235.919794,366.41311 235.672939,365.717296 235.418566,365.023976 C235.284487,364.661106 235.156674,364.293247 235.018836,363.931623 C234.701809,363.103629 234.372251,362.281871 234.038934,361.463853 C232.12424,356.792671 229.991512,352.24494 228.309889,347.52388 C271.158679,329.87664 307.070463,298.930374 330.846246,259.850068 C331.032954,260.126897 331.197106,260.424925 331.343716,260.741658 L331.401357,260.87259 C331.520399,261.148173 331.620645,261.438719 331.707107,261.745475 L331.773519,261.99113 C331.843691,262.280429 331.893814,262.587186 331.930153,262.905165 L331.970252,263.205687 C332.004085,263.624672 332.016615,264.061114 331.991554,264.527484 C331.52917,273.341128 321.923122,279.958843 318.755357,287.122735 C315.150269,295.272986 319.816709,310.570919 311.482528,316.239683 C305.346236,320.408332 282.166914,335.278551 272.203741,350.732356 C273.41922,355.292556 274.139736,359.925081 274.364036,364.632425 C273.726223,364.632425 273.128507,364.631178 272.563372,364.631178 C263.253049,364.631178 263.444769,364.908007 259.55774,374.560868 C255.744643,384.030423 261.849608,389.543315 261.847102,396.234601 C261.844596,401.86845 257.067887,401.226256 257.067887,410.463873 C257.067887,410.394042 257.133046,410.360374 257.253341,410.360374 C259.273293,410.360374 277.120794,419.570557 277.144602,419.585521 M356.872547,76.1202546 C356.687092,76.0554117 356.484095,75.9943098 356.267313,75.9381957 C354.445347,75.4630969 352.394164,75.5616082 349.933131,75.5030002 C344.503571,60.5716796 334.844351,43.9194747 326.401154,30.733924 C344.881456,42.0826754 363.654171,56.8723429 377.941015,74.3208646 C376.308263,75.0316424 373.950662,75.5030002 371.949506,75.5030002 C369.166434,75.5030002 366.379602,74.9692934 364.568914,74.3333344 C364.546358,74.3246055 364.525056,74.3208646 364.505007,74.3208646 C364.23685,74.3208646 364.117808,74.9705404 363.654171,75.6214632 C363.190535,76.271139 362.382304,76.9208148 360.734514,76.9208148 C359.768396,76.9208148 358.514071,76.6976056 356.872547,76.1202546 Z" id="Fill-66" fill="#01A95F"></path>
            </g>
        </g>
    </g>
</svg>