<svg width="575" height="575" xmlns="http://www.w3.org/2000/svg"><g fill="none" fill-rule="evenodd"><path d="M287.5 572.954C129.823 572.954 2 445.13 2 287.451 2 129.773 129.823 1.954 287.5 1.954c157.677 0 285.5 127.819 285.5 285.497 0 157.679-127.823 285.503-285.5 285.503z" stroke="#F79B00" stroke-width="3" fill="#1B2D4D" fill-rule="nonzero"/><path d="M288 530C154.347 530 46 421.652 46 287.997 46 154.343 154.347 46 288 46c133.653 0 242 108.343 242 241.997C530 421.652 421.653 530 288 530z" fill="#FFF" fill-rule="nonzero"/><path d="M91.19 115.172l-6.539-7.262 1.831-1.649c1.613-1.452 3.443-2.327 5.064-.528 1.564 1.738.648 3.524-1.017 5.023l-.364.328 2.492 2.767-1.467 1.32zm-4.079-7.48l2.052 2.278.26-.234c.988-.89 1.468-1.717.634-2.643-.778-.864-1.594-.619-2.686.365l-.26.234zm7.31-3.285l.02-.019c-.356-.96-.25-1.847.51-2.53.166-.15.321-.271.513-.35l1.047 1.224a1.94 1.94 0 0 0-.545.358c-.936.844-.747 1.974.508 3.368l1.967 2.185-1.415 1.274-3.39-3.767c-.507-.561-1.042-1.135-1.486-1.545l1.31-1.18c.237.22.698.69.96.982zm4.108-5.772c1.634-1.47 3.78-1.388 5.317.319 1.508 1.675 1.366 3.818-.31 5.326-1.664 1.5-3.84 1.405-5.338-.26-1.556-1.727-1.385-3.84.331-5.385zm.886 1.068c-.832.75-.75 1.844.28 2.988.946 1.051 2.075 1.259 2.876.538.832-.75.754-1.904-.239-3.007-.993-1.102-2.074-1.278-2.917-.52zm2.293-5.55l-1.199-1.332 1.394-1.255 1.2 1.331-1.395 1.256zm6.85 9.469l-.885-1.087a2.09 2.09 0 0 0 .227-.167c.53-.478.403-.89-.28-1.65l-4.994-5.546 1.394-1.255 5.162 5.733c1.152 1.28 1.15 2.469-.005 3.509a3.427 3.427 0 0 1-.62.463zm4.447-12.238l-3.589 3.232c.76.804 1.904.735 2.872-.137a3.878 3.878 0 0 0 1.167-1.842l1.051 1.126c-.26.63-.753 1.319-1.429 1.927-1.758 1.584-3.84 1.593-5.461-.206-1.452-1.613-1.43-3.743.183-5.195 1.55-1.396 3.185-1.191 4.927.744.075.083.224.27.28.351zm-4.472 2.294l2.352-2.117c-.787-.874-1.561-.855-2.248-.237-.614.553-.78 1.456-.104 2.354zm6.57-9.589l.851 1.155c-.343.121-.65.284-.993.593-1.05.946-.918 2.202-.075 3.138.871.968 2.017 1.236 3.151.215a2.83 2.83 0 0 0 .737-1.002l1.056 1.026c-.25.433-.526.776-.984 1.188-1.78 1.602-3.89 1.58-5.388-.084-1.555-1.727-1.17-3.957.4-5.372.437-.393.818-.66 1.244-.857zm2.412-.458l-1.03.928-.927-1.03 1.05-.947-1.01-1.123.907-1.628 1.415 1.571 1.28-1.152.927 1.03-1.28 1.152 1.883 2.091c.73.812 1.215 1.035 1.89.427.167-.15.327-.35.436-.543l.996 1.044c-.176.328-.482.678-.836.997-1.227 1.105-2.29.97-3.565-.445l-2.136-2.372zm10.16-5.455l-3.59 3.232c.761.803 1.905.734 2.872-.137a3.878 3.878 0 0 0 1.167-1.842l1.052 1.126c-.261.63-.753 1.318-1.43 1.927-1.758 1.583-3.84 1.593-5.46-.207-1.453-1.612-1.43-3.742.182-5.194 1.55-1.396 3.185-1.192 4.928.744.075.083.223.27.279.351zm-4.473 2.294l2.352-2.117c-.787-.874-1.561-.855-2.248-.237-.614.553-.78 1.456-.104 2.354zm5.673-13.472l5.64 6.263c.505.562 1.05 1.146 1.494 1.556l-1.27 1.142a16.122 16.122 0 0 1-.874-.908l-.02.019c.233 1.033-.002 1.923-.834 2.672-1.436 1.293-3.314.987-4.84-.71-1.49-1.654-1.604-3.642-.2-4.907.802-.721 1.69-.843 2.548-.56l.02-.019c-.385-.387-.902-.94-1.37-1.46l-1.668-1.852 1.374-1.236zm.426 5.87c-.77.694-.594 1.873.305 2.872.9.999 2.044 1.287 2.825.584.8-.721.656-1.928-.225-2.906-.908-1.01-2.094-1.28-2.905-.55z" fill="#F79B00" fill-rule="nonzero"/><path d="M119.65 124.871l1.105 1.228-2.057 1.796 5.462 6.065-1.488 1.34-5.462-6.066-1.959 1.82-1.105-1.227 5.504-4.956zm3.367 2.903l-1.027-1.035c.288-.768.916-1.578 1.55-2.15 1.665-1.498 3.089-1.235 4.288.096.365.406 1.047 1.205 1.412 1.611.572.635 1.26 1.315 1.61 1.64l-1.218 1.097a5.778 5.778 0 0 1-.405-.408 11.477 11.477 0 0 1-.4-.487l-.021.019c.179.931-.048 1.851-.943 2.657-1.04.936-2.351.987-3.288-.054-1.012-1.123-.585-2.638 1.183-4.23.219-.197.52-.449.788-.653-.74-.822-1.453-.84-2.327-.052-.562.506-.987 1.247-1.202 1.95zm4.28-1.104a4.9 4.9 0 0 0-.476.391c-1.103.993-1.5 1.766-.938 2.39.421.468.957.456 1.488-.021.728-.656.92-1.657-.074-2.76zm2.257-5.423l.02-.019c-.355-.96-.25-1.847.51-2.53.167-.15.322-.271.514-.35l1.046 1.224a1.94 1.94 0 0 0-.544.358c-.936.843-.748 1.974.508 3.368l1.967 2.185-1.415 1.274-3.391-3.767c-.506-.562-1.041-1.135-1.485-1.545l1.31-1.18c.237.22.698.69.96.982zm5.084-4.71c-.738.665-.582 1.843.28 2.8.862.958 1.95 1.203 2.72.51.79-.712.683-1.897-.16-2.834-.852-.946-2.039-1.197-2.84-.476zm.563-2.22l1.29-1.162 4.45 4.942c1.442 1.602 1.59 3.503-.365 5.264-.729.656-1.52 1.2-2.452 1.567l-.964-1.28c.985-.246 1.76-.68 2.364-1.224.937-.843 1.104-1.954.064-3.11a6.325 6.325 0 0 1-.476-.57l-.02.02c.164.83-.003 1.754-.846 2.513-1.394 1.255-3.274 1.008-4.698-.574-1.5-1.665-1.622-3.663-.155-4.984.832-.75 1.738-.831 2.576-.55l.02-.018c-.32-.314-.545-.564-.788-.834zm10.233-3.657l-3.59 3.232c.762.803 1.905.734 2.873-.137a3.878 3.878 0 0 0 1.167-1.842l1.051 1.125c-.26.631-.753 1.319-1.429 1.928-1.758 1.583-3.84 1.593-5.461-.207-1.452-1.613-1.43-3.743.183-5.195 1.55-1.396 3.185-1.191 4.927.744.075.083.224.27.28.352zm-4.472 2.293l2.352-2.117c-.787-.874-1.562-.855-2.248-.237-.614.553-.78 1.456-.104 2.354zm4.197-5.737l-1.03.927-.928-1.03 1.051-.946-1.012-1.124.908-1.628 1.415 1.571 1.28-1.152.927 1.03-1.28 1.152 1.883 2.092c.73.811 1.215 1.035 1.891.426.167-.15.326-.35.435-.542l.996 1.043c-.176.328-.482.679-.835.997-1.228 1.106-2.292.97-3.566-.444l-2.135-2.372z" fill="#15243D" fill-rule="nonzero"/><path d="M138.071 429.721c1.153 5.504 2.305 11.007 3.455 16.513 4.07 2.515 8.088 5.026 12.212 7.511 2.483-1.63 6.243-3.612 8.452-5.166 3.286-2.311 3.715-5.276 1.094-7.904-2.441-3.215-5.083-6.082-7.686-9.2a1802.949 1802.949 0 0 1-7.91-9.542 1680.747 1680.747 0 0 0-9.617 7.788" fill="#3A332C"/><path d="M157.648 239.725c-6.136 30.758-5.39 56.716-6.363 88.675-.976 31.96 1.058 67.576 6.044 100.175-7.133 2.092-13.688 4.027-20.347 5.594-11.573-33.753-21.358-72.8-27.861-106.444-6.503-33.646-11.08-61.139-10.06-94.217 19.436 2.352 38.731 3.934 58.587 6.217" fill="#6E6255"/><path d="M72 287.343C72 168.413 168.412 72 287.344 72c118.93 0 215.343 96.413 215.343 215.343 0 118.932-96.412 215.344-215.343 215.344C168.412 502.687 72 406.275 72 287.343" fill="#90D4EB"/><path d="M398.276 102.734c62.564 37.676 104.41 106.256 104.41 184.61 0 118.93-96.411 215.343-215.342 215.343-79.782 0-149.43-43.386-186.639-107.852 34.709 24.904 77.263 39.566 123.242 39.566 116.883 0 211.636-94.753 211.636-211.637 0-44.57-13.778-85.922-37.307-120.03z" fill="#69BEDB"/><path d="M336.285 79.341c4.123.738 8.202 1.551 12.236 2.447l-12.236-2.447" fill="#9DB74C"/><path d="M343.626 96.84c.631.556 1.259 1.128 1.885 1.708l.563-1.174c-.88 0-1.681-.218-2.448-.534m-9.788 11.33c6.75 0 16.862 10.511 22.053 7.25 7.142-4.487 5.377-8.686 7.312-11.048a211.341 211.341 0 0 0-15.782-5.454l-13.583 9.252m9.788-11.7a202.769 202.769 0 0 0-7.34-2.446c2.171 1.11 4.569 1.986 7.34 2.447" fill="#A9C14B"/><path d="M127.974 409.698c-25.887-33.629-41.291-75.749-41.291-121.475 0-68.057 34.11-128.134 86.154-164.084l.003-.001c2.123 4.172 6.524 15.707 6.575 16.775.356 7.401-4.69 10.327-8.43 17.362a61.755 61.755 0 0 0-.804 1.566c-42.07 36.537-68.673 90.428-68.673 150.537 0 36.166 9.631 70.08 26.466 99.32m294.082-257.75c-2.446-1.88-5.058-3.373-7.593-5.14.278.1.564.201.856.304a.384.384 0 0 0 .06.003c.122 0 .418-.007.848-.012.427-.006.98-.01 1.622-.01.685 0 3.021.006 3.846.025.06.167 2.309 2.53 2.38 2.724.663 1.799-.424 2.464.096 4.026l-2.115-1.92zM384.9 129.746a197.443 197.443 0 0 0-45.985-14.962c-.923-.845-1.848-1.2-2.747-1.2-.569 0-1.128.142-1.67.393a200.557 200.557 0 0 0-32.538-2.851c1.236-1.56.3-4.448 1.352-4.448 9.704 0 21.144-3.018 26.45-10.844-.714 0-4.651.026-8.136.026-2.99 0-5.646-.02-5.646-.091 0-1.85-.33-3.4-.347-4.58h.004a198.02 198.02 0 0 1 22.348 4.682c1.886.832 3.952 1.502 6.369 1.837.887.272 1.77.55 2.652.834l-13.263 9.641c.179 0 .36.01.545.025 5.674.484 13.502 8.187 18.713 8.187.835 0 1.601-.196 2.284-.654 6.97-4.675 5.254-9.048 7.138-11.512a198.326 198.326 0 0 1 22.449 11.072l.002.001.003.003c1.664 5.624 3.005 13.158.745 14.089a7.43 7.43 0 0 0-.722.352m-105.207-31.47a840.087 840.087 0 0 1-3.421-.006l-.593.001h-.005c-2.033 0-2.505-4.077-1.345-5.148.185-.17 1.801-.228 3.74-.228 3.687 0 8.547.205 6.993.226 6.975-.01 8.55-.393 8.853-3.992h.002c4.056.161 8.084.435 12.074.834h.002c.467 7.88-16.067 8.313-26.3 8.313m-23.128-3.647c-1.512-.343-4.365-1.311-7.482-2.272 1.326-.248 2.659-.48 3.994-.701l3.488 2.973" fill="#ACE2F4"/><path d="M353.556 116.048c-5.336 0-13.35-7.392-19.16-7.856 5.81.464 13.824 7.856 19.16 7.856.855 0 1.64-.19 2.338-.628 7.137-4.486 5.375-8.684 7.303-11.048a.022.022 0 0 0 .006.003c-1.929 2.363-.172 6.56-7.309 11.045-.698.44-1.483.628-2.338.628m-19.718-7.88l13.58-9.25c-4.528 3.083-9.053 6.167-13.58 9.25" fill="#AFC558"/><path d="M283.962 92.799l-.578.002c.228 0 .419 0 .578-.002" fill="#C7D79B"/><path d="M344.171 87.093c2.68-1.874 5.23-4.493 6.2-5.729-3.756-1.138-6.577-2.038-10.415-2.974-.28.087-2.37 1.128-2.64 1.222-5.205 1.817-5.967 2.006-5.113 5.283-2.022-.812-3.957-1.749-5.737-2.839h-24.931c14.848 16.367-11.328 16.33-23.806 16.296-.793-.003-1.531-.005-2.2-.003-2.044.006-2.52-4.077-1.356-5.148.538-.496 13.155-.034 10.774-.002 10.178-.014 8.902-.815 8.902-11.143-10.12 7.436-9.767 0-21.244 0-10.764 0-16.044.59-25.486 4.82l9.223 7.831c-3.871-.875-16.499-5.812-19.95-4.347-1.606.683-2.02 4.949-4.006 4.949-8.02 0-29.844 4.371-29.844-4.793 0-.042-.758-.772-1.01-.807-19.8 8.442-37.357 19.864-53.576 33.525 10.378-1.704 21.18-.515 23.33-.515.957 0 7.55 16.962 7.613 18.269.357 7.4-4.708 10.327-8.463 17.36-6.836 12.811-9.854 29.589-9.09 43.974.028.52 8.609 8.215 8.609 11.265 0 12.771 1.342 12.977 10.144 22.386V220.31c5.249 13.714 11.593 18.991 16.334 32.408 5.379 15.225 26.636 3.532 33.859 13.56 3.18 4.417 9.115 2.392 11.949 6.702l7.69 11.7c4.636 7.051 10.289 4.607 18.572 4.607 7.957 0-7.241 27.396-7.241 29.704 0 9.5 13.01 31.124 12.929 34.928-.242 11.278 13.89 12.86 21.563 19.806 6.144 5.601 1.763 21.47 1.572 28.506-.162 5.933 1.12 11.258 2.94 16.376 1.675 4.713 3.8 9.248 5.706 13.908.332.816.66 1.635.976 2.46.137.36.264.727.398 1.09.253.69.499 1.384.734 2.082a57.445 57.445 0 0 1 1.015 3.366c.097.352.196.703.285 1.058.273 1.092.521 2.195.717 3.323 1.008 5.772-1.217 12 .071 17.531 1.324 5.683 6.218 9.22 6.146 15.501-.113 9.703 27.262 11.526 32.565 11.526-.025-.017-19.984-10.33-19.984-9.093 0-9.208 4.754-8.568 4.757-14.184.002-6.67-6.074-12.165-2.279-21.604 4.104-10.207 3.64-9.897 14.738-9.897a65.892 65.892 0 0 0-2.15-13.856c9.917-15.404 32.989-30.227 39.097-34.382 8.295-5.651 3.65-20.9 7.239-29.024 3.153-7.141 12.714-13.738 13.175-22.524a9.68 9.68 0 0 0-.022-1.317l-.04-.3a7.496 7.496 0 0 0-.155-.91l-.067-.246a6.936 6.936 0 0 0-.304-.87l-.057-.13a6.287 6.287 0 0 0-.498-.891c-1.917-2.833-5.89-3.626-9.362-3.51-4.902.165-5.39-8.006-9.098-8.006-10.303 0-20.999-1.749-29.925-8.338-1.478-1.09-3.133-14.196-5.66-17.443-1.698-2.184-5.147-1.542-8.794-.902-4.122.725-8.499 1.45-10.883-1.908-1.7-2.392-5.715-11.77-8.458-11.77-3.736 0-24.312-3.988-28.636-.087.666-.6-7.021-2.925-8.115-2.925.47 0-26.442 13.892-26.442 6.679 0-9.352 4.577-21.438-6.552-21.438-17.89 0-2.67-4.635-2.67-12.803 0-10.477-17.325 2.875-26.453 2.885.242 0-10.277-17.19-5.234-17.19 3.62 0 4.184-7.35 6.87-10.48 7.067-8.233 19.134-9.095 27.628-7.547 3.439.63 15.906 15.042 15.941 18.014-.008-.709 5.082-3.952 5.769-5.002 2.458-3.756 1.069-5.377 1.684-9.138 2.06-12.626 2.584-15.124 12.69-22.797 7.428-5.638 17.806-12.113 23.634-19.41 4.445-5.567 8.606-8.46 15.067-11.624-.66.323 6.138 4.127 7.561 4.127 5.843 0 7.254-4.92 10.453-9.338H333.2c11.453-8.727-9.278-13.252 13.68-13.252 11.276 0 12.317.152 19.215-7.831-10.968 0-8.302-.072-8.302-11.205 0-1.852-3.1-8.65-6.058-5.751-8.091 7.927-7.8-1.452-11.342-6.722-4.58-6.817-9.521.199-11.432 4.332-2.369 5.123-21.834 13.136-21.791 19.828.026 3.92-6.401 3.761-6.284-.61.178-6.56-22.57-12.828-22.946-15.389-.495-3.382 11.26-12.497 21.484-12.497 4.696 0 2.396-5.42 3.843-5.42 9.741 0 21.225-3.018 26.55-10.844-1.329 0-13.834.09-13.834-.065 0-4.449-1.907-7.163 3.21-7.163 12.014 0 15.573 9.336 28.764 9.336-4.716 3.413-9.428 6.828-14.143 10.24 6.62 0 16.534 10.958 21.624 7.558 9.396-6.277 3.062-12.015 10.874-13.307.837.876 1.963 1.718 3.834 2.376 2.442.86 11.236 2.427 12.73 4.65 1.8 2.68 6.377 18.553 3.015 19.933-5.458 2.241-21.445 19.503-9.217 23.812 9.45 3.329 11.874-.87 20.284-6.112 7.817-4.875 9.944-3.083 18.744.017.015.006.352-.002.912-.01a99.712 99.712 0 0 1 4.937.046c2.486.092 5.16-1.86 6.686-1.322 4.423 1.559 6.018 2.713 6.75 1.685.498-.698.597-3.578.911-3.466 3.098 1.09 9.068 4.057 12.953 2.364-23.204-26.41-50.203-47.433-83.788-60-5.712-.75-14.286-.437-20.892.609z" fill="#00B364"/><path d="M272.18 234.104c-1.47 1.533-2.942 3.064-4.413 4.597 13.727 0 22.082 4.595 34.259 4.595-8.172-13.291-14.577-9.192-29.845-9.192m44.405 11.682c-10.252-.364-10.729 1.466-17.007 9.72 5.401 0 10.804.017 16.206.025 4.685.007 4.035-9.63.801-9.745m17.252 12.192c0-16.517-16.518 0 0 0" fill="#00B364"/><path d="M424.171 153.868c-2.261-1.773-2.238-4.947-2.238-6.365 2.485.058 4.171-.383 6.01.088 12.37 12.181 24.882 27.617 33.702 42.592-10.772-13.678-23.476-25.795-37.474-36.315z" fill="#ACE2F4"/><path d="M349.145 491.586c-5.327 0-32.83-1.829-32.717-11.562.073-6.303-4.844-9.85-6.174-15.552-1.294-5.549.941-11.796-.071-17.587a46.396 46.396 0 0 0-.72-3.333c-.09-.357-.19-.708-.288-1.061-.2-.743-.413-1.48-.642-2.21a74.5 74.5 0 0 0-.376-1.167c-.237-.7-.484-1.397-.738-2.09-.135-.363-.262-.73-.4-1.092a124.86 124.86 0 0 0-.98-2.468c-1.915-4.671-4.047-9.22-5.73-13.94 42.85-17.647 78.761-48.594 102.537-87.674.187.277.351.575.498.892l.057.13c.12.276.22.567.306.873l.067.246c.07.29.12.596.156.914l.04.3c.034.42.047.856.022 1.322-.463 8.814-10.069 15.432-13.237 22.596-3.605 8.15 1.062 23.448-7.272 29.117-6.137 4.168-29.316 19.039-39.28 34.492a66.015 66.015 0 0 1 2.161 13.9h-1.8c-9.311 0-9.12.276-13.006 9.929-3.813 9.47 2.292 14.982 2.29 21.674-.003 5.633-4.78 4.991-4.78 14.229 0-.07.065-.104.185-.104 2.02 0 19.868 9.21 19.892 9.226m79.728-343.466a7.655 7.655 0 0 0-.606-.182c-1.822-.475-3.873-.376-6.334-.435-5.43-14.931-15.089-31.584-23.532-44.77 18.48 11.35 37.253 26.14 51.54 43.588-1.633.71-3.99 1.182-5.991 1.182-2.784 0-5.57-.534-7.381-1.17a.176.176 0 0 0-.064-.012c-.268 0-.387.65-.85 1.3-.464.65-1.273 1.3-2.92 1.3-.967 0-2.22-.223-3.862-.8z" fill="#01A95F"/></g></svg>