<?xml version="1.0" encoding="UTF-8" standalone="no"?>
<!DOCTYPE svg PUBLIC "-//W3C//DTD SVG 1.1//EN" "http://www.w3.org/Graphics/SVG/1.1/DTD/svg11.dtd">
<svg width="360px" height="365px" version="1.1" xmlns="http://www.w3.org/2000/svg" xmlns:xlink="http://www.w3.org/1999/xlink" xml:space="preserve" xmlns:serif="http://www.serif.com/" style="fill-rule:evenodd;clip-rule:evenodd;stroke-linejoin:round;stroke-miterlimit:2;">
    <g transform="matrix(1,0,0,1,0,1)">
        <g>
            <path d="M173.074,364.149C78.593,364.149 2,287.555 2,193.073C2,98.59 78.593,22 173.074,22C267.556,22 344.149,98.59 344.149,193.073C344.149,287.555 267.556,364.149 173.074,364.149Z" style="fill:rgb(41,66,111);fill-rule:nonzero;"/>
            <path d="M65.412,294.698L67.892,306.548C70.812,308.352 73.695,310.154 76.655,311.938C78.436,310.768 81.135,309.345 82.72,308.23C85.078,306.572 85.386,304.444 83.505,302.559C81.753,300.252 79.858,298.194 77.989,295.956C76.119,293.716 74.181,291.379 72.313,289.109C70.006,290.964 67.706,292.827 65.413,294.699" style="fill:rgb(58,51,44);"/>
            <path d="M79.46,158.358C75.057,180.43 75.593,199.058 74.894,221.991C74.194,244.924 75.654,270.483 79.232,293.876C74.112,295.376 69.409,296.766 64.63,297.889C56.326,273.669 49.304,245.649 44.638,221.506C39.971,197.362 36.686,177.634 37.418,153.896C51.366,155.585 65.212,156.72 79.46,158.358" style="fill:rgb(110,98,85);"/>
            <path d="M18,192.529C18,107.185 87.185,38 172.53,38C257.873,38 327.058,107.185 327.058,192.529C327.058,277.873 257.873,347.058 172.529,347.058C87.185,347.058 18,277.873 18,192.528" style="fill:rgb(144,212,235);"/>
            <path d="M252.133,60.054C297.029,87.09 327.058,136.303 327.058,192.529C327.058,277.873 257.873,347.058 172.529,347.058C115.279,347.058 65.299,315.924 38.599,269.664C63.505,287.534 94.042,298.056 127.036,298.056C210.91,298.056 278.904,230.062 278.904,146.187C278.904,114.204 269.017,84.53 252.134,60.054L252.133,60.054Z" style="fill:rgb(105,190,219);"/>
            <path d="M207.65,43.268C210.608,43.798 213.535,44.381 216.43,45.024L207.65,43.268Z" style="fill:rgb(157,183,76);"/>
            <path d="M212.917,55.825C213.37,56.224 213.82,56.635 214.269,57.051L214.673,56.208C214.041,56.208 213.467,56.052 212.917,55.825M205.893,63.955C210.737,63.955 217.993,71.498 221.718,69.158C226.843,65.938 225.577,62.925 226.965,61.23C223.243,59.777 219.465,58.471 215.64,57.316L205.893,63.956M212.917,55.56C211.174,54.942 209.417,54.356 207.649,53.804C209.303,54.66 211.08,55.253 212.917,55.56" style="fill:rgb(169,193,75);"/>
            <path d="M58.167,280.33C39.591,256.198 28.537,225.973 28.537,193.16C28.537,144.323 53.014,101.212 90.36,75.415L90.362,75.414C91.886,78.407 95.044,86.685 95.08,87.451C95.335,92.763 91.715,94.862 89.03,99.911C88.834,100.281 88.642,100.655 88.454,101.034C58.264,127.253 39.175,165.924 39.175,209.059C39.175,235.011 46.086,259.347 58.167,280.329M269.197,95.369C267.442,94.021 265.567,92.949 263.749,91.681L264.363,91.9C264.366,91.9 264.38,91.902 264.406,91.902C264.493,91.902 264.706,91.897 265.015,91.894C265.321,91.889 265.719,91.886 266.179,91.886C266.669,91.886 268.347,91.89 268.939,91.904C268.982,92.024 270.595,93.72 270.647,93.859C271.123,95.149 270.342,95.627 270.715,96.748L269.197,95.369ZM242.534,79.439C232.016,74.521 220.934,70.915 209.536,68.702C208.873,68.096 208.209,67.841 207.564,67.841C207.156,67.841 206.754,67.943 206.366,68.123C198.651,66.807 190.842,66.123 183.016,66.077C183.904,64.957 183.233,62.885 183.987,62.885C190.951,62.885 199.16,60.72 202.967,55.104C202.455,55.104 199.63,55.122 197.129,55.122C194.983,55.122 193.077,55.108 193.077,55.057C193.077,53.73 192.841,52.617 192.828,51.771L192.831,51.771C198.237,52.582 203.591,53.703 208.868,55.131C210.322,55.783 211.86,56.227 213.438,56.449C214.075,56.644 214.708,56.844 215.341,57.047L205.824,63.966C205.952,63.966 206.083,63.972 206.215,63.984C210.287,64.331 215.904,69.858 219.643,69.858C220.243,69.858 220.793,69.718 221.283,69.389C226.284,66.034 225.053,62.896 226.405,61.129C231.937,63.435 237.317,66.088 242.514,69.073L242.516,69.074L242.517,69.076C243.711,73.112 244.674,78.518 243.052,79.186C242.892,79.253 242.719,79.336 242.534,79.439M167.038,56.856C166.22,56.856 165.401,56.855 164.583,56.852L164.154,56.852C162.696,56.852 162.357,53.927 163.189,53.158C163.322,53.036 164.482,52.995 165.873,52.995C168.519,52.995 172.006,53.142 170.891,53.157C175.896,53.149 177.026,52.875 177.244,50.292L177.245,50.292C180.155,50.408 183.046,50.604 185.909,50.891L185.911,50.891C186.246,56.546 174.381,56.856 167.038,56.856M150.442,54.239C149.357,53.993 147.31,53.299 145.072,52.609C146.024,52.431 146.981,52.264 147.939,52.106L150.442,54.239" style="fill:rgb(172,226,244);"/>
            <path d="M220.042,69.608C216.214,69.608 210.462,64.304 206.294,63.971C210.462,64.304 216.214,69.608 220.042,69.608C220.656,69.608 221.219,69.472 221.72,69.158C226.842,65.939 225.578,62.926 226.96,61.23L226.965,61.232C225.581,62.928 226.842,65.939 221.72,69.158C221.22,69.473 220.656,69.608 220.042,69.608M205.893,63.954L215.638,57.316L205.893,63.954" style="fill:rgb(175,197,88);"/>
            <path d="M170.102,52.925L169.688,52.927C169.851,52.927 169.988,52.927 170.102,52.925" style="fill:rgb(199,215,155);"/>
            <g>
                <path d="M213.308,48.83C215.231,47.486 217.061,45.606 217.757,44.72C215.062,43.903 213.037,43.257 210.283,42.585C210.082,42.648 208.583,43.395 208.389,43.462C204.654,44.767 204.107,44.902 204.719,47.253C203.269,46.671 201.88,45.998 200.603,45.216L182.713,45.216C193.368,56.961 174.583,56.935 165.63,56.91C165.06,56.908 164.53,56.906 164.05,56.908C162.584,56.912 162.242,53.982 163.078,53.213C163.464,52.858 172.518,53.189 170.809,53.213C178.113,53.202 177.197,52.627 177.197,45.216C169.936,50.552 170.188,45.216 161.953,45.216C154.229,45.216 150.439,45.64 143.663,48.674C145.87,50.548 148.075,52.421 150.283,54.294C147.504,53.667 138.443,50.124 135.967,51.175C134.814,51.665 134.517,54.726 133.092,54.726C127.337,54.726 111.676,57.863 111.676,51.286C111.676,51.256 111.132,50.733 110.952,50.708C96.743,56.766 84.144,64.962 72.505,74.765C79.953,73.542 87.705,74.395 89.247,74.395C89.933,74.395 94.664,86.568 94.71,87.505C94.966,92.815 91.331,94.915 88.637,99.963C83.732,109.156 81.566,121.196 82.114,131.518C82.134,131.891 88.292,137.413 88.292,139.602C88.292,148.766 89.255,148.914 95.572,155.666L95.572,144.426C99.337,154.266 103.89,158.054 107.292,167.682C111.152,178.607 126.406,170.216 131.589,177.412C133.871,180.582 138.129,179.129 140.163,182.222L145.683,190.618C149.009,195.678 153.065,193.924 159.009,193.924C164.719,193.924 153.813,213.583 153.813,215.239C153.813,222.055 163.149,237.573 163.091,240.303C162.917,248.396 173.059,249.531 178.564,254.516C182.973,258.536 179.829,269.922 179.693,274.971C179.576,279.229 180.496,283.05 181.803,286.723C183.004,290.104 184.528,293.359 185.897,296.703C186.135,297.288 186.37,297.876 186.597,298.468C186.695,298.727 186.787,298.99 186.882,299.25C187.064,299.746 187.24,300.243 187.409,300.745C187.677,301.542 187.92,302.348 188.137,303.16C188.207,303.413 188.279,303.664 188.342,303.92C188.538,304.702 188.716,305.494 188.857,306.303C189.58,310.446 187.983,314.914 188.907,318.883C189.857,322.962 193.37,325.499 193.317,330.007C193.237,336.97 212.881,338.277 216.686,338.277C216.668,338.267 202.346,330.865 202.346,331.753C202.346,325.145 205.758,325.605 205.759,321.575C205.761,316.788 201.401,312.845 204.124,306.071C207.069,298.748 206.736,298.97 214.7,298.97C214.541,295.61 214.024,292.277 213.157,289.027C220.273,277.973 236.83,267.337 241.213,264.354C247.165,260.299 243.833,249.357 246.407,243.527C248.67,238.403 255.531,233.669 255.862,227.364C255.878,227.049 255.873,226.733 255.846,226.419L255.818,226.204C255.794,225.984 255.757,225.765 255.706,225.55L255.658,225.374C255.599,225.161 255.526,224.953 255.44,224.75L255.399,224.656C255.298,224.433 255.178,224.219 255.042,224.016C253.666,221.984 250.814,221.415 248.324,221.499C244.806,221.617 244.456,215.754 241.795,215.754C234.401,215.754 226.726,214.499 220.321,209.77C219.261,208.988 218.072,199.583 216.26,197.253C215.04,195.686 212.566,196.147 209.95,196.606C206.991,197.126 203.85,197.646 202.139,195.236C200.92,193.521 198.038,186.791 196.069,186.791C193.389,186.791 178.624,183.929 175.521,186.728C175.999,186.298 170.483,184.629 169.698,184.629C170.035,184.629 150.723,194.599 150.723,189.422C150.723,182.711 154.008,174.038 146.021,174.038C133.183,174.038 144.105,170.712 144.105,164.851C144.105,157.333 131.673,166.914 125.123,166.921C125.297,166.921 117.748,154.585 121.367,154.585C123.964,154.585 124.37,149.311 126.297,147.066C131.367,141.158 140.027,140.539 146.123,141.65C148.59,142.101 157.537,152.444 157.562,154.576C157.556,154.068 161.208,151.741 161.702,150.987C163.466,148.292 162.469,147.129 162.91,144.429C164.388,135.369 164.764,133.577 172.017,128.071C177.347,124.025 184.793,119.379 188.976,114.143C192.166,110.148 195.152,108.072 199.788,105.801C199.314,106.033 204.192,108.762 205.213,108.762C209.407,108.762 210.419,105.232 212.715,102.062L205.435,102.062C213.654,95.799 198.777,92.552 215.251,92.552C223.343,92.552 224.091,92.662 229.041,86.932C221.171,86.932 223.083,86.881 223.083,78.892C223.083,77.563 220.859,72.685 218.736,74.765C212.93,80.453 213.138,73.723 210.597,69.941C207.311,65.05 203.764,70.084 202.393,73.05C200.693,76.727 186.726,82.476 186.756,87.279C186.775,90.091 182.163,89.978 182.246,86.841C182.375,82.133 166.05,77.635 165.781,75.798C165.426,73.371 173.861,66.83 181.198,66.83C184.568,66.83 182.918,62.94 183.956,62.94C190.946,62.94 199.186,60.775 203.008,55.159C202.054,55.159 193.08,55.223 193.08,55.112C193.08,51.92 191.712,49.972 195.384,49.972C204.005,49.972 206.559,56.672 216.024,56.672C212.64,59.121 209.259,61.572 205.876,64.021C210.626,64.021 217.74,71.883 221.393,69.444C228.135,64.939 223.59,60.822 229.196,59.894C229.796,60.524 230.605,61.127 231.947,61.6C233.7,62.217 240.011,63.34 241.083,64.937C242.374,66.86 245.658,78.25 243.246,79.24C239.329,80.848 227.856,93.235 236.632,96.328C243.413,98.716 245.152,95.703 251.188,91.942C256.797,88.443 258.323,89.729 264.638,91.953C264.649,91.958 264.891,91.953 265.293,91.947C266.058,91.937 267.403,91.927 268.835,91.98C270.619,92.046 272.538,90.645 273.633,91.03C276.807,92.15 277.952,92.977 278.477,92.24C278.834,91.74 278.905,89.672 279.131,89.753C281.354,90.535 285.638,92.664 288.426,91.449C271.774,72.498 252.4,57.411 228.3,48.394C224.2,47.856 218.048,48.08 213.308,48.83Z" style="fill:rgb(0,179,100);"/>
                <path d="M161.648,154.325L158.481,157.623C168.331,157.623 174.327,160.921 183.065,160.921C177.201,151.383 172.605,154.325 161.648,154.325M193.513,162.708C186.156,162.446 185.814,163.759 181.309,169.682C185.185,169.682 189.062,169.695 192.939,169.701C196.301,169.706 195.834,162.79 193.513,162.708M205.893,171.457C205.893,159.604 194.04,171.457 205.893,171.457" style="fill:rgb(0,179,100);"/>
            </g>
            <path d="M270.715,96.748C269.093,95.476 269.109,93.198 269.109,92.18C270.893,92.222 272.102,91.906 273.423,92.244C282.299,100.984 291.277,112.061 297.606,122.807C289.876,112.992 280.76,104.297 270.716,96.747L270.715,96.748Z" style="fill:rgb(172,226,244);"/>
            <path d="M216.877,339.091C213.054,339.091 193.319,337.78 193.4,330.795C193.452,326.272 189.924,323.726 188.97,319.635C188.04,315.653 189.645,311.17 188.918,307.015C188.775,306.212 188.603,305.414 188.401,304.623C188.337,304.367 188.265,304.115 188.195,303.861C188.052,303.33 187.898,302.801 187.734,302.276C187.646,301.996 187.557,301.716 187.464,301.438C187.294,300.936 187.117,300.436 186.934,299.938C186.838,299.678 186.747,299.414 186.648,299.155C186.42,298.562 186.186,297.972 185.945,297.384C184.571,294.032 183.04,290.768 181.833,287.381C212.581,274.717 238.351,252.511 255.413,224.466C255.547,224.666 255.665,224.879 255.77,225.106L255.811,225.2C255.897,225.398 255.969,225.606 256.031,225.827L256.078,226.003C256.128,226.21 256.165,226.431 256.191,226.659L256.219,226.874C256.244,227.175 256.253,227.488 256.235,227.823C255.903,234.148 249.01,238.896 246.736,244.037C244.149,249.886 247.498,260.863 241.518,264.931C237.114,267.923 220.481,278.593 213.331,289.683C214.201,292.943 214.721,296.287 214.881,299.658L213.589,299.657C206.909,299.657 207.046,299.855 204.257,306.782C201.52,313.577 205.901,317.533 205.9,322.335C205.898,326.378 202.47,325.917 202.47,332.545C202.47,332.495 202.517,332.472 202.603,332.472C204.053,332.472 216.86,339.081 216.877,339.092M274.089,92.623C273.946,92.574 273.801,92.53 273.655,92.493C272.347,92.152 270.875,92.223 269.109,92.18C265.213,81.466 258.282,69.516 252.223,60.054C265.484,68.198 278.956,78.811 289.208,91.332C288.036,91.842 286.344,92.18 284.908,92.18C282.911,92.18 280.911,91.797 279.612,91.341C279.597,91.335 279.582,91.332 279.566,91.332C279.374,91.332 279.288,91.798 278.956,92.265C278.623,92.732 278.043,93.198 276.86,93.198C276.167,93.198 275.267,93.038 274.09,92.623L274.089,92.623Z" style="fill:rgb(1,169,95);"/>
            <g transform="matrix(1,0,0,1,171.548,0.564)">
                <g>
                    <path id="b" d="M0.238,0.048C103.521,0.048 187.291,83.733 187.653,187.104L187.65,189.035C187.643,190.137 184.805,222.977 180.316,239.064C175.286,257.09 157.526,295.91 157.469,297.193L0.238,189.035L0.238,0.048Z" style="fill:rgb(220,140,1);fill-rule:nonzero;"/>
                    <path d="M0.238,0.048C103.521,0.048 187.291,83.733 187.653,187.104L187.65,189.035C187.643,190.137 184.805,222.977 180.316,239.064C175.286,257.09 157.526,295.91 157.469,297.193L0.238,189.035L0.238,0.048Z" style="fill:rgb(220,140,1);fill-rule:nonzero;"/>
                </g>
                <g transform="matrix(0.532459,0,0,0.58,83.6541,114.446)">
                    <g transform="matrix(1,0,0,1,-50,-50)">
                        <clipPath id="_clip1">
                            <rect x="0" y="0" width="100" height="100"/>
                        </clipPath>
                        <g clip-path="url(#_clip1)">
                            <g>
                                <path d="M89.222,92.111L89.222,95.444L53,95.444L53,92.111L89.222,92.111M93.889,87.444L48.333,87.444L48.333,92.778L42.222,92.778L42.222,100L100,100L100,92.889L93.889,92.889L93.889,87.444Z" style="fill:white;fill-rule:nonzero;"/>
                                <path d="M85,40.556C83,38.556 80.111,38.222 77.778,39.222L49.111,10.667C50.222,8.333 49.778,5.444 47.778,3.444L44.333,0L16.111,28.222L19.556,31.667C20.778,32.889 22.444,33.556 24.111,33.556C25,33.556 25.889,33.333 26.778,33L36.889,43.111L2.556,74.222C0.889,75.778 0,77.778 -0.111,80C-0.111,82.222 0.667,84.333 2.222,85.889C3.778,87.444 5.778,88.222 7.889,88.222L8.111,88.222C10.333,88.222 12.444,87.222 13.889,85.556L45,51.222L55.111,61.333C54,63.667 54.444,66.556 56.444,68.556L59.889,72L88.111,43.778L85,40.556ZM22.667,28.222L44.333,6.556L44.556,6.667C45.333,7.444 45.333,8.556 44.556,9.333L25.444,28.444C24.667,29.222 23.556,29.222 22.778,28.444L22.667,28.222ZM10.667,82.667C10,83.333 9.111,83.778 8.222,83.778C7.222,83.778 6.333,83.444 5.667,82.778C5,82.111 4.667,81.222 4.667,80.222C4.667,79.222 5.111,78.333 5.778,77.778L40.222,46.444L42,48.222L10.667,82.667ZM58.333,58L30.333,30L46.111,14.222L74.111,42.222L58.333,58ZM60.111,65.778L60,65.556C59.222,64.778 59.222,63.667 60,62.889L79.111,43.778C79.889,43 81,43 81.778,43.778L81.889,43.889L60.111,65.778Z" style="fill:white;fill-rule:nonzero;"/>
                            </g>
                        </g>
                    </g>
                </g>
                <g transform="matrix(1,0,0,1,-185.548,-3.564)">
                    <text x="239.485px" y="181.337px" style="font-family:'Arial-BoldMT', 'Arial', sans-serif;font-weight:700;font-size:30px;fill:white;">40%</text>
                </g>
            </g>
        </g>
    </g>
</svg>
