<svg height="15" viewBox="0 0 9 15" width="9" xmlns="http://www.w3.org/2000/svg"><path d="m.09383378 6.4521069 6.30006951-6.33650286c.15291431-.15413872.29192731-.15413872.44484162 0l6.30006949 6.33650286c.0556052.07006305.0834078.14012611.0834078.22420178 0 .18216395-.139013.32229006-.3058286.32229006-.0973091 0-.1668156-.02802522-.2224208-.09808828l-6.0776487-6.11089981-6.07764869 6.11230107c-.05560521.07006306-.12511171.09808828-.20851952.09808828-.0973091 0-.16681561-.02802522-.23632211-.09808828-.12511171-.15413872-.12511171-.29426484 0-.44980482z" fill="#616771" stroke="#616771" stroke-linejoin="round" transform="matrix(0 1 -1 0 8 1)"/></svg>