<svg height="41" viewBox="0 0 40 41" width="40" xmlns="http://www.w3.org/2000/svg"><path d="m24.3643987 35.807287v1.1972297c0 .9527251-.6944735 1.7452575-1.5981258 1.8801566l-.2928502 1.0876242c-.1589759.5901837-.6861064 1.0033123-1.2969084 1.0033123h-2.9034012c-.610802 0-1.1379325-.4131286-1.2969083-1.0033123l-.2844832-1.0876242c-.9120194-.1433303-1.6064929-.9274315-1.6064929-1.8885878v-1.1972297c0-.6407709.5103962-1.1550738 1.1462997-1.1550738h6.9865707c.6359034.0084312 1.1462996.5227341 1.1462996 1.163505zm5.3800778-16.1373081c0 2.7232761-1.0709953 5.1936164-2.8113626 7.0063234-1.3220098 1.3827161-2.1754591 3.1448359-2.4599422 5.0249925-.1255073.8093948-.8199808 1.4080096-1.6399615 1.4080096h-6.2167929c-.8116136 0-1.5144543-.5901837-1.6315944-1.3995784-.2928503-1.8801566-1.1546668-3.66757-2.4766765-5.0418549-1.7068988-1.7874134-2.76952689-4.2155977-2.79462834-6.8882866-.05857005-5.6151762 4.37601974-10.15959052 9.94854204-10.2017465 5.5641551-.04215598 10.0824164 4.4938272 10.0824164 10.0921409zm-8.8859139-6.1126167c0-.6239084-.502029-1.1382113-1.1295653-1.1382113-3.9827637 0-7.2292181 3.2628726-7.2292181 7.2845528 0 .6239085.502029 1.1382114 1.1295653 1.1382114.6191692 0 1.1295654-.5058717 1.1295654-1.1382114 0-2.7654321 2.2340292-5.0081301 4.9700874-5.0081301.6275363 0 1.1295653-.5058717 1.1295653-1.1382114zm-1.1295653-7.292984c.6191691 0 1.1295653-.50587173 1.1295653-1.13821138v-3.98795544c0-.62390846-.502029-1.13821138-1.1295653-1.13821138s-1.1295653.50587173-1.1295653 1.13821138v3.98795544c0 .63233965.5103961 1.13821138 1.1295653 1.13821138zm-13.29540226 13.3971695c0-.6239084-.50202903-1.1382114-1.12956533-1.1382114h-3.95766222c-.61916914 0-1.12956532.5058718-1.12956532 1.1382114 0 .6239085.50202903 1.1382114 1.12956532 1.1382114h3.95766222c.6275363 0 1.12956533-.5058717 1.12956533-1.1382114zm31.67803206-1.1382114h-3.9576622c-.6191692 0-1.1295654.5058718-1.1295654 1.1382114 0 .6239085.5020291 1.1382114 1.1295654 1.1382114h3.9576622c.6191691 0 1.1295653-.5058717 1.1295653-1.1382114 0-.6239084-.502029-1.1382114-1.1295653-1.1382114zm-29.37706565 10.6148751-2.80299544 2.8244504c-.44345898.4468534-.44345898 1.163505 0 1.6103584.21754591.2192111.51039618.3288166.7948793.3288166s.57733339-.1096055.7948793-.3288166l2.80299549-2.8244505c.4434589-.4468533.4434589-1.163505 0-1.6103583-.43509188-.4468534-1.15466683-.4468534-1.58975865 0zm21.19399235-18.6160795c.2844832 0 .5773334-.1096056.7948793-.3288166l2.8029955-2.8244505c.443459-.44685336.443459-1.16350497 0-1.61035833-.443459-.44685335-1.1546668-.44685335-1.5981258 0l-2.8029954 2.82445047c-.443459.44685336-.443459 1.16350497 0 1.61035836.225913.219211.5103962.3288166.8032464.3288166zm-21.19399235-.3372478c.21754591.2192111.51039618.3288166.7948793.3288166s.57733335-.1096055.79487935-.3288166c.4434589-.44685339.4434589-1.163505 0-1.61035835l-2.80299549-2.82445047c-.44345898-.44685336-1.15466678-.44685336-1.59812576 0s-.44345898 1.16350497 0 1.61035832zm21.98887165 18.9533273c-.4434589-.4468534-1.1546667-.4468534-1.5981257 0-.443459.4468533-.443459 1.163505 0 1.6103583l2.8029954 2.8244505c.2175459.2192111.5103962.3288166.7948793.3288166s.5773334-.1096055.7948793-.3288166c.443459-.4468534.443459-1.163505 0-1.6103584z" fill="#fff"/></svg>