<svg height="44" viewBox="0 0 138 44" width="138" xmlns="http://www.w3.org/2000/svg" xmlns:xlink="http://www.w3.org/1999/xlink"><linearGradient id="a" x1="113.842773%" x2="26.123047%" y1="7.080078%" y2="65.534668%"><stop offset="0" stop-color="#fff"/><stop offset="1" stop-color="#fff" stop-opacity="0"/></linearGradient><radialGradient id="b" cx="50%" cy="50%" gradientTransform="matrix(0 .984127 -1 0 1 .007936)" r="50.806452%"><stop offset="0" stop-color="#eee"/><stop offset="1" stop-color="#fff" stop-opacity="0"/></radialGradient><g fill="none" fill-rule="evenodd"><g fill-rule="nonzero" transform="translate(54.855 6.092)"><path d="m12.502 8.949c-.0506669.74733707-.2089987 1.4439968-.475 2.09s-.6459975 1.2064976-1.14 1.6815-1.10832966.8486653-1.843 1.121-1.58966179.4085-2.565.4085c-1.10200551 0-2.05832928-.1709983-2.869-.513s-1.48199734-.8233302-2.014-1.444-.93099867-1.364829-1.197-2.2325c-.26600133-.86767101-.399-1.82082814-.399-2.8595 0-1.06400532.1361653-2.03616226.4085-2.9165s.68399724-1.6371635 1.235-2.2705c.55100275-.6333365 1.23499591-1.12733156 2.052-1.482.81700408-.35466844 1.77649449-.532 2.8785-.532 1.67200836 0 2.97982861.41482919 3.9235 1.2445.9436714.82967082 1.5421654 2.01082567 1.7955 3.5435l-3.629.418c-.06333365-.29133479-.14566616-.5636654-.247-.817s-.23749915-.47183241-.4085-.6555c-.17100086-.18366759-.3831654-.32933279-.6365-.437-.2533346-.1076672-.55733156-.1615-.912-.1615-1.73534201 0-2.603 1.32365343-2.603 3.971 0 .73467034.0633327 1.35849743.19 1.8715.1266673.51300256.30716549.92783175.5415 1.2445.2343345.3166683.51299838.544666.836.684.32300161.139334.68083137.209 1.0735.209 1.33000665 0 2.08999905-.7219928 2.28-2.166zm1.7286833-8.607h3.648v10.469h6.004l-.323 3.097h-9.329zm11.3236834 0h3.648v13.566h-3.648zm17.0046833 13.566v-7.467l-2.413 7.467h-2.66l-2.413-7.505v7.505h-3.363v-13.566h4.237l2.907 9.082 2.926-9.082h4.218v13.566zm13.8316833-13.566 4.712 13.566h-3.781l-.779-2.603h-4.579l-.76 2.603h-3.667l4.712-13.566zm-3.534 8.056h2.793l-1.387-4.674zm10.9816834-4.959h-3.914v-3.097h11.476v3.097h-3.914v10.469h-3.648zm9.2526833-3.097h9.709v3.002h-6.156v2.166h5.776v3.002h-5.776v2.394h6.555l-.304 3.002h-9.804z" fill="#fff"/><path d="m12.502 27.949c-.0506669.7473371-.2089987 1.4439968-.475 2.09s-.6459975 1.2064976-1.14 1.6815-1.10832966.8486653-1.843 1.121-1.58966179.4085-2.565.4085c-1.10200551 0-2.05832928-.1709983-2.869-.513s-1.48199734-.8233302-2.014-1.444-.93099867-1.364829-1.197-2.2325-.399-1.8208281-.399-2.8595c0-1.0640053.1361653-2.0361623.4085-2.9165s.68399725-1.6371635 1.235-2.2705c.55100276-.6333365 1.23499592-1.1273316 2.052-1.482.81700409-.3546684 1.77649449-.532 2.8785-.532 1.67200836 0 2.97982862.4148292 3.9235 1.2445.9436714.8296708 1.5421654 2.0108257 1.7955 3.5435l-3.629.418c-.06333365-.2913348-.14566616-.5636654-.247-.817s-.23749914-.4718324-.4085-.6555c-.17100085-.1836676-.3831654-.3293328-.6365-.437s-.55733156-.1615-.912-.1615c-1.73534201 0-2.603 1.3236534-2.603 3.971 0 .7346703.0633327 1.3584974.19 1.8715s.3071655.9278318.5415 1.2445c.23433451.3166683.51299839.544666.836.684.32300162.139334.68083137.209 1.0735.209 1.33000665 0 2.08999905-.7219928 2.28-2.166zm1.7286833-8.607h3.648v4.921h4.408v-4.921h3.648v13.566h-3.648v-5.358h-4.408v5.358h-3.648zm20.4436834-.342c1.0640053 0 2.0076625.164665 2.831.494.8233374.329335 1.5168305.797997 2.0805 1.406s.9911652 1.3489956 1.2825 2.223.437 1.8556612.437 2.945c0 1.1020055-.1488319 2.0963289-.4465 2.983-.2976682.8866711-.7314972 1.6403302-1.3015 2.261-.5700029.6206698-1.2729959 1.0988317-2.109 1.4345-.8360042.3356683-1.792328.5035-2.869.5035-1.0640054 0-2.0076626-.164665-2.831-.494-.8233375-.329335-1.5168305-.797997-2.0805-1.406s-.9911652-1.3489956-1.2825-2.223-.437-1.8556612-.437-2.945c0-1.1020055.1488318-2.0963289.4465-2.983.2976681-.8866711.7314971-1.6403302 1.3015-2.261.5700028-.6206698 1.2729958-1.0988317 2.109-1.4345.8360041-.3356683 1.7923279-.5035 2.869-.5035zm-2.945 7.125c0 1.3046732.2406642 2.2958299.722 2.9735.4813357.6776701 1.2096618 1.0165 2.185 1.0165s1.7004976-.3388299 2.1755-1.0165c.4750023-.6776701.7125-1.6688268.7125-2.9735s-.2374977-2.2958299-.7125-2.9735c-.4750024-.6776701-1.2001618-1.0165-2.1755-1.0165s-1.7036643.3388299-2.185 1.0165c-.4813358.6776701-.722 1.6688268-.722 2.9735zm11.5896833-6.783h3.648v13.566h-3.648zm18.1636833 8.607c-.0506669.7473371-.2089986 1.4439968-.475 2.09-.2660013.6460032-.6459975 1.2064976-1.14 1.6815-.4940024.4750024-1.1083296.8486653-1.843 1.121-.7346703.2723347-1.5896618.4085-2.565.4085-1.1020055 0-2.0583292-.1709983-2.869-.513-.8106707-.3420017-1.4819973-.8233302-2.014-1.444-.5320026-.6206698-.9309986-1.364829-1.197-2.2325-.2660013-.867671-.399-1.8208281-.399-2.8595 0-1.0640053.1361653-2.0361623.4085-2.9165s.6839973-1.6371635 1.235-2.2705c.5510028-.6333365 1.2349959-1.1273316 2.052-1.482s1.7764945-.532 2.8785-.532c1.6720084 0 2.9798286.4148292 3.9235 1.2445s1.5421654 2.0108257 1.7955 3.5435l-3.629.418c-.0633336-.2913348-.1456661-.5636654-.247-.817-.1013338-.2533346-.2374991-.4718324-.4085-.6555-.1710008-.1836676-.3831654-.3293328-.6365-.437s-.5573315-.1615-.912-.1615c-1.735342 0-2.603 1.3236534-2.603 3.971 0 .7346703.0633327 1.3584974.19 1.8715s.3071655.9278318.5415 1.2445c.2343345.3166683.5129984.544666.836.684s.6808314.209 1.0735.209c1.3300067 0 2.0899991-.7219928 2.28-2.166zm1.7286834-8.607h9.709v3.002h-6.156v2.166h5.776v3.002h-5.776v2.394h6.555l-.304 3.002h-9.804z" fill="#00b364"/></g><circle cx="22" cy="22" fill="#74c9e6" fill-rule="nonzero" r="22"/><g fill="#00b364"><path d="m38 6.99235934-2.3333333 1.57906923-3.8890747-.78953461-2.3333334-.78953462-3.1109253.78953462-2.3333333-.78953462 1.5551839-3.1592704h3.1114828l3.0490524-1.54737465c2.3511705 1.18062308 4.4782608 2.77384168 6.2842809 4.70664505"/><path d="m1.45900657 14.6136199c2.07359146-5.8646925 6.5790488-10.58735471 12.31036983-12.96665541l1.8738304 1.26398261 4.6425075.78060975-.7741209 2.34127007-2.3212538.78005058-2.3212537 3.9013712-3.8689411 2.3401517-5.41607382.7806098v2.3407109l1.54768733 1.5601011v3.1213207l-2.32125373-1.5606604-2.32125373-1.5606603z"/><path d="m21.7142857 25.4881785-.7753249 3.8425165-3.1024114 3.0736827v2.3053997l-3.1018555 2.3053997v3.8419658l-2.3265306-.768283-1.5512057-3.8425165v-7.6844822l-3.87773629-.768283-1.55064988-3.0742334v-2.3053998l1.55064988-1.536566 2.32653061-2.3059504 1.55120568 3.0736827h5.4283862l2.3265306 3.8430672z"/><path d="m39.8207613 34.8337297-1.7997169-1.7666406v-3.0753547l-1.5663317-3.0759058-1.5657705-3.0759057v-3.0759058l-2.349217-1.5374019-3.1326635.769252-5.4813193-2.3072048-.7828853-5.3820086 2.349217-2.3066538h4.6984341l1.5657705 2.3066538 4.698434.7687009 4.6989952-1.5379529.0051422-.0028506c1.7748721 3.141485 2.7858621 6.7586718 2.7858621 10.6083059 0 4.7321378-1.527646 9.1130386-4.1239509 12.6908726z"/></g><g transform="translate(2 2)"><path d="m.00011883 19.9303133c.03743502 10.9367587 8.9147784 19.7914258 19.86075077 19.7914258 1.8326087 0 3.6065217-.2495652 5.2913043-.713913-.8204348.1030435-1.6578261.1995652-2.5056522.1565217-9.0834782-.4621739-18.14521735-8.26-18.42434779-19.2252174-.27879152-10.93964053 4.63486142-16.60122552 13.06279529-19.75639803.887823-.120496 1.7941589-.18273237 2.7150308-.18273237 11.045695 0 20 8.954305 20 20s-8.954305 20-20 20-20-8.954305-20-20c0-.0232374.00003963-.0464655.00011882-.0696842z" fill="url(#a)" fill-rule="nonzero" opacity=".575172"/><path d="m17.3487887.28571429c-9.78246199 1.22791836-17.3487887 9.55081318-17.3487887 19.63629511 0 10.9308132 8.88844549 19.7922763 19.8535128 19.7922763 1.8319298 0 3.6051858-.2487033 5.2893443-.7114474-.8201308.1026876-1.657212.198876-2.504724.1559812-9.0801136-.4605777-18.13849611-8.2314726-18.41752315-19.1588195-.27946166-10.93211303 4.66044697-16.57516484 13.12817875-19.71428571z" fill="#101b30" opacity=".101766"/></g><ellipse cx="30" cy="12.142857" fill="url(#b)" fill-rule="nonzero" opacity=".75" rx="8.857143" ry="9"/><g fill="#101b30" transform="translate(8.36 12.491689)"><path d="m18.7409228 13.0158544c0 2.80192-2.27128 5.0732-5.0732 5.0732-2.80148 0-5.07275996-2.27128-5.07275996-5.0732s2.27127996-.33308 5.07275996-.33308c2.80192 0 5.0732-2.46884 5.0732.33308"/><path d="m6.16836284 7.62629441c0-1.89992-1.18448-3.43948-2.64616-3.43948s-2.64616 1.53956-2.64616 3.43948c0 1.89948 1.18448 3.43947999 2.64616 3.43947999s2.64616-1.53999999 2.64616-3.43947999"/><path d="m26.6851228 7.62629441c0-1.89992-1.18448-3.43948-2.64616-3.43948s-2.64616 1.53956-2.64616 3.43948c0 1.89948 1.18448 3.43947999 2.64616 3.43947999s2.64616-1.53999999 2.64616-3.43947999"/><path d="m.90992284 2.63141441s.67584-.17996 1.65484-.37444c1.32308-.26224 3.20012-.55088 4.71328-.45584 2.63252.16456.74756-2.58368-3.79324-1.58004-4.54124 1.0032-3.74748 2.68488-2.57488 2.41032"/><path d="m25.9604428 2.63141441s-.6754-.17996-1.6544-.37444c-1.32308-.26224-3.20012-.55088-4.71328-.45584-2.63296.16456-.748-2.58368 3.79324-1.58004 4.5408 1.0032 3.74748 2.68488 2.57444 2.41032"/></g></g></svg>