<svg height="44" viewBox="0 0 138 44" width="138" xmlns="http://www.w3.org/2000/svg" xmlns:xlink="http://www.w3.org/1999/xlink"><linearGradient id="a" x1="113.842773%" x2="26.123047%" y1="7.080078%" y2="65.534668%"><stop offset="0" stop-color="#fff"/><stop offset="1" stop-color="#fff" stop-opacity="0"/></linearGradient><radialGradient id="b" cx="50%" cy="50%" r="50%"><stop offset="0" stop-color="#eee"/><stop offset="1" stop-color="#fff" stop-opacity="0"/></radialGradient><g fill="none" fill-rule="evenodd"><circle cx="22" cy="22" fill="#74c9e6" fill-rule="nonzero" r="22"/><g fill="#00b364"><path d="m38.0045438 6.89730961-2.3253593 1.54986921-3.875784-.7749346-2.3253593-.77493461-3.1002939.77493461-2.3253594-.77493461 1.5498692-3.10084943h3.1008495l3.0386324-1.51876072c2.3431356 1.1587911 4.4629567 2.72254802 6.2628048 4.61961015"/><path d="m1.28878622 14.5629742c2.09025514-5.82031091 6.56423375-10.50431421 12.24475698-12.87483112l1.9924532 1.33282699 4.6507186.77549011-.7754901 2.32591483-2.3253593.7749346-2.3253593 3.87578399-3.8757841 2.3248039-5.42565321.7754901v2.3253593l1.55042471 1.5498692v3.1008494l-2.32535932-1.5504247-2.32535931-1.5504247z"/><path d="m21.726862 25.5003508-.7749346 3.875784-3.1008495 3.100294v2.3253593l-3.1002939 2.3253593v3.8752285l-2.3253593-.7749346-1.5504247-3.875784v-7.7510126l-3.87578405-.7749346-1.54986921-3.1008494v-2.3253593l1.54986921-1.5498692 2.32535932-2.3259149 1.55042473 3.100294h5.4256532l2.3253593 3.8763395z"/><path d="m39.7514706 34.9981043-1.7469268-1.7464632v-3.1002939l-1.5504247-3.1008494-1.5498692-3.1008495v-3.1008494l-2.3253593-1.5498692-3.1008494.7754901-5.4256533-2.3259148-.7749346-5.4256532 2.3253594-2.32535937h4.6507186l1.5498692 2.32535937 4.6507186.7749346 4.6512742-1.5504248.1970774-.1112686c1.7196334 3.1354636 2.6975293 6.7354854 2.6975293 10.563907 0 4.8624154-1.5774559 9.3563963-4.2485294 12.9981043z"/></g><g transform="translate(2 2)"><path d="m.00011883 19.9303133c.03743502 10.9367587 8.9147784 19.7914258 19.86075077 19.7914258 1.8326087 0 3.6065217-.2495652 5.2913043-.713913-.8204348.1030435-1.6578261.1995652-2.5056522.1565217-9.0834782-.4621739-18.14521735-8.26-18.42434779-19.2252174-.27879152-10.93964053 4.63486142-16.60122552 13.06279529-19.75639803.887823-.120496 1.7941589-.18273237 2.7150308-.18273237 11.045695 0 20 8.954305 20 20s-8.954305 20-20 20-20-8.954305-20-20c0-.0232374.00003963-.0464655.00011882-.0696842z" fill="url(#a)" fill-rule="nonzero" opacity=".575172"/><path d="m17.3552174.15652174c-9.78608697 1.23217391-17.3552174 9.58391304-17.3552174 19.70434786 0 10.9686956 8.89173913 19.8608695 19.8608696 19.8608695 1.8326087 0 3.6065217-.2495652 5.2913043-.713913-.8204348.1030435-1.6578261.1995652-2.5056522.1565217-9.0834782-.4621739-18.14521735-8.26-18.42434779-19.2252174-.27956521-10.96999997 4.66217392-16.63260866 13.13304349-19.78260866z" fill="#101b30" opacity=".101766"/></g><circle cx="30" cy="12" fill="url(#b)" fill-rule="nonzero" opacity=".75" r="9"/><g fill="#101b30" transform="translate(6.963087 11.315428)"><path d="m10.0453043 6.1887463c0-2.37026087-2.24882604 2.15797826-5.02265213 2.15797826-2.77382608 0-5.02265217-4.52823913-5.02265217-2.15797826 0 2.36980434 1.19517391 5.3691522 5.02265217 5.3691522 3.73389131 0 5.02265213-2.99934786 5.02265213-5.3691522"/><path d="m1.09747826 2.18094195s.71628261-.11458696 1.7261087-.34376087c1.36454347-.30997826 3.2655-.82904348 4.65971739-1.55765218 2.4255-1.26776087 1.79915217 2.13241305-2.92813044 3.09886957-4.72773913.96645652-4.68573913-.96234783-3.45769565-1.19745652"/><path d="m19.2912391 6.1887463c0-2.37026087 2.2488261 2.15797826 5.0226522 2.15797826s5.0226522-4.52823913 5.0226522-2.15797826c0 2.36980434-1.1951739 5.3691522-5.0226522 5.3691522-3.7338913 0-5.0226522-2.99934786-5.0226522-5.3691522"/><path d="m28.2390652 2.18094195s-.7162826-.11458696-1.7261087-.34376087c-1.3645435-.30997826-3.2655-.82904348-4.6597174-1.55765218-2.4255-1.26776087-1.7991521 2.13241305 2.9281305 3.09886957s4.6852826-.96234783 3.4576956-1.19745652"/><path d="m17.693413 19.0503333h-6.0502826c-.8788043 0-1.5978261-.7190218-1.5978261-1.5978261 0-.8788044.7190218-1.5978261 1.5978261-1.5978261h6.0502826c.8788044 0 1.5978261.7190217 1.5978261 1.5978261 0 .8788043-.7190217 1.5978261-1.5978261 1.5978261"/></g><g fill-rule="nonzero" transform="translate(54.855 6.092)"><path d="m12.502 8.949c-.0506669.74733707-.2089987 1.4439968-.475 2.09s-.6459975 1.2064976-1.14 1.6815-1.10832966.8486653-1.843 1.121-1.58966179.4085-2.565.4085c-1.10200551 0-2.05832928-.1709983-2.869-.513s-1.48199734-.8233302-2.014-1.444-.93099867-1.364829-1.197-2.2325c-.26600133-.86767101-.399-1.82082814-.399-2.8595 0-1.06400532.1361653-2.03616226.4085-2.9165s.68399724-1.6371635 1.235-2.2705c.55100275-.6333365 1.23499591-1.12733156 2.052-1.482.81700408-.35466844 1.77649449-.532 2.8785-.532 1.67200836 0 2.97982861.41482919 3.9235 1.2445.9436714.82967082 1.5421654 2.01082567 1.7955 3.5435l-3.629.418c-.06333365-.29133479-.14566616-.5636654-.247-.817s-.23749915-.47183241-.4085-.6555c-.17100086-.18366759-.3831654-.32933279-.6365-.437-.2533346-.1076672-.55733156-.1615-.912-.1615-1.73534201 0-2.603 1.32365343-2.603 3.971 0 .73467034.0633327 1.35849743.19 1.8715.1266673.51300256.30716549.92783175.5415 1.2445.2343345.3166683.51299838.544666.836.684.32300161.139334.68083137.209 1.0735.209 1.33000665 0 2.08999905-.7219928 2.28-2.166zm1.7286833-8.607h3.648v10.469h6.004l-.323 3.097h-9.329zm11.3236834 0h3.648v13.566h-3.648zm17.0046833 13.566v-7.467l-2.413 7.467h-2.66l-2.413-7.505v7.505h-3.363v-13.566h4.237l2.907 9.082 2.926-9.082h4.218v13.566zm13.8316833-13.566 4.712 13.566h-3.781l-.779-2.603h-4.579l-.76 2.603h-3.667l4.712-13.566zm-3.534 8.056h2.793l-1.387-4.674zm10.9816834-4.959h-3.914v-3.097h11.476v3.097h-3.914v10.469h-3.648zm9.2526833-3.097h9.709v3.002h-6.156v2.166h5.776v3.002h-5.776v2.394h6.555l-.304 3.002h-9.804z" fill="#fff"/><path d="m12.502 27.949c-.0506669.7473371-.2089987 1.4439968-.475 2.09s-.6459975 1.2064976-1.14 1.6815-1.10832966.8486653-1.843 1.121-1.58966179.4085-2.565.4085c-1.10200551 0-2.05832928-.1709983-2.869-.513s-1.48199734-.8233302-2.014-1.444-.93099867-1.364829-1.197-2.2325-.399-1.8208281-.399-2.8595c0-1.0640053.1361653-2.0361623.4085-2.9165s.68399725-1.6371635 1.235-2.2705c.55100276-.6333365 1.23499592-1.1273316 2.052-1.482.81700409-.3546684 1.77649449-.532 2.8785-.532 1.67200836 0 2.97982862.4148292 3.9235 1.2445.9436714.8296708 1.5421654 2.0108257 1.7955 3.5435l-3.629.418c-.06333365-.2913348-.14566616-.5636654-.247-.817s-.23749914-.4718324-.4085-.6555c-.17100085-.1836676-.3831654-.3293328-.6365-.437s-.55733156-.1615-.912-.1615c-1.73534201 0-2.603 1.3236534-2.603 3.971 0 .7346703.0633327 1.3584974.19 1.8715s.3071655.9278318.5415 1.2445c.23433451.3166683.51299839.544666.836.684.32300162.139334.68083137.209 1.0735.209 1.33000665 0 2.08999905-.7219928 2.28-2.166zm1.7286833-8.607h3.648v4.921h4.408v-4.921h3.648v13.566h-3.648v-5.358h-4.408v5.358h-3.648zm20.4436834-.342c1.0640053 0 2.0076625.164665 2.831.494.8233374.329335 1.5168305.797997 2.0805 1.406s.9911652 1.3489956 1.2825 2.223.437 1.8556612.437 2.945c0 1.1020055-.1488319 2.0963289-.4465 2.983-.2976682.8866711-.7314972 1.6403302-1.3015 2.261-.5700029.6206698-1.2729959 1.0988317-2.109 1.4345-.8360042.3356683-1.792328.5035-2.869.5035-1.0640054 0-2.0076626-.164665-2.831-.494-.8233375-.329335-1.5168305-.797997-2.0805-1.406s-.9911652-1.3489956-1.2825-2.223-.437-1.8556612-.437-2.945c0-1.1020055.1488318-2.0963289.4465-2.983.2976681-.8866711.7314971-1.6403302 1.3015-2.261.5700028-.6206698 1.2729958-1.0988317 2.109-1.4345.8360041-.3356683 1.7923279-.5035 2.869-.5035zm-2.945 7.125c0 1.3046732.2406642 2.2958299.722 2.9735.4813357.6776701 1.2096618 1.0165 2.185 1.0165s1.7004976-.3388299 2.1755-1.0165c.4750023-.6776701.7125-1.6688268.7125-2.9735s-.2374977-2.2958299-.7125-2.9735c-.4750024-.6776701-1.2001618-1.0165-2.1755-1.0165s-1.7036643.3388299-2.185 1.0165c-.4813358.6776701-.722 1.6688268-.722 2.9735zm11.5896833-6.783h3.648v13.566h-3.648zm18.1636833 8.607c-.0506669.7473371-.2089986 1.4439968-.475 2.09-.2660013.6460032-.6459975 1.2064976-1.14 1.6815-.4940024.4750024-1.1083296.8486653-1.843 1.121-.7346703.2723347-1.5896618.4085-2.565.4085-1.1020055 0-2.0583292-.1709983-2.869-.513-.8106707-.3420017-1.4819973-.8233302-2.014-1.444-.5320026-.6206698-.9309986-1.364829-1.197-2.2325-.2660013-.867671-.399-1.8208281-.399-2.8595 0-1.0640053.1361653-2.0361623.4085-2.9165s.6839973-1.6371635 1.235-2.2705c.5510028-.6333365 1.2349959-1.1273316 2.052-1.482s1.7764945-.532 2.8785-.532c1.6720084 0 2.9798286.4148292 3.9235 1.2445s1.5421654 2.0108257 1.7955 3.5435l-3.629.418c-.0633336-.2913348-.1456661-.5636654-.247-.817-.1013338-.2533346-.2374991-.4718324-.4085-.6555-.1710008-.1836676-.3831654-.3293328-.6365-.437s-.5573315-.1615-.912-.1615c-1.735342 0-2.603 1.3236534-2.603 3.971 0 .7346703.0633327 1.3584974.19 1.8715s.3071655.9278318.5415 1.2445c.2343345.3166683.5129984.544666.836.684s.6808314.209 1.0735.209c1.3300067 0 2.0899991-.7219928 2.28-2.166zm1.7286834-8.607h9.709v3.002h-6.156v2.166h5.776v3.002h-5.776v2.394h6.555l-.304 3.002h-9.804z" fill="#00b364"/></g></g></svg>