<svg width="141" height="50" xmlns="http://www.w3.org/2000/svg"><defs><linearGradient x1="113.843%" y1="7.08%" x2="26.123%" y2="65.535%" id="a"><stop stop-color="#FFF" offset="0%"/><stop stop-color="#FFF" stop-opacity="0" offset="100%"/></linearGradient><radialGradient cx="50%" cy="50%" fx="50%" fy="50%" r="50%" id="b"><stop stop-color="#EEE" offset="0%"/><stop stop-color="#FFF" stop-opacity="0" offset="100%"/></radialGradient></defs><g fill="none" fill-rule="evenodd"><circle fill="#16243E" fill-rule="nonzero" cx="25" cy="25" r="25"/><circle fill="#74C9E6" fill-rule="nonzero" cx="25" cy="25" r="22"/><path d="M41.005 9.897l-2.326 1.55-3.876-.775-2.325-.775-3.1.775-2.326-.775 1.55-3.1h3.101l3.039-1.52a22.196 22.196 0 0 1 6.263 4.62M4.289 17.563A22.069 22.069 0 0 1 16.534 4.688l1.992 1.333 4.65.775-.775 2.326-2.325.775-2.325 3.876-3.876 2.325-5.426.775V19.2l1.55 1.55v3.1L7.674 22.3l-2.325-1.55-1.06-3.186zM24.727 28.5l-.775 3.876-3.1 3.1v2.326l-3.101 2.325v3.875l-2.326-.775-1.55-3.875V31.6l-3.876-.775-1.55-3.101V25.4L10 23.85l2.326-2.326 1.55 3.1h5.426l2.325 3.876zm18.024 9.498l-1.746-1.746v-3.1l-1.55-3.102-1.55-3.1v-3.101l-2.326-1.55-3.101.775-5.426-2.325-.775-5.426 2.326-2.326h4.65l1.55 2.326 4.651.775 4.651-1.55.197-.112A21.901 21.901 0 0 1 47 25c0 4.862-1.577 9.356-4.249 12.998z" fill="#00B364"/><path d="M0 19.93c.038 10.937 8.915 19.792 19.86 19.792 1.833 0 3.607-.25 5.292-.714-.82.103-1.658.2-2.505.156-9.084-.462-18.146-8.26-18.425-19.225C3.943 9 8.857 3.338 17.285.183A20.18 20.18 0 0 1 20 0c11.046 0 20 8.954 20 20s-8.954 20-20 20S0 31.046 0 20v-.07z" fill="url(#a)" fill-rule="nonzero" opacity=".575" transform="translate(5 5)"/><path d="M22.355 5.157C12.57 6.389 5 14.74 5 24.86c0 10.969 8.892 19.86 19.86 19.86 1.833 0 3.607-.249 5.292-.713-.82.103-1.658.2-2.505.156-9.084-.462-18.146-8.26-18.425-19.225-.28-10.97 4.662-16.632 13.133-19.782z" fill="#101B30" opacity=".102"/><circle fill="url(#b)" fill-rule="nonzero" opacity=".75" cx="33" cy="15" r="9"/><path d="M20.008 20.504c0-2.37-2.248 2.158-5.022 2.158s-5.023-4.528-5.023-2.158c0 2.37 1.195 5.37 5.023 5.37 3.734 0 5.022-3 5.022-5.37m-8.948-4.008s.717-.114 1.727-.343c1.364-.31 3.265-.83 4.66-1.558 2.425-1.268 1.799 2.132-2.929 3.099-4.727.966-4.685-.963-3.457-1.198m18.193 4.008c0-2.37 2.25 2.158 5.023 2.158 2.774 0 5.023-4.528 5.023-2.158 0 2.37-1.196 5.37-5.023 5.37-3.734 0-5.023-3-5.023-5.37m8.948-4.008s-.716-.114-1.726-.343c-1.364-.31-3.265-.83-4.66-1.558-2.425-1.268-1.799 2.132 2.928 3.099 4.728.966 4.686-.963 3.458-1.198m-10.545 16.87h-6.05a1.603 1.603 0 0 1-1.599-1.598c0-.879.72-1.598 1.598-1.598h6.05c.88 0 1.598.72 1.598 1.598 0 .879-.719 1.598-1.598 1.598" fill="#101B30"/><g fill-rule="nonzero"><path d="M69.357 18.041a6.63 6.63 0 0 1-.475 2.09 4.886 4.886 0 0 1-1.14 1.681c-.494.476-1.108.85-1.843 1.121-.735.273-1.59.409-2.565.409-1.102 0-2.058-.171-2.869-.513a5.336 5.336 0 0 1-2.014-1.444c-.532-.62-.931-1.365-1.197-2.233-.266-.867-.399-1.82-.399-2.859 0-1.064.136-2.036.408-2.917.273-.88.684-1.637 1.235-2.27a5.666 5.666 0 0 1 2.052-1.482c.818-.355 1.777-.532 2.879-.532 1.672 0 2.98.415 3.923 1.244.944.83 1.543 2.011 1.796 3.544l-3.629.418a5.133 5.133 0 0 0-.247-.817 2.089 2.089 0 0 0-.409-.656 1.838 1.838 0 0 0-.636-.437 2.325 2.325 0 0 0-.912-.161c-1.735 0-2.603 1.324-2.603 3.971 0 .735.063 1.358.19 1.871.127.514.307.928.541 1.245.235.317.513.545.836.684.324.14.681.209 1.074.209 1.33 0 2.09-.722 2.28-2.166h3.724zm1.729-8.607h3.648v10.469h6.004L80.415 23h-9.33V9.434zm11.323 0h3.648V23H82.41V9.434zM99.414 23v-7.467L97.001 23h-2.66l-2.413-7.505V23h-3.363V9.434h4.237l2.907 9.082 2.926-9.082h4.218V23h-3.439zm13.832-13.566L117.958 23h-3.781l-.78-2.603h-4.578l-.76 2.603h-3.667l4.712-13.566h4.142zm-3.534 8.056h2.793l-1.387-4.674-1.406 4.674zm10.981-4.959h-3.914V9.434h11.476v3.097h-3.914V23h-3.648V12.531zm9.253-3.097h9.71v3.002h-6.157v2.166h5.776v3.002H133.5v2.394h6.555L139.75 23h-9.804V9.434z" fill="#16243E"/><path d="M69.357 37.041a6.63 6.63 0 0 1-.475 2.09 4.886 4.886 0 0 1-1.14 1.681c-.494.476-1.108.85-1.843 1.122-.735.272-1.59.408-2.565.408-1.102 0-2.058-.171-2.869-.513a5.336 5.336 0 0 1-2.014-1.444c-.532-.62-.931-1.365-1.197-2.232-.266-.868-.399-1.821-.399-2.86 0-1.064.136-2.036.408-2.916.273-.88.684-1.638 1.235-2.271a5.666 5.666 0 0 1 2.052-1.482c.818-.355 1.777-.532 2.879-.532 1.672 0 2.98.415 3.923 1.245.944.83 1.543 2.01 1.796 3.543l-3.629.418a5.133 5.133 0 0 0-.247-.817 2.089 2.089 0 0 0-.409-.655 1.838 1.838 0 0 0-.636-.437 2.325 2.325 0 0 0-.912-.162c-1.735 0-2.603 1.324-2.603 3.971 0 .735.063 1.358.19 1.872.127.513.307.927.541 1.244.235.317.513.545.836.684.324.14.681.209 1.074.209 1.33 0 2.09-.722 2.28-2.166h3.724zm1.729-8.607h3.648v4.921h4.408v-4.921h3.648V42h-3.648v-5.358h-4.408V42h-3.648V28.434zm20.443-.342c1.064 0 2.008.165 2.831.494a5.65 5.65 0 0 1 2.08 1.406c.565.608.992 1.349 1.283 2.223.292.874.437 1.856.437 2.945 0 1.102-.148 2.096-.446 2.983-.298.887-.732 1.64-1.302 2.261a5.7 5.7 0 0 1-2.109 1.434c-.836.336-1.792.504-2.869.504-1.064 0-2.007-.165-2.83-.494a5.654 5.654 0 0 1-2.081-1.406c-.564-.608-.991-1.349-1.283-2.223-.291-.874-.437-1.856-.437-2.945 0-1.102.15-2.096.447-2.983.298-.887.731-1.64 1.301-2.261a5.7 5.7 0 0 1 2.11-1.435c.835-.335 1.792-.503 2.868-.503zm-2.945 7.125c0 1.305.241 2.296.722 2.974.482.677 1.21 1.016 2.185 1.016.976 0 1.7-.339 2.176-1.017.475-.677.712-1.668.712-2.973s-.237-2.296-.712-2.974c-.475-.677-1.2-1.016-2.176-1.016-.975 0-1.703.339-2.185 1.016-.481.678-.722 1.67-.722 2.974zm11.59-6.783h3.648V42h-3.648V28.434zm18.164 8.607a6.63 6.63 0 0 1-.475 2.09 4.886 4.886 0 0 1-1.14 1.681c-.494.476-1.109.85-1.843 1.122-.735.272-1.59.408-2.565.408-1.102 0-2.059-.171-2.87-.513a5.336 5.336 0 0 1-2.013-1.444c-.532-.62-.931-1.365-1.197-2.232-.266-.868-.4-1.821-.4-2.86 0-1.064.137-2.036.41-2.916.272-.88.683-1.638 1.234-2.271a5.666 5.666 0 0 1 2.052-1.482c.817-.355 1.777-.532 2.879-.532 1.672 0 2.98.415 3.923 1.245.944.83 1.542 2.01 1.796 3.543l-3.63.418a5.133 5.133 0 0 0-.246-.817 2.089 2.089 0 0 0-.409-.655 1.838 1.838 0 0 0-.636-.437 2.325 2.325 0 0 0-.912-.162c-1.736 0-2.603 1.324-2.603 3.971 0 .735.063 1.358.19 1.872.126.513.307.927.541 1.244.235.317.513.545.836.684.323.14.681.209 1.074.209 1.33 0 2.09-.722 2.28-2.166h3.724zm1.728-8.607h9.71v3.002h-6.157v2.166h5.776v3.002h-5.776v2.394h6.555L129.87 42h-9.804V28.434z" fill="#00B364"/></g></g></svg>