<svg height="577" width="577" xmlns="http://www.w3.org/2000/svg"><g fill="none" fill-rule="evenodd"><g fill-rule="nonzero"><path d="M288.5 573.954C130.823 573.954 3 446.13 3 288.451S130.823 2.954 288.5 2.954 574 130.773 574 288.451 446.177 573.954 288.5 573.954z" fill="#1b2d4d" stroke="#f79b00" stroke-width="5"/><path d="M289 531C155.347 531 47 422.652 47 288.997S155.347 47 289 47s242 108.343 242 241.997S422.653 531 289 531z" fill="#fff"/><path d="M92.686 120.525l-7.493-8.323 2.098-1.89c1.848-1.663 3.946-2.667 5.803-.604 1.793 1.991.743 4.038-1.165 5.756l-.417.375 2.856 3.172zm-4.674-8.573l2.351 2.612.298-.269c1.133-1.02 1.683-1.968.727-3.03-.891-.989-1.826-.708-3.078.419zm8.377-3.764l.024-.022c-.408-1.1-.287-2.116.584-2.9.19-.172.368-.31.589-.4l1.199 1.402a2.245 2.245 0 0 0-.624.41c-1.073.967-.857 2.262.582 3.86l2.254 2.504-1.621 1.46-3.887-4.316c-.58-.644-1.193-1.301-1.702-1.77l1.502-1.354c.27.253.8.792 1.1 1.126zm4.71-6.615c1.871-1.686 4.332-1.59 6.092.365 1.729 1.92 1.566 4.376-.354 6.105-1.908 1.717-4.401 1.61-6.12-.298-1.781-1.98-1.586-4.4.381-6.172zm1.014 1.223c-.954.86-.86 2.114.32 3.425 1.085 1.205 2.38 1.443 3.297.616.954-.859.864-2.181-.274-3.445-1.138-1.264-2.377-1.465-3.343-.596zm2.628-6.36l-1.374-1.527 1.598-1.438 1.374 1.526zm7.85 10.852l-1.014-1.246c.083-.053.2-.137.26-.191.608-.548.463-1.021-.321-1.892l-5.722-6.355 1.597-1.439 5.916 6.57c1.32 1.467 1.317 2.83-.006 4.022a3.928 3.928 0 0 1-.71.53zm5.098-14.025l-4.114 3.704c.872.92 2.183.841 3.292-.157a4.444 4.444 0 0 0 1.337-2.111l1.205 1.29c-.3.723-.863 1.511-1.638 2.209-2.015 1.814-4.402 1.826-6.259-.237-1.664-1.848-1.638-4.29.21-5.954 1.776-1.6 3.65-1.365 5.647.853.086.095.257.309.32.403zm-5.126 2.628l2.695-2.426c-.902-1.002-1.789-.98-2.576-.271-.703.633-.894 1.668-.119 2.697zm7.53-10.989l.975 1.324a3.178 3.178 0 0 0-1.138.679c-1.204 1.084-1.052 2.524-.086 3.597.999 1.109 2.312 1.416 3.611.246.37-.333.638-.683.845-1.149l1.21 1.177c-.287.496-.603.889-1.128 1.361-2.039 1.836-4.457 1.811-6.175-.096-1.782-1.98-1.341-4.536.459-6.157.5-.45.937-.757 1.426-.982zm2.765-.525l-1.18 1.063-1.064-1.18 1.205-1.085-1.16-1.288 1.04-1.865 1.622 1.8 1.467-1.32 1.062 1.18-1.466 1.32 2.158 2.398c.837.93 1.392 1.186 2.167.488.19-.172.373-.4.498-.621l1.142 1.196c-.202.375-.552.777-.958 1.142-1.407 1.267-2.625 1.112-4.086-.51zm11.643-6.252l-4.114 3.704c.872.92 2.183.842 3.292-.157a4.444 4.444 0 0 0 1.337-2.11l1.205 1.29c-.3.722-.863 1.51-1.638 2.208-2.015 1.815-4.402 1.826-6.26-.237-1.663-1.848-1.637-4.29.21-5.953 1.777-1.6 3.651-1.365 5.648.852.086.096.256.31.32.403zm-5.126 2.629l2.695-2.426c-.902-1.002-1.789-.98-2.576-.272-.703.634-.894 1.669-.119 2.698zm6.501-15.44l6.463 7.178c.58.644 1.204 1.313 1.713 1.783l-1.454 1.31a18.477 18.477 0 0 1-1.002-1.041l-.024.021c.267 1.184-.002 2.204-.956 3.063-1.645 1.482-3.797 1.13-5.547-.813-1.707-1.896-1.838-4.175-.228-5.625.918-.826 1.937-.966 2.92-.642l.023-.021a48.904 48.904 0 0 1-1.57-1.673l-1.912-2.123zm.488 6.729c-.882.794-.68 2.146.35 3.29s2.343 1.475 3.237.67c.919-.827.752-2.21-.257-3.331-1.041-1.157-2.4-1.467-3.33-.63z" fill="#f79b00"/><path d="M120.67 123.531l1.276 1.418-2.376 2.075 6.31 7.007-1.72 1.548-6.309-7.008-2.263 2.104-1.277-1.419zm3.889 3.354l-1.186-1.196c.333-.888 1.058-1.823 1.79-2.483 1.924-1.732 3.569-1.428 4.954.11.422.47 1.21 1.392 1.632 1.861.66.733 1.455 1.52 1.859 1.895l-1.407 1.267a6.675 6.675 0 0 1-.467-.471 13.26 13.26 0 0 1-.463-.563l-.024.022c.207 1.076-.055 2.138-1.089 3.07-1.202 1.081-2.717 1.14-3.799-.063-1.169-1.298-.676-3.047 1.367-4.887.253-.227.6-.518.91-.754-.855-.95-1.678-.97-2.688-.06-.65.584-1.14 1.44-1.39 2.252zm4.945-1.276c-.25.182-.37.29-.55.452-1.274 1.147-1.733 2.04-1.084 2.76.487.542 1.106.528 1.72-.024.84-.757 1.061-1.914-.086-3.188zm2.607-6.265l.024-.022c-.41-1.11-.289-2.133.589-2.923.192-.174.371-.313.594-.405l1.208 1.415a2.24 2.24 0 0 0-.628.414c-1.082.974-.864 2.28.586 3.89l2.273 2.524-1.635 1.472-3.918-4.351c-.584-.65-1.202-1.311-1.716-1.785l1.515-1.364c.273.255.805.799 1.108 1.135zm5.874-5.441c-.853.768-.673 2.13.323 3.235s2.252 1.39 3.142.588c.913-.822.79-2.191-.184-3.273-.985-1.094-2.355-1.383-3.28-.55zm.65-2.566l1.49-1.342 5.141 5.71c1.667 1.85 1.838 4.047-.422 6.082-.841.757-1.756 1.385-2.832 1.81l-1.113-1.479c1.137-.284 2.034-.787 2.73-1.414 1.083-.974 1.276-2.258.075-3.592-.184-.205-.38-.421-.55-.66l-.024.023c.19.96-.003 2.026-.977 2.903-1.61 1.45-3.783 1.165-5.428-.662-1.731-1.923-1.874-4.233-.18-5.759.963-.866 2.01-.96 2.977-.634l.024-.022a19.52 19.52 0 0 1-.911-.964zm11.822-4.224l-4.146 3.734c.879.927 2.2.848 3.318-.159a4.48 4.48 0 0 0 1.348-2.128l1.215 1.3c-.302.73-.87 1.524-1.652 2.227-2.031 1.83-4.437 1.84-6.309-.239-1.677-1.863-1.651-4.323.212-6.001 1.79-1.613 3.68-1.376 5.692.86.087.096.259.31.322.406zm-5.166 2.65l2.716-2.446c-.909-1.01-1.803-.988-2.596-.274-.71.639-.902 1.682-.12 2.72zm4.848-6.63l-1.19 1.072-1.071-1.19 1.214-1.093-1.17-1.298 1.05-1.88 1.634 1.815 1.478-1.332 1.072 1.19-1.479 1.332 2.176 2.415c.844.938 1.403 1.196 2.184.493.193-.173.377-.404.503-.627l1.15 1.206c-.203.379-.556.784-.965 1.152-1.418 1.277-2.647 1.12-4.118-.514z" fill="#15243d"/></g><path d="M139.071 430.721c1.153 5.504 2.305 11.007 3.455 16.513 4.07 2.515 8.088 5.026 12.212 7.511 2.483-1.63 6.243-3.612 8.452-5.166 3.286-2.311 3.715-5.276 1.094-7.904-2.441-3.215-5.083-6.082-7.686-9.2a1802.949 1802.949 0 0 1-7.91-9.542 1680.747 1680.747 0 0 0-9.617 7.788" fill="#3a332c"/><path d="M158.648 240.725c-6.136 30.758-5.39 56.716-6.363 88.675-.976 31.96 1.058 67.576 6.044 100.175-7.133 2.092-13.688 4.027-20.347 5.594-11.573-33.753-21.358-72.8-27.861-106.444-6.503-33.646-11.08-61.139-10.06-94.217 19.436 2.352 38.731 3.934 58.587 6.217" fill="#6e6255"/><path d="M73 288.343C73 169.413 169.412 73 288.344 73c118.93 0 215.343 96.413 215.343 215.343 0 118.932-96.412 215.344-215.343 215.344C169.412 503.687 73 407.275 73 288.343" fill="#90d4eb"/><path d="M399.276 103.734c62.564 37.676 104.41 106.256 104.41 184.61 0 118.93-96.411 215.343-215.342 215.343-79.782 0-149.43-43.386-186.639-107.852 34.709 24.904 77.263 39.566 123.242 39.566 116.883 0 211.636-94.753 211.636-211.637 0-44.57-13.778-85.922-37.307-120.03z" fill="#69bedb"/><path d="M337.285 80.341c4.123.738 8.202 1.551 12.236 2.447z" fill="#9db74c"/><path d="M344.626 97.84c.631.556 1.259 1.128 1.885 1.708l.563-1.174c-.88 0-1.681-.218-2.448-.534m-9.788 11.33c6.75 0 16.862 10.511 22.053 7.25 7.142-4.487 5.377-8.686 7.312-11.048a211.341 211.341 0 0 0-15.782-5.454l-13.583 9.252m9.788-11.7a202.769 202.769 0 0 0-7.34-2.446c2.171 1.11 4.569 1.986 7.34 2.447" fill="#a9c14b"/><path d="M128.974 410.698c-25.887-33.629-41.291-75.749-41.291-121.475 0-68.057 34.11-128.134 86.154-164.084l.003-.001c2.123 4.172 6.524 15.707 6.575 16.775.356 7.401-4.69 10.327-8.43 17.362a61.755 61.755 0 0 0-.804 1.566c-42.07 36.537-68.673 90.428-68.673 150.537 0 36.166 9.631 70.08 26.466 99.32m294.082-257.75c-2.446-1.88-5.058-3.373-7.593-5.14.278.1.564.201.856.304a.384.384 0 0 0 .06.003c.122 0 .418-.007.848-.012.427-.006.98-.01 1.622-.01.685 0 3.021.006 3.846.025.06.167 2.309 2.53 2.38 2.724.663 1.799-.424 2.464.096 4.026zM385.9 130.746a197.443 197.443 0 0 0-45.985-14.962c-.923-.845-1.848-1.2-2.747-1.2-.569 0-1.128.142-1.67.393a200.557 200.557 0 0 0-32.538-2.851c1.236-1.56.3-4.448 1.352-4.448 9.704 0 21.144-3.018 26.45-10.844-.714 0-4.651.026-8.136.026-2.99 0-5.646-.02-5.646-.091 0-1.85-.33-3.4-.347-4.58h.004a198.02 198.02 0 0 1 22.348 4.682c1.886.832 3.952 1.502 6.369 1.837.887.272 1.77.55 2.652.834l-13.263 9.641c.179 0 .36.01.545.025 5.674.484 13.502 8.187 18.713 8.187.835 0 1.601-.196 2.284-.654 6.97-4.675 5.254-9.048 7.138-11.512a198.326 198.326 0 0 1 22.449 11.072l.002.001.003.003c1.664 5.624 3.005 13.158.745 14.089a7.43 7.43 0 0 0-.722.352m-105.207-31.47a840.087 840.087 0 0 1-3.421-.006l-.593.001h-.005c-2.033 0-2.505-4.077-1.345-5.148.185-.17 1.801-.228 3.74-.228 3.687 0 8.547.205 6.993.226 6.975-.01 8.55-.393 8.853-3.992h.002c4.056.161 8.084.435 12.074.834h.002c.467 7.88-16.067 8.313-26.3 8.313m-23.128-3.647c-1.512-.343-4.365-1.311-7.482-2.272 1.326-.248 2.659-.48 3.994-.701l3.488 2.973" fill="#ace2f4"/><path d="M354.556 117.048c-5.336 0-13.35-7.392-19.16-7.856 5.81.464 13.824 7.856 19.16 7.856.855 0 1.64-.19 2.338-.628 7.137-4.486 5.375-8.684 7.303-11.048a.022.022 0 0 0 .006.003c-1.929 2.363-.172 6.56-7.309 11.045-.698.44-1.483.628-2.338.628m-19.718-7.88l13.58-9.25c-4.528 3.083-9.053 6.167-13.58 9.25" fill="#afc558"/><path d="M284.962 93.799l-.578.002c.228 0 .419 0 .578-.002" fill="#c7d79b"/><g fill="#00b364"><path d="M345.171 88.093c2.68-1.874 5.23-4.493 6.2-5.729-3.756-1.138-6.577-2.038-10.415-2.974-.28.087-2.37 1.128-2.64 1.222-5.205 1.817-5.967 2.006-5.113 5.283-2.022-.812-3.957-1.749-5.737-2.839h-24.931c14.848 16.367-11.328 16.33-23.806 16.296-.793-.003-1.531-.005-2.2-.003-2.044.006-2.52-4.077-1.356-5.148.538-.496 13.155-.034 10.774-.002 10.178-.014 8.902-.815 8.902-11.143-10.12 7.436-9.767 0-21.244 0-10.764 0-16.044.59-25.486 4.82l9.223 7.831c-3.871-.875-16.499-5.812-19.95-4.347-1.606.683-2.02 4.949-4.006 4.949-8.02 0-29.844 4.371-29.844-4.793 0-.042-.758-.772-1.01-.807-19.8 8.442-37.357 19.864-53.576 33.525 10.378-1.704 21.18-.515 23.33-.515.957 0 7.55 16.962 7.613 18.269.357 7.4-4.708 10.327-8.463 17.36-6.836 12.811-9.854 29.589-9.09 43.974.028.52 8.609 8.215 8.609 11.265 0 12.771 1.342 12.977 10.144 22.386V221.31c5.249 13.714 11.593 18.991 16.334 32.408 5.379 15.225 26.636 3.532 33.859 13.56 3.18 4.417 9.115 2.392 11.949 6.702l7.69 11.7c4.636 7.051 10.289 4.607 18.572 4.607 7.957 0-7.241 27.396-7.241 29.704 0 9.5 13.01 31.124 12.929 34.928-.242 11.278 13.89 12.86 21.563 19.806 6.144 5.601 1.763 21.47 1.572 28.506-.162 5.933 1.12 11.258 2.94 16.376 1.675 4.713 3.8 9.248 5.706 13.908.332.816.66 1.635.976 2.46.137.36.264.727.398 1.09.253.69.499 1.384.734 2.082a57.445 57.445 0 0 1 1.015 3.366c.097.352.196.703.285 1.058.273 1.092.521 2.195.717 3.323 1.008 5.772-1.217 12 .071 17.531 1.324 5.683 6.218 9.22 6.146 15.501-.113 9.703 27.262 11.526 32.565 11.526-.025-.017-19.984-10.33-19.984-9.093 0-9.208 4.754-8.568 4.757-14.184.002-6.67-6.074-12.165-2.279-21.604 4.104-10.207 3.64-9.897 14.738-9.897a65.892 65.892 0 0 0-2.15-13.856c9.917-15.404 32.989-30.227 39.097-34.382 8.295-5.651 3.65-20.9 7.239-29.024 3.153-7.141 12.714-13.738 13.175-22.524a9.68 9.68 0 0 0-.022-1.317l-.04-.3a7.496 7.496 0 0 0-.155-.91l-.067-.246a6.936 6.936 0 0 0-.304-.87l-.057-.13a6.287 6.287 0 0 0-.498-.891c-1.917-2.833-5.89-3.626-9.362-3.51-4.902.165-5.39-8.006-9.098-8.006-10.303 0-20.999-1.749-29.925-8.338-1.478-1.09-3.133-14.196-5.66-17.443-1.698-2.184-5.147-1.542-8.794-.902-4.122.725-8.499 1.45-10.883-1.908-1.7-2.392-5.715-11.77-8.458-11.77-3.736 0-24.312-3.988-28.636-.087.666-.6-7.021-2.925-8.115-2.925.47 0-26.442 13.892-26.442 6.679 0-9.352 4.577-21.438-6.552-21.438-17.89 0-2.67-4.635-2.67-12.803 0-10.477-17.325 2.875-26.453 2.885.242 0-10.277-17.19-5.234-17.19 3.62 0 4.184-7.35 6.87-10.48 7.067-8.233 19.134-9.095 27.628-7.547 3.439.63 15.906 15.042 15.941 18.014-.008-.709 5.082-3.952 5.769-5.002 2.458-3.756 1.069-5.377 1.684-9.138 2.06-12.626 2.584-15.124 12.69-22.797 7.428-5.638 17.806-12.113 23.634-19.41 4.445-5.567 8.606-8.46 15.067-11.624-.66.323 6.138 4.127 7.561 4.127 5.843 0 7.254-4.92 10.453-9.338H334.2c11.453-8.727-9.278-13.252 13.68-13.252 11.276 0 12.317.152 19.215-7.831-10.968 0-8.302-.072-8.302-11.205 0-1.852-3.1-8.65-6.058-5.751-8.091 7.927-7.8-1.452-11.342-6.722-4.58-6.817-9.521.199-11.432 4.332-2.369 5.123-21.834 13.136-21.791 19.828.026 3.92-6.401 3.761-6.284-.61.178-6.56-22.57-12.828-22.946-15.389-.495-3.382 11.26-12.497 21.484-12.497 4.696 0 2.396-5.42 3.843-5.42 9.741 0 21.225-3.018 26.55-10.844-1.329 0-13.834.09-13.834-.065 0-4.449-1.907-7.163 3.21-7.163 12.014 0 15.573 9.336 28.764 9.336-4.716 3.413-9.428 6.828-14.143 10.24 6.62 0 16.534 10.958 21.624 7.558 9.396-6.277 3.062-12.015 10.874-13.307.837.876 1.963 1.718 3.834 2.376 2.442.86 11.236 2.427 12.73 4.65 1.8 2.68 6.377 18.553 3.015 19.933-5.458 2.241-21.445 19.503-9.217 23.812 9.45 3.329 11.874-.87 20.284-6.112 7.817-4.875 9.944-3.083 18.744.017.015.006.352-.002.912-.01a99.712 99.712 0 0 1 4.937.046c2.486.092 5.16-1.86 6.686-1.322 4.423 1.559 6.018 2.713 6.75 1.685.498-.698.597-3.578.911-3.466 3.098 1.09 9.068 4.057 12.953 2.364-23.204-26.41-50.203-47.433-83.788-60-5.712-.75-14.286-.437-20.892.609z"/><path d="M273.18 235.104c-1.47 1.533-2.942 3.064-4.413 4.597 13.727 0 22.082 4.595 34.259 4.595-8.172-13.291-14.577-9.192-29.845-9.192m44.405 11.682c-10.252-.364-10.729 1.466-17.007 9.72 5.401 0 10.804.017 16.206.025 4.685.007 4.035-9.63.801-9.745m17.252 12.192c0-16.517-16.518 0 0 0"/></g><path d="M425.171 154.868c-2.261-1.773-2.238-4.947-2.238-6.365 2.485.058 4.171-.383 6.01.088 12.37 12.181 24.882 27.617 33.702 42.592-10.772-13.678-23.476-25.795-37.474-36.315z" fill="#ace2f4"/><path d="M350.145 492.586c-5.327 0-32.83-1.829-32.717-11.562.073-6.303-4.844-9.85-6.174-15.552-1.294-5.549.941-11.796-.071-17.587a46.396 46.396 0 0 0-.72-3.333c-.09-.357-.19-.708-.288-1.061-.2-.743-.413-1.48-.642-2.21a74.5 74.5 0 0 0-.376-1.167c-.237-.7-.484-1.397-.738-2.09-.135-.363-.262-.73-.4-1.092a124.86 124.86 0 0 0-.98-2.468c-1.915-4.671-4.047-9.22-5.73-13.94 42.85-17.647 78.761-48.594 102.537-87.674.187.277.351.575.498.892l.057.13c.12.276.22.567.306.873l.067.246c.07.29.12.596.156.914l.04.3c.034.42.047.856.022 1.322-.463 8.814-10.069 15.432-13.237 22.596-3.605 8.15 1.062 23.448-7.272 29.117-6.137 4.168-29.316 19.039-39.28 34.492a66.015 66.015 0 0 1 2.161 13.9h-1.8c-9.311 0-9.12.276-13.006 9.929-3.813 9.47 2.292 14.982 2.29 21.674-.003 5.633-4.78 4.991-4.78 14.229 0-.07.065-.104.185-.104 2.02 0 19.868 9.21 19.892 9.226m79.728-343.466a7.655 7.655 0 0 0-.606-.182c-1.822-.475-3.873-.376-6.334-.435-5.43-14.931-15.089-31.584-23.532-44.77 18.48 11.35 37.253 26.14 51.54 43.588-1.633.71-3.99 1.182-5.991 1.182-2.784 0-5.57-.534-7.381-1.17a.176.176 0 0 0-.064-.012c-.268 0-.387.65-.85 1.3-.464.65-1.273 1.3-2.92 1.3-.967 0-2.22-.223-3.862-.8z" fill="#01a95f"/></g></svg>