<svg height="577" viewBox="0 0 577 577" width="577" xmlns="http://www.w3.org/2000/svg"><g fill="none" fill-rule="evenodd" transform="translate(3 2.954313)"><g fill-rule="nonzero"><path d="m285.5 571c-157.677001 0-285.5-127.824325-285.5-285.502962s127.822999-285.497038 285.5-285.497038 285.5 127.818401 285.5 285.497038-127.822999 285.502962-285.5 285.502962z" fill="#1b2d4d" stroke="#f79b00" stroke-width="5"/><path d="m286 528.045687c-133.652659 0-242-108.348465-242-242.002511s108.347341-241.9974889 242-241.9974889 242 108.3434429 242 241.9974889-108.347341 242.002511-242 242.002511z" fill="#fff"/><path d="m77.94305 95.5460123v-11.1994029h2.8239182c2.4869734 0 4.717227.6578446 4.717227 3.4336278 0 2.6795133-2.1500286 3.4978078-4.717227 3.4978078h-.5615746v4.2679673zm2.2623436-9.498634v3.5138528h.4011247c1.524274 0 2.5671984-.3369448 2.5671984-1.7649489 0-1.3317341-.8824745-1.7489039-2.5671984-1.7489039zm8.744252 2.8078732h.0320899c.4332148-1.0910593 1.2033743-1.7649488 2.3746585-1.7649488.2567199 0 .4813497.0160449.7059796.0962699l-.048135 1.8451738c-.2406748-.0802249-.4653047-.1123149-.7380695-.1123149-1.4440491 0-2.1500286 1.1071043-2.1500286 3.2571329v3.3694479h-2.1821187v-5.8082863c0-.8664295-.0160449-1.7649489-.0802249-2.4548835h2.0216687c.03209.3690348.06418 1.1231493.06418 1.572409zm7.9259575-1.7649488c2.5190634 0 4.2840119 1.7168139 4.2840119 4.3481922 0 2.5832433-1.7649485 4.3000572-4.3481919 4.3000572-2.5671983 0-4.3481922-1.7489038-4.3481922-4.3161022 0-2.6634683 1.7649489-4.3321472 4.4123722-4.3321472zm-.06418 1.5884539c-1.2835991 0-2.0537586.9947894-2.0537586 2.7597383 0 1.620544.8022494 2.6634683 2.0377137 2.6634683 1.2835991 0 2.1018936-1.0429243 2.1018936-2.7436933 0-1.7007689-.7862045-2.6795133-2.0858487-2.6795133zm6.2091439-2.9683231v-2.0537587h2.150028v2.0537587zm-1.428004 13.3173416.080225-1.604499c.09627.016045.240674.03209.320899.03209.818295 0 1.02688-.4492598 1.02688-1.620544v-8.5519796h2.150028v8.8407894c0 1.9735337-.914564 2.9843681-2.695558 2.9843681-.304855 0-.609709-.016045-.882474-.0802249zm13.172669-7.0116606h-5.535522c.03209 1.2675542 1.05897 2.0858487 2.551154 2.0858487.914564 0 1.716814-.2406749 2.406748-.6738896l.03209 1.7649489c-.705979.3369448-1.652634.5455296-2.695558.5455296-2.711603 0-4.492597-1.5884539-4.492597-4.3642372 0-2.4869734 1.652634-4.2840122 4.139607-4.2840122 2.390704 0 3.626168 1.428004 3.626168 4.4123721 0 .12836-.016045.4011248-.03209.5134397zm-5.567612-1.476139h3.626168c0-1.3477792-.673889-1.9253988-1.732859-1.9253988-.946654 0-1.780994.6417996-1.893309 1.9253988zm12.94804-3.128773-.16045 1.6365889c-.38508-.1604499-.77016-.2567198-1.299644-.2567198-1.620544 0-2.470929 1.1712842-2.470929 2.6153333 0 1.4921841.77016 2.5992884 2.519064 2.5992884.497394 0 .930609-.080225 1.395914-.2888099l.112315 1.684724c-.54553.1764948-1.042925.2567198-1.748904.2567198-2.743693 0-4.524687-1.636589-4.524687-4.2037873 0-2.6634683 2.037713-4.2679673 4.460507-4.2679673.673889 0 1.203374.06418 1.716814.2246299zm2.406481 1.460094h-1.588454v-1.588454h1.620544v-1.7328589l2.021668-.6899345v2.4227934h1.973534v1.588454h-1.973534v3.225043c0 1.2515092.240675 1.8130838 1.2836 1.8130838.25672 0 .545529-.048135.786204-.1283599l.048135 1.6526339c-.401125.1444049-.930609.2085849-1.476139.2085849-1.893309 0-2.695558-.9306094-2.695558-3.112728zm12.835724 3.144818h-5.535521c.03209 1.2675542 1.058969 2.0858487 2.551153 2.0858487.914565 0 1.716814-.2406749 2.406749-.6738896l.03209 1.7649489c-.70598.3369448-1.652634.5455296-2.695559.5455296-2.711603 0-4.492597-1.5884539-4.492597-4.3642372 0-2.4869734 1.652634-4.2840122 4.139607-4.2840122 2.390704 0 3.626168 1.428004 3.626168 4.4123721 0 .12836-.016045.4011248-.03209.5134397zm-5.567611-1.476139h3.626167c0-1.3477792-.673889-1.9253988-1.732858-1.9253988-.946655 0-1.780994.6417996-1.893309 1.9253988zm15.162248-7.1239755v9.6590838c0 .8664295.016045 1.7809939.080225 2.4709285h-1.957489c-.03209-.3850798-.048135-.8985195-.048135-1.4440491h-.03209c-.593665 1.0589693-1.476139 1.6365889-2.759738 1.6365889-2.214209 0-3.578033-1.7007689-3.578033-4.3161022 0-2.5511534 1.428004-4.3321472 3.594078-4.3321472 1.235464 0 2.085848.5776196 2.599288 1.476139h.03209c-.03209-.6257546-.048135-1.492184-.048135-2.2944335v-2.8560082zm-4.139608 5.3269366c-1.187329 0-1.941443 1.1391943-1.941443 2.6795133s.754114 2.6634683 1.957488 2.6634683c1.235465 0 2.037714-1.1391943 2.037714-2.6474233 0-1.556364-.802249-2.6955583-2.053759-2.6955583z" fill="#f79b00" transform="matrix(.74314483 -.66913061 .66913061 .74314483 -32.169248 98.720243)"/><path d="m118.6407 108.228v1.908522l-3.153913-.048522v9.429391h-2.31287v-9.429391l-3.089217.048522v-1.908522zm.646687 5.094783-.08087-1.682087c.841044-.436696 2.005566-.646957 2.992174-.646957 2.587826 0 3.606783 1.326261 3.606783 3.396522 0 .630782-.032348 1.843826-.032348 2.474609 0 .986608.064696 2.102608.113217 2.652521h-1.892347c-.016174-.129391-.032348-.420521-.032348-.66313 0-.194087.016174-.469044.032348-.727826h-.032348c-.566087.938087-1.471826 1.552695-2.862783 1.552695-1.617391 0-2.781913-.970434-2.781913-2.587826 0-1.746782 1.536522-2.717217 4.286087-2.717217.339652 0 .792522.016174 1.180696.048522 0-1.277739-.598435-1.843826-1.957044-1.843826-.873391 0-1.811478.307304-2.539304.744zm4.528696 2.361391c-.307305-.032348-.469044-.032348-.711653-.032348-1.714434 0-2.652521.355826-2.652521 1.326261 0 .727826.469043 1.132174 1.293913 1.132174 1.132174 0 2.070261-.711652 2.070261-2.426087zm6.129643-2.911304h.032348c.436696-1.099827 1.213043-1.779131 2.393739-1.779131.258783 0 .485217.016174.711652.097044l-.048522 1.86c-.242608-.08087-.469043-.113218-.744-.113218-1.455652 0-2.167304 1.116-2.167304 3.283305v3.396521h-2.199652v-5.854956c0-.873392-.016174-1.779131-.08087-2.474609h2.037913c.032348.372.064696 1.132174.064696 1.585044zm8.005817-.113218c-1.148347 0-1.924695 1.132174-1.924695 2.620174s.744 2.539304 1.940869 2.539304c1.229218 0 2.054087-1.099826 2.054087-2.555478 0-1.471826-.824869-2.604-2.070261-2.604zm2.199653-1.471826h2.005565v7.682609c0 2.490782-1.342435 4.237565-4.383131 4.237565-1.132173 0-2.232-.145565-3.315652-.549913l.161739-1.843826c1.035131.549913 2.037913.776348 2.976.776348 1.455653 0 2.458435-.82487 2.458435-2.620174 0-.274957 0-.566087.032348-.857218h-.032348c-.501391.841044-1.358609 1.504174-2.668695 1.504174-2.167305 0-3.590609-1.665913-3.590609-4.124348 0-2.587826 1.439478-4.399304 3.72-4.399304 1.293913 0 2.134956.630783 2.636348 1.520348h.032347c-.032347-.517565-.032347-.905739-.032347-1.326261zm11.6126 4.771304h-5.58c.032347 1.27774 1.067478 2.102609 2.571652 2.102609.921913 0 1.730609-.242609 2.426087-.679304l.032348 1.77913c-.711653.339652-1.665913.549913-2.717218.549913-2.733391 0-4.528695-1.601217-4.528695-4.399304 0-2.506957 1.665913-4.318435 4.172869-4.318435 2.409913 0 3.655304 1.439478 3.655304 4.447826 0 .129392-.016173.404348-.032347.517565zm-5.612348-1.488h3.655304c0-1.358608-.679304-1.940869-1.746782-1.940869-.954261 0-1.795305.646956-1.908522 1.940869zm8.038165-1.682087h-1.601217v-1.601217h1.633565v-1.746783l2.037913-.695478v2.442261h1.989391v1.601217h-1.989391v3.250957c0 1.261565.242609 1.827652 1.293913 1.827652.258783 0 .549913-.048522.792522-.129391l.048521 1.665913c-.404347.145565-.938087.210261-1.488.210261-1.908521 0-2.717217-.938087-2.717217-3.137739z" fill="#15243d" transform="matrix(.74314483 -.66913061 .66913061 .74314483 -42.916821 119.53386)"/></g><g transform="translate(70 70.045687)"><path d="m66.0712904 357.721182c1.152406 5.504176 2.304812 11.007096 3.4547155 16.512529 4.0703329 2.515153 8.0881132 5.026536 12.2122502 7.511522 2.4824902-1.630261 6.2425119-3.612469 8.4522285-5.166057 3.285796-2.311528 3.7149765-5.276668 1.093597-7.90369-2.4411988-3.215274-5.0825984-6.082373-7.6864604-9.200861-2.6051132-3.121003-5.3065731-6.379013-7.9091838-9.541494-3.2119719 2.586799-6.4239439 5.177369-9.617147 7.788051" fill="#3a332c"/><path d="m85.6479691 167.725076c-6.1355998 30.757784-5.3891061 56.716375-6.3634504 88.675205-.9756031 31.958831 1.0586868 67.575736 6.0449631 100.175041-7.1338621 2.09122-13.6886565 4.026379-20.3479349 5.593233-11.5725418-33.75291-21.3575269-72.799415-27.8607088-106.443706-6.5031818-33.64554-11.0803342-61.138525-10.0606716-94.21725 19.4365328 2.352154 38.7320751 3.93399 58.5878026 6.217477" fill="#6e6255"/><path d="m0 215.343465c0-118.9301765 96.4123205-215.343465 215.344089-215.343465 118.930521 0 215.342841 96.4132885 215.342841 215.343465 0 118.931424-96.41232 215.343465-215.342841 215.343465-118.9317685 0-215.344089-96.412041-215.344089-215.343465" fill="#90d4eb"/><path d="m326.27607 30.733924c62.563747 37.6757911 104.41086 106.256015 104.41086 184.609541 0 118.931424-96.41232 215.343465-215.342841 215.343465-79.782415 0-149.4309368-43.386027-186.6391146-107.851696 34.7090174 24.903483 77.2631216 39.565429 123.2418916 39.565429 116.883152 0 211.635751-94.752324 211.635751-211.636363 0-44.570163-13.777749-85.9225629-37.306547-120.030376z" fill="#69bedb"/><path d="m264.285162 7.34125449c4.123111.73745082 8.202032 1.55118966 12.235424 2.44708483z" fill="#9db74c"/><path d="m271.626416 24.8403581c.630929.5554883 1.258452 1.1281061 1.884272 1.7080652.188172-.3915336.375493-.7830671.562813-1.1746007-.880406 0-1.680774-.2177905-2.447085-.5334645" fill="#a9c14b"/><path d="m261.838077 36.169988c6.75071 0 16.862147 10.5112596 22.053338 7.2499669 7.141227-4.4871094 5.376909-8.6856512 7.31168-11.0478526-5.156846-2.0140122-10.420543-3.8348509-15.782187-5.4541692-4.527186 3.0836208-9.055645 6.1684341-13.582831 9.2520549" fill="#a9c14b"/><path d="m271.626416 24.4708483c-2.429699-.8615079-4.876783-1.6777616-7.341254-2.4470848 2.171806 1.1095686 4.56963 1.9861613 7.341254 2.4470848" fill="#a9c14b"/><path d="m55.9744036 337.697707c-25.8869563-33.628538-41.2918946-75.748428-41.2918946-121.474439 0-68.057608 34.1112898-128.1347615 86.154832-164.084095l.002485-.0012431c2.123491 4.1717138 6.524547 15.7073229 6.575491 16.7751126.355365 7.4011871-4.690566 10.3273535-8.4305941 17.3618375-.2746001.5158704-.5417449 1.0379562-.8039196 1.5662573-42.069721 36.5373017-68.6723769 90.4277387-68.6723769 150.5372127 0 36.165626 9.6308821 70.080068 26.4659772 99.319357m294.0818464-257.7506127c-2.44655-1.8795087-5.058465-3.3718218-7.593235-5.139455.278328.0994449.564111.2013759.856106.30455.003728.0012431.023609.0024861.059642.0024861.121768 0 .418734-.0062153.848651-.0111875.426189-.0062153.980359-.0111876 1.621507-.0111876.684636 0 3.021394.0062153 3.846436.0261043.060211.1665582 2.308505 2.5300415 2.379988 2.7238908.663131 1.7983124-.424696 2.4633734.095739 4.0253422zm-37.156849-22.2004717c-14.465583-6.7622536-29.879219-11.8327008-45.984946-14.9614861-.923203-.8452817-1.848891-1.2007973-2.747243-1.2007973-.569081 0-1.128221.1429521-1.669966.3940505-10.583906-1.8086542-21.454837-2.7819713-32.538242-2.8515827 1.236322-1.560042.300693-4.4476734 1.351877-4.4476734 9.704192 0 21.144204-3.0181529 26.449825-10.844467-.713215 0-4.650806.0261043-8.136114.0261043-2.989537 0-5.646075-.019889-5.646075-.0907435 0-1.8496752-.329272-3.3997727-.346667-4.5794379h.001242.002485c7.599339 1.1398872 15.057029 2.7086306 22.34822 4.6813689 1.886166.8316081 3.952501 1.5016181 6.36923 1.8372447.887169.2722304 1.769368.5506761 2.651567.8340941-4.420936 3.2133135-8.841873 6.4278701-13.262809 9.6411837.178925 0 .360335.0087014.545472.0248612 5.673411.4835508 13.501376 8.1868019 18.712565 8.1868019.834983 0 1.601626-.1964037 2.283777-.6538503 6.970617-4.6751536 5.254677-9.0482434 7.138359-11.5119909 7.74223 3.2282302 15.237196 6.9300669 22.448864 11.0719472l.002485.0012431c.001243.001243.002485.001243.002485.0024861 1.663754 5.6236094 3.005691 13.1578041.745521 14.088857-.223656.0932296-.464708.2100774-.721912.3517864m-105.207851-31.4693405c-.633693 0-1.241292-.0012431-1.821555-.0024861-.562868-.0024861-1.097158-.0037292-1.599142-.0037292-.203775 0-.401338 0-.592688.0012431-.001243 0-.003728 0-.004971 0-2.032785 0-2.504948-4.0772412-1.345664-5.1487601.185138-.1702994 1.801674-.2274802 3.74127-.2274802 3.686599 0 8.54615.2051051 6.99174.2262372 6.975587-.0111876 8.549877-.3928074 8.853056-3.992713h.002485c4.055631.161598 8.083927.4350715 12.073704.8340942h.002485c.467193 7.8810088-16.067209 8.3135941-26.30072 8.3135941m-23.127288-3.6471419c-1.512164-.343085-4.365023-1.3114297-7.482541-2.2723161 1.325784-.2473692 2.659023-.4798217 3.994748-.7010866 1.161769.9907199 2.324781 1.9826828 3.487793 2.9734027" fill="#ace2f4"/><path d="m281.55597 44.0475269c-5.335624 0-13.350511-7.3911776-19.159396-7.8551389 5.808885.4639613 13.823772 7.8551389 19.159396 7.8551389.854921 0 1.639871-.1896397 2.338311-.6273615 7.137066-4.4857542 5.375063-8.6840672 7.302453-11.0480036.002544.0011927.005089.0023854.006361.0023854-1.928662 2.3639365-.171748 6.559864-7.308814 11.0456182-.69844.4389145-1.48339.6273615-2.338311.6273615m-19.717893-7.8789929c4.526502-3.0831361 9.053005-6.1674648 13.579508-9.2506009-4.527775 3.0831361-9.053006 6.1674648-13.579508 9.2506009" fill="#afc558"/><path d="m211.961594 20.7989975-.577512.0024471c.227579 0 .418451 0 .577512-.0024471" fill="#c7d79b"/><g fill="#00b364"><path d="m272.171352 15.0925872c2.679138-1.8731973 5.230044-4.4927836 6.199173-5.72832318-3.755533-1.13858575-6.576883-2.038721-10.414736-2.97469815-.280636.08700982-2.370028 1.12819427-2.639438 1.22266209-5.204862 1.81726241-5.966945 2.00619803-5.113811 5.28273954-2.021827-.8116774-3.956344-1.7488975-5.7362-2.8390064h-24.931699c14.848761 16.3665487-11.327716 16.3305018-23.805414 16.2956979-.793265-.002486-1.531649-.004972-2.200187-.002486-2.044277.006215-2.520734-4.077032-1.355783-5.1484959.537574-.495956 13.154967-.0335609 10.773927-.001243 10.177731-.0149159 8.901773-.8154064 8.901773-11.143473-10.11911 7.4356114-9.767379 0-21.24352 0-10.763948 0-16.044894.5904239-25.486735 4.8191015 3.074523 2.6115379 6.147799 5.2218327 9.223569 7.8321276-3.871529-.8750703-16.498901-5.8122566-19.950099-4.3467625-1.606486.6824057-2.020579 4.9483733-4.006235 4.9483733-8.019952 0-29.843453 4.3716223-29.843453-4.7929986 0-.0422619-.75897-.7721854-1.009672-.8069894-19.800427 8.4424394-37.3575477 19.8646278-53.5770596 33.5251708 10.3785419-1.7041496 21.1810731-.5146009 23.330121-.5146009.9566566 0 7.5497316 16.9619445 7.6133416 18.2683349.35672 7.4008074-4.708448 10.3268236-8.4627332 17.3609467-6.8362922 12.8103327-9.854688 29.5883135-9.0901109 43.9735245.02744.519573 8.6086643 8.214971 8.6086643 11.265286 0 12.770557 1.3420636 12.976895 10.1440548 22.385143v-15.663012c5.248516 13.713992 11.593384 18.99176 16.334261 32.408675 5.378232 15.224234 26.635472 3.531356 33.858418 13.55986 3.180541 4.416371 9.115056 2.391528 11.948856 6.702243l7.690673 11.700336c4.636106 7.050282 10.288738 4.606549 18.571865 4.606549 7.956342 0-7.241655 27.395666-7.241655 29.703912 0 9.498988 13.010283 31.123416 12.929211 34.928231-.241971 11.277717 13.890857 12.85881 21.562821 19.805923 6.144056 5.600947 1.763641 21.469054 1.572808 28.505663-.162145 5.932827 1.12005 11.257829 2.939818 16.376493 1.675085 4.712203 3.799187 9.247902 5.706265 13.907899.331774.815407.659806 1.634542.975366 2.459892.137199.36047.264421.727154.397879 1.088866.253196.691107.498908 1.3847.734643 2.083264.128469.386572.251948.774388.374181 1.163446.228251.727153.440287 1.461765.63985 2.202592.097287.351768.197069.702293.285625 1.05779.273152 1.091352.521359 2.195134.717181 3.322533 1.007795 5.772481-1.217337 11.999898.071094 17.531237 1.323355 5.682985 6.217646 9.219313 6.145304 15.501423-.112254 9.702839 27.26285 11.525073 32.564999 11.525073-.024946-.016159-19.983776-10.32931-19.983776-9.092527 0-9.208126 4.754597-8.567982 4.757091-14.183845.002495-6.669925-6.074209-12.165217-2.278764-21.60454 4.103522-10.206253 3.639537-9.896747 14.737754-9.896747-.223261-4.692316-.940442-9.310052-2.150295-13.855694 9.917052-15.404468 32.98907-30.227214 39.096956-34.382555 8.2956-5.650667 3.650763-20.89976 7.239161-29.023992 3.153101-7.141021 12.714681-13.737609 13.174924-22.523116.024945-.464881.012472-.89993-.021204-1.317577l-.039913-.299563c-.036171-.316964-.086061-.622742-.155909-.911117l-.066105-.24487c-.086062-.305778-.185843-.595396-.304334-.870099l-.057375-.130514c-.14593-.316965-.31057-.614041-.497661-.89123-1.917055-2.832791-5.890861-3.625824-9.362016-3.508982-4.901775.164076-5.389458-8.006147-9.097594-8.006147-10.303706 0-20.999055-1.748898-29.925773-8.338028-1.478016-1.090108-3.133145-14.196275-5.658868-17.442984-1.698784-2.183947-5.147488-1.54256-8.794508-.902416-4.122231.724667-8.498905 1.449335-10.883687-1.908002-1.698783-2.391527-5.714995-11.769943-8.457744-11.769943-3.735577 0-24.311806-3.987536-28.636095-.08701.666043-.600368-7.020888-2.924773-8.114745-2.924773.470221 0-26.442145 13.89174-26.442145 6.678625 0-9.352313 4.577485-21.437978-6.551914-21.437978-17.890855 0-2.670407-4.635138-2.670407-12.802875 0-10.477226-17.324594 2.875053-26.452123 2.884997.24197 0-10.277513-17.190656-5.234797-17.190656 3.619581 0 4.184594-7.349844 6.871216-10.478469 7.06579-8.233616 19.133137-9.096256 27.627052-7.547481 3.438726.628957 15.906447 15.041513 15.941371 18.01352-.008731-.708508 5.081382-3.951489 5.768628-5.001822 2.458371-3.756338 1.068911-5.377207 1.683816-9.138518 2.060492-12.625126 2.584345-15.123551 12.690982-22.796575 7.427499-5.638237 17.804794-12.113011 23.633291-19.409406 4.445274-5.567386 8.60617-8.4598418 15.067033-11.6245135-.659806.3231793 6.137821 4.1267518 7.560957 4.1267518 5.843465 0 7.254128-4.9197843 10.453378-9.3373975h-10.144055c11.452442-8.7270858-9.278449-13.2528399 13.678821-13.2528399 11.276577 0 12.318048.1528887 19.215457-7.8308845-10.967254 0-8.301836-.0720939-8.301836-11.2043799 0-1.8520664-3.099468-8.6500199-6.057995-5.7513497-8.091047 7.9265954-7.800433-1.4518211-11.341435-6.7221307-4.579979-6.8165985-9.521667.1988796-11.432486 4.3318465-2.368567 5.1236358-21.833478 13.135998-21.791071 19.8282968.026193 3.9191713-6.400995 3.7613106-6.283751-.6090688.178359-6.561784-22.570616-12.8289777-22.946045-15.3895526-.495166-3.3821963 11.260363-12.4970973 21.484243-12.4970973 4.695975 0 2.396008-5.4207123 3.842842-5.4207123 9.741186 0 21.22481-3.0179981 26.550657-10.8439106-1.32959 0-13.834729.0894958-13.834729-.0646359 0-4.4486882-1.907078-7.1633949 3.210475-7.1633949 12.013714 0 15.572178 9.3361546 28.763316 9.3361546-4.715931 3.4132713-9.428121 6.8277855-14.142805 10.2410568 6.619267 0 16.533824 10.9570234 21.623937 7.5574251 9.395692-6.2771376 3.06205-12.0148143 10.873708-13.3075317.836919.8763132 1.963205 1.7178226 3.834111 2.3766113 2.442157.8601543 11.236664 2.4263312 12.730895 4.6500538 1.799812 2.6799027 6.376049 18.5529814 3.014654 19.9327086-5.458058 2.2411246-21.445577 19.5026315-9.217333 23.812104 9.450573 3.3287475 11.87402-.8700983 20.284368-6.1118189 7.816648-4.8750364 9.943245-3.0838769 18.743989.016159.014967.0062149.35173-.001243.911755-.008701 1.066572-.0143862 2.94158-.0287724 4.936635.0452128 2.48675.0922192 5.160012-1.8600813 6.686683-1.3221288 4.422823 1.5587189 6.018083 2.7125781 6.750231 1.6846192.497661-.6973217.596195-3.5777045.910508-3.4658347 3.098221 1.0901089 9.06766 4.0575015 12.952909 2.3645388-23.20423-26.4099688-50.202624-47.4335216-83.78789-60.0002268-5.712501-.7495275-14.286275-.4367998-20.891822.6085611z"/><path d="m200.180895 162.104454c-1.471369 1.532569-2.942739 3.063828-4.414109 4.596397 13.726894 0 22.081901 4.595087 34.259188 4.595087-8.172032-13.291434-14.577411-9.191484-29.845079-9.191484"/><path d="m244.586131 173.78629c-10.252018-.364663-10.728747 1.465559-17.007242 9.718824 5.401361 0 10.803896.017957 16.206432.026245 4.685093.006906 4.034581-9.630421.80081-9.745069"/><path d="m261.838077 185.978447c0-16.517823-16.517823 0 0 0"/></g><path d="m352.171084 81.8676376c-2.2614-1.7723289-2.237953-4.9468228-2.237953-6.3646374 2.485204.0581634 4.170864-.383047 6.010725.0884478 12.36908 12.1809005 24.881517 27.616257 33.701209 42.591475-10.772172-13.678298-23.476358-25.7951355-37.473981-36.3152854z" fill="#ace2f4"/><path d="m277.144602 419.585521c-5.326808 0-32.829227-1.828071-32.71645-11.561985.072678-6.302229-4.844376-9.849883-6.173885-15.551069-1.294423-5.549054.941057-11.796417-.071425-17.587385-.196732-1.131009-.446094-2.238326-.720516-3.333173-.088968-.356636-.189214-.708284-.286954-1.061179-.200491-.743199-.413513-1.480163-.642826-2.209646-.122801-.390304-.246855-.779361-.375921-1.167172-.236831-.700802-.483686-1.396616-.738059-2.089936-.134079-.36287-.261892-.730729-.39973-1.092353-.317027-.827994-.646585-1.649752-.979902-2.46777-1.914694-4.671182-4.047422-9.218913-5.729045-13.939973 42.84879-17.64724 78.760574-48.593506 102.536357-87.673812.186708.276829.35086.574857.49747.89159l.057641.130932c.119042.275583.219288.566129.30575.872885l.066412.245655c.070172.289299.120295.596056.156634.914035l.040099.300522c.033833.418985.046363.855427.021302 1.321797-.462384 8.813644-10.068432 15.431359-13.236197 22.595251-3.605088 8.150251 1.061352 23.448184-7.272829 29.116948-6.136292 4.168649-29.315614 19.038868-39.278787 34.492673 1.215479 4.5602 1.935995 9.192725 2.160295 13.900069-.637813 0-1.235529-.001247-1.800664-.001247-9.310323 0-9.118603.276829-13.005632 9.92969-3.813097 9.469555 2.291868 14.982447 2.289362 21.673733-.002506 5.633849-4.779215 4.991655-4.779215 14.229272 0-.069831.065159-.103499.185454-.103499 2.019952 0 19.867453 9.210183 19.891261 9.225147m79.727945-343.4652664c-.185455-.0648429-.388452-.1259448-.605234-.1820589-1.821966-.4750988-3.873149-.3765875-6.334182-.4351955-5.42956-14.9313206-15.08878-31.5835255-23.531977-44.7690762 18.480302 11.3487514 37.253017 26.1384189 51.539861 43.5869406-1.632752.7107778-3.990353 1.1821356-5.991509 1.1821356-2.783072 0-5.569904-.5337068-7.380592-1.1696658-.022556-.0087289-.043858-.0124698-.063907-.0124698-.268157 0-.387199.6496758-.850836 1.3005986-.463636.6496758-1.271867 1.2993516-2.919657 1.2993516-.966118 0-2.220443-.2232092-3.861967-.8005602z" fill="#01a95f"/></g></g></svg>