<svg height="28" width="41" xmlns="http://www.w3.org/2000/svg"><path d="M40.193 6.709l-4.33-4.518L37.747.989l.11-.937L36.983 0l-2.267 1.63-2.83.003-1.73-1.057-.62.126.008.688 1.117 1.236-.147.65-13.139 1.413-13.609-.38-1.466.615-1.08 1.372-.556 3.21-.098 2.309-.337 2.155.092 2.146.38.078.55-.606.448-2.014-.363-2.794.126-.02.853 4.254-.581 3.692.53 7.367.051.816.517.44 2.286.004.737-.222-2.046-3.33 1.015-4.23h.531l1.854 5.624.956 1.444.472.29 2.523.002.324-.406-2.185-1.341-1.48-4.562.37-.74.87.08.547 1.338.791-1.303.767 1.309.65-1.422 1.91-1.47 6.783-.649 1.139 1.392.96 6.804.504.978 2.311-.001.25-.366-1.405-1.956-.17-3.723.76.421.799 2.473 1.016 3.212.455.353 2.068.001.172-.467-.605-.56-1.95-3.81.45-3.993 2.185-1.617 3.183-5.911 3.663-1.692L39.66 8.9l.289-.313.471-1.329z" fill="#fff"/></svg>