<svg height="41" width="40" xmlns="http://www.w3.org/2000/svg"><path d="M24.364 35.807v1.198c0 .952-.694 1.745-1.598 1.88l-.293 1.087a1.345 1.345 0 0 1-1.296 1.004h-2.904c-.61 0-1.138-.414-1.297-1.004l-.284-1.087a1.903 1.903 0 0 1-1.607-1.889V35.8c0-.64.51-1.155 1.147-1.155h6.986a1.16 1.16 0 0 1 1.146 1.163zm5.38-16.137c0 2.723-1.07 5.194-2.81 7.006a9.284 9.284 0 0 0-2.46 5.025 1.66 1.66 0 0 1-1.64 1.408h-6.218c-.811 0-1.514-.59-1.631-1.4-.293-1.88-1.155-3.667-2.477-5.041a10.09 10.09 0 0 1-2.794-6.888c-.06-5.616 4.376-10.16 9.948-10.202 5.564-.042 10.082 4.494 10.082 10.092zm-8.885-6.113c0-.624-.502-1.138-1.13-1.138-3.983 0-7.23 3.263-7.23 7.285 0 .624.503 1.138 1.13 1.138.62 0 1.13-.506 1.13-1.138 0-2.766 2.234-5.008 4.97-5.008a1.13 1.13 0 0 0 1.13-1.139zm-1.13-7.293c.62 0 1.13-.505 1.13-1.138V1.138a1.129 1.129 0 1 0-2.26 0v3.988c0 .633.51 1.138 1.13 1.138zM6.434 19.662c0-.624-.502-1.139-1.13-1.139H1.346c-.619 0-1.13.506-1.13 1.139 0 .623.503 1.138 1.13 1.138h3.958a1.13 1.13 0 0 0 1.13-1.138zm31.678-1.139h-3.958c-.62 0-1.13.506-1.13 1.139 0 .623.502 1.138 1.13 1.138h3.958c.619 0 1.13-.506 1.13-1.138 0-.624-.503-1.139-1.13-1.139zM8.735 29.138l-2.803 2.825a1.14 1.14 0 0 0 0 1.61 1.124 1.124 0 0 0 1.59 0l2.802-2.824a1.14 1.14 0 0 0 0-1.61 1.11 1.11 0 0 0-1.59 0zm21.194-18.616c.284 0 .577-.11.794-.329l2.803-2.824a1.14 1.14 0 0 0 0-1.61 1.12 1.12 0 0 0-1.598 0l-2.803 2.824a1.14 1.14 0 0 0 0 1.61c.226.22.51.33.804.33zm-21.194-.337a1.124 1.124 0 0 0 1.59 0 1.14 1.14 0 0 0 0-1.61L7.52 5.75c-.443-.447-1.154-.447-1.598 0s-.443 1.164 0 1.61zm21.988 18.953a1.12 1.12 0 0 0-1.598 0 1.14 1.14 0 0 0 0 1.61l2.803 2.825a1.124 1.124 0 0 0 1.59 0 1.14 1.14 0 0 0 0-1.61z" fill="#fff"/></svg>