<svg height="20" width="44" xmlns="http://www.w3.org/2000/svg"><path d="M42.217 7.413c-.805-.27-6.403-1.497-6.403-1.497S25.437 0 24.192 0l-9.788.004c-2.088 0-3.832 1.595-5.851 3.44-.952.87-2.003 1.828-3.162 2.68l-4.316.575A1.552 1.552 0 0 0 0 8.175v4.958c0 .856.692 1.55 1.545 1.55h2.966c.215 2.488 2.303 4.447 4.84 4.447s4.625-1.96 4.84-4.448h14.162c.215 2.489 2.303 4.448 4.84 4.448s4.625-1.96 4.84-4.448h2.437c1.93 0 2.874-.836 3.111-1.62.599-1.986.168-5.135-1.364-5.65zM9.35 16.783a2.524 2.524 0 0 1 0-5.05 2.524 2.524 0 0 1 0 5.05zm9.346-10.866h-8.444a31.801 31.801 0 0 0 1.696-1.473c1.367-1.25 2.548-2.33 3.961-2.33h2.787zm2.056-3.805h2.444c1.164 0 5.884 2.748 7.655 3.805H20.753zm12.44 14.67a2.524 2.524 0 0 1 0-5.049 2.524 2.524 0 0 1 0 5.05z" fill="#fff"/></svg>