<svg height="33" viewBox="0 0 33 33" width="33" xmlns="http://www.w3.org/2000/svg"><path d="m493.499725 1401c-9.112442 0-16.499725 7.3875-16.499725 16.49972 0 9.11223 7.387283 16.50028 16.499725 16.50028s16.500275-7.38805 16.500275-16.50028c0-9.11222-7.387833-16.49972-16.500275-16.49972zm7.133289 19.63797h-6.995237c-.02365 0-.04565-.00572-.069081-.0066-.02343.0011-.045321.0066-.069081.0066-.630201 0-1.141159-.51096-1.141159-1.14116v-11.64931c0-.6302.510958-1.14115 1.141159-1.14115.6302 0 1.141159.51095 1.141159 1.14115v10.50815h5.9918c.6302 0 1.141159.51096 1.141159 1.14116s-.510519 1.14116-1.140719 1.14116z" fill="#fff" transform="translate(-477 -1401)"/></svg>