<svg height="40" width="40" xmlns="http://www.w3.org/2000/svg"><path d="M19.635 9.8c-5.424 0-9.836 4.412-9.836 9.836 0 5.423 4.412 9.836 9.836 9.836 5.422 0 9.835-4.412 9.835-9.836 0-5.425-4.413-9.837-9.835-9.837zm0-2.892a1.92 1.92 0 0 1-1.92-1.918V1.92a1.919 1.919 0 1 1 3.839 0v3.07a1.92 1.92 0 0 1-1.92 1.918zm0 25.452c-1.06 0-1.92.86-1.92 1.92v3.07a1.92 1.92 0 1 0 3.839 0v-3.07c0-1.06-.86-1.92-1.92-1.92zm8.998-21.724a1.92 1.92 0 0 1 0-2.714l2.171-2.172a1.919 1.919 0 1 1 2.714 2.714l-2.171 2.172c-.749.75-1.964.75-2.714 0zM10.636 28.635a1.917 1.917 0 0 0-2.714 0l-2.172 2.17a1.92 1.92 0 0 0 2.714 2.714l2.172-2.172c.75-.749.75-1.964 0-2.712zm21.724-9c0-1.06.86-1.92 1.92-1.92h3.07a1.919 1.919 0 1 1 0 3.838h-3.07c-1.06 0-1.92-.858-1.92-1.918zm-25.452 0c0-1.06-.86-1.92-1.92-1.92H1.92a1.919 1.919 0 1 0 0 3.838h3.07c1.06 0 1.919-.858 1.919-1.918zm21.725 9a1.92 1.92 0 0 1 2.714 0l2.171 2.171a1.918 1.918 0 1 1-2.714 2.713l-2.171-2.171a1.918 1.918 0 0 1 0-2.713zM10.636 10.636c.75-.75.75-1.965 0-2.714l-2.172-2.17A1.919 1.919 0 0 0 5.75 8.463l2.172 2.172c.75.75 1.964.75 2.714 0z" fill="#fff"/></svg>