<svg height="40" viewBox="0 0 40 40" width="40" xmlns="http://www.w3.org/2000/svg"><g fill="#fff"><path d="m19.6347826 9.79913043c-5.4234783 0-9.83565217 4.41304347-9.83565217 9.83652177 0 5.4234782 4.41217387 9.8365217 9.83565217 9.8365217 5.4226087 0 9.8356522-4.4121739 9.8356522-9.8365217 0-5.4243479-4.4130435-9.83652177-9.8356522-9.83652177z"/><path d="m19.6347826 6.90782609c-1.06 0-1.9191304-.85913044-1.9191304-1.91826087v-3.07043479c0-1.05999999.8591304-1.91913043 1.9191304-1.91913043s1.9191304.85913044 1.9191304 1.91913043v3.07043479c0 1.05913043-.86 1.91826087-1.9191304 1.91826087z"/><path d="m19.6347826 32.3608696c-1.06 0-1.9191304.8591304-1.9191304 1.9191304v3.0695652c0 1.0608696.8591304 1.92 1.9191304 1.92s1.9191304-.8591304 1.9191304-1.92v-3.0695652c0-1.06-.86-1.9191304-1.9191304-1.9191304z"/><path d="m28.6330435 10.6356522c-.7486957-.74956524-.7486957-1.96434785 0-2.71391307l2.1713043-2.17130435c.7486957-.74869565 1.9643479-.74869565 2.7139131 0 .7495652.74956522.7495652 1.96521739 0 2.71391305l-2.1713044 2.17130437c-.7486956.7495652-1.9634782.7495652-2.713913 0z"/><path d="m10.6356522 28.6347826c-.74956524-.7504348-1.96434785-.7504348-2.71391307 0l-2.17130435 2.1704348c-.74869565.7486956-.74956521 1.9652174 0 2.713913.74956522.7486957 1.96521739.7486957 2.71391305 0l2.17130437-2.1721739c.7495652-.7486956.7495652-1.9643478 0-2.7121739z"/><path d="m32.3608696 19.6347826c0-1.06.8591304-1.9191304 1.9191304-1.9191304h3.0704348c1.06 0 1.9191304.8591304 1.9191304 1.9191304s-.8591304 1.9182609-1.9191304 1.9182609h-3.0704348c-1.06 0-1.9191304-.8582609-1.9191304-1.9182609z"/><path d="m6.90782609 19.6347826c0-1.06-.85913044-1.9191304-1.91913044-1.9191304h-3.06956522c-1.05999999 0-1.91913043.8591304-1.91913043 1.9191304s.85913044 1.9182609 1.91913043 1.9182609h3.07043479c1.05913043 0 1.91826087-.8582609 1.91826087-1.9182609z"/><path d="m28.6330435 28.6347826c.7495652-.7486956 1.9652174-.7486956 2.713913 0l2.1713044 2.1713044c.7495652.747826.7495652 1.9643478 0 2.7130434-.7495652.7486957-1.9643479.7486957-2.7139131 0l-2.1713043-2.1713043c-.7495652-.7495652-.7495652-1.9643478 0-2.7130435z"/><path d="m10.6356522 10.6356522c.7495652-.74956524.7495652-1.96434785 0-2.71391307l-2.17130437-2.17043478c-.74956522-.74956522-1.96434783-.74956522-2.71391305 0-.74956521.74869565-.74956521 1.96434782 0 2.71304348l2.17130435 2.17130437c.74956522.7504348 1.96434783.7504348 2.71391307 0z"/></g></svg>