<svg height="20" viewBox="0 0 44 20" width="44" xmlns="http://www.w3.org/2000/svg"><path d="m42.2167999 7.4128711c-.8047463-.2697705-6.4025825-1.49637877-6.4025825-1.49637877s-10.377029-5.91649233-11.6224014-5.91649233c-1.2453725 0-9.7881187.00380667-9.7881187.00380667-2.0872255 0-3.8315349 1.59470566-5.85113712 3.44101039-.95181267.86993086-2.00240985 1.82734322-3.16124733 2.678959l-4.31593.57538112c-.62365328.1993831-1.07538285.78446045-1.07538285 1.47576532v4.9580026c0 .8556379.69170642 1.549313 1.5451644 1.549313h2.96575575c.21540609 2.4886975 2.30327636 4.4481967 4.84036897 4.4481967 2.53694938 0 4.62496288-1.959571 4.84036898-4.4481249h14.1612849c.2154061 2.4886975 2.3032763 4.4481249 4.840369 4.4481249 2.5370926 0 4.6249628-1.959571 4.8403689-4.4481249h2.4365173c1.93056 0 2.8739198-.83603 3.1108163-1.6207777.5990109-1.9858586.1681271-5.13497669-1.3642146-5.6486611zm-32.86551078 9.36921c-1.38828401 0-2.51782283-1.1323753-2.51782283-2.5243222 0-1.3919468 1.12939555-2.5244658 2.51782283-2.5244658 1.38828398 0 2.51767958 1.1323753 2.51767958 2.5244658.0000716 1.3919469-1.1293956 2.5243222-2.51767958 2.5243222zm9.34605978-10.86544512h-8.4439617c.610759-.48380568 1.1754568-.99734644 1.6956693-1.47274871 1.3672233-1.24987921 2.5480527-2.32939217 3.9609791-2.32939217 0 0 1.2786827-.00057459 2.7873133-.001221zm2.0560644-3.80415194c1.0450096-.00035912 1.9765496-.00064642 2.4438956-.00064642 1.1637087 0 5.883731 2.74826904 7.65519 3.80487018h-10.0990856zm12.439827 14.66959706c-1.388284 0-2.5176795-1.1323753-2.5176795-2.5243222 0-1.3919468 1.1293955-2.5244658 2.5176795-2.5244658s2.5178228 1.1323753 2.5178228 2.5244658c0 1.3919469-1.1295388 2.5243222-2.5178228 2.5243222z" fill="#fff"/></svg>