<svg height="37" viewBox="0 0 38 37" width="38" xmlns="http://www.w3.org/2000/svg"><g fill="#fff"><path d="m29.4025116 23.8732147h8.5974884c-.0669708-.2702026-.4635773-.9068603-3.3804321-6.0012817-.303833-.530838-.9790497-.7178345-1.5122071-.4180603l-4.606491 2.5851898c-.5392456.3026733-.7285615.9871673-.4212494 1.5238037zm-4.694336 2.2288818v-1.505249c0-.995285-1.2112731-1.4881439-1.9079437-.7807464l-5.2289428 5.3080902c-.4305268.4371948-.4261781 1.1399536.010437 1.5719299l5.228363 5.1767578c.7010193.6940613 1.8980865.1988831 1.8980865-.7911834v-1.5110474l8.1608735-.0089874c.426178-.0005799.8146667-.2441102 1.0010834-.6279603 1.7183379-3.5430755 2.7321777-5.6122131 3.3276672-6.8429107-12.6583557.0142059-12.4896241.0113067-12.4896241.0113067z"/><path d="m10.6999664 20.9682464 1.3373871.7497254c.8691712.4864807 1.8934479-.3287659 1.613678-1.2849121l-2.0911713-7.1197815c-.1716308-.5824432-.7784271-.9210663-1.3643493-.7598724l-7.12557989 1.9563598c-.95875551.2649841-1.11473081 1.5600433-.24932861 2.0447846l1.32781982.743637-4.00230406 7.0232392c-.2136688.3748627-.19134521.8387298.05653384 1.1912689 4.15682979 5.9093781 3.07514948 4.3716584 4.36383056 6.2039337.54011538-.9483185 5.59249874-9.7989044 6.13348384-10.7483826zm3.4636384 6.2424927c0-.6059265-.4908295-1.1118316-1.1147309-1.1118316l-2.7188415.0023193-4.22554021 7.4160766c.23773193.0817567-.06001284.0565339 6.95018001.0510254.6157837-.0005798 1.114151-.4995269 1.1132813-1.1147308z"/><path d="m30.2090607 6.79681396-1.3330384.76828007-4.1136322-6.98033148c-.2006225-.33920284-.5659179-.54765317-.960205-.54765317h-8.0747681c.4438629.75291441 6.199585 10.52601622 6.642868 11.27835082l-1.3121643.7561036c-.8648224.4974974-.6847839 1.8027038.2881775 2.0447845l7.2630005 1.8044433c.5998383.1472779 1.1906891-.2139587 1.3449249-.7935028l1.8876496-7.07977289c.254837-.95556641-.7761079-1.7447205-1.6328125-1.25070195zm-20.002243.17221074c-.31369026.53286739-.133072 1.21968073.4024047 1.52902218l4.5740204 2.64143372c.5319977.3064423 1.208374.1249543 1.5171356-.3992157l1.3753662-2.33499146-4.3600616-7.39433287z"/></g></svg>