<svg height="28" viewBox="0 0 41 28" width="41" xmlns="http://www.w3.org/2000/svg"><path d="m40.1928806 6.70864464-4.3303709-4.51760468 1.8847573-1.20206407.1100083-.93684448-.8742361-.05213141-2.2672515 1.63077519-2.8292061.00245026-1.7319119-1.05749869-.6203384.12665313.0091252.68750933 1.1163894 1.23645222-.1471846.64948805-13.1382976 1.41295547-13.60900101-.38004388-1.46652323.61476195-1.08022698 1.3726529-.5557867 3.21068636-.09817941 2.30797651-.33686859 2.155131.09260295 2.1465128.37886099.0774789.5507172-.6063127.44772176-2.0140298-.36289205-2.7939731.12623067-.0190106.85302867 4.2534835-.58104974 3.6914444.53052368 7.3673423.05052606.8158523.517005.4410469 2.28592419.0035486.73659904-.2228047-2.04512271-3.3304112 1.01457688-4.2293188.53136859.0009294 1.85400239 5.6231792.95568614 1.443626.47146394.2902291 2.52334597.0018588.3237724-.4051379-2.18436511-1.3418134-1.48105582-4.5612024.37125673-.7404857.87001151.0807741.54623914 1.3375044.79126525-1.3037077.7666781 1.3092841.6494035-1.4216581 1.9114568-1.4693115 6.7829129-.6495725 1.1384418 1.3918325.9594882 6.8041203.5047537.977654 2.3111872-.0009294.2491662-.3663562-1.4047598-1.9552235-.1688145-3.7231288.7585669.4210224.7990385 2.4731579 1.0161822 3.2113623.455664.35326 2.067851.0012673.1716872-.4669858-.6045384-.5595044-1.9499006-3.8106622.4494961-3.9935869 2.1849566-1.6162426 3.1828041-5.911803 3.6633086-1.69118678 3.3687704-.38350804.2887928-.31312641.4714639-1.3287172z" fill="#fff"/></svg>