<svg height="37" width="38" xmlns="http://www.w3.org/2000/svg"><path d="M29.403 23.873H38c-.067-.27-.464-.907-3.38-6.001a1.114 1.114 0 0 0-1.513-.418l-4.606 2.585c-.54.303-.729.987-.421 1.524zm-4.695 2.23v-1.506c0-.995-1.211-1.488-1.908-.78l-5.229 5.307c-.43.437-.426 1.14.01 1.572l5.23 5.177c.7.694 1.897.199 1.897-.791V33.57l8.161-.01c.426 0 .815-.243 1.001-.627 1.718-3.543 2.732-5.613 3.328-6.843-12.659.014-12.49.011-12.49.011zM10.7 20.968l1.337.75c.87.486 1.894-.329 1.614-1.285l-2.091-7.12a1.115 1.115 0 0 0-1.364-.76L3.07 14.51c-.959.265-1.115 1.56-.25 2.045l1.328.743-4.002 7.023c-.214.375-.191.84.057 1.192l4.363 6.204c.54-.949 5.593-9.8 6.134-10.749zm3.464 6.243c0-.606-.491-1.112-1.115-1.112l-2.719.002-4.226 7.416c.238.082-.06.057 6.95.051.616 0 1.115-.5 1.114-1.114zM30.21 6.797l-1.334.768-4.114-6.98c-.2-.34-.566-.548-.96-.548h-8.075l6.643 11.278-1.312.757c-.865.497-.685 1.802.288 2.044l7.263 1.805c.6.147 1.191-.214 1.345-.794l1.888-7.08c.255-.955-.776-1.744-1.633-1.25zm-20.003.172a1.114 1.114 0 0 0 .402 1.529l4.574 2.641a1.115 1.115 0 0 0 1.517-.399l1.376-2.335-4.36-7.394z" fill="#fff"/></svg>