<svg height="88" viewBox="0 0 87 88" width="87" xmlns="http://www.w3.org/2000/svg" xmlns:xlink="http://www.w3.org/1999/xlink"><linearGradient id="a" x1="113.842773%" x2="26.123047%" y1="7.080078%" y2="65.534668%"><stop offset="0" stop-color="#fff"/><stop offset="1" stop-color="#fff" stop-opacity="0"/></linearGradient><radialGradient id="b" cx="50%" cy="50%" gradientTransform="matrix(0 .972222 -1 0 1 .013889)" r="51.428571%"><stop offset="0" stop-color="#eee"/><stop offset="1" stop-color="#fff" stop-opacity="0"/></radialGradient><g fill="none" fill-rule="evenodd" transform="translate(-.90116 -.425603)"><circle cx="44.402412" cy="44.067294" fill="#74c9e6" fill-rule="nonzero" r="43.5"/><g fill="#00b364"><path d="m76.0544567 14.6350375-4.6666667 3.0145867-7.7781493-1.5072933-4.6666667-1.5072934-6.2218506 1.5072934-4.6666667-1.5072934 3.1103679-6.03133438h6.2229654l6.0981048-2.95407888c4.7023412 2.2539168 8.9565218 5.29551596 12.5685619 8.98541326"/><path d="m3.58396777 30.290406c4.06863778-11.6418523 12.90889123-21.01668924 24.15443783-25.7397787l3.6766824 2.50909982 9.1091623 1.54956861-1.5189191 4.64759577-4.5545811 1.5484586-4.5545812 7.744513-7.5913313 4.6453758-10.6269934 1.5495686v4.6464859l3.0367501 3.0969172v6.1960544l-4.5545812-3.0980272-4.55458117-3.0980272z"/><path d="m43.5242266 51.3959286-1.5234455 7.5865069-6.0959661 6.0685531v4.5516866l-6.0948741 4.5516866v7.5854195l-4.5714286-1.5168664-3.047983-7.5865069v-15.1719263l-7.6194117-1.5168664-3.046891-6.0696405v-4.5516866l3.046891-3.0337329 4.5714286-4.552774 3.0479831 6.0685531h10.6663026l4.5714286 7.5875942z"/><path d="m79.7544379 69.4677353-3.5377996-3.4825155v-6.0623372l-3.0790219-6.0634235-3.0779188-6.0634234v-6.0634235l-4.6179814-3.0306254-6.1580439 1.516399-10.7749222-4.5481108-1.5389594-10.6093616 4.6179814-4.5470245h9.2359627l3.0779188 4.5470245 9.2359628 1.5153127 9.2370659-3.0317117.0101082-.0056193c3.4889609 6.1926974 5.476318 13.3231289 5.476318 20.9117754 0 9.3282947-3.0029753 17.9642082-8.1066706 25.0170648z"/></g><g transform="translate(4.902412 4.567294)"><path d="m.00023469 39.3623687c.07393417 21.6000985 17.60668731 39.0880661 39.22498271 39.0880661 3.6194022 0 7.1228804-.4928913 10.4503261-1.4099783-1.6203587.2035109-3.2742065.3941413-4.9486631.3091305-17.9398695-.9127935-35.83680431-16.3135-36.38808692-37.9698044-.55061326-21.6057901 9.15385132-32.78742045 25.79902072-39.01888617 1.7534505-.2379796 3.5434638-.36089643 5.3621858-.36089643 21.8152476 0 39.5 17.6847524 39.5 39.5s-17.6847524 39.5-39.5 39.5-39.5-17.6847524-39.5-39.5c0-.0458938.00007827-.0917693.00023468-.1376264z" fill="url(#a)" fill-rule="nonzero" opacity=".575172"/><path d="m34.2638578.56428571c-19.3203626 2.42513878-34.2638578 18.86285609-34.2638578 38.78168289 0 21.588356 17.5546798 39.0897457 39.2106877 39.0897457 3.6180615 0 7.120242-.491189 10.4464552-1.4051086-1.6197585.202808-3.2729937.39278-4.94683.3080627-17.9332244-.9096409-35.82352984-16.2571582-36.37460825-37.8386684-.55193678-21.5909232 9.20438275-32.73595055 25.92815315-38.93571429z" fill="#101b30" opacity=".101766"/></g><ellipse cx="59.957426" cy="24.720679" fill="url(#b)" fill-rule="nonzero" opacity=".75" rx="17.5" ry="18"/><g fill="#101b30" transform="translate(17.073422 24.597448)"><path d="m37.7841186 26.7642028c0 5.7615238-4.5791935 10.4319048-10.2282258 10.4319048-5.6481451 0-10.2273387-4.670381-10.2273387-10.4319048s4.5791936-.6849048 10.2273387-.6849048c5.6490323 0 10.2282258-5.076619 10.2282258.6849048"/><path d="m12.4362154 15.6817742c0-3.9067619-2.3880645-7.07252379-5.335-7.07252379-2.94693548 0-5.335 3.16576189-5.335 7.07252379 0 3.9058572 2.38806452 7.0725238 5.335 7.0725238 2.9469355 0 5.335-3.1666666 5.335-7.0725238"/><path d="m53.8006509 15.6817742c0-3.9067619-2.3880645-7.07252379-5.335-7.07252379s-5.335 3.16576189-5.335 7.07252379c0 3.9058572 2.3880645 7.0725238 5.335 7.0725238s5.335-3.1666666 5.335-7.0725238"/><path d="m1.83452185 5.41091708s1.36258065-.37004762 3.33637097-.76995238c2.6675-.5392381 6.45185488-1.13276191 9.50258068-.93733334 5.3075.33838096 1.5071774-5.3127619-7.64766132-3.249-9.15572581 2.06285715-7.55540323 5.52085715-5.19129033 4.95628572"/><path d="m52.3396025 5.41091708s-1.3616936-.37004762-3.3354839-.76995238c-2.6675-.5392381-6.4518548-1.13276191-9.5025806-.93733334-5.3083871.33838096-1.5080645-5.3127619 7.6476613-3.249 9.1548387 2.06285715 7.5554032 5.52085715 5.1904032 4.95628572"/></g></g></svg>