<svg height="26" width="26" xmlns="http://www.w3.org/2000/svg"><g fill="none"><circle cx="13" cy="13" fill="#cf8300" r="13"/><path d="M11.822 15.248v-.651c0-.42.056-.791.168-1.113s.287-.609.525-.861.451-.448.64-.588.445-.308.767-.504c.42-.266.714-.458.882-.578s.35-.325.546-.619.294-.63.294-1.008c0-.476-.192-.878-.578-1.208-.385-.329-.948-.493-1.69-.493-1.624 0-2.492.931-2.604 2.793L8 10.187c.042-1.568.521-2.824 1.438-3.77C10.356 5.473 11.696 5 13.46 5c1.456 0 2.656.392 3.601 1.176s1.418 1.764 1.418 2.94c0 .49-.06.927-.178 1.313s-.298.717-.536.997-.465.504-.682.672-.487.35-.809.546a8.558 8.558 0 0 1-.315.189l-.325.189c-.05.028-.144.087-.284.179s-.234.16-.283.21-.126.118-.231.21-.175.171-.21.241l-.126.252c-.05.098-.084.2-.105.305s-.032.213-.032.325v.504zm-.168 4.767v-2.982h3.129v2.982z" fill="#fff"/></g></svg>