<svg height="26" viewBox="0 0 26 26" width="26" xmlns="http://www.w3.org/2000/svg"><g fill="none"><circle cx="13" cy="13" fill="#cf8300" r="13"/><path d="m11.822 15.248v-.651c0-.4200021.0559994-.7909984.168-1.113s.2869988-.6089987.525-.861.4514991-.4479993.6405-.588.4444984-.307999.7665-.504c.4200021-.2660013.7139992-.4584994.882-.5775s.349999-.3254985.546-.6195.294-.62999811.294-1.008c0-.47600238-.1924981-.87849835-.5775-1.2075-.3850019-.32900164-.9484963-.4935-1.6905-.4935-1.6240081 0-2.4919994.93099069-2.604 2.793l-2.772-.231c.04200021-1.56800784.52149541-2.82449527 1.4385-3.7695.9170046-.94500472 2.2574912-1.4175 4.0215-1.4175 1.4560073 0 2.6564953.39199608 3.6015 1.176s1.4175 1.76399412 1.4175 2.94c0 .49000245-.0594994.9274981-.1785 1.3125s-.2974988.7174986-.5355.9975-.4654989.5039992-.6825.672-.4864984.349999-.8085.546c-.0420002.0280001-.1469992.0909995-.315.189s-.2764998.1609999-.3255.189-.1434993.0874995-.2835.1785-.2344998.1609998-.2835.21-.1259995.1189995-.231.21-.1749998.1714997-.21.2415l-.126.252c-.0490002.0980005-.0839999.1994995-.105.3045s-.0315.2134994-.0315.3255v.504zm-.168 4.767v-2.982h3.129v2.982z" fill="#fff"/></g></svg>