<?xml version="1.0" encoding="UTF-8" standalone="no"?>
<!DOCTYPE svg PUBLIC "-//W3C//DTD SVG 1.1//EN" "http://www.w3.org/Graphics/SVG/1.1/DTD/svg11.dtd">
<svg width="40px" height="39px" version="1.1" xmlns="http://www.w3.org/2000/svg" xmlns:xlink="http://www.w3.org/1999/xlink" xml:space="preserve" xmlns:serif="http://www.serif.com/" style="fill-rule:evenodd;clip-rule:evenodd;stroke-linejoin:round;stroke-miterlimit:2;">
    <g transform="matrix(0.392157,0,0,0.39,0.392157,0)">
        <path d="M89.222,92.111L89.222,95.444L53,95.444L53,92.111L89.222,92.111M93.889,87.444L48.333,87.444L48.333,92.778L42.222,92.778L42.222,100L100,100L100,92.889L93.889,92.889L93.889,87.444Z" style="fill:white;fill-rule:nonzero;"/>
        <path d="M85,40.556C83,38.556 80.111,38.222 77.778,39.222L49.111,10.667C50.222,8.333 49.778,5.444 47.778,3.444L44.333,0L16.111,28.222L19.556,31.667C20.778,32.889 22.444,33.556 24.111,33.556C25,33.556 25.889,33.333 26.778,33L36.889,43.111L2.556,74.222C0.889,75.778 0,77.778 -0.111,80C-0.111,82.222 0.667,84.333 2.222,85.889C3.778,87.444 5.778,88.222 7.889,88.222L8.111,88.222C10.333,88.222 12.444,87.222 13.889,85.556L45,51.222L55.111,61.333C54,63.667 54.444,66.556 56.444,68.556L59.889,72L88.111,43.778L85,40.556ZM22.667,28.222L44.333,6.556L44.556,6.667C45.333,7.444 45.333,8.556 44.556,9.333L25.444,28.444C24.667,29.222 23.556,29.222 22.778,28.444L22.667,28.222ZM10.667,82.667C10,83.333 9.111,83.778 8.222,83.778C7.222,83.778 6.333,83.444 5.667,82.778C5,82.111 4.667,81.222 4.667,80.222C4.667,79.222 5.111,78.333 5.778,77.778L40.222,46.444L42,48.222L10.667,82.667ZM58.333,58L30.333,30L46.111,14.222L74.111,42.222L58.333,58ZM60.111,65.778L60,65.556C59.222,64.778 59.222,63.667 60,62.889L79.111,43.778C79.889,43 81,43 81.778,43.778L81.889,43.889L60.111,65.778Z" style="fill:white;fill-rule:nonzero;"/>
    </g>
</svg>
